<svg xmlns="http://www.w3.org/2000/svg" xmlns:xlink="http://www.w3.org/1999/xlink" width="86.255" height="85.634" viewBox="0 0 86.255 85.634">
  <defs>
    <linearGradient id="linear-gradient" x1="0.001" y1="0.501" x2="1.002" y2="0.501" gradientUnits="objectBoundingBox">
      <stop offset="0" stop-color="#33af4e"/>
      <stop offset="0.12" stop-color="#2ca663"/>
      <stop offset="0.556" stop-color="#1a8397"/>
      <stop offset="0.858" stop-color="#1d69a9"/>
      <stop offset="1" stop-color="#215eab"/>
    </linearGradient>
    <linearGradient id="linear-gradient-2" y1="0.5" x2="1.056" y2="0.5" gradientUnits="objectBoundingBox">
      <stop offset="0" stop-color="#12845a"/>
      <stop offset="0.017" stop-color="#13845c"/>
      <stop offset="0.504" stop-color="#18718e"/>
      <stop offset="0.842" stop-color="#1d64a5"/>
      <stop offset="1" stop-color="#215eab"/>
    </linearGradient>
    <linearGradient id="linear-gradient-3" x1="0" y1="0.5" x2="1.024" y2="0.5" xlink:href="#linear-gradient-2"/>
    <linearGradient id="linear-gradient-4" x1="0" y1="0.5" x2="1.004" y2="0.5" xlink:href="#linear-gradient-2"/>
  </defs>
  <g id="new_logo_bl" transform="translate(-247.295 5)">
    <g id="그룹_416" data-name="그룹 416" transform="translate(267.342 16.77)">
      <path id="패스_963" data-name="패스 963" d="M171.558,16.8c-1.428,12.461-20.12,22.586-20.12,22.586C117.559,54.314,110.03,74.434,109.9,74.694a44.055,44.055,0,0,0,66.2-38.163A42.409,42.409,0,0,0,171.558,16.8Z" transform="translate(-109.9 -16.8)" fill="url(#linear-gradient)"/>
    </g>
    <g id="그룹_417" data-name="그룹 417" transform="translate(247.295 -5)">
      <path id="패스_964" data-name="패스 964" d="M149.161,2.2A41.343,41.343,0,0,0,96.72,28.159,40.381,40.381,0,0,0,98.8,59.7,40.5,40.5,0,0,0,111.647,74.89c1.168-1.817,2.466-3.635,3.764-5.452a35.858,35.858,0,0,1-10.644-12.591A34.809,34.809,0,0,1,147.084,8.429a34.207,34.207,0,0,1,19.99,17.524c.519,1.168,1.038,2.337,1.558,3.635a36.027,36.027,0,0,0,4.284-6.62A41.189,41.189,0,0,0,149.161,2.2Z" transform="translate(-94.456 -0.029)" fill="url(#linear-gradient-2)"/>
      <path id="패스_965" data-name="패스 965" d="M143.576,9.473a31.29,31.29,0,0,0-38.033,43.485,32.8,32.8,0,0,0,9.606,11.423c1.428-1.687,2.856-3.375,4.413-4.933a25.891,25.891,0,0,1-8.178-9.346,24.908,24.908,0,0,1-1.3-18.822A24.631,24.631,0,0,1,141.24,15.834,23.961,23.961,0,0,1,155.388,28.3a26.58,26.58,0,0,1,2.207,6.88,39.993,39.993,0,0,0,5.711-4.8,40.514,40.514,0,0,0-1.947-5.062A30.2,30.2,0,0,0,143.576,9.473Z" transform="translate(-92.116 2.301)" fill="url(#linear-gradient-3)"/>
      <path id="패스_966" data-name="패스 966" d="M138,16.759A21.131,21.131,0,0,0,112.3,46.1a20.569,20.569,0,0,0,7.529,8.437c1.687-1.558,3.5-3.115,5.322-4.543a14.47,14.47,0,0,1-6.88-6.75,14.806,14.806,0,0,1-.779-11.034,14.426,14.426,0,0,1,26.61-1.817,13.963,13.963,0,0,1,1.428,7.918c2.336-1.038,4.543-2.207,6.62-3.375a21.009,21.009,0,0,0-2.077-7.4A20.575,20.575,0,0,0,138,16.759Z" transform="translate(-89.785 4.621)" fill="url(#linear-gradient-4)"/>
    </g>
  </g>
</svg>
