<svg id="new_logo_bl" xmlns="http://www.w3.org/2000/svg" xmlns:xlink="http://www.w3.org/1999/xlink" width="482.302" height="94.092" viewBox="0 0 482.302 94.092">
  <defs>
    <linearGradient id="linear-gradient" x1="0.001" y1="0.501" x2="1.002" y2="0.501" gradientUnits="objectBoundingBox">
      <stop offset="0" stop-color="#33af4e"/>
      <stop offset="0.12" stop-color="#2ca663"/>
      <stop offset="0.556" stop-color="#1a8397"/>
      <stop offset="0.858" stop-color="#1d69a9"/>
      <stop offset="1" stop-color="#215eab"/>
    </linearGradient>
    <linearGradient id="linear-gradient-2" y1="0.5" x2="1.056" y2="0.5" gradientUnits="objectBoundingBox">
      <stop offset="0" stop-color="#12845a"/>
      <stop offset="0.017" stop-color="#13845c"/>
      <stop offset="0.504" stop-color="#18718e"/>
      <stop offset="0.842" stop-color="#1d64a5"/>
      <stop offset="1" stop-color="#215eab"/>
    </linearGradient>
    <linearGradient id="linear-gradient-3" x1="0" y1="0.5" x2="1.024" y2="0.5" xlink:href="#linear-gradient-2"/>
    <linearGradient id="linear-gradient-4" x1="0" y1="0.5" x2="1.004" y2="0.5" xlink:href="#linear-gradient-2"/>
  </defs>
  <g id="그룹_415" data-name="그룹 415" transform="translate(0 37.187)">
    <g id="그룹_413" data-name="그룹 413" transform="translate(0 0.001)">
      <path id="패스_953" data-name="패스 953" d="M14.226,20.53a7.181,7.181,0,0,1,4.6-1.313,6.166,6.166,0,0,1,4.6,1.532,5.754,5.754,0,0,1,1.751,4.377H36.332a12.423,12.423,0,0,0-2.189-7.441,13.9,13.9,0,0,0-6.128-5.034A23.419,23.419,0,0,0,19.041,10.9a24.569,24.569,0,0,0-9.192,1.532,15.387,15.387,0,0,0-6.347,4.6,10.516,10.516,0,0,0-2.189,6.785c0,5.034,3.064,9.192,8.973,12.038,1.751.875,4.158,1.751,7,2.845a23.152,23.152,0,0,1,6.128,2.845,4.675,4.675,0,0,1,1.751,3.721,3.455,3.455,0,0,1-1.532,3.283c-1.094.875-2.408,1.094-4.377,1.094-2.845,0-5.034-.657-6.128-1.751-1.313-1.094-1.97-3.064-1.97-5.472H0a14.517,14.517,0,0,0,2.189,8.1,14.278,14.278,0,0,0,6.785,5.472,25.04,25.04,0,0,0,10.068,1.97c5.253,0,9.411-1.094,12.475-3.5a11.041,11.041,0,0,0,4.6-9.411c0-5.034-2.408-8.973-7.441-11.819a47.636,47.636,0,0,0-7.879-3.283c-3.283-1.094-5.472-1.97-6.566-3.064a3.858,3.858,0,0,1-1.97-3.283A4.425,4.425,0,0,1,14.226,20.53Z" transform="translate(0 -10.9)" fill="#fff"/>
      <path id="패스_954" data-name="패스 954" d="M57.958,16.3A11.456,11.456,0,0,0,47.89,21.553c-1.532-3.5-4.377-5.253-8.755-5.253a11.851,11.851,0,0,0-9.849,4.6l-.438-3.94H19V51.1H29.724V27.243a4.955,4.955,0,0,1,4.6-2.845A4.53,4.53,0,0,1,37.6,25.492a6.581,6.581,0,0,1,.875,3.94V50.881H49.2V27.243A5.051,5.051,0,0,1,54.018,24.4,4.53,4.53,0,0,1,57.3,25.492a5.853,5.853,0,0,1,.875,3.721V50.881H68.9V28.775C68.463,20.458,64.962,16.3,57.958,16.3Z" transform="translate(22.584 -4.481)" fill="#fff"/>
      <path id="패스_955" data-name="패스 955" d="M73.9,28.338a10.721,10.721,0,0,0-3.94-8.755C67.337,17.394,64.054,16.3,59.677,16.3a18.28,18.28,0,0,0-10.724,3.064,9.409,9.409,0,0,0-4.158,8.1H55.3a3.349,3.349,0,0,1,3.721-3.721c2.626,0,4.158,1.532,4.158,4.815v1.751H59.9c-5.253,0-9.192.875-12.038,2.845A9.28,9.28,0,0,0,43.7,41.469a9.8,9.8,0,0,0,3.283,7.441A12.015,12.015,0,0,0,55.3,51.756a10.32,10.32,0,0,0,8.317-3.721A8.217,8.217,0,0,0,64.711,51.1H75.435v-.438A19.769,19.769,0,0,1,73.9,43.439ZM63.179,41.469a8.358,8.358,0,0,1-1.97,1.97,5.275,5.275,0,0,1-3.283.875,3.029,3.029,0,0,1-3.283-3.283c0-3.283,1.751-5.034,5.472-5.034h3.064Z" transform="translate(51.944 -4.481)" fill="#fff"/>
      <path id="패스_956" data-name="패스 956" d="M70.605,21.334l-.438-4.377H60.1V51.1H70.824V29.432c.875-2.189,3.064-3.064,6.347-3.064l3.5.219.219-9.849a11.408,11.408,0,0,0-3.064-.438C74.983,16.3,72.356,18.051,70.605,21.334Z" transform="translate(71.438 -4.481)" fill="#fff"/>
      <path id="패스_957" data-name="패스 957" d="M89.4,47.718a4.966,4.966,0,0,1-2.845-.657,3.8,3.8,0,0,1-.657-2.626V28.677h5.69V21.236H85.9V12.7H75.177v8.536H70.8v7.441h4.377V45.749q0,5.253,2.626,7.879c1.751,1.751,4.377,2.626,8.1,2.626a16.773,16.773,0,0,0,5.909-.875v-7.66Z" transform="translate(84.156 -8.76)" fill="#fff"/>
    </g>
    <g id="그룹_414" data-name="그룹 414" transform="translate(193.235 0)">
      <path id="패스_958" data-name="패스 958" d="M.2,38.4v7.879H12.675V80.641H22.962V46.279H40.033V80.641H50.32V46.279H63.014V38.4Z" transform="translate(-0.2 -35.992)" fill="#fff"/>
      <path id="패스_959" data-name="패스 959" d="M48.447,49.994a10.048,10.048,0,0,0-8.1,3.94V37.3H30.5V81.948h9.849V59.405a4.556,4.556,0,0,1,4.158-1.97,5.139,5.139,0,0,1,3.5,1.094A5.8,5.8,0,0,1,49.1,62.251V81.729h9.849V61.813c0-3.94-.875-7-2.626-8.973A11.535,11.535,0,0,0,48.447,49.994Z" transform="translate(35.816 -37.3)" fill="#fff"/>
      <rect id="사각형_114" data-name="사각형 114" width="9.849" height="31.298" transform="translate(100.678 13.351)" fill="#fff"/>
      <path id="패스_960" data-name="패스 960" d="M51.372,37.5a6.111,6.111,0,0,0-3.94,1.313,4.081,4.081,0,0,0-1.532,3.5,4.355,4.355,0,0,0,1.532,3.5,6.566,6.566,0,0,0,7.879,0,4.081,4.081,0,0,0,1.532-3.5,4.355,4.355,0,0,0-1.532-3.5A6.111,6.111,0,0,0,51.372,37.5Z" transform="translate(54.121 -37.062)" fill="#fff"/>
      <path id="패스_961" data-name="패스 961" d="M71.785,43.1a10.711,10.711,0,0,0-8.973,4.158l-.219-3.721H53.4v31.3h9.849V52.949a4.5,4.5,0,0,1,4.158-2.189,4.755,4.755,0,0,1,3.5,1.094c.657.657.875,1.97.875,3.5V75.273h9.849V55.138c0-3.94-.875-6.785-2.408-8.755C77.475,43.975,75.068,43.1,71.785,43.1Z" transform="translate(63.036 -30.406)" fill="#fff"/>
      <path id="패스_962" data-name="패스 962" d="M89.111,43.757l-.438,2.626a9.324,9.324,0,0,0-7.66-3.283,11.783,11.783,0,0,0-6.785,1.97,13.276,13.276,0,0,0-4.6,5.69A20.14,20.14,0,0,0,68.1,59.077v.438c0,4.815,1.094,8.755,3.5,11.819a11.615,11.615,0,0,0,9.192,4.377,9.1,9.1,0,0,0,7-3.064v.875q0,6.566-6.566,6.566a8.744,8.744,0,0,1-7.223-3.283L69.851,82.5A12.841,12.841,0,0,0,74.885,86a17.835,17.835,0,0,0,6.785,1.313,24.765,24.765,0,0,0,8.536-1.532,13.276,13.276,0,0,0,5.69-4.6,12.728,12.728,0,0,0,1.97-7.223v-30.2Zm-.875,22.324a5.228,5.228,0,0,1-4.6,2.189,4.74,4.74,0,0,1-4.158-2.189,12.024,12.024,0,0,1-1.532-6.128c0-3.064.438-5.253,1.532-6.785a5.311,5.311,0,0,1,8.755-.219Z" transform="translate(80.509 -30.406)" fill="#fff"/>
    </g>
  </g>
  <g id="그룹_416" data-name="그룹 416" transform="translate(410.31 23.672)">
    <path id="패스_963" data-name="패스 963" d="M176.945,16.8c-1.553,13.55-21.878,24.56-21.878,24.56-36.839,16.232-45.026,38.11-45.167,38.392a47.9,47.9,0,0,0,71.985-41.5A46.114,46.114,0,0,0,176.945,16.8Z" transform="translate(-109.9 -16.8)" fill="url(#linear-gradient)"/>
  </g>
  <g id="그룹_417" data-name="그룹 417" transform="translate(388.512 0)">
    <path id="패스_964" data-name="패스 964" d="M153.941,2.387A44.955,44.955,0,0,0,96.917,30.617a43.909,43.909,0,0,0,2.258,34.3A44.039,44.039,0,0,0,113.149,81.43c1.27-1.976,2.682-3.952,4.093-5.928a38.99,38.99,0,0,1-11.574-13.691A37.851,37.851,0,0,1,151.683,9.163a37.2,37.2,0,0,1,21.737,19.055c.565,1.27,1.129,2.541,1.694,3.952a39.176,39.176,0,0,0,4.658-7.2A44.787,44.787,0,0,0,153.941,2.387Z" transform="translate(-94.456 -0.029)" fill="url(#linear-gradient-2)"/>
    <path id="패스_965" data-name="패스 965" d="M147.182,9.615A34.024,34.024,0,0,0,105.826,56.9,35.661,35.661,0,0,0,116.27,69.321c1.553-1.835,3.105-3.67,4.8-5.364a28.153,28.153,0,0,1-8.892-10.163,27.084,27.084,0,0,1-1.411-20.466,26.783,26.783,0,0,1,33.875-16.8,26.054,26.054,0,0,1,15.385,13.55,28.9,28.9,0,0,1,2.4,7.481,43.485,43.485,0,0,0,6.21-5.222,44.047,44.047,0,0,0-2.117-5.5A32.843,32.843,0,0,0,147.182,9.615Z" transform="translate(-91.226 3.188)" fill="url(#linear-gradient-3)"/>
    <path id="패스_966" data-name="패스 966" d="M140.435,16.858a22.977,22.977,0,0,0-27.947,31.9,22.366,22.366,0,0,0,8.187,9.175c1.835-1.694,3.811-3.388,5.787-4.94a15.734,15.734,0,0,1-7.481-7.34,16.1,16.1,0,0,1-.847-12,15.686,15.686,0,0,1,28.935-1.976,15.183,15.183,0,0,1,1.553,8.61c2.541-1.129,4.94-2.4,7.2-3.67a22.844,22.844,0,0,0-2.258-8.045A22.372,22.372,0,0,0,140.435,16.858Z" transform="translate(-88.008 6.39)" fill="url(#linear-gradient-4)"/>
  </g>
</svg>
