<svg xmlns="http://www.w3.org/2000/svg" xmlns:xlink="http://www.w3.org/1999/xlink" width="567" height="237.667" viewBox="0 0 567 237.667">
  <defs>
    <linearGradient id="linear-gradient" x1="0.002" y1="0.501" x2="1.002" y2="0.501" gradientUnits="objectBoundingBox">
      <stop offset="0" stop-color="#33af4e"/>
      <stop offset="0.12" stop-color="#2ca663"/>
      <stop offset="0.556" stop-color="#1a8397"/>
      <stop offset="0.858" stop-color="#1d69a9"/>
      <stop offset="1" stop-color="#215eab"/>
    </linearGradient>
    <linearGradient id="linear-gradient-2" y1="0.5" x2="1.056" y2="0.5" gradientUnits="objectBoundingBox">
      <stop offset="0" stop-color="#12845a"/>
      <stop offset="0.017" stop-color="#13845c"/>
      <stop offset="0.504" stop-color="#18718e"/>
      <stop offset="0.842" stop-color="#1d64a5"/>
      <stop offset="1" stop-color="#215eab"/>
    </linearGradient>
    <linearGradient id="linear-gradient-3" x1="0" y1="0.5" x2="1.025" y2="0.5" xlink:href="#linear-gradient-2"/>
    <linearGradient id="linear-gradient-4" x1="0.001" y1="0.5" x2="1.005" y2="0.5" xlink:href="#linear-gradient-2"/>
  </defs>
  <g id="new_logo_wh" transform="translate(0.001 12.434)">
    <g id="그룹_410" data-name="그룹 410" transform="translate(275.931 38.026)">
      <g id="그룹_408" data-name="그룹 408">
        <path id="패스_939" data-name="패스 939" d="M101.774,26.249q2.616-2.093,7.326-2.093c3.14,0,5.581.7,7.326,2.442a9.172,9.172,0,0,1,2.791,6.977h17.791a19.8,19.8,0,0,0-3.488-11.86,22.151,22.151,0,0,0-9.767-8.023,37.325,37.325,0,0,0-14.3-2.791A39.159,39.159,0,0,0,94.8,13.342a24.525,24.525,0,0,0-10.116,7.326,16.761,16.761,0,0,0-3.488,10.814c0,8.023,4.884,14.651,14.3,19.186,2.791,1.4,6.628,2.791,11.163,4.535a36.9,36.9,0,0,1,9.767,4.535,7.451,7.451,0,0,1,2.791,5.93c0,2.442-.7,4.186-2.442,5.233-1.744,1.4-3.837,1.744-6.977,1.744-4.535,0-8.023-1.046-9.767-2.791-2.093-1.744-3.14-4.884-3.14-8.721H79.1a23.137,23.137,0,0,0,3.488,12.907A22.757,22.757,0,0,0,93.4,82.76a39.91,39.91,0,0,0,16.046,3.14c8.372,0,15-1.744,19.884-5.581,4.884-3.488,7.326-8.721,7.326-15,0-8.023-3.837-14.3-11.86-18.837a75.924,75.924,0,0,0-12.558-5.233c-5.232-1.744-8.721-3.14-10.465-4.884a6.15,6.15,0,0,1-3.14-5.233A10.7,10.7,0,0,1,101.774,26.249Z" transform="translate(-79.1 -10.9)" fill="#fff"/>
        <path id="패스_940" data-name="패스 940" d="M160.541,16.3a18.259,18.259,0,0,0-16.046,8.372c-2.442-5.581-6.977-8.372-13.953-8.372q-9.942,0-15.7,7.326l-.7-6.279H98.1V71.765h17.093V33.742c1.744-3.14,4.186-4.535,7.326-4.535a7.221,7.221,0,0,1,5.232,1.744c1.047,1.4,1.4,3.488,1.4,6.279V71.416h17.093V33.742a8.05,8.05,0,0,1,7.674-4.535,7.221,7.221,0,0,1,5.232,1.744c1.047,1.4,1.4,3.14,1.4,5.93V71.416h17.093V36.184C177.285,22.928,171.355,16.3,160.541,16.3Z" transform="translate(-31.821 2.537)" fill="#fff"/>
        <path id="패스_941" data-name="패스 941" d="M170.69,35.486c0-5.93-2.093-10.465-6.279-13.953s-9.419-5.233-16.4-5.233-12.558,1.744-17.093,4.884A15,15,0,0,0,124.3,34.091h17.093c0-3.837,2.093-5.93,5.93-5.93,4.186,0,6.628,2.442,6.628,7.674v2.791h-5.233c-8.372,0-14.651,1.4-19.186,4.535S122.9,50.486,122.9,56.416a15.622,15.622,0,0,0,5.232,11.86c3.488,3.14,8.023,4.535,13.256,4.535a16.449,16.449,0,0,0,13.256-5.93,13.1,13.1,0,0,0,1.744,4.884h17.093v-.7c-1.4-2.791-2.093-6.628-2.442-11.512V35.486Zm-16.744,20.93a13.321,13.321,0,0,1-3.139,3.139,8.407,8.407,0,0,1-5.232,1.4,4.828,4.828,0,0,1-5.233-5.233c0-5.233,2.791-8.023,8.721-8.023h4.884v8.721Z" transform="translate(29.889 2.537)" fill="#fff"/>
        <path id="패스_942" data-name="패스 942" d="M156.044,24.323l-.7-6.977H139.3V71.765h17.093V37.23c1.4-3.488,4.884-4.884,10.116-4.884l5.581.349.349-15.7a18.182,18.182,0,0,0-4.884-.7C163.021,16.3,158.835,19.091,156.044,24.323Z" transform="translate(70.698 2.537)" fill="#fff"/>
        <path id="패스_943" data-name="패스 943" d="M179.651,68.513a7.915,7.915,0,0,1-4.535-1.047q-1.047-1.047-1.047-4.186V38.165h9.07V26.3h-9.07V12.7H156.977V26.3H150v11.86h6.977V65.374q0,8.372,4.186,12.558c2.791,2.791,6.977,4.186,12.907,4.186a26.733,26.733,0,0,0,9.419-1.4V68.513Z" transform="translate(97.323 -6.421)" fill="#fff"/>
      </g>
      <g id="그룹_409" data-name="그룹 409" transform="translate(1.047 92.092)">
        <path id="패스_944" data-name="패스 944" d="M116.028,38.4H79.4V50.958H99.283v54.767H115.33V50.958h27.558v54.767h16.4V50.958h20.232V38.4H116.028Z" transform="translate(-79.4 -34.563)" fill="#fff"/>
        <path id="패스_945" data-name="패스 945" d="M138.2,57.532A16.015,16.015,0,0,0,125.3,63.811V37.3H109.6v71.162h15.7V72.532c1.4-2.093,3.488-3.14,6.628-3.14a8.191,8.191,0,0,1,5.581,1.744,9.237,9.237,0,0,1,1.744,5.93v31.046h15.7V76.369c0-6.279-1.4-11.163-4.186-14.3C147.972,59.277,143.786,57.532,138.2,57.532Z" transform="translate(-4.252 -37.3)" fill="#fff"/>
        <rect id="사각형_113" data-name="사각형 113" width="15.698" height="49.883" transform="translate(160.464 21.279)" fill="#fff"/>
        <path id="패스_946" data-name="패스 946" d="M133.821,37.5a9.739,9.739,0,0,0-6.279,2.093,6.5,6.5,0,0,0-2.442,5.581,6.941,6.941,0,0,0,2.442,5.581,10.465,10.465,0,0,0,12.558,0,6.505,6.505,0,0,0,2.442-5.581,6.941,6.941,0,0,0-2.442-5.581A9.739,9.739,0,0,0,133.821,37.5Z" transform="translate(34.317 -36.802)" fill="#fff"/>
        <path id="패스_947" data-name="패스 947" d="M161.8,43.1c-5.93,0-10.814,2.093-14.3,6.628l-.349-5.93H132.5V93.681h15.7V58.8a7.179,7.179,0,0,1,6.628-3.488c2.791,0,4.535.7,5.581,1.744s1.4,3.14,1.4,5.581V94.379h15.7V62.286c0-6.279-1.4-10.814-3.837-13.953C171.221,44.5,167.035,43.1,161.8,43.1Z" transform="translate(52.731 -22.868)" fill="#fff"/>
        <path id="패스_948" data-name="패스 948" d="M180.788,44.146l-.7,4.186c-2.791-3.488-6.977-5.233-12.209-5.233a18.78,18.78,0,0,0-10.814,3.14,21.16,21.16,0,0,0-7.326,9.07A32.1,32.1,0,0,0,147.3,68.565v.7c0,7.674,1.744,13.953,5.581,18.837a18.512,18.512,0,0,0,14.651,6.977A14.505,14.505,0,0,0,178.7,90.193v1.4q0,10.465-10.465,10.465a13.936,13.936,0,0,1-11.512-5.233l-6.628,9.07a20.468,20.468,0,0,0,8.023,5.581,28.426,28.426,0,0,0,10.814,2.093,39.471,39.471,0,0,0,13.6-2.442,21.159,21.159,0,0,0,9.07-7.326,20.286,20.286,0,0,0,3.139-11.512V44.146Zm-1.4,35.581c-1.4,2.093-3.837,3.488-7.326,3.488a7.555,7.555,0,0,1-6.628-3.488A19.164,19.164,0,0,1,163,69.96c0-4.884.7-8.372,2.442-10.814s3.837-3.837,6.628-3.837c3.488,0,5.581,1.047,7.326,3.488Z" transform="translate(89.558 -22.868)" fill="#fff"/>
      </g>
    </g>
    <g id="그룹_411" data-name="그룹 411" transform="translate(53.723 53.607)">
      <path id="패스_949" data-name="패스 949" d="M181.1,16.8c-3.837,33.488-54.069,60.7-54.069,60.7C35.981,117.613,15.749,171.682,15.4,172.38A118.391,118.391,0,0,0,193.305,69.823,113.967,113.967,0,0,0,181.1,16.8Z" transform="translate(-15.4 -16.8)" fill="url(#linear-gradient)"/>
    </g>
    <g id="그룹_412" data-name="그룹 412" transform="translate(-0.001 -5.001)">
      <path id="패스_950" data-name="패스 950" d="M146.862,5.933C118.606-3.485,88.607-1.741,62.1,11.514A109.716,109.716,0,0,0,5.933,75.7c-9.419,28.256-7.674,58.255,5.581,84.767A108.84,108.84,0,0,0,46.049,201.28c3.14-4.884,6.628-9.767,10.116-14.651a96.362,96.362,0,0,1-28.6-33.837A93.545,93.545,0,0,1,141.281,22.677,91.926,91.926,0,0,1,195,69.77c1.4,3.14,2.791,6.279,4.186,9.767A96.819,96.819,0,0,0,210.7,61.747,108.646,108.646,0,0,0,146.862,5.933Z" transform="translate(0.001 0.001)" fill="url(#linear-gradient-2)"/>
      <path id="패스_951" data-name="패스 951" d="M118.711,12.216A84.13,84.13,0,0,0,12.316,64.89C4.991,86.169,6.735,108.843,16.5,129.075a88.134,88.134,0,0,0,25.814,30.7c3.837-4.535,7.674-9.07,11.86-13.256A69.578,69.578,0,0,1,32.2,121.4,66.937,66.937,0,0,1,28.712,70.82C40.223,36.285,77.9,17.8,112.432,29.309A64.391,64.391,0,0,1,150.455,62.8a71.428,71.428,0,0,1,5.93,18.488,107.479,107.479,0,0,0,15.349-12.907,108.867,108.867,0,0,0-5.232-13.6C157.083,34.541,139.99,19.541,118.711,12.216Z" transform="translate(19.432 19.532)" fill="url(#linear-gradient-3)"/>
      <path id="패스_952" data-name="패스 952" d="M90.529,18.662A56.786,56.786,0,0,0,21.46,97.5a55.277,55.277,0,0,0,20.232,22.674c4.535-4.186,9.419-8.372,14.3-12.209A38.885,38.885,0,0,1,37.506,89.825a39.789,39.789,0,0,1-2.093-29.651C42.39,39.941,64.367,28.779,84.6,35.755c9.767,3.488,17.791,10.116,22.325,19.535a37.521,37.521,0,0,1,3.837,21.279c6.279-2.791,12.209-5.93,17.791-9.07a56.459,56.459,0,0,0-5.581-19.884A55.291,55.291,0,0,0,90.529,18.662Z" transform="translate(38.892 38.899)" fill="url(#linear-gradient-4)"/>
    </g>
    <text id="IoT_environmental_sensor" data-name="IoT environmental sensor" transform="translate(254.999 -12.434)" fill="#fff" font-size="32" font-family="MyriadPro-LightIt, Myriad Pro" font-weight="300" font-style="italic"><tspan x="0" y="24">IoT environmental sensor</tspan></text>
  </g>
</svg>
