<svg xmlns="http://www.w3.org/2000/svg" xmlns:xlink="http://www.w3.org/1999/xlink" width="869.4" height="95.967" viewBox="0 0 869.4 95.967">
  <defs>
    <linearGradient id="linear-gradient" x1="0.001" y1="0.501" x2="1.002" y2="0.501" gradientUnits="objectBoundingBox">
      <stop offset="0" stop-color="#33af4e"/>
      <stop offset="0.12" stop-color="#2ca663"/>
      <stop offset="0.556" stop-color="#1a8397"/>
      <stop offset="0.858" stop-color="#1d69a9"/>
      <stop offset="1" stop-color="#215eab"/>
    </linearGradient>
    <linearGradient id="linear-gradient-2" y1="0.5" x2="1.056" y2="0.5" gradientUnits="objectBoundingBox">
      <stop offset="0" stop-color="#12845a"/>
      <stop offset="0.017" stop-color="#13845c"/>
      <stop offset="0.504" stop-color="#18718e"/>
      <stop offset="0.842" stop-color="#1d64a5"/>
      <stop offset="1" stop-color="#215eab"/>
    </linearGradient>
    <linearGradient id="linear-gradient-3" x1="0" y1="0.5" x2="1.024" y2="0.5" xlink:href="#linear-gradient-2"/>
    <linearGradient id="linear-gradient-4" x1="0" y1="0.5" x2="1.004" y2="0.5" xlink:href="#linear-gradient-2"/>
  </defs>
  <g id="그룹_514" data-name="그룹 514" transform="translate(-666 -1226.033)">
    <text id="IoT_environmental_sensor" data-name="IoT environmental sensor" transform="translate(666 1269)" fill="#3983b1" font-size="40" font-family="MyriadPro-SemiExtIt, Myriad Pro" font-style="italic" letter-spacing="-0.025em"><tspan x="0" y="30">IoT environmental sensor</tspan></text>
    <g id="new_logo_bl" transform="translate(1201.85 1231.033)">
      <g id="그룹_415" data-name="그룹 415" transform="translate(-110 29.199)">
        <g id="그룹_413" data-name="그룹 413" transform="translate(0 0.001)">
          <path id="패스_953" data-name="패스 953" d="M13.083,19.756a6.6,6.6,0,0,1,4.227-1.208,5.67,5.67,0,0,1,4.227,1.409,5.292,5.292,0,0,1,1.61,4.026H33.412A11.425,11.425,0,0,0,31.4,17.14a12.781,12.781,0,0,0-5.636-4.629,21.537,21.537,0,0,0-8.252-1.61,22.6,22.6,0,0,0-8.454,1.409A14.151,14.151,0,0,0,3.22,16.536a9.671,9.671,0,0,0-2.013,6.24c0,4.629,2.818,8.454,8.252,11.07,1.61.805,3.824,1.61,6.441,2.617a21.291,21.291,0,0,1,5.636,2.617,4.3,4.3,0,0,1,1.61,3.422,3.177,3.177,0,0,1-1.409,3.019c-1.006.805-2.214,1.006-4.026,1.006-2.617,0-4.629-.6-5.636-1.61-1.208-1.006-1.812-2.818-1.812-5.032H0a13.35,13.35,0,0,0,2.013,7.447,13.131,13.131,0,0,0,6.24,5.032,23.028,23.028,0,0,0,9.259,1.812c4.831,0,8.655-1.006,11.473-3.22A10.154,10.154,0,0,0,33.211,42.3c0-4.629-2.214-8.252-6.843-10.869a43.808,43.808,0,0,0-7.246-3.019C16.1,27.4,14.09,26.6,13.083,25.593a3.548,3.548,0,0,1-1.812-3.019A4.069,4.069,0,0,1,13.083,19.756Z" transform="translate(0 -10.9)" fill="#06283d"/>
          <path id="패스_954" data-name="패스 954" d="M54.828,16.3a10.535,10.535,0,0,0-9.259,4.831C44.16,17.91,41.543,16.3,37.518,16.3a10.9,10.9,0,0,0-9.058,4.227l-.4-3.623H19V48.3h9.863V26.364a4.557,4.557,0,0,1,4.227-2.617,4.166,4.166,0,0,1,3.019,1.006,6.052,6.052,0,0,1,.805,3.623V48.1h9.863V26.364A4.645,4.645,0,0,1,51.2,23.747a4.166,4.166,0,0,1,3.019,1.006,5.383,5.383,0,0,1,.805,3.422V48.1h9.863V27.773C64.489,20.124,61.269,16.3,54.828,16.3Z" transform="translate(19.243 -5.431)" fill="#06283d"/>
          <path id="패스_955" data-name="패스 955" d="M71.477,27.37a9.86,9.86,0,0,0-3.623-8.051c-2.415-2.013-5.435-3.019-9.46-3.019a16.811,16.811,0,0,0-9.863,2.818,8.653,8.653,0,0,0-3.824,7.447h9.661a3.08,3.08,0,0,1,3.422-3.422c2.415,0,3.824,1.409,3.824,4.428v1.61H58.595c-4.831,0-8.454.805-11.07,2.617A8.535,8.535,0,0,0,43.7,39.447a9.014,9.014,0,0,0,3.019,6.843,11.05,11.05,0,0,0,7.649,2.617,9.491,9.491,0,0,0,7.649-3.422A7.557,7.557,0,0,0,63.023,48.3h9.863v-.4a18.181,18.181,0,0,1-1.409-6.642ZM61.614,39.447A7.686,7.686,0,0,1,59.8,41.259a4.851,4.851,0,0,1-3.019.805,2.786,2.786,0,0,1-3.019-3.019c0-3.019,1.61-4.629,5.032-4.629h2.818Z" transform="translate(44.259 -5.431)" fill="#06283d"/>
          <path id="패스_956" data-name="패스 956" d="M69.761,20.929l-.4-4.026H60.1V48.3h9.863V28.377c.805-2.013,2.818-2.818,5.837-2.818l3.22.2.2-9.058a10.491,10.491,0,0,0-2.818-.4C73.787,16.3,71.372,17.91,69.761,20.929Z" transform="translate(60.869 -5.431)" fill="#06283d"/>
          <path id="패스_957" data-name="패스 957" d="M87.909,44.9a4.567,4.567,0,0,1-2.617-.6,3.5,3.5,0,0,1-.6-2.415V27.393h5.233V20.55H84.688V12.7H74.826v7.85H70.8v6.843h4.026v15.7q0,4.831,2.415,7.246c1.61,1.61,4.026,2.415,7.447,2.415a15.425,15.425,0,0,0,5.435-.805V44.9Z" transform="translate(71.706 -9.077)" fill="#06283d"/>
        </g>
        <g id="그룹_414" data-name="그룹 414" transform="translate(177.709)">
          <path id="패스_958" data-name="패스 958" d="M.2,38.4v7.246H11.673v31.6h9.46v-31.6h15.7v31.6h9.46v-31.6H57.967V38.4Z" transform="translate(-0.2 -36.186)" fill="#06283d"/>
          <path id="패스_959" data-name="패스 959" d="M47,48.974A9.241,9.241,0,0,0,39.558,52.6V37.3H30.5V78.361h9.058V57.629a4.19,4.19,0,0,1,3.824-1.812,4.726,4.726,0,0,1,3.22,1.006,5.33,5.33,0,0,1,1.006,3.422V78.16h9.058V59.843c0-3.623-.805-6.441-2.415-8.252A10.608,10.608,0,0,0,47,48.974Z" transform="translate(30.488 -37.3)" fill="#06283d"/>
          <rect id="사각형_114" data-name="사각형 114" width="9.058" height="28.783" transform="translate(92.588 12.278)" fill="#06283d"/>
          <path id="패스_960" data-name="패스 960" d="M50.932,37.5a5.62,5.62,0,0,0-3.623,1.208,3.753,3.753,0,0,0-1.409,3.22,4,4,0,0,0,1.409,3.22,6.038,6.038,0,0,0,7.246,0,3.753,3.753,0,0,0,1.409-3.22,4,4,0,0,0-1.409-3.22A5.62,5.62,0,0,0,50.932,37.5Z" transform="translate(46.085 -37.097)" fill="#06283d"/>
          <path id="패스_961" data-name="패스 961" d="M70.307,43.1a9.85,9.85,0,0,0-8.252,3.824l-.2-3.422H53.4V72.285h9.058V52.158a4.142,4.142,0,0,1,3.824-2.013,4.373,4.373,0,0,1,3.22,1.006,4.758,4.758,0,0,1,.805,3.22V72.688h9.058V54.17c0-3.623-.805-6.24-2.214-8.051C75.541,43.905,73.327,43.1,70.307,43.1Z" transform="translate(53.681 -31.426)" fill="#06283d"/>
          <path id="패스_962" data-name="패스 962" d="M87.423,43.7l-.4,2.415A8.575,8.575,0,0,0,79.975,43.1a10.836,10.836,0,0,0-6.24,1.812,12.209,12.209,0,0,0-4.227,5.233A18.522,18.522,0,0,0,68.1,57.793v.4c0,4.428,1.006,8.051,3.22,10.869a10.681,10.681,0,0,0,8.454,4.026,8.37,8.37,0,0,0,6.441-2.818v.805q0,6.038-6.038,6.038A8.041,8.041,0,0,1,73.535,74.1L69.71,79.33a11.81,11.81,0,0,0,4.629,3.22,16.4,16.4,0,0,0,6.24,1.208,22.775,22.775,0,0,0,7.85-1.409,12.209,12.209,0,0,0,5.233-4.227,11.705,11.705,0,0,0,1.812-6.642V43.7Zm-.805,20.53a4.808,4.808,0,0,1-4.227,2.013,4.359,4.359,0,0,1-3.824-2.013A11.057,11.057,0,0,1,77.158,58.6c0-2.818.4-4.831,1.409-6.24a4.884,4.884,0,0,1,8.051-.2Z" transform="translate(68.569 -31.426)" fill="#06283d"/>
        </g>
      </g>
      <g id="그룹_416" data-name="그룹 416" transform="translate(267.342 16.77)">
        <path id="패스_963" data-name="패스 963" d="M171.558,16.8c-1.428,12.461-20.12,22.586-20.12,22.586C117.559,54.314,110.03,74.434,109.9,74.694a44.055,44.055,0,0,0,66.2-38.163A42.409,42.409,0,0,0,171.558,16.8Z" transform="translate(-109.9 -16.8)" fill="url(#linear-gradient)"/>
      </g>
      <g id="그룹_417" data-name="그룹 417" transform="translate(247.295 -5)">
        <path id="패스_964" data-name="패스 964" d="M149.161,2.2A41.343,41.343,0,0,0,96.72,28.159,40.381,40.381,0,0,0,98.8,59.7,40.5,40.5,0,0,0,111.647,74.89c1.168-1.817,2.466-3.635,3.764-5.452a35.858,35.858,0,0,1-10.644-12.591A34.809,34.809,0,0,1,147.084,8.429a34.207,34.207,0,0,1,19.99,17.524c.519,1.168,1.038,2.337,1.558,3.635a36.027,36.027,0,0,0,4.284-6.62A41.189,41.189,0,0,0,149.161,2.2Z" transform="translate(-94.456 -0.029)" fill="url(#linear-gradient-2)"/>
        <path id="패스_965" data-name="패스 965" d="M143.576,9.473a31.29,31.29,0,0,0-38.033,43.485,32.8,32.8,0,0,0,9.606,11.423c1.428-1.687,2.856-3.375,4.413-4.933a25.891,25.891,0,0,1-8.178-9.346,24.908,24.908,0,0,1-1.3-18.822A24.631,24.631,0,0,1,141.24,15.834,23.961,23.961,0,0,1,155.388,28.3a26.58,26.58,0,0,1,2.207,6.88,39.993,39.993,0,0,0,5.711-4.8,40.514,40.514,0,0,0-1.947-5.062A30.2,30.2,0,0,0,143.576,9.473Z" transform="translate(-92.116 2.301)" fill="url(#linear-gradient-3)"/>
        <path id="패스_966" data-name="패스 966" d="M138,16.759A21.131,21.131,0,0,0,112.3,46.1a20.569,20.569,0,0,0,7.529,8.437c1.687-1.558,3.5-3.115,5.322-4.543a14.47,14.47,0,0,1-6.88-6.75,14.806,14.806,0,0,1-.779-11.034,14.426,14.426,0,0,1,26.61-1.817,13.963,13.963,0,0,1,1.428,7.918c2.336-1.038,4.543-2.207,6.62-3.375a21.009,21.009,0,0,0-2.077-7.4A20.575,20.575,0,0,0,138,16.759Z" transform="translate(-89.785 4.621)" fill="url(#linear-gradient-4)"/>
      </g>
    </g>
  </g>
</svg>
