<svg xmlns="http://www.w3.org/2000/svg" width="244.004" height="43.238" viewBox="0 0 244.004 43.238">
  <g id="그룹_178" data-name="그룹 178" transform="translate(-30.24 -360.927)">
    <g id="그룹_175" data-name="그룹 175">
      <path id="패스_159" data-name="패스 159" d="M79.658,375.9a37.445,37.445,0,0,0-10.539-3.635c.723,1.141,1.4,2.306,1.995,3.457a32.47,32.47,0,0,1,7.152,2.756c4.732,2.555,7.339,5.851,7.339,9.279s-2.607,6.725-7.339,9.28c-5.019,2.709-11.723,4.2-18.879,4.2s-13.86-1.492-18.878-4.2c-4.733-2.555-7.339-5.851-7.339-9.28s2.606-6.724,7.339-9.279a32.451,32.451,0,0,1,7.152-2.756c.591-1.151,1.271-2.316,1.994-3.457A37.438,37.438,0,0,0,39.117,375.9c-5.725,3.091-8.877,7.3-8.877,11.857s3.152,8.767,8.877,11.858c5.438,2.936,12.637,4.553,20.27,4.553s14.832-1.617,20.271-4.553c5.724-3.091,8.877-7.3,8.877-11.858S85.382,378.988,79.658,375.9Z" fill="#d4d5d5"/>
      <path id="패스_160" data-name="패스 160" d="M71.114,375.719c-.592-1.151-1.272-2.316-1.995-3.457a88.815,88.815,0,0,0-8.1-10.608,2.193,2.193,0,0,0-3.262,0,88.814,88.814,0,0,0-8.1,10.608c-.723,1.141-1.4,2.306-1.994,3.457a16.064,16.064,0,0,0-2.111,6.81,13.837,13.837,0,1,0,27.675,0A16.079,16.079,0,0,0,71.114,375.719Z" fill="#4f9723"/>
      <circle id="타원_10" data-name="타원 10" cx="3.719" cy="3.719" r="3.719" transform="translate(55.669 380.869)" fill="#fff"/>
    </g>
    <g id="그룹_176" data-name="그룹 176">
      <path id="패스_161" data-name="패스 161" d="M100.568,392.354H98.511V397.5h-.627v-5.147H95.83V391.8h4.738Z" fill="#d4d5d5"/>
      <path id="패스_162" data-name="패스 162" d="M101.792,391.8v2.514a1.423,1.423,0,0,1,1.177-.642c.847,0,1.346.618,1.346,1.587V397.5h-.576v-2.187c0-.636-.241-1.13-.9-1.13a1.191,1.191,0,0,0-1.043.66V397.5h-.577v-5.7Z" fill="#d4d5d5"/>
      <path id="패스_163" data-name="패스 163" d="M108.5,395.664h-2.782a1.316,1.316,0,0,0,1.346,1.4,2.084,2.084,0,0,0,1.379-.529v.589a2.37,2.37,0,0,1-1.447.451,1.831,1.831,0,0,1-1.872-1.967,1.76,1.76,0,0,1,1.723-1.938,1.712,1.712,0,0,1,1.653,1.855Zm-.592-.422a1.052,1.052,0,0,0-1.046-1.058,1.143,1.143,0,0,0-1.111,1.058Z" fill="#d4d5d5"/>
      <path id="패스_164" data-name="패스 164" d="M112.729,393.751c1.313,0,2.074.665,2.074,1.872a1.823,1.823,0,0,1-1.863,1.955,2.3,2.3,0,0,1-.954-.226v2h-.577v-5.6Zm-.743,3.072a1.666,1.666,0,0,0,.861.244,1.407,1.407,0,1,0-.127-2.811h-.734Z" fill="#d4d5d5"/>
      <path id="패스_165" data-name="패스 165" d="M118.868,395.664h-2.781a1.316,1.316,0,0,0,1.346,1.4,2.084,2.084,0,0,0,1.379-.529v.589a2.37,2.37,0,0,1-1.447.451,1.832,1.832,0,0,1-1.873-1.967,1.76,1.76,0,0,1,1.721-1.938,1.712,1.712,0,0,1,1.655,1.855Zm-.591-.422a1.052,1.052,0,0,0-1.046-1.058,1.145,1.145,0,0,0-1.112,1.058Z" fill="#d4d5d5"/>
      <path id="패스_166" data-name="패스 166" d="M123.406,395.623a1.953,1.953,0,1,1-1.958-1.95A1.96,1.96,0,0,1,123.406,395.623Zm-3.31,0a1.361,1.361,0,1,0,2.716,0,1.36,1.36,0,1,0-2.716,0Z" fill="#d4d5d5"/>
      <path id="패스_167" data-name="패스 167" d="M125.615,393.751c1.313,0,2.074.665,2.074,1.872a1.823,1.823,0,0,1-1.863,1.955,2.3,2.3,0,0,1-.954-.226v2h-.577v-5.6Zm-.743,3.072a1.666,1.666,0,0,0,.861.244,1.407,1.407,0,1,0-.127-2.811h-.734Z" fill="#d4d5d5"/>
      <path id="패스_168" data-name="패스 168" d="M129.148,397.5h-.576v-5.7h.576Z" fill="#d4d5d5"/>
      <path id="패스_169" data-name="패스 169" d="M133.413,395.664h-2.782a1.316,1.316,0,0,0,1.346,1.4,2.084,2.084,0,0,0,1.379-.529v.589a2.37,2.37,0,0,1-1.447.451,1.831,1.831,0,0,1-1.872-1.967,1.759,1.759,0,0,1,1.72-1.938,1.712,1.712,0,0,1,1.656,1.855Zm-.592-.422a1.052,1.052,0,0,0-1.046-1.058,1.144,1.144,0,0,0-1.111,1.058Z" fill="#d4d5d5"/>
      <path id="패스_170" data-name="패스 170" d="M140.126,397.578h-.22l-1.126-2.835-1.129,2.835h-.217l-1.638-3.827h.592l1.138,2.662,1.07-2.662h.374l1.055,2.662,1.135-2.662h.6Z" fill="#d4d5d5"/>
      <path id="패스_171" data-name="패스 171" d="M142.884,391.8v2.514a1.423,1.423,0,0,1,1.177-.642c.844,0,1.346.618,1.346,1.587V397.5h-.576v-2.187c0-.636-.241-1.13-.9-1.13a1.191,1.191,0,0,0-1.043.66V397.5h-.576v-5.7Z" fill="#d4d5d5"/>
      <path id="패스_172" data-name="패스 172" d="M150.121,395.623a1.953,1.953,0,1,1-1.959-1.95A1.961,1.961,0,0,1,150.121,395.623Zm-3.311,0a1.361,1.361,0,1,0,2.716,0,1.36,1.36,0,1,0-2.716,0Z" fill="#d4d5d5"/>
      <path id="패스_173" data-name="패스 173" d="M155.776,394.517a1.985,1.985,0,0,0-1.028-.309,1.317,1.317,0,0,0-1.254,1.427,1.3,1.3,0,0,0,1.352,1.408,2.4,2.4,0,0,0,1-.243v.57a2.981,2.981,0,0,1-1.061.208,1.791,1.791,0,0,1-1.89-1.925,1.823,1.823,0,0,1,1.849-1.98,2.562,2.562,0,0,1,1.028.226Z" fill="#d4d5d5"/>
      <path id="패스_174" data-name="패스 174" d="M157.244,393.751v.826a2.354,2.354,0,0,1,.627-.7,1.151,1.151,0,0,1,.568-.208,1.7,1.7,0,0,1,.894.44l-.309.505a1.2,1.2,0,0,0-.728-.35,1.135,1.135,0,0,0-.918.707,2.39,2.39,0,0,0-.134.9V397.5h-.576v-3.75Z" fill="#d4d5d5"/>
      <path id="패스_175" data-name="패스 175" d="M162.876,395.664h-2.782a1.316,1.316,0,0,0,1.346,1.4,2.082,2.082,0,0,0,1.379-.529v.589a2.364,2.364,0,0,1-1.447.451,1.831,1.831,0,0,1-1.872-1.967,1.76,1.76,0,0,1,1.721-1.938,1.712,1.712,0,0,1,1.655,1.855Zm-.592-.422a1.052,1.052,0,0,0-1.046-1.058,1.145,1.145,0,0,0-1.111,1.058Z" fill="#d4d5d5"/>
      <path id="패스_176" data-name="패스 176" d="M166.727,397.234c-.469.332-.644.344-.743.344-.309,0-.377-.255-.41-.428a1.669,1.669,0,0,1-1.1.428.953.953,0,0,1-.969-.957c0-.606.5-1.1,2.056-1.379v-.332c0-.244-.041-.726-.743-.726a1.681,1.681,0,0,0-1.17.553v-.606a1.9,1.9,0,0,1,1.221-.458,1.126,1.126,0,0,1,1.269,1.177v2.057c0,.16.018.2.1.2a1.066,1.066,0,0,0,.484-.268Zm-1.162-1.611c-.96.172-1.48.493-1.48.957a.6.6,0,0,0,.636.576,1.284,1.284,0,0,0,.844-.4Z" fill="#d4d5d5"/>
      <path id="패스_177" data-name="패스 177" d="M166.894,394.167l1.221-1.3v.88h1.127v.505h-1.127v1.967c0,.482.033.82.559.82a1.676,1.676,0,0,0,.761-.225v.54a1.947,1.947,0,0,1-.877.22c-.752,0-1.019-.523-1.019-1.123v-2.2h-.645Z" fill="#d4d5d5"/>
      <path id="패스_178" data-name="패스 178" d="M173.147,395.664h-2.782a1.316,1.316,0,0,0,1.346,1.4,2.084,2.084,0,0,0,1.379-.529v.589a2.37,2.37,0,0,1-1.447.451,1.831,1.831,0,0,1-1.872-1.967,1.759,1.759,0,0,1,1.72-1.938,1.712,1.712,0,0,1,1.656,1.855Zm-.592-.422a1.052,1.052,0,0,0-1.046-1.058,1.144,1.144,0,0,0-1.111,1.058Z" fill="#d4d5d5"/>
      <path id="패스_179" data-name="패스 179" d="M179.081,397.234c-.469.332-.644.344-.742.344-.31,0-.378-.255-.411-.428a1.669,1.669,0,0,1-1.1.428.953.953,0,0,1-.969-.957c0-.606.5-1.1,2.056-1.379v-.332c0-.244-.041-.726-.742-.726a1.681,1.681,0,0,0-1.171.553v-.606a1.9,1.9,0,0,1,1.221-.458,1.126,1.126,0,0,1,1.269,1.177v2.057c0,.16.018.2.1.2a1.066,1.066,0,0,0,.484-.268Zm-1.162-1.611c-.959.172-1.48.493-1.48.957a.6.6,0,0,0,.636.576,1.284,1.284,0,0,0,.844-.4Z" fill="#d4d5d5"/>
      <path id="패스_180" data-name="패스 180" d="M182.368,393.751v.564a1.424,1.424,0,0,1,1.177-.642c.844,0,1.346.618,1.346,1.587V397.5h-.576v-2.187c0-.636-.241-1.13-.9-1.13a1.192,1.192,0,0,0-1.043.66V397.5h-.576v-3.75Z" fill="#d4d5d5"/>
      <path id="패스_181" data-name="패스 181" d="M189.076,395.664h-2.782a1.316,1.316,0,0,0,1.346,1.4,2.082,2.082,0,0,0,1.379-.529v.589a2.364,2.364,0,0,1-1.447.451,1.831,1.831,0,0,1-1.872-1.967,1.76,1.76,0,0,1,1.721-1.938,1.712,1.712,0,0,1,1.655,1.855Zm-.592-.422a1.052,1.052,0,0,0-1.046-1.058,1.145,1.145,0,0,0-1.111,1.058Z" fill="#d4d5d5"/>
      <path id="패스_182" data-name="패스 182" d="M193.7,397.578h-.217l-1.126-2.835-1.13,2.835h-.216l-1.638-3.827h.591l1.139,2.662,1.07-2.662h.374l1.055,2.662,1.135-2.662h.6Z" fill="#d4d5d5"/>
      <path id="패스_183" data-name="패스 183" d="M201.775,397.578h-.22l-1.127-2.835-1.129,2.835h-.217l-1.637-3.827h.591l1.138,2.662,1.07-2.662h.375l1.055,2.662,1.135-2.662h.6Z" fill="#d4d5d5"/>
      <path id="패스_184" data-name="패스 184" d="M207.668,395.623a1.953,1.953,0,1,1-1.959-1.95A1.961,1.961,0,0,1,207.668,395.623Zm-3.311,0a1.361,1.361,0,1,0,2.717,0,1.361,1.361,0,1,0-2.717,0Z" fill="#d4d5d5"/>
      <path id="패스_185" data-name="패스 185" d="M209.133,393.751v.826a2.354,2.354,0,0,1,.627-.7,1.147,1.147,0,0,1,.568-.208,1.7,1.7,0,0,1,.894.44l-.309.505a1.2,1.2,0,0,0-.728-.35,1.135,1.135,0,0,0-.918.707,2.39,2.39,0,0,0-.134.9V397.5h-.577v-3.75Z" fill="#d4d5d5"/>
      <path id="패스_186" data-name="패스 186" d="M212.158,397.5h-.576v-5.7h.576Z" fill="#d4d5d5"/>
      <path id="패스_187" data-name="패스 187" d="M215.121,397.5c-1.313,0-2.074-.666-2.074-1.872a1.822,1.822,0,0,1,1.863-1.956,2.32,2.32,0,0,1,.954.226v-2.1h.577v5.7Zm.743-3.079a1.755,1.755,0,0,0-.862-.238,1.4,1.4,0,1,0,.125,2.806h.737Z" fill="#d4d5d5"/>
      <path id="패스_188" data-name="패스 188" d="M223.4,397.578h-.22l-1.126-2.835-1.13,2.835h-.217l-1.637-3.827h.591l1.139,2.662,1.069-2.662h.375l1.055,2.662,1.135-2.662h.6Z" fill="#d4d5d5"/>
      <path id="패스_189" data-name="패스 189" d="M226.254,392.6a.376.376,0,1,1-.377-.38A.373.373,0,0,1,226.254,392.6Zm-.092,4.9h-.577v-3.75h.577Z" fill="#d4d5d5"/>
      <path id="패스_190" data-name="패스 190" d="M226.783,394.167l1.221-1.3v.88h1.127v.505H228v1.967c0,.482.033.82.559.82a1.673,1.673,0,0,0,.761-.225v.54a1.947,1.947,0,0,1-.877.22c-.752,0-1.019-.523-1.019-1.123v-2.2h-.645Z" fill="#d4d5d5"/>
      <path id="패스_191" data-name="패스 191" d="M230.429,391.8v2.514a1.424,1.424,0,0,1,1.177-.642c.844,0,1.347.618,1.347,1.587V397.5h-.577v-2.187c0-.636-.241-1.13-.9-1.13a1.192,1.192,0,0,0-1.044.66V397.5h-.576v-5.7Z" fill="#d4d5d5"/>
      <path id="패스_192" data-name="패스 192" d="M240.341,392.354h-2.057V397.5h-.627v-5.147H235.6V391.8h4.738Z" fill="#d4d5d5"/>
      <path id="패스_193" data-name="패스 193" d="M244.171,395.664H241.39a1.316,1.316,0,0,0,1.346,1.4,2.084,2.084,0,0,0,1.379-.529v.589a2.37,2.37,0,0,1-1.447.451,1.831,1.831,0,0,1-1.873-1.967,1.76,1.76,0,0,1,1.724-1.938,1.711,1.711,0,0,1,1.652,1.855Zm-.591-.422a1.052,1.052,0,0,0-1.046-1.058,1.145,1.145,0,0,0-1.112,1.058Z" fill="#d4d5d5"/>
      <path id="패스_194" data-name="패스 194" d="M247.681,394.517a1.975,1.975,0,0,0-1.028-.309,1.317,1.317,0,0,0-1.254,1.427,1.3,1.3,0,0,0,1.352,1.408,2.4,2.4,0,0,0,1-.243v.57a2.979,2.979,0,0,1-1.06.208,1.792,1.792,0,0,1-1.891-1.925,1.823,1.823,0,0,1,1.849-1.98,2.562,2.562,0,0,1,1.028.226Z" fill="#d4d5d5"/>
      <path id="패스_195" data-name="패스 195" d="M249.149,391.8v2.514a1.424,1.424,0,0,1,1.177-.642c.847,0,1.346.618,1.346,1.587V397.5H251.1v-2.187c0-.636-.241-1.13-.9-1.13a1.191,1.191,0,0,0-1.043.66V397.5h-.576v-5.7Z" fill="#d4d5d5"/>
      <path id="패스_196" data-name="패스 196" d="M253.25,393.751v.564a1.424,1.424,0,0,1,1.177-.642c.847,0,1.347.618,1.347,1.587V397.5H255.2v-2.187c0-.636-.241-1.13-.9-1.13a1.192,1.192,0,0,0-1.044.66V397.5h-.576v-3.75Z" fill="#d4d5d5"/>
      <path id="패스_197" data-name="패스 197" d="M260.487,395.623a1.953,1.953,0,1,1-1.959-1.95A1.961,1.961,0,0,1,260.487,395.623Zm-3.311,0a1.361,1.361,0,1,0,2.717,0,1.361,1.361,0,1,0-2.717,0Z" fill="#d4d5d5"/>
      <path id="패스_198" data-name="패스 198" d="M261.952,397.5h-.576v-5.7h.576Z" fill="#d4d5d5"/>
      <path id="패스_199" data-name="패스 199" d="M266.746,395.623a1.953,1.953,0,1,1-1.959-1.95A1.961,1.961,0,0,1,266.746,395.623Zm-3.311,0a1.361,1.361,0,1,0,2.716,0,1.36,1.36,0,1,0-2.716,0Z" fill="#d4d5d5"/>
      <path id="패스_200" data-name="패스 200" d="M270.591,394.208h-.808a1.206,1.206,0,0,1,.458.922,1.269,1.269,0,0,1-1.1,1.224c-.636.154-.912.226-.912.464,0,.214.211.309.82.38,1.129.143,1.539.487,1.539,1.1,0,.766-.8,1.123-1.7,1.123-1.139,0-1.715-.505-1.715-1.094,0-.327.184-.8,1.019-.951-.365-.136-.5-.374-.5-.5,0-.345.342-.464.683-.588a1.254,1.254,0,0,1-.909-1.213c0-.582.291-1.325,1.706-1.325h1.426Zm-1.78,3.483c-.909,0-1.1.381-1.1.63,0,.595.82.642,1.188.642.734,0,1.145-.291,1.145-.642C270.042,398.078,269.816,397.691,268.811,397.691Zm.042-3.447a.839.839,0,1,0,0,1.676.811.811,0,0,0,.862-.832A.849.849,0,0,0,268.853,394.244Z" fill="#d4d5d5"/>
      <path id="패스_201" data-name="패스 201" d="M271.513,399.421h-.619l1.3-2.687-1.521-2.983h.627l1.194,2.365,1.127-2.365h.627Z" fill="#d4d5d5"/>
    </g>
    <g id="그룹_177" data-name="그룹 177">
      <path id="패스_202" data-name="패스 202" d="M107.69,385.1a5.676,5.676,0,0,0,3.556-5.244c.109-4.094-3.554-5.107-7.1-6.087-2.914-.806-5.928-1.64-5.452-4.527l0-.024a3.29,3.29,0,0,1,2.039-2.447c2.144-.914,5.423-.239,7.231.91a1.071,1.071,0,0,0,1.574-.178,1.227,1.227,0,0,0-.364-1.785,10.277,10.277,0,0,0-9.551-.946,5.41,5.41,0,0,0-3.56,4.348c-.507,4.644,3.254,5.7,6.892,6.716,2.759.774,5.364,1.5,5.574,3.886a.639.639,0,0,1,0,.131,3.684,3.684,0,0,1-2.172,3.126c-2.57,1.189-6.678.012-8.535-1.256-.017-.012-.034-.024-.049-.037a1.162,1.162,0,0,0-1.821.124,1.644,1.644,0,0,0,.337,2.109C98.941,386.107,104.265,386.659,107.69,385.1Z" fill="#d4d5d5"/>
      <path id="패스_203" data-name="패스 203" d="M117.447,379.039h5.23a6.746,6.746,0,0,0,7.053-7.022c0-5.024-3.542-7.273-7.053-7.273h-7.234A1.473,1.473,0,0,0,114,366.223v17.631a1.432,1.432,0,0,0,1.447,1.479c.828,0,1.322-.553,1.322-1.479v-4.133A.682.682,0,0,1,117.447,379.039Zm-.682-11.031a.683.683,0,0,1,.682-.682h5.23a4.576,4.576,0,0,1,4.44,4.691,4.515,4.515,0,0,1-4.44,4.471h-5.23a.682.682,0,0,1-.682-.682Z" fill="#d4d5d5"/>
      <path id="패스_204" data-name="패스 204" d="M132.73,381.513h11.555a.682.682,0,0,1,.611.376l1.378,2.756a1.136,1.136,0,0,0,.975.746,1.642,1.642,0,0,0,1.422-.72,1.254,1.254,0,0,0,.021-1.345l-8.837-17.579a1.394,1.394,0,0,0-1.255-.892,1.546,1.546,0,0,0-1.411.895L128.2,383.319a1.513,1.513,0,0,0,.637,2.047,1.686,1.686,0,0,0,1.928-.706l1.351-2.765A.681.681,0,0,1,132.73,381.513Zm1.33-3.756,3.853-7.735a.659.659,0,0,1,.621-.379.683.683,0,0,1,.609.4l3.539,7.735a.682.682,0,0,1-.62.966h-7.391a.682.682,0,0,1-.611-.986Z" fill="#d4d5d5"/>
      <path id="패스_205" data-name="패스 205" d="M158.91,364.463c-7.122,0-10.31,5.3-10.31,10.56,0,5.09,2.709,10.529,10.31,10.529a9.617,9.617,0,0,0,6.958-2.26,1.473,1.473,0,0,0,.257-2.044,1.412,1.412,0,0,0-.918-.49,1.306,1.306,0,0,0-.994.253,7.954,7.954,0,0,1-5.3,2.147c-5.4,0-7.822-4.085-7.822-8.135,0-3.94,2.419-7.916,7.822-7.916a6.066,6.066,0,0,1,4.878,1.934,1.436,1.436,0,0,0,1.915.072,1.412,1.412,0,0,0,.379-1.012,1.471,1.471,0,0,0-.464-1.034A9.583,9.583,0,0,0,158.91,364.463Z" fill="#d4d5d5"/>
      <path id="패스_206" data-name="패스 206" d="M170.644,365.026a1.219,1.219,0,0,0-1.259,1.26v17.788a1.232,1.232,0,0,0,1.259,1.259H182.42a1.623,1.623,0,0,0,1.188-.416,1.261,1.261,0,0,0,.35-.9,1.419,1.419,0,0,0-1.538-1.426h-9.552a.682.682,0,0,1-.682-.682v-4.7a.681.681,0,0,1,.682-.681h7.891a1.368,1.368,0,0,0,1.063-.417,1.428,1.428,0,0,0,.346-.953,1.3,1.3,0,0,0-1.409-1.369h-7.891a.682.682,0,0,1-.682-.682v-4.7a.681.681,0,0,1,.682-.681h9.019a1.338,1.338,0,0,0,1.455-1.371,1.309,1.309,0,0,0-1.455-1.337Z" fill="#d4d5d5"/>
      <path id="패스_207" data-name="패스 207" d="M209.64,365.026H198.648c-.951,0-1.542.483-1.542,1.26v17.788c0,.765.606,1.259,1.542,1.259a1.176,1.176,0,0,0,1.2-1.259V377.5a.683.683,0,0,1,.682-.682h7.986c.793,0,1.572-.593,1.572-1.2a1.737,1.737,0,0,0-1.572-1.541h-7.986a.682.682,0,0,1-.682-.682v-4.98a.682.682,0,0,1,.682-.681h9.113a1.486,1.486,0,0,0,1.511-1.448C211.151,365.5,210.586,365.026,209.64,365.026Z" fill="#d4d5d5"/>
      <path id="패스_208" data-name="패스 208" d="M214.072,381.513h11.555a.682.682,0,0,1,.611.376l1.378,2.756a1.136,1.136,0,0,0,.975.746,1.639,1.639,0,0,0,1.423-.72,1.256,1.256,0,0,0,.02-1.345L221.2,365.747a1.4,1.4,0,0,0-1.257-.892,1.531,1.531,0,0,0-1.409.895l-8.989,17.569a1.513,1.513,0,0,0,.638,2.047,1.685,1.685,0,0,0,1.927-.706l1.352-2.765A.681.681,0,0,1,214.072,381.513Zm1.331-3.756,3.852-7.735a.682.682,0,0,1,1.231.02l3.538,7.735a.682.682,0,0,1-.62.966h-7.39a.682.682,0,0,1-.611-.986Z" fill="#d4d5d5"/>
      <path id="패스_209" data-name="패스 209" d="M247.876,385.114a1.366,1.366,0,0,0,.245-1.981l-4.144-5.046a.682.682,0,0,1,.274-1.066,6,6,0,0,0,3.581-6.907,6.138,6.138,0,0,0-6.272-5.088h-8.33a1.187,1.187,0,0,0-1.2,1.229v17.787a1.268,1.268,0,0,0,1.356,1.342,1.361,1.361,0,0,0,1.446-1.4v-5.669a.682.682,0,0,1,.681-.682h4.917a.682.682,0,0,1,.559.291l4.729,6.765A1.517,1.517,0,0,0,247.876,385.114Zm-12.36-9.722a.682.682,0,0,1-.681-.682v-6.576a.681.681,0,0,1,.681-.682h6.044a3.689,3.689,0,0,1,2.888,1.235,4.045,4.045,0,0,1,.942,2.661,3.866,3.866,0,0,1-3.83,4.044Z" fill="#d4d5d5"/>
      <path id="패스_210" data-name="패스 210" d="M271.309,383.854V366.223a1.273,1.273,0,0,0-.861-1.31,1.356,1.356,0,0,0-1.5.36l-7.123,9.623a.707.707,0,0,1-1.1,0l-6.871-9.274c-.543-.607-.885-.878-1.443-.878a1.413,1.413,0,0,0-1.2,1.479v17.631c0,1.022.6,1.479,1.2,1.479a1.482,1.482,0,0,0,1.573-1.479V372.267a.682.682,0,0,1,1.238-.395l4.666,6.576a1.642,1.642,0,0,0,1.173.747h.021a1.841,1.841,0,0,0,1.292-.783l5.192-6.568a.679.679,0,0,1,.535-.259.692.692,0,0,1,.223.038.681.681,0,0,1,.458.644v11.587c0,.926.495,1.479,1.323,1.479C270.708,385.333,271.309,384.876,271.309,383.854Z" fill="#d4d5d5"/>
    </g>
  </g>
</svg>
