<svg id="ci_ho" xmlns="http://www.w3.org/2000/svg" width="61.089" height="45.309" viewBox="0 0 61.089 45.309">
  <g id="그룹_137" data-name="그룹 137">
    <path id="패스_66" data-name="패스 66" d="M51.785,15.144A39.422,39.422,0,0,0,40.74,11.33c.754,1.195,1.467,2.421,2.085,3.626a33.571,33.571,0,0,1,7.492,2.892c4.956,2.682,7.691,6.13,7.691,9.724s-2.735,7.042-7.691,9.724c-5.26,2.84-12.281,4.4-19.783,4.4s-14.523-1.561-19.783-4.4c-4.956-2.682-7.691-6.13-7.691-9.724s2.735-7.042,7.691-9.724a34.29,34.29,0,0,1,7.492-2.892c.618-1.205,1.331-2.431,2.085-3.626A38.769,38.769,0,0,0,9.284,15.144C3.3,18.382,0,22.793,0,27.572S3.3,36.761,9.3,40c5.7,3.081,13.245,4.768,21.24,4.768s15.54-1.7,21.24-4.768c5.994-3.238,9.3-7.649,9.3-12.427S57.778,18.382,51.785,15.144Z" transform="translate(0 0.542)" fill="#aaabab"/>
    <path id="패스_67" data-name="패스 67" d="M42.092,15.5c-.618-1.205-1.331-2.431-2.085-3.626A92.719,92.719,0,0,0,31.52.754,2.31,2.31,0,0,0,29.812,0,2.265,2.265,0,0,0,28.1.765a92.719,92.719,0,0,0-8.488,11.118c-.754,1.195-1.467,2.421-2.085,3.626a16.809,16.809,0,0,0-2.211,7.136,14.5,14.5,0,1,0,29,0A17.169,17.169,0,0,0,42.092,15.5Z" transform="translate(0.733)" fill="#192141"/>
    <circle id="타원_1" data-name="타원 1" cx="3.898" cy="3.898" r="3.898" transform="translate(26.647 20.894)" fill="#4da635"/>
  </g>
</svg>
