<svg id="ci_ho" xmlns="http://www.w3.org/2000/svg" width="252.604" height="45.309" viewBox="0 0 252.604 45.309">
  <g id="그룹_137" data-name="그룹 137">
    <path id="패스_66" data-name="패스 66" d="M51.785,15.144A39.422,39.422,0,0,0,40.74,11.33c.754,1.195,1.467,2.421,2.085,3.626a33.571,33.571,0,0,1,7.492,2.892c4.956,2.682,7.691,6.13,7.691,9.724s-2.735,7.042-7.691,9.724c-5.26,2.84-12.281,4.4-19.783,4.4s-14.523-1.561-19.783-4.4c-4.956-2.682-7.691-6.13-7.691-9.724s2.735-7.042,7.691-9.724a34.29,34.29,0,0,1,7.492-2.892c.618-1.205,1.331-2.431,2.085-3.626A38.769,38.769,0,0,0,9.284,15.144C3.3,18.382,0,22.793,0,27.572S3.3,36.761,9.3,40c5.7,3.081,13.245,4.768,21.24,4.768s15.54-1.7,21.24-4.768c5.994-3.238,9.3-7.649,9.3-12.427S57.778,18.382,51.785,15.144Z" transform="translate(0 0.542)" fill="#aaabab"/>
    <path id="패스_67" data-name="패스 67" d="M42.092,15.5c-.618-1.205-1.331-2.431-2.085-3.626A92.719,92.719,0,0,0,31.52.754,2.31,2.31,0,0,0,29.812,0,2.265,2.265,0,0,0,28.1.765a92.719,92.719,0,0,0-8.488,11.118c-.754,1.195-1.467,2.421-2.085,3.626a16.809,16.809,0,0,0-2.211,7.136,14.5,14.5,0,1,0,29,0A17.169,17.169,0,0,0,42.092,15.5Z" transform="translate(0.733)" fill="#192141"/>
    <circle id="타원_1" data-name="타원 1" cx="3.898" cy="3.898" r="3.898" transform="translate(26.647 20.894)" fill="#4da635"/>
  </g>
  <g id="그룹_138" data-name="그룹 138" transform="translate(68.602 12.743)">
    <path id="패스_68" data-name="패스 68" d="M78.023,36.169a5.962,5.962,0,0,0,3.73-5.491c.115-4.286-3.72-5.354-7.44-6.381-3.049-.849-6.214-1.718-5.711-4.747v-.021a3.447,3.447,0,0,1,2.138-2.567c2.242-.954,5.679-.251,7.576.954a1.112,1.112,0,0,0,1.645-.189,1.287,1.287,0,0,0-.377-1.876c-2.494-1.918-6.8-2.347-10.007-1a5.667,5.667,0,0,0-3.73,4.558c-.534,4.862,3.406,5.973,7.22,7.042,2.892.807,5.616,1.572,5.837,4.076v.136a3.875,3.875,0,0,1-2.274,3.28c-2.693,1.247-7,.01-8.949-1.32a.184.184,0,0,1-.052-.042,1.224,1.224,0,0,0-1.907.126,1.714,1.714,0,0,0,.356,2.211C68.855,37.217,74.44,37.793,78.023,36.169Z" transform="translate(-65.47 -14.07)" fill="#727171"/>
    <path id="패스_69" data-name="패스 69" d="M87.376,29.784h5.48c3.563,0,7.387-2.305,7.387-7.356,0-5.26-3.709-7.618-7.387-7.618H85.269a1.543,1.543,0,0,0-1.519,1.551V34.834a1.505,1.505,0,0,0,1.519,1.551c.87,0,1.383-.576,1.383-1.551V30.507A.724.724,0,0,1,87.376,29.784Zm-.713-11.568a.713.713,0,0,1,.713-.713h5.48a4.79,4.79,0,0,1,4.652,4.914A4.731,4.731,0,0,1,92.856,27.1h-5.48a.713.713,0,0,1-.713-.713Z" transform="translate(-64.595 -14.034)" fill="#727171"/>
    <path id="패스_70" data-name="패스 70" d="M102.715,32.367h12.113a.723.723,0,0,1,.639.4l1.446,2.892a1.21,1.21,0,0,0,1.027.786,1.718,1.718,0,0,0,1.488-.754,1.326,1.326,0,0,0,.021-1.415l-9.263-18.421a1.468,1.468,0,0,0-1.32-.933,1.616,1.616,0,0,0-1.477.943l-9.42,18.411a1.588,1.588,0,0,0,.671,2.148,1.769,1.769,0,0,0,2.022-.744l1.415-2.892A.7.7,0,0,1,102.715,32.367Zm1.394-3.94,4.034-8.11a.7.7,0,0,1,.65-.4.712.712,0,0,1,.639.419l3.709,8.11a.688.688,0,0,1-.052.681.7.7,0,0,1-.6.325h-7.744a.7.7,0,0,1-.608-.335A.734.734,0,0,1,104.109,28.427Z" transform="translate(-63.924 -14.029)" fill="#727171"/>
    <path id="패스_71" data-name="패스 71" d="M129.163,14.52c-7.461,0-10.8,5.554-10.8,11.065,0,5.334,2.84,11.034,10.8,11.034,2.347,0,5.04-.283,7.293-2.368a1.544,1.544,0,0,0,.272-2.138,1.476,1.476,0,0,0-.964-.513,1.345,1.345,0,0,0-1.037.262,8.363,8.363,0,0,1-5.554,2.253c-5.658,0-8.194-4.286-8.194-8.519,0-4.129,2.536-8.3,8.194-8.3a6.365,6.365,0,0,1,5.113,2.022,1.494,1.494,0,0,0,2,.073,1.469,1.469,0,0,0,.4-1.058,1.543,1.543,0,0,0-.482-1.079A10.04,10.04,0,0,0,129.163,14.52Z" transform="translate(-62.939 -14.048)" fill="#727171"/>
    <path id="패스_72" data-name="패스 72" d="M140.46,15.08a1.277,1.277,0,0,0-1.32,1.32V35.042a1.289,1.289,0,0,0,1.32,1.32H152.8a1.676,1.676,0,0,0,1.247-.44,1.313,1.313,0,0,0,.367-.943,1.488,1.488,0,0,0-1.614-1.5H142.8a.713.713,0,0,1-.713-.713V27.843a.713.713,0,0,1,.713-.713h8.268a1.421,1.421,0,0,0,1.111-.44,1.492,1.492,0,0,0,.367-1,1.368,1.368,0,0,0-1.477-1.436H142.8a.713.713,0,0,1-.713-.713V18.622a.713.713,0,0,1,.713-.713h9.452a1.4,1.4,0,0,0,1.53-1.436,1.373,1.373,0,0,0-1.53-1.4H140.46Z" transform="translate(-61.945 -14.022)" fill="#727171"/>
    <path id="패스_73" data-name="패스 73" d="M180,15.08H168.484c-1,0-1.614.5-1.614,1.32V35.041c0,.8.639,1.32,1.614,1.32a1.239,1.239,0,0,0,1.257-1.32V28.147a.713.713,0,0,1,.713-.713h8.372c.828,0,1.645-.618,1.645-1.257a1.82,1.82,0,0,0-1.645-1.614h-8.372a.713.713,0,0,1-.713-.713V18.632a.713.713,0,0,1,.713-.713H180a1.554,1.554,0,0,0,1.582-1.519C181.582,15.572,180.995,15.08,180,15.08Z" transform="translate(-60.618 -14.021)" fill="#727171"/>
    <path id="패스_74" data-name="패스 74" d="M184.055,32.367h12.113a.723.723,0,0,1,.639.4l1.446,2.892a1.21,1.21,0,0,0,1.027.786,1.718,1.718,0,0,0,1.488-.754,1.326,1.326,0,0,0,.021-1.415l-9.263-18.421a1.468,1.468,0,0,0-1.32-.933,1.6,1.6,0,0,0-1.477.943l-9.42,18.411a1.593,1.593,0,0,0,.671,2.148A1.769,1.769,0,0,0,182,35.678l1.415-2.892A.7.7,0,0,1,184.055,32.367Zm1.394-3.94,4.034-8.11a.7.7,0,0,1,.65-.4.712.712,0,0,1,.639.419l3.709,8.11a.688.688,0,0,1-.052.681.7.7,0,0,1-.6.325h-7.744a.7.7,0,0,1-.608-.335A.734.734,0,0,1,185.449,28.427Z" transform="translate(-60.032 -14.029)" fill="#727171"/>
    <path id="패스_75" data-name="패스 75" d="M218.4,36.131a1.424,1.424,0,0,0,.251-2.075l-4.338-5.292a.686.686,0,0,1-.136-.629.707.707,0,0,1,.43-.482,6.281,6.281,0,0,0,3.751-7.241,6.429,6.429,0,0,0-6.57-5.334h-8.729a1.249,1.249,0,0,0-1.257,1.289V35.01a1.328,1.328,0,0,0,1.425,1.4,1.43,1.43,0,0,0,1.519-1.467V29.006a.713.713,0,0,1,.713-.713h5.155a.73.73,0,0,1,.587.3l4.956,7.083A1.567,1.567,0,0,0,218.4,36.131ZM205.447,25.946a.713.713,0,0,1-.713-.713V18.339a.713.713,0,0,1,.713-.713h6.329a3.865,3.865,0,0,1,3.028,1.3,4.229,4.229,0,0,1,.985,2.787,4.047,4.047,0,0,1-4.013,4.233Z" transform="translate(-58.947 -14.021)" fill="#727171"/>
    <path id="패스_76" data-name="패스 76" d="M242.031,34.824V16.351a1.329,1.329,0,0,0-.9-1.373,1.433,1.433,0,0,0-1.572.377L232.1,25.436a.741.741,0,0,1-1.153,0l-7.2-9.714c-.566-.639-.933-.922-1.509-.922a1.488,1.488,0,0,0-1.257,1.551V34.824c0,1.069.629,1.551,1.257,1.551a1.553,1.553,0,0,0,1.645-1.551V22.68a.711.711,0,0,1,.492-.681.7.7,0,0,1,.8.272l4.893,6.895a1.705,1.705,0,0,0,1.226.786h.021a1.9,1.9,0,0,0,1.352-.817L238.1,22.25a.7.7,0,0,1,.555-.272.6.6,0,0,1,.231.042.712.712,0,0,1,.482.671V34.835c0,.974.513,1.551,1.383,1.551C241.4,36.375,242.031,35.893,242.031,34.824Z" transform="translate(-58.029 -14.035)" fill="#727171"/>
  </g>
</svg>
