<svg xmlns="http://www.w3.org/2000/svg" width="63.316" height="73.739" viewBox="0 0 63.316 73.739">
  <g id="그룹_386" data-name="그룹 386" transform="translate(-941.522 -529.556)">
    <path id="패스_855" data-name="패스 855" d="M980.873,569.032a2,2,0,0,0,2.133-.286l21.122-17.832a2,2,0,0,0,0-3.057l-21.122-17.83a2,2,0,0,0-3.29,1.528v5.578H943.522a2,2,0,0,0-2,2v20.506a2,2,0,0,0,2,2h36.194v5.579A2,2,0,0,0,980.873,569.032Zm-35.351-11.393V541.133h36.194a2,2,0,0,0,2-2v-3.272l16.022,13.525-16.022,13.526v-3.273a2,2,0,0,0-2-2Z" fill="#d5d9e6"/>
    <path id="패스_856" data-name="패스 856" d="M942.232,584.992l21.121,17.832a2,2,0,0,0,3.29-1.529v-5.577h36.2a2,2,0,0,0,2-2V573.211a2,2,0,0,0-2-2h-36.2v-5.578a2,2,0,0,0-3.29-1.528l-21.121,17.83a2,2,0,0,0,0,3.057Zm20.411-15.053v3.272a2,2,0,0,0,2,2h36.2v16.507h-36.2a2,2,0,0,0-2,2v3.272l-16.02-13.527Z" fill="#d5d9e6"/>
  </g>
</svg>
