<svg xmlns="http://www.w3.org/2000/svg" xmlns:xlink="http://www.w3.org/1999/xlink" width="153.435" height="191.793" viewBox="0 0 153.435 191.793">
  <defs>
    <clipPath id="clip-path">
      <rect width="153.435" height="191.794" fill="none"/>
    </clipPath>
    <clipPath id="clip-path-2">
      <rect id="사각형_147" data-name="사각형 147" width="153.435" height="191.794" transform="translate(-2 -2)" fill="none" stroke="#d5d9e6" stroke-width="5"/>
    </clipPath>
  </defs>
  <g id="반복_그리드_1" data-name="반복 그리드 1" clip-path="url(#clip-path)">
    <g id="그룹_479" data-name="그룹 479" transform="translate(2 2)">
      <g id="그룹_478" data-name="그룹 478" transform="translate(0 0)" clip-path="url(#clip-path-2)">
        <path id="패스_1011" data-name="패스 1011" d="M123.159,94.769a29.072,29.072,0,0,0,23.465-28.518,27.765,27.765,0,0,0-8.448-20.419,27.759,27.759,0,0,0-16.258-8.219,17.791,17.791,0,0,0,.636-4.921,17.411,17.411,0,0,0-17.5-17.5,16.7,16.7,0,0,0-10.8,3.689,36.045,36.045,0,0,0-5.874-7.621A33.766,33.766,0,0,0,63.62,1,33.689,33.689,0,0,0,38.882,11.258,33.682,33.682,0,0,0,28.626,35.99c-.008.459-.008.911,0,1.368A27.761,27.761,0,0,0,9.478,45.833,27.785,27.785,0,0,0,1,66.251,27.916,27.916,0,0,0,9.478,86.733a30.94,30.94,0,0,0,3.111,2.734m91.58-23.722V59.775H98.2m5.971-5.939v5.939h5.937m-75.669,29.5H25.989v95.711H121.7V112.33l-22.8-22.8v26.866H48.79V89.272H70.765m3.109-35.436v5.939h5.941m-5.941,5.969V59.775H67.907M43.581,65.744V59.775H37.611m5.969-5.939v5.939h5.939m34.961,42.834V89.272M53.044,156.052l15.878,15.877,27.752-27.784M39.136,130.618h70.176" transform="translate(0.905 0.904)" fill="none" stroke="#d5d9e6" stroke-linecap="round" stroke-linejoin="round" stroke-width="5"/>
      </g>
    </g>
  </g>
</svg>
