<svg xmlns="http://www.w3.org/2000/svg" width="56.945" height="46.633" viewBox="0 0 56.945 46.633">
  <g id="그룹_168" data-name="그룹 168" transform="translate(1 1)">
    <path id="패스_145" data-name="패스 145" d="M232.545,262.08s9.225-11.354,27.574-11.354S287.49,262.08,287.49,262.08s-11.455,11.962-27.472,11.962S232.545,262.08,232.545,262.08Z" transform="translate(-232.545 -240.067)" fill="none" stroke="#fff" stroke-linejoin="round" stroke-width="2"/>
    <circle id="타원_7" data-name="타원 7" cx="11.658" cy="11.658" r="11.658" transform="translate(15.815 10.659)" fill="none" stroke="#fff" stroke-linejoin="round" stroke-width="2"/>
    <path id="패스_146" data-name="패스 146" d="M260.018,255.9a6.488,6.488,0,1,1-6.488,6.488" transform="translate(-232.545 -240.067)" fill="none" stroke="#fff" stroke-linejoin="round" stroke-width="2"/>
    <path id="패스_147" data-name="패스 147" d="M275.177,270.525a17.209,17.209,0,0,1-30.317,0" transform="translate(-232.545 -240.067)" fill="none" stroke="#fff" stroke-linejoin="round" stroke-width="2"/>
    <path id="패스_148" data-name="패스 148" d="M245.3,253.477a17.209,17.209,0,0,1,29.393-.083" transform="translate(-232.545 -240.067)" fill="none" stroke="#fff" stroke-linejoin="round" stroke-width="2"/>
    <path id="패스_149" data-name="패스 149" d="M281.928,266.645a22.322,22.322,0,0,1-43.773.236" transform="translate(-232.545 -240.067)" fill="none" stroke="#fff" stroke-linejoin="round" stroke-width="2"/>
    <path id="패스_150" data-name="패스 150" d="M277.568,248.6a22.239,22.239,0,0,1,4.126,8.458" transform="translate(-232.545 -240.067)" fill="none" stroke="#fff" stroke-linejoin="round" stroke-width="2"/>
    <path id="패스_151" data-name="패스 151" d="M272.169,243.662a22.4,22.4,0,0,1,3.718,3.031" transform="translate(-232.545 -240.067)" fill="none" stroke="#fff" stroke-linejoin="round" stroke-width="2"/>
    <path id="패스_152" data-name="패스 152" d="M265.231,240.679a22.171,22.171,0,0,1,4.5,1.606" transform="translate(-232.545 -240.067)" fill="none" stroke="#fff" stroke-linejoin="round" stroke-width="2"/>
    <path id="패스_153" data-name="패스 153" d="M238.324,257.128a22.325,22.325,0,0,1,21.694-17.061q.982,0,1.946.084" transform="translate(-232.545 -240.067)" fill="none" stroke="#fff" stroke-linejoin="round" stroke-width="2"/>
  </g>
</svg>
