<svg xmlns="http://www.w3.org/2000/svg" xmlns:xlink="http://www.w3.org/1999/xlink" width="129" height="129" viewBox="0 0 129 129">
  <defs>
    <clipPath id="clip-path">
      <rect id="사각형_174" data-name="사각형 174" width="58.353" height="59.653" fill="none" stroke="#707070" stroke-width="2"/>
    </clipPath>
  </defs>
  <g id="그룹_502" data-name="그룹 502" transform="translate(-476 -6571)">
    <g id="그룹_486" data-name="그룹 486" transform="translate(511 6606)">
      <g id="그룹_485" data-name="그룹 485" transform="translate(0 0.001)" clip-path="url(#clip-path)">
        <path id="패스_1014" data-name="패스 1014" d="M10.376,157.408h0a3.373,3.373,0,0,0,0-6.746h0a3.373,3.373,0,0,0,0,6.746Z" transform="translate(-4.95 -123.885)" fill="none" stroke="#707070" stroke-linecap="round" stroke-linejoin="round" stroke-width="2"/>
        <rect id="사각형_154" data-name="사각형 154" width="6.746" height="6.745" rx="3.373" transform="translate(13.917 26.777)" fill="none" stroke="#707070" stroke-linecap="round" stroke-linejoin="round" stroke-width="2"/>
        <path id="패스_1015" data-name="패스 1015" d="M148.256,157.408h0a3.373,3.373,0,0,0,0-6.746h0a3.373,3.373,0,0,0,0,6.746Z" transform="translate(-119.101 -123.885)" fill="none" stroke="#707070" stroke-linecap="round" stroke-linejoin="round" stroke-width="2"/>
        <path id="사각형_155" data-name="사각형 155" d="M3.373,0h0A3.373,3.373,0,0,1,6.746,3.373v0A3.373,3.373,0,0,1,3.373,6.745h0A3.373,3.373,0,0,1,0,3.373v0A3.373,3.373,0,0,1,3.373,0Z" transform="translate(2.053 14.415)" fill="none" stroke="#707070" stroke-linecap="round" stroke-linejoin="round" stroke-width="2"/>
        <path id="사각형_156" data-name="사각형 156" d="M3.373,0h0A3.373,3.373,0,0,1,6.746,3.373v0A3.373,3.373,0,0,1,3.373,6.745h0A3.373,3.373,0,0,1,0,3.373v0A3.373,3.373,0,0,1,3.373,0Z" transform="translate(13.917 14.415)" fill="none" stroke="#707070" stroke-linecap="round" stroke-linejoin="round" stroke-width="2"/>
        <path id="사각형_157" data-name="사각형 157" d="M3.373,0h0A3.373,3.373,0,0,1,6.746,3.373v0A3.373,3.373,0,0,1,3.373,6.745h0A3.373,3.373,0,0,1,0,3.373v0A3.373,3.373,0,0,1,3.373,0Z" transform="translate(25.782 14.415)" fill="none" stroke="#707070" stroke-linecap="round" stroke-linejoin="round" stroke-width="2"/>
        <path id="사각형_158" data-name="사각형 158" d="M3.373,0h0A3.373,3.373,0,0,1,6.746,3.373v0A3.373,3.373,0,0,1,3.373,6.745h0A3.373,3.373,0,0,1,0,3.373v0A3.373,3.373,0,0,1,3.373,0Z" transform="translate(13.917 2.053)" fill="none" stroke="#707070" stroke-linecap="round" stroke-linejoin="round" stroke-width="2"/>
        <path id="사각형_159" data-name="사각형 159" d="M3.373,0h0A3.373,3.373,0,0,1,6.746,3.373v0A3.373,3.373,0,0,1,3.373,6.745h0A3.373,3.373,0,0,1,0,3.373v0A3.373,3.373,0,0,1,3.373,0Z" transform="translate(25.782 2.053)" fill="none" stroke="#707070" stroke-linecap="round" stroke-linejoin="round" stroke-width="2"/>
        <path id="사각형_160" data-name="사각형 160" d="M3.373,0h0A3.373,3.373,0,0,1,6.746,3.373v0A3.373,3.373,0,0,1,3.373,6.745h0A3.373,3.373,0,0,1,0,3.372v0A3.373,3.373,0,0,1,3.373,0Z" transform="translate(2.053 2.053)" fill="none" stroke="#707070" stroke-linecap="round" stroke-linejoin="round" stroke-width="2"/>
        <path id="패스_1016" data-name="패스 1016" d="M89.554,21.854h0a1.244,1.244,0,1,0,0-2.488h0a1.244,1.244,0,0,0,0,2.488Z" transform="translate(-72.264 -15.185)" fill="none" stroke="#707070" stroke-linecap="round" stroke-linejoin="round" stroke-width="2"/>
        <path id="사각형_161" data-name="사각형 161" d="M3.373,0h0A3.373,3.373,0,0,1,6.746,3.373v0A3.373,3.373,0,0,1,3.373,6.745h0A3.373,3.373,0,0,1,0,3.372v0A3.373,3.373,0,0,1,3.373,0Z" transform="translate(37.69 26.777)" fill="none" stroke="#707070" stroke-linecap="round" stroke-linejoin="round" stroke-width="2"/>
        <path id="패스_1017" data-name="패스 1017" d="M286.391,157.408h0a3.373,3.373,0,0,0,0-6.746h0a3.373,3.373,0,0,0,0,6.746Z" transform="translate(-233.463 -123.885)" fill="none" stroke="#707070" stroke-linecap="round" stroke-linejoin="round" stroke-width="2"/>
        <path id="사각형_162" data-name="사각형 162" d="M3.373,0h0A3.373,3.373,0,0,1,6.746,3.373v0A3.373,3.373,0,0,1,3.373,6.745h0A3.373,3.373,0,0,1,0,3.373v0A3.373,3.373,0,0,1,3.373,0Z" transform="translate(37.69 14.415)" fill="none" stroke="#707070" stroke-linecap="round" stroke-linejoin="round" stroke-width="2"/>
        <path id="사각형_163" data-name="사각형 163" d="M3.373,0h0A3.373,3.373,0,0,1,6.746,3.373v0A3.373,3.373,0,0,1,3.373,6.745h0A3.373,3.373,0,0,1,0,3.373v0A3.373,3.373,0,0,1,3.373,0Z" transform="translate(49.555 14.415)" fill="none" stroke="#707070" stroke-linecap="round" stroke-linejoin="round" stroke-width="2"/>
        <path id="패스_1018" data-name="패스 1018" d="M296.631,93.688h0a1.244,1.244,0,0,0,0-2.489h0a1.244,1.244,0,0,0,0,2.489Z" transform="translate(-243.703 -74.656)" fill="none" stroke="#707070" stroke-linecap="round" stroke-linejoin="round" stroke-width="2"/>
        <path id="사각형_164" data-name="사각형 164" d="M3.373,0h0A3.373,3.373,0,0,1,6.746,3.373v0A3.373,3.373,0,0,1,3.373,6.745h0A3.373,3.373,0,0,1,0,3.372v0A3.373,3.373,0,0,1,3.373,0Z" transform="translate(37.69 2.053)" fill="none" stroke="#707070" stroke-linecap="round" stroke-linejoin="round" stroke-width="2"/>
        <path id="사각형_165" data-name="사각형 165" d="M3.373,0h0A3.373,3.373,0,0,1,6.746,3.373v0A3.373,3.373,0,0,1,3.373,6.745h0A3.373,3.373,0,0,1,0,3.372v0A3.373,3.373,0,0,1,3.373,0Z" transform="translate(49.555 2.053)" fill="none" stroke="#707070" stroke-linecap="round" stroke-linejoin="round" stroke-width="2"/>
        <path id="패스_1019" data-name="패스 1019" d="M286.386,297.312h0a3.373,3.373,0,0,1,0-6.746h0a3.373,3.373,0,0,1,0,6.746Z" transform="translate(-233.459 -239.712)" fill="none" stroke="#707070" stroke-linecap="round" stroke-linejoin="round" stroke-width="2"/>
        <rect id="사각형_166" data-name="사각형 166" width="6.746" height="6.745" rx="3.373" transform="translate(37.69 50.854)" fill="none" stroke="#707070" stroke-linecap="round" stroke-linejoin="round" stroke-width="2"/>
        <path id="패스_1020" data-name="패스 1020" d="M148.508,297.312h0a3.373,3.373,0,0,1,0-6.746h0a3.373,3.373,0,0,1,0,6.746Z" transform="translate(-119.309 -239.712)" fill="none" stroke="#707070" stroke-linecap="round" stroke-linejoin="round" stroke-width="2"/>
        <path id="사각형_167" data-name="사각형 167" d="M3.373,0h0A3.373,3.373,0,0,1,6.746,3.373v0A3.373,3.373,0,0,1,3.373,6.745h0A3.373,3.373,0,0,1,0,3.372v0A3.373,3.373,0,0,1,3.373,0Z" transform="translate(49.554 38.99)" fill="none" stroke="#707070" stroke-linecap="round" stroke-linejoin="round" stroke-width="2"/>
        <path id="사각형_168" data-name="사각형 168" d="M3.373,0h0A3.373,3.373,0,0,1,6.746,3.373v0A3.373,3.373,0,0,1,3.373,6.745h0A3.373,3.373,0,0,1,0,3.373v0A3.373,3.373,0,0,1,3.373,0Z" transform="translate(37.69 38.99)" fill="none" stroke="#707070" stroke-linecap="round" stroke-linejoin="round" stroke-width="2"/>
        <path id="사각형_169" data-name="사각형 169" d="M3.373,0h0A3.373,3.373,0,0,1,6.746,3.373v0A3.373,3.373,0,0,1,3.373,6.745h0A3.373,3.373,0,0,1,0,3.372v0A3.373,3.373,0,0,1,3.373,0Z" transform="translate(25.826 38.99)" fill="none" stroke="#707070" stroke-linecap="round" stroke-linejoin="round" stroke-width="2"/>
        <rect id="사각형_170" data-name="사각형 170" width="2.489" height="2.488" rx="1.244" transform="translate(39.819 52.982)" fill="none" stroke="#707070" stroke-linecap="round" stroke-linejoin="round" stroke-width="2"/>
        <path id="패스_1021" data-name="패스 1021" d="M157.418,164.651h0a1.244,1.244,0,0,1,0-2.488h0a1.244,1.244,0,0,1,0,2.488Z" transform="translate(-128.449 -133.407)" fill="none" stroke="#707070" stroke-linecap="round" stroke-linejoin="round" stroke-width="2"/>
        <path id="사각형_171" data-name="사각형 171" d="M3.372,0h0A3.372,3.372,0,0,1,6.746,3.372v0A3.373,3.373,0,0,1,3.373,6.745h0A3.372,3.372,0,0,1,0,3.373v0A3.372,3.372,0,0,1,3.372,0Z" transform="translate(13.917 50.854)" fill="none" stroke="#707070" stroke-linecap="round" stroke-linejoin="round" stroke-width="2"/>
        <path id="패스_1022" data-name="패스 1022" d="M10.373,297.312h0a3.373,3.373,0,0,1,0-6.746h0a3.373,3.373,0,0,1,0,6.746Z" transform="translate(-4.947 -239.712)" fill="none" stroke="#707070" stroke-linecap="round" stroke-linejoin="round" stroke-width="2"/>
        <path id="사각형_172" data-name="사각형 172" d="M3.372,0h0A3.372,3.372,0,0,1,6.746,3.372v0A3.373,3.373,0,0,1,3.373,6.745h0A3.372,3.372,0,0,1,0,3.373v0A3.372,3.372,0,0,1,3.372,0Z" transform="translate(13.917 38.99)" fill="none" stroke="#707070" stroke-linecap="round" stroke-linejoin="round" stroke-width="2"/>
        <path id="사각형_173" data-name="사각형 173" d="M3.373,0h0A3.373,3.373,0,0,1,6.746,3.373v0A3.373,3.373,0,0,1,3.373,6.745h0A3.373,3.373,0,0,1,0,3.372v0A3.373,3.373,0,0,1,3.373,0Z" transform="translate(2.053 38.99)" fill="none" stroke="#707070" stroke-linecap="round" stroke-linejoin="round" stroke-width="2"/>
        <path id="패스_1023" data-name="패스 1023" d="M20.612,236.484h0a1.244,1.244,0,0,1,0-2.489h0a1.244,1.244,0,0,1,0,2.489Z" transform="translate(-15.187 -192.877)" fill="none" stroke="#707070" stroke-linecap="round" stroke-linejoin="round" stroke-width="2"/>
      </g>
    </g>
    <g id="타원_171" data-name="타원 171" transform="translate(476 6571)" fill="none" stroke="#707070" stroke-width="2">
      <circle cx="64.5" cy="64.5" r="64.5" stroke="none"/>
      <circle cx="64.5" cy="64.5" r="63.5" fill="none"/>
    </g>
  </g>
</svg>
