<svg xmlns="http://www.w3.org/2000/svg" xmlns:xlink="http://www.w3.org/1999/xlink" width="156.658" height="190.795" viewBox="0 0 156.658 190.795">
  <defs>
    <clipPath id="clip-path">
      <rect width="156.658" height="190.795" fill="none"/>
    </clipPath>
    <clipPath id="clip-path-2">
      <rect id="사각형_148" data-name="사각형 148" width="156.658" height="190.795" transform="translate(-2 -2)" fill="none" stroke="#d5d9e6" stroke-width="5"/>
    </clipPath>
  </defs>
  <g id="반복_그리드_2" data-name="반복 그리드 2" clip-path="url(#clip-path)">
    <g id="그룹_481" data-name="그룹 481" transform="translate(2 2)">
      <g id="그룹_480" data-name="그룹 480" transform="translate(0 0)" clip-path="url(#clip-path-2)">
        <path id="패스_1012" data-name="패스 1012" d="M66.924,102.049c-.573.054-1.154.082-1.737.089H64.9c-.681,0-1.345-.028-2-.089Z" transform="translate(46.373 75.234)" fill="#fff" stroke="#d5d9e6" stroke-width="4" fill-rule="evenodd"/>
        <path id="패스_1013" data-name="패스 1013" d="M115.628,35.022V8.9a7.586,7.586,0,0,0-2.316-5.587A7.658,7.658,0,0,0,107.694,1H8.9A7.592,7.592,0,0,0,3.316,3.317,7.586,7.586,0,0,0,1,8.9V151.936a7.59,7.59,0,0,0,2.316,5.589A7.6,7.6,0,0,0,8.9,159.842H57.837M43.446,32.734A40.971,40.971,0,0,0,34.47,39.6,38.278,38.278,0,0,0,22.83,67.68,38.267,38.267,0,0,0,34.47,95.764a40.819,40.819,0,0,0,9.035,6.893m8.771-53.912a22.453,22.453,0,0,0-4.922,3.765,21.53,21.53,0,0,0,0,30.459,22.526,22.526,0,0,0,4.922,3.763m17.633-30.69V177.414a7.909,7.909,0,0,0,7.906,7.906h65.436a7.906,7.906,0,0,0,7.932-7.906V56.042a7.909,7.909,0,0,0-7.932-7.906H77.815a7.912,7.912,0,0,0-7.906,7.906ZM57.837,151.156a19.056,19.056,0,0,1-13.552-5.792,21.811,21.811,0,0,1-1.708-1.937m-28.81-9.035h44.07m46.933-65.35a40.981,40.981,0,0,1,8.976,6.864,38.261,38.261,0,0,1,11.638,28.084,38.271,38.271,0,0,1-11.638,28.086,40.889,40.889,0,0,1-9.034,6.888M95.94,85.053a22.607,22.607,0,0,1,4.922,3.763,21.528,21.528,0,0,1,0,30.461,22.441,22.441,0,0,1-4.922,3.765m16.62,53.505a18.965,18.965,0,0,0,11.987-5.7,21.8,21.8,0,0,0,1.706-1.939m-13.693,7.64c-.573.054-1.154.082-1.737.089h-.29c-.681,0-1.346-.028-2-.089a18.95,18.95,0,0,1-12.016-5.7,22.107,22.107,0,0,1-1.708-1.939m44.791-9.063H82.042" transform="translate(0.737 0.737)" fill="none" stroke="#d5d9e6" stroke-linecap="round" stroke-linejoin="round" stroke-width="4"/>
      </g>
    </g>
  </g>
</svg>
