<svg xmlns="http://www.w3.org/2000/svg" width="1400" height="188.246" viewBox="0 0 1400 188.246">
  <g id="그룹_283" data-name="그룹 283" transform="translate(0 1.5)">
    <g id="그룹_227" data-name="그룹 227" transform="translate(0 18.045)">
      <ellipse id="타원_28" data-name="타원 28" cx="46.523" cy="46.523" rx="46.523" ry="46.523" fill="#f15a29" opacity="0.2"/>
      <ellipse id="타원_29" data-name="타원 29" cx="28.347" cy="28.347" rx="28.347" ry="28.347" transform="translate(18.176 18.176)" fill="#f15a29" opacity="0.3"/>
      <ellipse id="타원_30" data-name="타원 30" cx="11.917" cy="11.917" rx="11.917" ry="11.917" transform="translate(34.606 34.607)" fill="#f15a29"/>
    </g>
    <g id="그룹_228" data-name="그룹 228" transform="translate(652.233 18.045)">
      <ellipse id="타원_31" data-name="타원 31" cx="46.523" cy="46.523" rx="46.523" ry="46.523" fill="#f15a29" opacity="0.2"/>
      <ellipse id="타원_32" data-name="타원 32" cx="28.347" cy="28.347" rx="28.347" ry="28.347" transform="translate(18.176 18.176)" fill="#f15a29" opacity="0.3"/>
      <ellipse id="타원_33" data-name="타원 33" cx="11.917" cy="11.917" rx="11.917" ry="11.917" transform="translate(34.607 34.607)" fill="#f15a29"/>
    </g>
    <g id="그룹_229" data-name="그룹 229" transform="translate(1306.954 18.045)">
      <ellipse id="타원_34" data-name="타원 34" cx="46.523" cy="46.523" rx="46.523" ry="46.523" fill="#f15a29" opacity="0.2"/>
      <ellipse id="타원_35" data-name="타원 35" cx="28.347" cy="28.347" rx="28.347" ry="28.347" transform="translate(18.176 18.176)" fill="#f15a29" opacity="0.3"/>
      <ellipse id="타원_36" data-name="타원 36" cx="11.917" cy="11.917" rx="11.917" ry="11.917" transform="translate(34.607 34.607)" fill="#f15a29"/>
    </g>
    <g id="그룹_282" data-name="그룹 282" transform="translate(10.247 0)" opacity="0.5">
      <path id="패스_288" data-name="패스 288" d="M235.319,575.382V463.506a59.4,59.4,0,0,1,59.4-59.406" transform="translate(-121.44 -404.1)" fill="none" stroke="#06283d" stroke-linecap="round" stroke-miterlimit="10" stroke-width="3"/>
      <path id="패스_289" data-name="패스 289" d="M413.6,575.382V463.506a59.4,59.4,0,0,1,59.4-59.406" transform="translate(-156.738 -404.1)" fill="none" stroke="#06283d" stroke-linecap="round" stroke-miterlimit="10" stroke-width="3"/>
      <path id="패스_290" data-name="패스 290" d="M591.883,575.382V463.506a59.4,59.4,0,0,1,59.4-59.406" transform="translate(-192.037 -404.1)" fill="none" stroke="#06283d" stroke-linecap="round" stroke-miterlimit="10" stroke-width="3"/>
      <path id="패스_291" data-name="패스 291" d="M770.165,575.382V463.506a59.4,59.4,0,0,1,59.4-59.406" transform="translate(-227.336 -404.1)" fill="none" stroke="#06283d" stroke-linecap="round" stroke-miterlimit="10" stroke-width="3"/>
      <path id="패스_292" data-name="패스 292" d="M948.447,575.382V463.506a59.4,59.4,0,0,1,59.4-59.406" transform="translate(-262.634 -404.1)" fill="none" stroke="#06283d" stroke-linecap="round" stroke-miterlimit="10" stroke-width="3"/>
      <path id="패스_293" data-name="패스 293" d="M1126.729,575.382V463.506a59.4,59.4,0,0,1,59.4-59.406" transform="translate(-297.933 -404.1)" fill="none" stroke="#06283d" stroke-linecap="round" stroke-miterlimit="10" stroke-width="3"/>
      <path id="패스_294" data-name="패스 294" d="M1305.011,575.382V463.506a59.4,59.4,0,0,1,59.4-59.406" transform="translate(-333.232 -404.1)" fill="none" stroke="#06283d" stroke-linecap="round" stroke-miterlimit="10" stroke-width="3"/>
      <path id="패스_295" data-name="패스 295" d="M1483.293,575.382V463.506a59.4,59.4,0,0,1,59.4-59.406" transform="translate(-368.53 -404.1)" fill="none" stroke="#06283d" stroke-linecap="round" stroke-miterlimit="10" stroke-width="3"/>
      <path id="패스_296" data-name="패스 296" d="M1661.575,575.382V463.506a59.4,59.4,0,0,1,59.4-59.406" transform="translate(-403.829 -404.1)" fill="none" stroke="#06283d" stroke-linecap="round" stroke-miterlimit="10" stroke-width="3"/>
      <path id="사각형_77" data-name="사각형 77" d="M74.071,0H1290.428A74.071,74.071,0,0,1,1364.5,74.071v97.212a0,0,0,0,1,0,0H0a0,0,0,0,1,0,0V74.071A74.071,74.071,0,0,1,74.071,0Z" transform="translate(12.829)" fill="none" stroke="#06283d" stroke-linecap="round" stroke-miterlimit="10" stroke-width="3"/>
      <g id="그룹_255" data-name="그룹 255" transform="translate(0 111.456)">
        <g id="그룹_230" data-name="그룹 230" transform="translate(5.372 9.113)">
          <path id="패스_297" data-name="패스 297" d="M117.649,573.786s2.333-4.671-3.4-12.952a13.847,13.847,0,0,0-14.225-6.157s2.972,7.856,8.068,11.677S116.59,570.6,117.649,573.786Z" transform="translate(-100.024 -554.434)" fill="#8dc63f"/>
          <path id="패스_298" data-name="패스 298" d="M122.4,574.529s-1.971-3.946,2.872-10.94a11.7,11.7,0,0,1,12.016-5.2s-2.511,6.635-6.815,9.863S123.291,571.839,122.4,574.529Z" transform="translate(-104.375 -555.176)" fill="#72a433"/>
        </g>
        <g id="그룹_231" data-name="그룹 231" transform="translate(38.978)">
          <path id="패스_299" data-name="패스 299" d="M148.507,572.841a13.205,13.205,0,0,0,2.58-11.915,16.175,16.175,0,0,1,4.668-16.093s-4.545,7.985-3.071,14,2.211,10.073.369,14Z" transform="translate(-143.229 -543.42)" fill="#8dc63f"/>
          <path id="패스_300" data-name="패스 300" d="M153.1,567.644s1.843-6.511,8.6-5.528C161.7,562.116,161.333,570.224,153.1,567.644Z" transform="translate(-144.139 -546.822)" fill="#72a433"/>
          <path id="패스_301" data-name="패스 301" d="M153.071,552.682s2.145-4.523,6.952-2.975C160.023,549.706,158.758,555.576,153.071,552.682Z" transform="translate(-144.133 -544.321)" fill="#72a433"/>
          <path id="패스_302" data-name="패스 302" d="M150.521,562.362s-3.06-5.973-8.6-4.37C141.926,557.992,143.82,565.712,150.521,562.362Z" transform="translate(-141.926 -545.971)" fill="#72a433"/>
          <path id="패스_303" data-name="패스 303" d="M154,547.8s-.739-4.6-4.737-4.73C149.26,543.071,148.854,548.576,154,547.8Z" transform="translate(-143.377 -543.071)" fill="#72a433"/>
        </g>
        <g id="그룹_232" data-name="그룹 232" transform="translate(55.044 9.113)">
          <path id="패스_304" data-name="패스 304" d="M179.584,573.786s2.333-4.671-3.4-12.952a13.846,13.846,0,0,0-14.225-6.157s2.973,7.856,8.068,11.677S178.525,570.6,179.584,573.786Z" transform="translate(-161.959 -554.434)" fill="#8dc63f"/>
          <path id="패스_305" data-name="패스 305" d="M184.332,574.529s-1.971-3.946,2.872-10.94a11.7,11.7,0,0,1,12.016-5.2s-2.511,6.635-6.815,9.863S185.226,571.839,184.332,574.529Z" transform="translate(-166.31 -555.176)" fill="#72a433"/>
        </g>
        <g id="그룹_233" data-name="그룹 233" transform="translate(88.65)">
          <path id="패스_306" data-name="패스 306" d="M210.442,572.841a13.2,13.2,0,0,0,2.58-11.915,16.175,16.175,0,0,1,4.668-16.093s-4.545,7.985-3.071,14,2.211,10.073.369,14Z" transform="translate(-205.164 -543.42)" fill="#8dc63f"/>
          <path id="패스_307" data-name="패스 307" d="M215.037,567.644s1.843-6.511,8.6-5.528C223.636,562.116,223.268,570.224,215.037,567.644Z" transform="translate(-206.074 -546.822)" fill="#72a433"/>
          <path id="패스_308" data-name="패스 308" d="M215.007,552.682s2.144-4.523,6.952-2.975C221.959,549.706,220.693,555.576,215.007,552.682Z" transform="translate(-206.068 -544.321)" fill="#72a433"/>
          <path id="패스_309" data-name="패스 309" d="M212.456,562.362s-3.059-5.973-8.6-4.37C203.861,557.992,205.755,565.712,212.456,562.362Z" transform="translate(-203.861 -545.971)" fill="#72a433"/>
          <path id="패스_310" data-name="패스 310" d="M215.933,547.8s-.739-4.6-4.737-4.73C211.2,543.071,210.789,548.576,215.933,547.8Z" transform="translate(-205.312 -543.071)" fill="#72a433"/>
        </g>
        <g id="그룹_234" data-name="그룹 234" transform="translate(104.717 9.113)">
          <path id="패스_311" data-name="패스 311" d="M241.52,573.786s2.332-4.671-3.4-12.952a13.848,13.848,0,0,0-14.226-6.157s2.973,7.856,8.068,11.677S240.46,570.6,241.52,573.786Z" transform="translate(-223.894 -554.434)" fill="#8dc63f"/>
          <path id="패스_312" data-name="패스 312" d="M246.267,574.529s-1.971-3.946,2.872-10.94a11.7,11.7,0,0,1,12.016-5.2s-2.51,6.635-6.815,9.863S247.162,571.839,246.267,574.529Z" transform="translate(-228.245 -555.176)" fill="#72a433"/>
        </g>
        <g id="그룹_235" data-name="그룹 235" transform="translate(154.39 9.113)">
          <path id="패스_313" data-name="패스 313" d="M303.455,573.786s2.333-4.671-3.4-12.952a13.847,13.847,0,0,0-14.225-6.157s2.972,7.856,8.067,11.677S302.4,570.6,303.455,573.786Z" transform="translate(-285.83 -554.434)" fill="#8dc63f"/>
          <path id="패스_314" data-name="패스 314" d="M308.2,574.529s-1.97-3.946,2.871-10.94a11.7,11.7,0,0,1,12.016-5.2s-2.51,6.635-6.815,9.863S309.1,571.839,308.2,574.529Z" transform="translate(-290.181 -555.176)" fill="#72a433"/>
        </g>
        <g id="그룹_236" data-name="그룹 236" transform="translate(187.995)">
          <path id="패스_315" data-name="패스 315" d="M334.313,572.841a13.2,13.2,0,0,0,2.579-11.915,16.175,16.175,0,0,1,4.669-16.093s-4.545,7.985-3.071,14,2.211,10.073.368,14Z" transform="translate(-329.035 -543.42)" fill="#8dc63f"/>
          <path id="패스_316" data-name="패스 316" d="M338.908,567.644s1.842-6.511,8.6-5.528C347.507,562.116,347.138,570.224,338.908,567.644Z" transform="translate(-329.945 -546.822)" fill="#72a433"/>
          <path id="패스_317" data-name="패스 317" d="M338.877,552.682s2.144-4.523,6.952-2.975C345.829,549.706,344.564,555.576,338.877,552.682Z" transform="translate(-329.939 -544.321)" fill="#72a433"/>
          <path id="패스_318" data-name="패스 318" d="M336.326,562.362s-3.059-5.973-8.594-4.37C327.732,557.992,329.626,565.712,336.326,562.362Z" transform="translate(-327.732 -545.971)" fill="#72a433"/>
          <path id="패스_319" data-name="패스 319" d="M339.8,547.8s-.738-4.6-4.737-4.73C335.065,543.071,334.659,548.576,339.8,547.8Z" transform="translate(-329.182 -543.071)" fill="#72a433"/>
        </g>
        <g id="그룹_237" data-name="그룹 237" transform="translate(204.062 9.113)">
          <path id="패스_320" data-name="패스 320" d="M365.39,573.786s2.333-4.671-3.4-12.952a13.847,13.847,0,0,0-14.225-6.157s2.972,7.856,8.068,11.677S364.331,570.6,365.39,573.786Z" transform="translate(-347.765 -554.434)" fill="#8dc63f"/>
          <path id="패스_321" data-name="패스 321" d="M370.138,574.529s-1.971-3.946,2.871-10.94a11.7,11.7,0,0,1,12.016-5.2s-2.511,6.635-6.815,9.863S371.032,571.839,370.138,574.529Z" transform="translate(-352.116 -555.176)" fill="#72a433"/>
        </g>
        <g id="그룹_238" data-name="그룹 238" transform="translate(237.668)">
          <path id="패스_322" data-name="패스 322" d="M396.248,572.841a13.2,13.2,0,0,0,2.579-11.915,16.175,16.175,0,0,1,4.668-16.093s-4.545,7.985-3.071,14,2.211,10.073.368,14Z" transform="translate(-390.97 -543.42)" fill="#8dc63f"/>
          <path id="패스_323" data-name="패스 323" d="M400.843,567.644s1.843-6.511,8.6-5.528C409.442,562.116,409.073,570.224,400.843,567.644Z" transform="translate(-391.88 -546.822)" fill="#72a433"/>
          <path id="패스_324" data-name="패스 324" d="M400.812,552.682s2.144-4.523,6.952-2.975C407.764,549.706,406.5,555.576,400.812,552.682Z" transform="translate(-391.874 -544.321)" fill="#72a433"/>
          <path id="패스_325" data-name="패스 325" d="M398.262,562.362s-3.06-5.973-8.6-4.37C389.667,557.992,391.561,565.712,398.262,562.362Z" transform="translate(-389.667 -545.971)" fill="#72a433"/>
          <path id="패스_326" data-name="패스 326" d="M401.738,547.8s-.738-4.6-4.737-4.73C397,543.071,396.594,548.576,401.738,547.8Z" transform="translate(-391.117 -543.071)" fill="#72a433"/>
        </g>
        <g id="그룹_239" data-name="그룹 239" transform="translate(253.734 9.113)">
          <path id="패스_327" data-name="패스 327" d="M427.325,573.786s2.333-4.671-3.4-12.952a13.847,13.847,0,0,0-14.225-6.157s2.972,7.856,8.068,11.677S426.266,570.6,427.325,573.786Z" transform="translate(-409.7 -554.434)" fill="#8dc63f"/>
          <path id="패스_328" data-name="패스 328" d="M432.073,574.529s-1.971-3.946,2.872-10.94a11.7,11.7,0,0,1,12.016-5.2s-2.511,6.635-6.816,9.863S432.967,571.839,432.073,574.529Z" transform="translate(-414.051 -555.176)" fill="#72a433"/>
        </g>
        <g id="그룹_240" data-name="그룹 240" transform="translate(287.34)">
          <path id="패스_329" data-name="패스 329" d="M458.183,572.841a13.205,13.205,0,0,0,2.58-11.915,16.175,16.175,0,0,1,4.668-16.093s-4.545,7.985-3.071,14,2.211,10.073.368,14Z" transform="translate(-452.905 -543.42)" fill="#8dc63f"/>
          <path id="패스_330" data-name="패스 330" d="M462.778,567.644s1.843-6.511,8.6-5.528C471.377,562.116,471.009,570.224,462.778,567.644Z" transform="translate(-453.815 -546.822)" fill="#72a433"/>
          <path id="패스_331" data-name="패스 331" d="M462.747,552.682s2.145-4.523,6.952-2.975C469.7,549.706,468.434,555.576,462.747,552.682Z" transform="translate(-453.809 -544.321)" fill="#72a433"/>
          <path id="패스_332" data-name="패스 332" d="M460.2,562.362s-3.06-5.973-8.6-4.37C451.6,557.992,453.5,565.712,460.2,562.362Z" transform="translate(-451.602 -545.971)" fill="#72a433"/>
          <path id="패스_333" data-name="패스 333" d="M463.673,547.8s-.739-4.6-4.738-4.73C458.935,543.071,458.529,548.576,463.673,547.8Z" transform="translate(-453.052 -543.071)" fill="#72a433"/>
        </g>
        <g id="그룹_241" data-name="그룹 241" transform="translate(304.229 9.113)">
          <path id="패스_334" data-name="패스 334" d="M490.286,573.786s2.333-4.671-3.4-12.952a13.847,13.847,0,0,0-14.225-6.157s2.972,7.856,8.067,11.677S489.226,570.6,490.286,573.786Z" transform="translate(-472.661 -554.434)" fill="#8dc63f"/>
          <path id="패스_335" data-name="패스 335" d="M495.033,574.529s-1.971-3.946,2.872-10.94a11.7,11.7,0,0,1,12.016-5.2s-2.51,6.635-6.815,9.863S495.928,571.839,495.033,574.529Z" transform="translate(-477.012 -555.176)" fill="#72a433"/>
        </g>
        <g id="그룹_242" data-name="그룹 242" transform="translate(355.052 9.113)">
          <path id="패스_336" data-name="패스 336" d="M553.657,573.786s2.332-4.671-3.4-12.952a13.846,13.846,0,0,0-14.225-6.157s2.973,7.856,8.068,11.677S552.6,570.6,553.657,573.786Z" transform="translate(-536.031 -554.434)" fill="#8dc63f"/>
          <path id="패스_337" data-name="패스 337" d="M558.4,574.529s-1.971-3.946,2.872-10.94a11.7,11.7,0,0,1,12.016-5.2s-2.511,6.635-6.815,9.863S559.3,571.839,558.4,574.529Z" transform="translate(-540.382 -555.176)" fill="#72a433"/>
        </g>
        <g id="그룹_243" data-name="그룹 243" transform="translate(388.823)">
          <path id="패스_338" data-name="패스 338" d="M584.72,572.841a13.2,13.2,0,0,0,2.579-11.915,16.175,16.175,0,0,1,4.669-16.093s-4.546,7.985-3.072,14,2.211,10.073.369,14Z" transform="translate(-579.441 -543.42)" fill="#8dc63f"/>
          <path id="패스_339" data-name="패스 339" d="M589.315,567.644s1.842-6.511,8.6-5.528C597.914,562.116,597.545,570.224,589.315,567.644Z" transform="translate(-580.351 -546.822)" fill="#72a433"/>
          <path id="패스_340" data-name="패스 340" d="M589.284,552.682s2.144-4.523,6.952-2.975C596.236,549.706,594.97,555.576,589.284,552.682Z" transform="translate(-580.345 -544.321)" fill="#72a433"/>
          <path id="패스_341" data-name="패스 341" d="M586.733,562.362s-3.059-5.973-8.6-4.37C578.138,557.992,580.032,565.712,586.733,562.362Z" transform="translate(-578.138 -545.971)" fill="#72a433"/>
          <path id="패스_342" data-name="패스 342" d="M590.21,547.8s-.739-4.6-4.737-4.73C585.472,543.071,585.065,548.576,590.21,547.8Z" transform="translate(-579.589 -543.071)" fill="#72a433"/>
        </g>
        <g id="그룹_244" data-name="그룹 244" transform="translate(405.054 9.113)">
          <path id="패스_343" data-name="패스 343" d="M616,573.786s2.333-4.671-3.4-12.952a13.847,13.847,0,0,0-14.225-6.157s2.972,7.856,8.067,11.677S614.943,570.6,616,573.786Z" transform="translate(-598.377 -554.434)" fill="#8dc63f"/>
          <path id="패스_344" data-name="패스 344" d="M620.75,574.529s-1.971-3.946,2.871-10.94a11.7,11.7,0,0,1,12.016-5.2s-2.51,6.635-6.815,9.863S621.644,571.839,620.75,574.529Z" transform="translate(-602.728 -555.176)" fill="#72a433"/>
        </g>
        <g id="그룹_245" data-name="그룹 245" transform="translate(439.482)">
          <path id="패스_345" data-name="패스 345" d="M647.885,572.841a13.205,13.205,0,0,0,2.58-11.915,16.175,16.175,0,0,1,4.668-16.093s-4.545,7.985-3.071,14,2.211,10.073.369,14Z" transform="translate(-642.607 -543.42)" fill="#8dc63f"/>
          <path id="패스_346" data-name="패스 346" d="M652.48,567.644s1.843-6.511,8.6-5.528C661.079,562.116,660.711,570.224,652.48,567.644Z" transform="translate(-643.517 -546.822)" fill="#72a433"/>
          <path id="패스_347" data-name="패스 347" d="M652.449,552.682s2.145-4.523,6.952-2.975C659.4,549.706,658.136,555.576,652.449,552.682Z" transform="translate(-643.511 -544.321)" fill="#72a433"/>
          <path id="패스_348" data-name="패스 348" d="M649.9,562.362s-3.06-5.973-8.6-4.37C641.3,557.992,643.2,565.712,649.9,562.362Z" transform="translate(-641.304 -545.971)" fill="#72a433"/>
          <path id="패스_349" data-name="패스 349" d="M653.375,547.8s-.739-4.6-4.738-4.73C648.637,543.071,648.231,548.576,653.375,547.8Z" transform="translate(-642.754 -543.071)" fill="#72a433"/>
        </g>
        <g id="그룹_246" data-name="그룹 246" transform="translate(455.549 9.113)">
          <path id="패스_350" data-name="패스 350" d="M678.963,573.786s2.332-4.671-3.4-12.952a13.846,13.846,0,0,0-14.225-6.157s2.972,7.856,8.068,11.677S677.9,570.6,678.963,573.786Z" transform="translate(-661.337 -554.434)" fill="#8dc63f"/>
          <path id="패스_351" data-name="패스 351" d="M683.71,574.529s-1.971-3.946,2.872-10.94a11.7,11.7,0,0,1,12.016-5.2s-2.511,6.635-6.815,9.863S684.6,571.839,683.71,574.529Z" transform="translate(-665.688 -555.176)" fill="#72a433"/>
        </g>
        <g id="그룹_247" data-name="그룹 247" transform="translate(489.319)">
          <path id="패스_352" data-name="패스 352" d="M710.025,572.841a13.2,13.2,0,0,0,2.58-11.915,16.177,16.177,0,0,1,4.668-16.093s-4.545,7.985-3.071,14,2.211,10.073.369,14Z" transform="translate(-704.747 -543.42)" fill="#8dc63f"/>
          <path id="패스_353" data-name="패스 353" d="M714.621,567.644s1.842-6.511,8.6-5.528C723.219,562.116,722.851,570.224,714.621,567.644Z" transform="translate(-705.657 -546.822)" fill="#72a433"/>
          <path id="패스_354" data-name="패스 354" d="M714.59,552.682s2.144-4.523,6.952-2.975C721.542,549.706,720.276,555.576,714.59,552.682Z" transform="translate(-705.651 -544.321)" fill="#72a433"/>
          <path id="패스_355" data-name="패스 355" d="M712.039,562.362s-3.059-5.973-8.6-4.37C703.444,557.992,705.338,565.712,712.039,562.362Z" transform="translate(-703.444 -545.971)" fill="#72a433"/>
          <path id="패스_356" data-name="패스 356" d="M715.516,547.8s-.739-4.6-4.737-4.73C710.778,543.071,710.372,548.576,715.516,547.8Z" transform="translate(-704.895 -543.071)" fill="#72a433"/>
        </g>
        <g id="그룹_248" data-name="그룹 248" transform="translate(505.385 9.113)">
          <path id="패스_357" data-name="패스 357" d="M741.1,573.786s2.332-4.671-3.4-12.952a13.848,13.848,0,0,0-14.226-6.157s2.973,7.856,8.068,11.677S740.043,570.6,741.1,573.786Z" transform="translate(-723.477 -554.434)" fill="#8dc63f"/>
          <path id="패스_358" data-name="패스 358" d="M745.85,574.529s-1.971-3.946,2.872-10.94a11.7,11.7,0,0,1,12.016-5.2s-2.51,6.635-6.815,9.863S746.745,571.839,745.85,574.529Z" transform="translate(-727.828 -555.176)" fill="#72a433"/>
        </g>
        <g id="그룹_249" data-name="그룹 249" transform="translate(555.716 9.113)">
          <path id="패스_359" data-name="패스 359" d="M803.858,573.786s2.333-4.671-3.4-12.952a13.847,13.847,0,0,0-14.225-6.157s2.972,7.856,8.068,11.677S802.8,570.6,803.858,573.786Z" transform="translate(-786.233 -554.434)" fill="#8dc63f"/>
          <path id="패스_360" data-name="패스 360" d="M808.606,574.529s-1.97-3.946,2.872-10.94a11.7,11.7,0,0,1,12.016-5.2s-2.511,6.635-6.815,9.863S809.5,571.839,808.606,574.529Z" transform="translate(-790.584 -555.176)" fill="#72a433"/>
        </g>
        <g id="그룹_250" data-name="그룹 250" transform="translate(588.006)">
          <path id="패스_361" data-name="패스 361" d="M833.075,572.841a13.2,13.2,0,0,0,2.58-11.915,16.175,16.175,0,0,1,4.668-16.093s-4.546,7.985-3.072,14,2.211,10.073.369,14Z" transform="translate(-827.797 -543.42)" fill="#8dc63f"/>
          <path id="패스_362" data-name="패스 362" d="M837.671,567.644s1.842-6.511,8.6-5.528C846.269,562.116,845.9,570.224,837.671,567.644Z" transform="translate(-828.707 -546.822)" fill="#72a433"/>
          <path id="패스_363" data-name="패스 363" d="M837.64,552.682s2.144-4.523,6.952-2.975C844.592,549.706,843.326,555.576,837.64,552.682Z" transform="translate(-828.701 -544.321)" fill="#72a433"/>
          <path id="패스_364" data-name="패스 364" d="M835.089,562.362s-3.059-5.973-8.6-4.37C826.494,557.992,828.388,565.712,835.089,562.362Z" transform="translate(-826.494 -545.971)" fill="#72a433"/>
          <path id="패스_365" data-name="패스 365" d="M838.566,547.8s-.739-4.6-4.737-4.73C833.828,543.071,833.422,548.576,838.566,547.8Z" transform="translate(-827.945 -543.071)" fill="#72a433"/>
        </g>
        <g id="그룹_251" data-name="그룹 251" transform="translate(539.896)">
          <path id="패스_366" data-name="패스 366" d="M773.089,572.841a13.2,13.2,0,0,0,2.579-11.915,16.175,16.175,0,0,1,4.668-16.093s-4.546,7.985-3.072,14,2.211,10.073.369,14Z" transform="translate(-767.81 -543.42)" fill="#8dc63f"/>
          <path id="패스_367" data-name="패스 367" d="M777.684,567.644s1.842-6.511,8.6-5.528C786.283,562.116,785.914,570.224,777.684,567.644Z" transform="translate(-768.72 -546.822)" fill="#72a433"/>
          <path id="패스_368" data-name="패스 368" d="M777.653,552.682s2.144-4.523,6.952-2.975C784.6,549.706,783.34,555.576,777.653,552.682Z" transform="translate(-768.714 -544.321)" fill="#72a433"/>
          <path id="패스_369" data-name="패스 369" d="M775.1,562.362s-3.059-5.973-8.6-4.37C766.507,557.992,768.4,565.712,775.1,562.362Z" transform="translate(-766.507 -545.971)" fill="#72a433"/>
          <path id="패스_370" data-name="패스 370" d="M778.579,547.8s-.739-4.6-4.737-4.73C773.841,543.071,773.435,548.576,778.579,547.8Z" transform="translate(-767.958 -543.071)" fill="#72a433"/>
        </g>
        <g id="그룹_252" data-name="그룹 252" transform="translate(604.895 9.113)">
          <path id="패스_371" data-name="패스 371" d="M865.178,573.786s2.333-4.671-3.4-12.952a13.846,13.846,0,0,0-14.225-6.157s2.972,7.856,8.068,11.677S864.119,570.6,865.178,573.786Z" transform="translate(-847.553 -554.434)" fill="#8dc63f"/>
          <path id="패스_372" data-name="패스 372" d="M869.926,574.529s-1.971-3.946,2.871-10.94a11.7,11.7,0,0,1,12.016-5.2s-2.511,6.635-6.815,9.863S870.82,571.839,869.926,574.529Z" transform="translate(-851.904 -555.176)" fill="#72a433"/>
        </g>
        <g id="그룹_253" data-name="그룹 253" transform="translate(639.487)">
          <path id="패스_373" data-name="패스 373" d="M897.267,572.841a13.2,13.2,0,0,0,2.579-11.915,16.175,16.175,0,0,1,4.668-16.093s-4.546,7.985-3.072,14,2.211,10.073.369,14Z" transform="translate(-891.988 -543.42)" fill="#8dc63f"/>
          <path id="패스_374" data-name="패스 374" d="M901.862,567.644s1.842-6.511,8.6-5.528C910.461,562.116,910.092,570.224,901.862,567.644Z" transform="translate(-892.898 -546.822)" fill="#72a433"/>
          <path id="패스_375" data-name="패스 375" d="M901.831,552.682s2.144-4.523,6.952-2.975C908.783,549.706,907.518,555.576,901.831,552.682Z" transform="translate(-892.892 -544.321)" fill="#72a433"/>
          <path id="패스_376" data-name="패스 376" d="M899.28,562.362s-3.059-5.973-8.6-4.37C890.685,557.992,892.579,565.712,899.28,562.362Z" transform="translate(-890.685 -545.971)" fill="#72a433"/>
          <path id="패스_377" data-name="패스 377" d="M902.757,547.8s-.739-4.6-4.737-4.73C898.019,543.071,897.612,548.576,902.757,547.8Z" transform="translate(-892.136 -543.071)" fill="#72a433"/>
        </g>
        <g id="그룹_254" data-name="그룹 254" transform="translate(655.39 9.113)">
          <path id="패스_378" data-name="패스 378" d="M928.139,573.786s2.332-4.671-3.4-12.952a13.848,13.848,0,0,0-14.226-6.157s2.973,7.856,8.068,11.677S927.079,570.6,928.139,573.786Z" transform="translate(-910.513 -554.434)" fill="#8dc63f"/>
          <path id="패스_379" data-name="패스 379" d="M932.886,574.529s-1.97-3.946,2.872-10.94a11.7,11.7,0,0,1,12.016-5.2s-2.51,6.635-6.815,9.863S933.781,571.839,932.886,574.529Z" transform="translate(-914.864 -555.176)" fill="#72a433"/>
        </g>
        <rect id="사각형_78" data-name="사각형 78" width="691.148" height="25.467" rx="12.734" transform="translate(0 31.057)" fill="#966238"/>
        <path id="패스_380" data-name="패스 380" d="M149.146,613.55H826.08c5.824,0,10.589,4.222,10.589,9.383h0c0,5.16-4.765,9.383-10.589,9.383H149.146c-5.824,0-10.589-4.223-10.589-9.383h0C138.557,617.772,143.322,613.55,149.146,613.55Z" transform="translate(-102.281 -557.025)" fill="#794e29"/>
        <path id="패스_381" data-name="패스 381" d="M778.988,591.862h-9.383a7.843,7.843,0,0,1-7.82-7.82h0a7.842,7.842,0,0,1,7.82-7.819h9.383a7.842,7.842,0,0,1,7.819,7.819h0A7.842,7.842,0,0,1,778.988,591.862Z" transform="translate(-225.677 -549.635)" fill="#966238"/>
        <path id="패스_382" data-name="패스 382" d="M810.185,591.862H800.8a7.842,7.842,0,0,1-7.819-7.82h0a7.842,7.842,0,0,1,7.819-7.819h9.383a7.842,7.842,0,0,1,7.82,7.819h0A7.843,7.843,0,0,1,810.185,591.862Z" transform="translate(-231.854 -549.635)" fill="#966238"/>
        <path id="패스_383" data-name="패스 383" d="M841.383,591.862H832a7.842,7.842,0,0,1-7.819-7.82h0A7.842,7.842,0,0,1,832,576.224h9.383a7.842,7.842,0,0,1,7.819,7.819h0A7.842,7.842,0,0,1,841.383,591.862Z" transform="translate(-238.031 -549.635)" fill="#966238"/>
        <path id="패스_384" data-name="패스 384" d="M872.58,591.862H863.2a7.842,7.842,0,0,1-7.819-7.82h0a7.842,7.842,0,0,1,7.819-7.819h9.383a7.842,7.842,0,0,1,7.82,7.819h0A7.843,7.843,0,0,1,872.58,591.862Z" transform="translate(-244.207 -549.635)" fill="#966238"/>
        <path id="패스_385" data-name="패스 385" d="M903.778,591.862H894.4a7.842,7.842,0,0,1-7.819-7.82h0a7.842,7.842,0,0,1,7.819-7.819h9.383a7.842,7.842,0,0,1,7.819,7.819h0A7.842,7.842,0,0,1,903.778,591.862Z" transform="translate(-250.384 -549.635)" fill="#966238"/>
        <path id="패스_386" data-name="패스 386" d="M934.975,591.862h-9.383a7.842,7.842,0,0,1-7.819-7.82h0a7.842,7.842,0,0,1,7.819-7.819h9.383a7.842,7.842,0,0,1,7.82,7.819h0A7.843,7.843,0,0,1,934.975,591.862Z" transform="translate(-256.561 -549.635)" fill="#966238"/>
        <path id="패스_387" data-name="패스 387" d="M591.8,591.862H582.42a7.842,7.842,0,0,1-7.819-7.82h0a7.842,7.842,0,0,1,7.819-7.819H591.8a7.842,7.842,0,0,1,7.819,7.819h0A7.842,7.842,0,0,1,591.8,591.862Z" transform="translate(-188.615 -549.635)" fill="#966238"/>
        <path id="패스_388" data-name="패스 388" d="M623,591.862h-9.383a7.842,7.842,0,0,1-7.819-7.82h0a7.842,7.842,0,0,1,7.819-7.819H623a7.842,7.842,0,0,1,7.819,7.819h0A7.842,7.842,0,0,1,623,591.862Z" transform="translate(-194.792 -549.635)" fill="#966238"/>
        <path id="패스_389" data-name="패스 389" d="M654.2,591.862h-9.383a7.843,7.843,0,0,1-7.82-7.82h0a7.842,7.842,0,0,1,7.82-7.819H654.2a7.842,7.842,0,0,1,7.819,7.819h0A7.842,7.842,0,0,1,654.2,591.862Z" transform="translate(-200.969 -549.635)" fill="#966238"/>
        <path id="패스_390" data-name="패스 390" d="M685.4,591.862h-9.383a7.842,7.842,0,0,1-7.819-7.82h0a7.842,7.842,0,0,1,7.819-7.819H685.4a7.842,7.842,0,0,1,7.819,7.819h0A7.842,7.842,0,0,1,685.4,591.862Z" transform="translate(-207.146 -549.635)" fill="#966238"/>
        <path id="패스_391" data-name="패스 391" d="M716.593,591.862h-9.383a7.843,7.843,0,0,1-7.82-7.82h0a7.842,7.842,0,0,1,7.82-7.819h9.383a7.842,7.842,0,0,1,7.819,7.819h0A7.842,7.842,0,0,1,716.593,591.862Z" transform="translate(-213.323 -549.635)" fill="#966238"/>
        <path id="패스_392" data-name="패스 392" d="M747.79,591.862h-9.383a7.842,7.842,0,0,1-7.819-7.82h0a7.842,7.842,0,0,1,7.819-7.819h9.383a7.842,7.842,0,0,1,7.819,7.819h0A7.842,7.842,0,0,1,747.79,591.862Z" transform="translate(-219.5 -549.635)" fill="#966238"/>
        <path id="패스_393" data-name="패스 393" d="M404.617,591.862h-9.383a7.842,7.842,0,0,1-7.819-7.82h0a7.842,7.842,0,0,1,7.819-7.819h9.383a7.842,7.842,0,0,1,7.82,7.819h0A7.843,7.843,0,0,1,404.617,591.862Z" transform="translate(-151.554 -549.635)" fill="#966238"/>
        <path id="패스_394" data-name="패스 394" d="M435.815,591.862h-9.383a7.842,7.842,0,0,1-7.819-7.82h0a7.842,7.842,0,0,1,7.819-7.819h9.383a7.842,7.842,0,0,1,7.819,7.819h0A7.842,7.842,0,0,1,435.815,591.862Z" transform="translate(-157.731 -549.635)" fill="#966238"/>
        <path id="패스_395" data-name="패스 395" d="M467.012,591.862H457.63a7.842,7.842,0,0,1-7.819-7.82h0a7.842,7.842,0,0,1,7.819-7.819h9.383a7.842,7.842,0,0,1,7.82,7.819h0A7.843,7.843,0,0,1,467.012,591.862Z" transform="translate(-163.908 -549.635)" fill="#966238"/>
        <path id="패스_396" data-name="패스 396" d="M498.21,591.862h-9.383a7.842,7.842,0,0,1-7.819-7.82h0a7.842,7.842,0,0,1,7.819-7.819h9.383a7.842,7.842,0,0,1,7.819,7.819h0A7.842,7.842,0,0,1,498.21,591.862Z" transform="translate(-170.085 -549.635)" fill="#966238"/>
        <path id="패스_397" data-name="패스 397" d="M529.407,591.862h-9.383a7.842,7.842,0,0,1-7.819-7.82h0a7.842,7.842,0,0,1,7.819-7.819h9.383a7.842,7.842,0,0,1,7.82,7.819h0A7.843,7.843,0,0,1,529.407,591.862Z" transform="translate(-176.261 -549.635)" fill="#966238"/>
        <path id="패스_398" data-name="패스 398" d="M560.605,591.862h-9.383a7.842,7.842,0,0,1-7.819-7.82h0a7.842,7.842,0,0,1,7.819-7.819h9.383a7.842,7.842,0,0,1,7.819,7.819h0A7.842,7.842,0,0,1,560.605,591.862Z" transform="translate(-182.438 -549.635)" fill="#966238"/>
        <path id="패스_399" data-name="패스 399" d="M217.432,591.862H208.05a7.842,7.842,0,0,1-7.819-7.82h0a7.842,7.842,0,0,1,7.819-7.819h9.383a7.842,7.842,0,0,1,7.819,7.819h0A7.842,7.842,0,0,1,217.432,591.862Z" transform="translate(-114.492 -549.635)" fill="#966238"/>
        <path id="패스_400" data-name="패스 400" d="M248.63,591.862h-9.383a7.842,7.842,0,0,1-7.819-7.82h0a7.842,7.842,0,0,1,7.819-7.819h9.383a7.842,7.842,0,0,1,7.819,7.819h0A7.842,7.842,0,0,1,248.63,591.862Z" transform="translate(-120.669 -549.635)" fill="#966238"/>
        <path id="패스_401" data-name="패스 401" d="M279.827,591.862h-9.383a7.842,7.842,0,0,1-7.819-7.82h0a7.842,7.842,0,0,1,7.819-7.819h9.383a7.842,7.842,0,0,1,7.819,7.819h0A7.842,7.842,0,0,1,279.827,591.862Z" transform="translate(-126.846 -549.635)" fill="#966238"/>
        <path id="패스_402" data-name="패스 402" d="M311.025,591.862h-9.383a7.843,7.843,0,0,1-7.82-7.82h0a7.842,7.842,0,0,1,7.82-7.819h9.383a7.842,7.842,0,0,1,7.819,7.819h0A7.842,7.842,0,0,1,311.025,591.862Z" transform="translate(-133.023 -549.635)" fill="#966238"/>
        <path id="패스_403" data-name="패스 403" d="M342.222,591.862H332.84a7.842,7.842,0,0,1-7.819-7.82h0a7.842,7.842,0,0,1,7.819-7.819h9.383a7.842,7.842,0,0,1,7.819,7.819h0A7.842,7.842,0,0,1,342.222,591.862Z" transform="translate(-139.2 -549.635)" fill="#966238"/>
        <path id="패스_404" data-name="패스 404" d="M373.42,591.862h-9.383a7.843,7.843,0,0,1-7.82-7.82h0a7.842,7.842,0,0,1,7.82-7.819h9.383a7.842,7.842,0,0,1,7.819,7.819h0A7.842,7.842,0,0,1,373.42,591.862Z" transform="translate(-145.377 -549.635)" fill="#966238"/>
        <path id="패스_405" data-name="패스 405" d="M123.839,591.862h-9.383a7.842,7.842,0,0,1-7.819-7.82h0a7.842,7.842,0,0,1,7.819-7.819h9.383a7.842,7.842,0,0,1,7.82,7.819h0A7.843,7.843,0,0,1,123.839,591.862Z" transform="translate(-95.962 -549.635)" fill="#966238"/>
        <path id="패스_406" data-name="패스 406" d="M155.037,591.862h-9.383a7.842,7.842,0,0,1-7.819-7.82h0a7.842,7.842,0,0,1,7.819-7.819h9.383a7.842,7.842,0,0,1,7.819,7.819h0A7.842,7.842,0,0,1,155.037,591.862Z" transform="translate(-102.139 -549.635)" fill="#966238"/>
        <path id="패스_407" data-name="패스 407" d="M186.234,591.862h-9.383a7.842,7.842,0,0,1-7.819-7.82h0a7.842,7.842,0,0,1,7.819-7.819h9.383a7.842,7.842,0,0,1,7.82,7.819h0A7.843,7.843,0,0,1,186.234,591.862Z" transform="translate(-108.315 -549.635)" fill="#966238"/>
        <path id="패스_408" data-name="패스 408" d="M386.092,604.253a2.681,2.681,0,1,1-2.681-2.681A2.681,2.681,0,0,1,386.092,604.253Z" transform="translate(-150.23 -554.654)" fill="#794e29"/>
        <path id="패스_409" data-name="패스 409" d="M309.647,592.606a2.681,2.681,0,1,1-2.681-2.681A2.681,2.681,0,0,1,309.647,592.606Z" transform="translate(-135.095 -552.348)" fill="#794e29"/>
        <path id="패스_410" data-name="패스 410" d="M415.293,591.556a4.468,4.468,0,1,1-4.468-4.468A4.468,4.468,0,0,1,415.293,591.556Z" transform="translate(-155.304 -551.786)" fill="#794e29"/>
        <path id="패스_411" data-name="패스 411" d="M470.887,604.033a3.575,3.575,0,1,1-3.575-3.575A3.574,3.574,0,0,1,470.887,604.033Z" transform="translate(-166.665 -554.433)" fill="#794e29"/>
        <ellipse id="타원_37" data-name="타원 37" cx="3.128" cy="3.128" rx="3.128" ry="3.128" transform="translate(325.668 38.876)" fill="#794e29"/>
        <path id="패스_412" data-name="패스 412" d="M560.26,599.695a6.479,6.479,0,1,1-6.479-6.479A6.478,6.478,0,0,1,560.26,599.695Z" transform="translate(-183.21 -552.999)" fill="#794e29"/>
        <path id="패스_413" data-name="패스 413" d="M596.675,592.554a2.681,2.681,0,1,1-2.68-2.681A2.68,2.68,0,0,1,596.675,592.554Z" transform="translate(-191.924 -552.337)" fill="#794e29"/>
        <ellipse id="타원_38" data-name="타원 38" cx="3.574" cy="3.574" rx="3.574" ry="3.574" transform="translate(436.921 42.897)" fill="#794e29"/>
        <path id="패스_414" data-name="패스 414" d="M688.713,590.1a3.575,3.575,0,1,1-3.575-3.575A3.575,3.575,0,0,1,688.713,590.1Z" transform="translate(-209.793 -551.676)" fill="#794e29"/>
        <ellipse id="타원_39" data-name="타원 39" cx="4.468" cy="4.468" rx="4.468" ry="4.468" transform="translate(490.536 45.131)" fill="#794e29"/>
        <path id="패스_415" data-name="패스 415" d="M770.3,596.148a2.793,2.793,0,1,1-2.793-2.793A2.793,2.793,0,0,1,770.3,596.148Z" transform="translate(-226.256 -553.027)" fill="#794e29"/>
        <path id="패스_416" data-name="패스 416" d="M815.29,602.7a4.468,4.468,0,1,1-4.468-4.468A4.468,4.468,0,0,1,815.29,602.7Z" transform="translate(-234.501 -553.992)" fill="#794e29"/>
        <path id="패스_417" data-name="패스 417" d="M852.164,593a3.128,3.128,0,1,1-3.128-3.128A3.128,3.128,0,0,1,852.164,593Z" transform="translate(-242.332 -552.337)" fill="#794e29"/>
        <ellipse id="타원_40" data-name="타원 40" cx="5.362" cy="5.362" rx="5.362" ry="5.362" transform="translate(631.278 42.897)" fill="#794e29"/>
        <ellipse id="타원_41" data-name="타원 41" cx="3.128" cy="3.128" rx="3.128" ry="3.128" transform="translate(663 38.876)" fill="#794e29"/>
        <path id="패스_418" data-name="패스 418" d="M944.862,579.53a2.681,2.681,0,1,1-2.68-2.68A2.681,2.681,0,0,1,944.862,579.53Z" transform="translate(-260.863 -549.759)" fill="#794e29"/>
        <path id="패스_419" data-name="패스 419" d="M897.951,627.315a1.787,1.787,0,1,1-1.788-1.788A1.787,1.787,0,0,1,897.951,627.315Z" transform="translate(-251.929 -559.397)" fill="#966238"/>
        <ellipse id="타원_42" data-name="타원 42" cx="4.468" cy="4.468" rx="4.468" ry="4.468" transform="translate(615.193 62.11)" fill="#966238"/>
        <path id="패스_420" data-name="패스 420" d="M790.326,626.984a3.128,3.128,0,1,1-3.128-3.128A3.127,3.127,0,0,1,790.326,626.984Z" transform="translate(-230.089 -559.066)" fill="#966238"/>
        <path id="패스_421" data-name="패스 421" d="M727.594,622.08a2.681,2.681,0,1,1-2.681-2.681A2.681,2.681,0,0,1,727.594,622.08Z" transform="translate(-217.845 -558.183)" fill="#966238"/>
        <path id="패스_422" data-name="패스 422" d="M682.469,627.651a2.681,2.681,0,1,1-2.681-2.681A2.681,2.681,0,0,1,682.469,627.651Z" transform="translate(-208.911 -559.286)" fill="#966238"/>
        <ellipse id="타원_43" data-name="타원 43" cx="4.021" cy="4.021" rx="4.021" ry="4.021" transform="translate(420.389 59.875)" fill="#966238"/>
        <path id="패스_423" data-name="패스 423" d="M584.86,628.986a1.787,1.787,0,1,1-1.787-1.787A1.787,1.787,0,0,1,584.86,628.986Z" transform="translate(-189.939 -559.728)" fill="#966238"/>
        <path id="패스_424" data-name="패스 424" d="M544.319,620.972a4.915,4.915,0,1,1-4.915-4.915A4.915,4.915,0,0,1,544.319,620.972Z" transform="translate(-180.673 -557.522)" fill="#966238"/>
        <ellipse id="타원_44" data-name="타원 44" cx="2.234" cy="2.234" rx="2.234" ry="2.234" transform="translate(314.498 65.237)" fill="#966238"/>
        <path id="패스_425" data-name="패스 425" d="M440.142,625.986a4.915,4.915,0,1,1-4.915-4.915A4.915,4.915,0,0,1,440.142,625.986Z" transform="translate(-160.047 -558.514)" fill="#966238"/>
        <ellipse id="타원_45" data-name="타원 45" cx="3.128" cy="3.128" rx="3.128" ry="3.128" transform="translate(247.926 60.769)" fill="#966238"/>
        <ellipse id="타원_46" data-name="타원 46" cx="5.921" cy="5.921" rx="5.921" ry="5.921" transform="translate(204.11 33.021)" fill="#794e29"/>
        <ellipse id="타원_47" data-name="타원 47" cx="1.974" cy="1.974" rx="1.974" ry="1.974" transform="translate(152.135 45.522)" fill="#794e29"/>
        <path id="패스_426" data-name="패스 426" d="M179.518,592.789a5.263,5.263,0,1,1-5.263-5.264A5.263,5.263,0,0,1,179.518,592.789Z" transform="translate(-108.307 -551.872)" fill="#794e29"/>
        <path id="패스_427" data-name="패스 427" d="M230.379,600.172a5.263,5.263,0,1,1-5.264-5.264A5.263,5.263,0,0,1,230.379,600.172Z" transform="translate(-118.377 -553.334)" fill="#794e29"/>
        <path id="패스_428" data-name="패스 428" d="M129.633,603.12a3.29,3.29,0,1,1-3.29-3.29A3.29,3.29,0,0,1,129.633,603.12Z" transform="translate(-99.212 -554.309)" fill="#794e29"/>
        <path id="패스_429" data-name="패스 429" d="M226.757,623.79a2.632,2.632,0,1,1-2.631-2.631A2.632,2.632,0,0,1,226.757,623.79Z" transform="translate(-118.702 -558.532)" fill="#966238"/>
        <path id="패스_430" data-name="패스 430" d="M166.548,625.269a3.29,3.29,0,1,1-3.29-3.29A3.29,3.29,0,0,1,166.548,625.269Z" transform="translate(-106.521 -558.694)" fill="#966238"/>
        <path id="패스_431" data-name="패스 431" d="M270.08,626.585a4.606,4.606,0,1,1-4.605-4.606A4.605,4.605,0,0,1,270.08,626.585Z" transform="translate(-126.498 -558.694)" fill="#966238"/>
        <ellipse id="타원_48" data-name="타원 48" cx="4.934" cy="4.934" rx="4.934" ry="4.934" transform="translate(179.767 61.311)" fill="#966238"/>
        <path id="패스_432" data-name="패스 432" d="M378.519,622.15a2.632,2.632,0,1,1-2.632-2.632A2.632,2.632,0,0,1,378.519,622.15Z" transform="translate(-148.75 -558.207)" fill="#966238"/>
      </g>
      <g id="그룹_281" data-name="그룹 281" transform="translate(686.18 111.456)">
        <g id="그룹_256" data-name="그룹 256" transform="translate(5.372 9.113)">
          <path id="패스_433" data-name="패스 433" d="M973.228,573.786s2.333-4.671-3.4-12.952a13.847,13.847,0,0,0-14.225-6.157s2.972,7.856,8.067,11.677S972.169,570.6,973.228,573.786Z" transform="translate(-955.603 -554.434)" fill="#8dc63f"/>
          <path id="패스_434" data-name="패스 434" d="M977.976,574.529s-1.97-3.946,2.871-10.94a11.7,11.7,0,0,1,12.016-5.2s-2.51,6.635-6.815,9.863S978.87,571.839,977.976,574.529Z" transform="translate(-959.954 -555.176)" fill="#72a433"/>
        </g>
        <g id="그룹_257" data-name="그룹 257" transform="translate(38.978)">
          <path id="패스_435" data-name="패스 435" d="M1004.086,572.841a13.2,13.2,0,0,0,2.579-11.915,16.175,16.175,0,0,1,4.668-16.093s-4.545,7.985-3.071,14,2.211,10.073.368,14Z" transform="translate(-998.808 -543.42)" fill="#8dc63f"/>
          <path id="패스_436" data-name="패스 436" d="M1008.681,567.644s1.842-6.511,8.6-5.528C1017.28,562.116,1016.911,570.224,1008.681,567.644Z" transform="translate(-999.718 -546.822)" fill="#72a433"/>
          <path id="패스_437" data-name="패스 437" d="M1008.65,552.682s2.144-4.523,6.952-2.975C1015.6,549.706,1014.337,555.576,1008.65,552.682Z" transform="translate(-999.712 -544.321)" fill="#72a433"/>
          <path id="패스_438" data-name="패스 438" d="M1006.1,562.362s-3.059-5.973-8.594-4.37C997.505,557.992,999.4,565.712,1006.1,562.362Z" transform="translate(-997.505 -545.971)" fill="#72a433"/>
          <path id="패스_439" data-name="패스 439" d="M1009.576,547.8s-.738-4.6-4.737-4.73C1004.838,543.071,1004.432,548.576,1009.576,547.8Z" transform="translate(-998.955 -543.071)" fill="#72a433"/>
        </g>
        <g id="그룹_258" data-name="그룹 258" transform="translate(55.045 9.113)">
          <path id="패스_440" data-name="패스 440" d="M1035.163,573.786s2.333-4.671-3.4-12.952a13.847,13.847,0,0,0-14.225-6.157s2.972,7.856,8.068,11.677S1034.1,570.6,1035.163,573.786Z" transform="translate(-1017.538 -554.434)" fill="#8dc63f"/>
          <path id="패스_441" data-name="패스 441" d="M1039.911,574.529s-1.971-3.946,2.871-10.94a11.7,11.7,0,0,1,12.016-5.2s-2.511,6.635-6.815,9.863S1040.805,571.839,1039.911,574.529Z" transform="translate(-1021.889 -555.176)" fill="#72a433"/>
        </g>
        <g id="그룹_259" data-name="그룹 259" transform="translate(88.65)">
          <path id="패스_442" data-name="패스 442" d="M1066.021,572.841a13.2,13.2,0,0,0,2.579-11.915,16.175,16.175,0,0,1,4.668-16.093s-4.545,7.985-3.071,14,2.211,10.073.368,14Z" transform="translate(-1060.743 -543.42)" fill="#8dc63f"/>
          <path id="패스_443" data-name="패스 443" d="M1070.616,567.644s1.843-6.511,8.6-5.528C1079.215,562.116,1078.847,570.224,1070.616,567.644Z" transform="translate(-1061.653 -546.822)" fill="#72a433"/>
          <path id="패스_444" data-name="패스 444" d="M1070.585,552.682s2.145-4.523,6.952-2.975C1077.537,549.706,1076.272,555.576,1070.585,552.682Z" transform="translate(-1061.647 -544.321)" fill="#72a433"/>
          <path id="패스_445" data-name="패스 445" d="M1068.035,562.362s-3.06-5.973-8.6-4.37C1059.44,557.992,1061.334,565.712,1068.035,562.362Z" transform="translate(-1059.44 -545.971)" fill="#72a433"/>
          <path id="패스_446" data-name="패스 446" d="M1071.511,547.8s-.739-4.6-4.738-4.73C1066.773,543.071,1066.367,548.576,1071.511,547.8Z" transform="translate(-1060.89 -543.071)" fill="#72a433"/>
        </g>
        <g id="그룹_260" data-name="그룹 260" transform="translate(104.717 9.113)">
          <path id="패스_447" data-name="패스 447" d="M1097.1,573.786s2.333-4.671-3.4-12.952a13.846,13.846,0,0,0-14.225-6.157s2.972,7.856,8.068,11.677S1096.039,570.6,1097.1,573.786Z" transform="translate(-1079.473 -554.434)" fill="#8dc63f"/>
          <path id="패스_448" data-name="패스 448" d="M1101.846,574.529s-1.97-3.946,2.872-10.94a11.7,11.7,0,0,1,12.016-5.2s-2.511,6.635-6.816,9.863S1102.74,571.839,1101.846,574.529Z" transform="translate(-1083.824 -555.176)" fill="#72a433"/>
        </g>
        <g id="그룹_261" data-name="그룹 261" transform="translate(154.389 9.113)">
          <path id="패스_449" data-name="패스 449" d="M1159.033,573.786s2.333-4.671-3.4-12.952a13.847,13.847,0,0,0-14.225-6.157s2.972,7.856,8.068,11.677S1157.974,570.6,1159.033,573.786Z" transform="translate(-1141.408 -554.434)" fill="#8dc63f"/>
          <path id="패스_450" data-name="패스 450" d="M1163.781,574.529s-1.971-3.946,2.872-10.94a11.7,11.7,0,0,1,12.016-5.2s-2.511,6.635-6.815,9.863S1164.675,571.839,1163.781,574.529Z" transform="translate(-1145.759 -555.176)" fill="#72a433"/>
        </g>
        <g id="그룹_262" data-name="그룹 262" transform="translate(187.995)">
          <path id="패스_451" data-name="패스 451" d="M1189.891,572.841a13.205,13.205,0,0,0,2.58-11.915,16.175,16.175,0,0,1,4.668-16.093s-4.545,7.985-3.071,14,2.211,10.073.369,14Z" transform="translate(-1184.613 -543.42)" fill="#8dc63f"/>
          <path id="패스_452" data-name="패스 452" d="M1194.486,567.644s1.843-6.511,8.6-5.528C1203.085,562.116,1202.717,570.224,1194.486,567.644Z" transform="translate(-1185.523 -546.822)" fill="#72a433"/>
          <path id="패스_453" data-name="패스 453" d="M1194.456,552.682s2.144-4.523,6.952-2.975C1201.408,549.706,1200.142,555.576,1194.456,552.682Z" transform="translate(-1185.517 -544.321)" fill="#72a433"/>
          <path id="패스_454" data-name="패스 454" d="M1191.905,562.362s-3.059-5.973-8.595-4.37C1183.31,557.992,1185.2,565.712,1191.905,562.362Z" transform="translate(-1183.31 -545.971)" fill="#72a433"/>
          <path id="패스_455" data-name="패스 455" d="M1195.382,547.8s-.739-4.6-4.737-4.73C1190.644,543.071,1190.238,548.576,1195.382,547.8Z" transform="translate(-1184.761 -543.071)" fill="#72a433"/>
        </g>
        <g id="그룹_263" data-name="그룹 263" transform="translate(204.061 9.113)">
          <path id="패스_456" data-name="패스 456" d="M1220.969,573.786s2.332-4.671-3.4-12.952a13.846,13.846,0,0,0-14.225-6.157s2.973,7.856,8.068,11.677S1219.909,570.6,1220.969,573.786Z" transform="translate(-1203.343 -554.434)" fill="#8dc63f"/>
          <path id="패스_457" data-name="패스 457" d="M1225.716,574.529s-1.97-3.946,2.872-10.94a11.7,11.7,0,0,1,12.016-5.2s-2.51,6.635-6.815,9.863S1226.611,571.839,1225.716,574.529Z" transform="translate(-1207.694 -555.176)" fill="#72a433"/>
        </g>
        <g id="그룹_264" data-name="그룹 264" transform="translate(237.667)">
          <path id="패스_458" data-name="패스 458" d="M1251.826,572.841a13.2,13.2,0,0,0,2.58-11.915,16.176,16.176,0,0,1,4.668-16.093s-4.546,7.985-3.072,14,2.211,10.073.369,14Z" transform="translate(-1246.548 -543.42)" fill="#8dc63f"/>
          <path id="패스_459" data-name="패스 459" d="M1256.422,567.644s1.842-6.511,8.6-5.528C1265.021,562.116,1264.652,570.224,1256.422,567.644Z" transform="translate(-1247.458 -546.822)" fill="#72a433"/>
          <path id="패스_460" data-name="패스 460" d="M1256.391,552.682s2.144-4.523,6.952-2.975C1263.343,549.706,1262.077,555.576,1256.391,552.682Z" transform="translate(-1247.452 -544.321)" fill="#72a433"/>
          <path id="패스_461" data-name="패스 461" d="M1253.84,562.362s-3.059-5.973-8.6-4.37C1245.245,557.992,1247.139,565.712,1253.84,562.362Z" transform="translate(-1245.245 -545.971)" fill="#72a433"/>
          <path id="패스_462" data-name="패스 462" d="M1257.317,547.8s-.739-4.6-4.737-4.73C1252.579,543.071,1252.172,548.576,1257.317,547.8Z" transform="translate(-1246.695 -543.071)" fill="#72a433"/>
        </g>
        <g id="그룹_265" data-name="그룹 265" transform="translate(253.734 9.113)">
          <path id="패스_463" data-name="패스 463" d="M1282.9,573.786s2.332-4.671-3.4-12.952a13.848,13.848,0,0,0-14.226-6.157s2.973,7.856,8.068,11.677S1281.844,570.6,1282.9,573.786Z" transform="translate(-1265.278 -554.434)" fill="#8dc63f"/>
          <path id="패스_464" data-name="패스 464" d="M1287.651,574.529s-1.97-3.946,2.872-10.94a11.7,11.7,0,0,1,12.016-5.2s-2.51,6.635-6.815,9.863S1288.546,571.839,1287.651,574.529Z" transform="translate(-1269.629 -555.176)" fill="#72a433"/>
        </g>
        <g id="그룹_266" data-name="그룹 266" transform="translate(287.34)">
          <path id="패스_465" data-name="패스 465" d="M1313.762,572.841a13.2,13.2,0,0,0,2.579-11.915,16.175,16.175,0,0,1,4.668-16.093s-4.546,7.985-3.072,14,2.212,10.073.369,14Z" transform="translate(-1308.484 -543.42)" fill="#8dc63f"/>
          <path id="패스_466" data-name="패스 466" d="M1318.357,567.644s1.842-6.511,8.6-5.528C1326.956,562.116,1326.587,570.224,1318.357,567.644Z" transform="translate(-1309.394 -546.822)" fill="#72a433"/>
          <path id="패스_467" data-name="패스 467" d="M1318.326,552.682s2.144-4.523,6.952-2.975C1325.278,549.706,1324.013,555.576,1318.326,552.682Z" transform="translate(-1309.388 -544.321)" fill="#72a433"/>
          <path id="패스_468" data-name="패스 468" d="M1315.775,562.362s-3.059-5.973-8.594-4.37C1307.181,557.992,1309.074,565.712,1315.775,562.362Z" transform="translate(-1307.181 -545.971)" fill="#72a433"/>
          <path id="패스_469" data-name="패스 469" d="M1319.252,547.8s-.738-4.6-4.738-4.73C1314.514,543.071,1314.107,548.576,1319.252,547.8Z" transform="translate(-1308.631 -543.071)" fill="#72a433"/>
        </g>
        <g id="그룹_267" data-name="그룹 267" transform="translate(304.229 9.113)">
          <path id="패스_470" data-name="패스 470" d="M1345.864,573.786s2.333-4.671-3.4-12.952a13.847,13.847,0,0,0-14.225-6.157s2.972,7.856,8.068,11.677S1344.805,570.6,1345.864,573.786Z" transform="translate(-1328.239 -554.434)" fill="#8dc63f"/>
          <path id="패스_471" data-name="패스 471" d="M1350.612,574.529s-1.97-3.946,2.872-10.94a11.7,11.7,0,0,1,12.016-5.2s-2.511,6.635-6.815,9.863S1351.506,571.839,1350.612,574.529Z" transform="translate(-1332.59 -555.176)" fill="#72a433"/>
        </g>
        <g id="그룹_268" data-name="그룹 268" transform="translate(355.053 9.113)">
          <path id="패스_472" data-name="패스 472" d="M1409.235,573.786s2.333-4.671-3.4-12.952a13.846,13.846,0,0,0-14.225-6.157s2.972,7.856,8.068,11.677S1408.176,570.6,1409.235,573.786Z" transform="translate(-1391.61 -554.434)" fill="#8dc63f"/>
          <path id="패스_473" data-name="패스 473" d="M1413.983,574.529s-1.971-3.946,2.871-10.94a11.7,11.7,0,0,1,12.016-5.2s-2.511,6.635-6.815,9.863S1414.877,571.839,1413.983,574.529Z" transform="translate(-1395.961 -555.176)" fill="#72a433"/>
        </g>
        <g id="그룹_269" data-name="그룹 269" transform="translate(388.823)">
          <path id="패스_474" data-name="패스 474" d="M1440.3,572.841a13.205,13.205,0,0,0,2.58-11.915,16.175,16.175,0,0,1,4.668-16.093s-4.545,7.985-3.071,14,2.211,10.073.368,14Z" transform="translate(-1435.02 -543.42)" fill="#8dc63f"/>
          <path id="패스_475" data-name="패스 475" d="M1444.893,567.644s1.843-6.511,8.6-5.528C1453.492,562.116,1453.124,570.224,1444.893,567.644Z" transform="translate(-1435.93 -546.822)" fill="#72a433"/>
          <path id="패스_476" data-name="패스 476" d="M1444.862,552.682s2.145-4.523,6.952-2.975C1451.814,549.706,1450.549,555.576,1444.862,552.682Z" transform="translate(-1435.924 -544.321)" fill="#72a433"/>
          <path id="패스_477" data-name="패스 477" d="M1442.312,562.362s-3.06-5.973-8.595-4.37C1433.717,557.992,1435.61,565.712,1442.312,562.362Z" transform="translate(-1433.717 -545.971)" fill="#72a433"/>
          <path id="패스_478" data-name="패스 478" d="M1445.788,547.8s-.739-4.6-4.738-4.73C1441.05,543.071,1440.644,548.576,1445.788,547.8Z" transform="translate(-1435.167 -543.071)" fill="#72a433"/>
        </g>
        <g id="그룹_270" data-name="그룹 270" transform="translate(405.054 9.113)">
          <path id="패스_479" data-name="패스 479" d="M1471.58,573.786s2.333-4.671-3.4-12.952a13.846,13.846,0,0,0-14.225-6.157s2.972,7.856,8.068,11.677S1470.521,570.6,1471.58,573.786Z" transform="translate(-1453.955 -554.434)" fill="#8dc63f"/>
          <path id="패스_480" data-name="패스 480" d="M1476.328,574.529s-1.971-3.946,2.872-10.94a11.7,11.7,0,0,1,12.016-5.2s-2.511,6.635-6.815,9.863S1477.222,571.839,1476.328,574.529Z" transform="translate(-1458.306 -555.176)" fill="#72a433"/>
        </g>
        <g id="그룹_271" data-name="그룹 271" transform="translate(439.482)">
          <path id="패스_481" data-name="패스 481" d="M1503.464,572.841a13.2,13.2,0,0,0,2.579-11.915,16.175,16.175,0,0,1,4.668-16.093s-4.546,7.985-3.071,14,2.211,10.073.368,14Z" transform="translate(-1498.186 -543.42)" fill="#8dc63f"/>
          <path id="패스_482" data-name="패스 482" d="M1508.059,567.644s1.842-6.511,8.6-5.528C1516.658,562.116,1516.289,570.224,1508.059,567.644Z" transform="translate(-1499.096 -546.822)" fill="#72a433"/>
          <path id="패스_483" data-name="패스 483" d="M1508.028,552.682s2.144-4.523,6.952-2.975C1514.98,549.706,1513.715,555.576,1508.028,552.682Z" transform="translate(-1499.09 -544.321)" fill="#72a433"/>
          <path id="패스_484" data-name="패스 484" d="M1505.477,562.362s-3.059-5.973-8.594-4.37C1496.883,557.992,1498.777,565.712,1505.477,562.362Z" transform="translate(-1496.883 -545.971)" fill="#72a433"/>
          <path id="패스_485" data-name="패스 485" d="M1508.954,547.8s-.738-4.6-4.737-4.73C1504.216,543.071,1503.81,548.576,1508.954,547.8Z" transform="translate(-1498.333 -543.071)" fill="#72a433"/>
        </g>
        <g id="그룹_272" data-name="그룹 272" transform="translate(455.549 9.113)">
          <path id="패스_486" data-name="패스 486" d="M1534.541,573.786s2.333-4.671-3.4-12.952a13.847,13.847,0,0,0-14.225-6.157s2.972,7.856,8.068,11.677S1533.482,570.6,1534.541,573.786Z" transform="translate(-1516.916 -554.434)" fill="#8dc63f"/>
          <path id="패스_487" data-name="패스 487" d="M1539.289,574.529s-1.971-3.946,2.871-10.94a11.7,11.7,0,0,1,12.016-5.2s-2.511,6.635-6.815,9.863S1540.183,571.839,1539.289,574.529Z" transform="translate(-1521.267 -555.176)" fill="#72a433"/>
        </g>
        <g id="그룹_273" data-name="그룹 273" transform="translate(489.319)">
          <path id="패스_488" data-name="패스 488" d="M1565.6,572.841a13.206,13.206,0,0,0,2.58-11.915,16.173,16.173,0,0,1,4.668-16.093s-4.545,7.985-3.071,14,2.211,10.073.368,14Z" transform="translate(-1560.326 -543.42)" fill="#8dc63f"/>
          <path id="패스_489" data-name="패스 489" d="M1570.2,567.644s1.843-6.511,8.6-5.528C1578.8,562.116,1578.43,570.224,1570.2,567.644Z" transform="translate(-1561.236 -546.822)" fill="#72a433"/>
          <path id="패스_490" data-name="패스 490" d="M1570.168,552.682s2.145-4.523,6.952-2.975C1577.12,549.706,1575.855,555.576,1570.168,552.682Z" transform="translate(-1561.23 -544.321)" fill="#72a433"/>
          <path id="패스_491" data-name="패스 491" d="M1567.618,562.362s-3.06-5.973-8.6-4.37C1559.023,557.992,1560.917,565.712,1567.618,562.362Z" transform="translate(-1559.023 -545.971)" fill="#72a433"/>
          <path id="패스_492" data-name="패스 492" d="M1571.094,547.8s-.739-4.6-4.738-4.73C1566.356,543.071,1565.95,548.576,1571.094,547.8Z" transform="translate(-1560.474 -543.071)" fill="#72a433"/>
        </g>
        <g id="그룹_274" data-name="그룹 274" transform="translate(505.386 9.113)">
          <path id="패스_493" data-name="패스 493" d="M1596.681,573.786s2.333-4.671-3.4-12.952a13.847,13.847,0,0,0-14.225-6.157s2.972,7.856,8.068,11.677S1595.622,570.6,1596.681,573.786Z" transform="translate(-1579.056 -554.434)" fill="#8dc63f"/>
          <path id="패스_494" data-name="패스 494" d="M1601.429,574.529s-1.97-3.946,2.872-10.94a11.7,11.7,0,0,1,12.016-5.2s-2.511,6.635-6.816,9.863S1602.323,571.839,1601.429,574.529Z" transform="translate(-1583.407 -555.176)" fill="#72a433"/>
        </g>
        <g id="그룹_275" data-name="그룹 275" transform="translate(555.716 9.113)">
          <path id="패스_495" data-name="패스 495" d="M1659.437,573.786s2.333-4.671-3.4-12.952a13.847,13.847,0,0,0-14.226-6.157s2.973,7.856,8.068,11.677S1658.377,570.6,1659.437,573.786Z" transform="translate(-1641.811 -554.434)" fill="#8dc63f"/>
          <path id="패스_496" data-name="패스 496" d="M1664.184,574.529s-1.97-3.946,2.872-10.94a11.7,11.7,0,0,1,12.016-5.2s-2.51,6.635-6.815,9.863S1665.079,571.839,1664.184,574.529Z" transform="translate(-1646.162 -555.176)" fill="#72a433"/>
        </g>
        <g id="그룹_276" data-name="그룹 276" transform="translate(588.006)">
          <path id="패스_497" data-name="패스 497" d="M1688.654,572.841a13.205,13.205,0,0,0,2.58-11.915,16.173,16.173,0,0,1,4.668-16.093s-4.545,7.985-3.071,14,2.211,10.073.368,14Z" transform="translate(-1683.376 -543.42)" fill="#8dc63f"/>
          <path id="패스_498" data-name="패스 498" d="M1693.249,567.644s1.843-6.511,8.6-5.528C1701.848,562.116,1701.48,570.224,1693.249,567.644Z" transform="translate(-1684.286 -546.822)" fill="#72a433"/>
          <path id="패스_499" data-name="패스 499" d="M1693.218,552.682s2.145-4.523,6.952-2.975C1700.17,549.706,1698.9,555.576,1693.218,552.682Z" transform="translate(-1684.28 -544.321)" fill="#72a433"/>
          <path id="패스_500" data-name="패스 500" d="M1690.668,562.362s-3.06-5.973-8.6-4.37C1682.073,557.992,1683.966,565.712,1690.668,562.362Z" transform="translate(-1682.073 -545.971)" fill="#72a433"/>
          <path id="패스_501" data-name="패스 501" d="M1694.144,547.8s-.739-4.6-4.738-4.73C1689.406,543.071,1689,548.576,1694.144,547.8Z" transform="translate(-1683.523 -543.071)" fill="#72a433"/>
        </g>
        <g id="그룹_277" data-name="그룹 277" transform="translate(539.896)">
          <path id="패스_502" data-name="패스 502" d="M1628.667,572.841a13.206,13.206,0,0,0,2.58-11.915,16.175,16.175,0,0,1,4.668-16.093s-4.545,7.985-3.071,14,2.211,10.073.368,14Z" transform="translate(-1623.389 -543.42)" fill="#8dc63f"/>
          <path id="패스_503" data-name="패스 503" d="M1633.262,567.644s1.843-6.511,8.6-5.528C1641.861,562.116,1641.493,570.224,1633.262,567.644Z" transform="translate(-1624.299 -546.822)" fill="#72a433"/>
          <path id="패스_504" data-name="패스 504" d="M1633.231,552.682s2.145-4.523,6.952-2.975C1640.183,549.706,1638.918,555.576,1633.231,552.682Z" transform="translate(-1624.293 -544.321)" fill="#72a433"/>
          <path id="패스_505" data-name="패스 505" d="M1630.681,562.362s-3.06-5.973-8.6-4.37C1622.086,557.992,1623.979,565.712,1630.681,562.362Z" transform="translate(-1622.086 -545.971)" fill="#72a433"/>
          <path id="패스_506" data-name="패스 506" d="M1634.157,547.8s-.739-4.6-4.738-4.73C1629.419,543.071,1629.013,548.576,1634.157,547.8Z" transform="translate(-1623.536 -543.071)" fill="#72a433"/>
        </g>
        <g id="그룹_278" data-name="그룹 278" transform="translate(604.895 9.113)">
          <path id="패스_507" data-name="패스 507" d="M1720.757,573.786s2.332-4.671-3.4-12.952a13.848,13.848,0,0,0-14.226-6.157s2.973,7.856,8.068,11.677S1719.7,570.6,1720.757,573.786Z" transform="translate(-1703.131 -554.434)" fill="#8dc63f"/>
          <path id="패스_508" data-name="패스 508" d="M1725.5,574.529s-1.971-3.946,2.872-10.94a11.7,11.7,0,0,1,12.016-5.2s-2.51,6.635-6.815,9.863S1726.4,571.839,1725.5,574.529Z" transform="translate(-1707.482 -555.176)" fill="#72a433"/>
        </g>
        <g id="그룹_279" data-name="그룹 279" transform="translate(639.488)">
          <path id="패스_509" data-name="패스 509" d="M1752.845,572.841a13.205,13.205,0,0,0,2.58-11.915,16.175,16.175,0,0,1,4.668-16.093s-4.545,7.985-3.071,14,2.211,10.073.368,14Z" transform="translate(-1747.567 -543.42)" fill="#8dc63f"/>
          <path id="패스_510" data-name="패스 510" d="M1757.44,567.644s1.843-6.511,8.6-5.528C1766.039,562.116,1765.671,570.224,1757.44,567.644Z" transform="translate(-1748.477 -546.822)" fill="#72a433"/>
          <path id="패스_511" data-name="패스 511" d="M1757.409,552.682s2.145-4.523,6.952-2.975C1764.361,549.706,1763.1,555.576,1757.409,552.682Z" transform="translate(-1748.471 -544.321)" fill="#72a433"/>
          <path id="패스_512" data-name="패스 512" d="M1754.859,562.362s-3.06-5.973-8.595-4.37C1746.264,557.992,1748.158,565.712,1754.859,562.362Z" transform="translate(-1746.264 -545.971)" fill="#72a433"/>
          <path id="패스_513" data-name="패스 513" d="M1758.335,547.8s-.739-4.6-4.738-4.73C1753.6,543.071,1753.191,548.576,1758.335,547.8Z" transform="translate(-1747.714 -543.071)" fill="#72a433"/>
        </g>
        <g id="그룹_280" data-name="그룹 280" transform="translate(655.39 9.113)">
          <path id="패스_514" data-name="패스 514" d="M1783.717,573.786s2.333-4.671-3.4-12.952a13.846,13.846,0,0,0-14.225-6.157s2.972,7.856,8.068,11.677S1782.658,570.6,1783.717,573.786Z" transform="translate(-1766.092 -554.434)" fill="#8dc63f"/>
          <path id="패스_515" data-name="패스 515" d="M1788.465,574.529s-1.971-3.946,2.872-10.94a11.7,11.7,0,0,1,12.016-5.2s-2.511,6.635-6.815,9.863S1789.359,571.839,1788.465,574.529Z" transform="translate(-1770.443 -555.176)" fill="#72a433"/>
        </g>
        <rect id="사각형_79" data-name="사각형 79" width="691.148" height="25.467" rx="12.734" transform="translate(0 31.057)" fill="#966238"/>
        <path id="패스_516" data-name="패스 516" d="M1003.519,613.55H1603.35a9.41,9.41,0,0,1,9.383,9.383h0a9.411,9.411,0,0,1-9.383,9.383H1003.519a9.41,9.41,0,0,1-9.383-9.383h0A9.41,9.41,0,0,1,1003.519,613.55Z" transform="translate(-957.86 -557.025)" fill="#794e29"/>
        <path id="패스_517" data-name="패스 517" d="M1634.566,591.862h-9.383a7.842,7.842,0,0,1-7.819-7.82h0a7.842,7.842,0,0,1,7.819-7.819h9.383a7.842,7.842,0,0,1,7.819,7.819h0A7.842,7.842,0,0,1,1634.566,591.862Z" transform="translate(-1081.255 -549.635)" fill="#966238"/>
        <path id="패스_518" data-name="패스 518" d="M1665.764,591.862h-9.383a7.843,7.843,0,0,1-7.819-7.82h0a7.842,7.842,0,0,1,7.819-7.819h9.383a7.842,7.842,0,0,1,7.819,7.819h0A7.843,7.843,0,0,1,1665.764,591.862Z" transform="translate(-1087.432 -549.635)" fill="#966238"/>
        <path id="패스_519" data-name="패스 519" d="M1696.961,591.862h-9.383a7.842,7.842,0,0,1-7.819-7.82h0a7.842,7.842,0,0,1,7.819-7.819h9.383a7.843,7.843,0,0,1,7.82,7.819h0A7.843,7.843,0,0,1,1696.961,591.862Z" transform="translate(-1093.609 -549.635)" fill="#966238"/>
        <path id="패스_520" data-name="패스 520" d="M1728.159,591.862h-9.383a7.842,7.842,0,0,1-7.819-7.82h0a7.842,7.842,0,0,1,7.819-7.819h9.383a7.842,7.842,0,0,1,7.819,7.819h0A7.843,7.843,0,0,1,1728.159,591.862Z" transform="translate(-1099.786 -549.635)" fill="#966238"/>
        <path id="패스_521" data-name="패스 521" d="M1759.356,591.862h-9.383a7.842,7.842,0,0,1-7.819-7.82h0a7.842,7.842,0,0,1,7.819-7.819h9.383a7.842,7.842,0,0,1,7.82,7.819h0A7.843,7.843,0,0,1,1759.356,591.862Z" transform="translate(-1105.963 -549.635)" fill="#966238"/>
        <path id="패스_522" data-name="패스 522" d="M1790.554,591.862h-9.383a7.842,7.842,0,0,1-7.819-7.82h0a7.842,7.842,0,0,1,7.819-7.819h9.383a7.842,7.842,0,0,1,7.819,7.819h0A7.842,7.842,0,0,1,1790.554,591.862Z" transform="translate(-1112.14 -549.635)" fill="#966238"/>
        <path id="패스_523" data-name="패스 523" d="M1447.381,591.862H1438a7.842,7.842,0,0,1-7.819-7.82h0a7.842,7.842,0,0,1,7.819-7.819h9.383a7.842,7.842,0,0,1,7.819,7.819h0A7.842,7.842,0,0,1,1447.381,591.862Z" transform="translate(-1044.194 -549.635)" fill="#966238"/>
        <path id="패스_524" data-name="패스 524" d="M1478.579,591.862H1469.2a7.842,7.842,0,0,1-7.819-7.82h0a7.842,7.842,0,0,1,7.819-7.819h9.384a7.842,7.842,0,0,1,7.819,7.819h0A7.842,7.842,0,0,1,1478.579,591.862Z" transform="translate(-1050.371 -549.635)" fill="#966238"/>
        <path id="패스_525" data-name="패스 525" d="M1509.776,591.862h-9.383a7.843,7.843,0,0,1-7.819-7.82h0a7.842,7.842,0,0,1,7.819-7.819h9.383a7.842,7.842,0,0,1,7.819,7.819h0A7.842,7.842,0,0,1,1509.776,591.862Z" transform="translate(-1056.548 -549.635)" fill="#966238"/>
        <path id="패스_526" data-name="패스 526" d="M1540.974,591.862h-9.383a7.843,7.843,0,0,1-7.819-7.82h0a7.842,7.842,0,0,1,7.819-7.819h9.383a7.842,7.842,0,0,1,7.819,7.819h0A7.842,7.842,0,0,1,1540.974,591.862Z" transform="translate(-1062.724 -549.635)" fill="#966238"/>
        <path id="패스_527" data-name="패스 527" d="M1572.171,591.862h-9.383a7.842,7.842,0,0,1-7.819-7.82h0a7.842,7.842,0,0,1,7.819-7.819h9.383a7.842,7.842,0,0,1,7.819,7.819h0A7.843,7.843,0,0,1,1572.171,591.862Z" transform="translate(-1068.901 -549.635)" fill="#966238"/>
        <path id="패스_528" data-name="패스 528" d="M1603.369,591.862h-9.383a7.843,7.843,0,0,1-7.819-7.82h0a7.842,7.842,0,0,1,7.819-7.819h9.383a7.842,7.842,0,0,1,7.819,7.819h0A7.842,7.842,0,0,1,1603.369,591.862Z" transform="translate(-1075.078 -549.635)" fill="#966238"/>
        <path id="패스_529" data-name="패스 529" d="M1260.2,591.862h-9.383a7.843,7.843,0,0,1-7.82-7.82h0a7.842,7.842,0,0,1,7.82-7.819h9.383a7.842,7.842,0,0,1,7.819,7.819h0A7.842,7.842,0,0,1,1260.2,591.862Z" transform="translate(-1007.132 -549.635)" fill="#966238"/>
        <path id="패스_530" data-name="패스 530" d="M1291.394,591.862h-9.383a7.842,7.842,0,0,1-7.819-7.82h0a7.842,7.842,0,0,1,7.819-7.819h9.383a7.842,7.842,0,0,1,7.819,7.819h0A7.843,7.843,0,0,1,1291.394,591.862Z" transform="translate(-1013.309 -549.635)" fill="#966238"/>
        <path id="패스_531" data-name="패스 531" d="M1322.592,591.862h-9.383a7.842,7.842,0,0,1-7.819-7.82h0a7.842,7.842,0,0,1,7.819-7.819h9.383a7.842,7.842,0,0,1,7.819,7.819h0A7.843,7.843,0,0,1,1322.592,591.862Z" transform="translate(-1019.486 -549.635)" fill="#966238"/>
        <path id="패스_532" data-name="패스 532" d="M1353.788,591.862h-9.383a7.842,7.842,0,0,1-7.819-7.82h0a7.842,7.842,0,0,1,7.819-7.819h9.383a7.842,7.842,0,0,1,7.82,7.819h0A7.843,7.843,0,0,1,1353.788,591.862Z" transform="translate(-1025.663 -549.635)" fill="#966238"/>
        <path id="패스_533" data-name="패스 533" d="M1384.987,591.862H1375.6a7.842,7.842,0,0,1-7.819-7.82h0a7.842,7.842,0,0,1,7.819-7.819h9.383a7.842,7.842,0,0,1,7.819,7.819h0A7.842,7.842,0,0,1,1384.987,591.862Z" transform="translate(-1031.84 -549.635)" fill="#966238"/>
        <path id="패스_534" data-name="패스 534" d="M1416.183,591.862H1406.8a7.842,7.842,0,0,1-7.819-7.82h0a7.842,7.842,0,0,1,7.819-7.819h9.383a7.842,7.842,0,0,1,7.82,7.819h0A7.843,7.843,0,0,1,1416.183,591.862Z" transform="translate(-1038.017 -549.635)" fill="#966238"/>
        <path id="패스_535" data-name="패스 535" d="M1073.011,591.862h-9.384a7.842,7.842,0,0,1-7.819-7.82h0a7.842,7.842,0,0,1,7.819-7.819h9.384a7.842,7.842,0,0,1,7.819,7.819h0A7.842,7.842,0,0,1,1073.011,591.862Z" transform="translate(-970.071 -549.635)" fill="#966238"/>
        <path id="패스_536" data-name="패스 536" d="M1104.208,591.862h-9.383a7.842,7.842,0,0,1-7.819-7.82h0a7.842,7.842,0,0,1,7.819-7.819h9.383a7.842,7.842,0,0,1,7.819,7.819h0A7.843,7.843,0,0,1,1104.208,591.862Z" transform="translate(-976.248 -549.635)" fill="#966238"/>
        <path id="패스_537" data-name="패스 537" d="M1135.406,591.862h-9.383a7.843,7.843,0,0,1-7.82-7.82h0a7.842,7.842,0,0,1,7.82-7.819h9.383a7.842,7.842,0,0,1,7.819,7.819h0A7.842,7.842,0,0,1,1135.406,591.862Z" transform="translate(-982.424 -549.635)" fill="#966238"/>
        <path id="패스_538" data-name="패스 538" d="M1166.6,591.862h-9.383a7.842,7.842,0,0,1-7.819-7.82h0a7.842,7.842,0,0,1,7.819-7.819h9.383a7.842,7.842,0,0,1,7.819,7.819h0A7.842,7.842,0,0,1,1166.6,591.862Z" transform="translate(-988.602 -549.635)" fill="#966238"/>
        <path id="패스_539" data-name="패스 539" d="M1197.8,591.862h-9.383a7.843,7.843,0,0,1-7.82-7.82h0a7.842,7.842,0,0,1,7.82-7.819h9.383a7.842,7.842,0,0,1,7.819,7.819h0A7.842,7.842,0,0,1,1197.8,591.862Z" transform="translate(-994.778 -549.635)" fill="#966238"/>
        <path id="패스_540" data-name="패스 540" d="M1229,591.862h-9.383a7.842,7.842,0,0,1-7.819-7.82h0a7.842,7.842,0,0,1,7.819-7.819H1229a7.842,7.842,0,0,1,7.819,7.819h0A7.842,7.842,0,0,1,1229,591.862Z" transform="translate(-1000.955 -549.635)" fill="#966238"/>
        <path id="패스_541" data-name="패스 541" d="M979.418,591.862h-9.383a7.842,7.842,0,0,1-7.819-7.82h0a7.842,7.842,0,0,1,7.819-7.819h9.383a7.842,7.842,0,0,1,7.819,7.819h0A7.842,7.842,0,0,1,979.418,591.862Z" transform="translate(-951.54 -549.635)" fill="#966238"/>
        <path id="패스_542" data-name="패스 542" d="M1010.615,591.862h-9.383a7.842,7.842,0,0,1-7.819-7.82h0a7.842,7.842,0,0,1,7.819-7.819h9.383a7.842,7.842,0,0,1,7.82,7.819h0A7.843,7.843,0,0,1,1010.615,591.862Z" transform="translate(-957.717 -549.635)" fill="#966238"/>
        <path id="패스_543" data-name="패스 543" d="M1041.813,591.862h-9.383a7.842,7.842,0,0,1-7.819-7.82h0a7.842,7.842,0,0,1,7.819-7.819h9.383a7.842,7.842,0,0,1,7.819,7.819h0A7.842,7.842,0,0,1,1041.813,591.862Z" transform="translate(-963.894 -549.635)" fill="#966238"/>
        <path id="패스_544" data-name="패스 544" d="M1241.67,604.253a2.681,2.681,0,1,1-2.68-2.681A2.68,2.68,0,0,1,1241.67,604.253Z" transform="translate(-1005.809 -554.654)" fill="#794e29"/>
        <path id="패스_545" data-name="패스 545" d="M1165.225,592.606a2.681,2.681,0,1,1-2.68-2.681A2.68,2.68,0,0,1,1165.225,592.606Z" transform="translate(-990.673 -552.348)" fill="#794e29"/>
        <path id="패스_546" data-name="패스 546" d="M1270.872,591.556a4.468,4.468,0,1,1-4.468-4.468A4.468,4.468,0,0,1,1270.872,591.556Z" transform="translate(-1010.883 -551.786)" fill="#794e29"/>
        <path id="패스_547" data-name="패스 547" d="M1326.466,604.033a3.575,3.575,0,1,1-3.574-3.575A3.574,3.574,0,0,1,1326.466,604.033Z" transform="translate(-1022.244 -554.433)" fill="#794e29"/>
        <ellipse id="타원_49" data-name="타원 49" cx="3.128" cy="3.128" rx="3.128" ry="3.128" transform="translate(325.668 38.876)" fill="#794e29"/>
        <path id="패스_548" data-name="패스 548" d="M1415.839,599.695a6.479,6.479,0,1,1-6.479-6.479A6.478,6.478,0,0,1,1415.839,599.695Z" transform="translate(-1038.789 -552.999)" fill="#794e29"/>
        <path id="패스_549" data-name="패스 549" d="M1452.254,592.554a2.681,2.681,0,1,1-2.681-2.681A2.681,2.681,0,0,1,1452.254,592.554Z" transform="translate(-1047.503 -552.337)" fill="#794e29"/>
        <ellipse id="타원_50" data-name="타원 50" cx="3.574" cy="3.574" rx="3.574" ry="3.574" transform="translate(436.921 42.897)" fill="#794e29"/>
        <path id="패스_550" data-name="패스 550" d="M1544.291,590.1a3.574,3.574,0,1,1-3.574-3.575A3.574,3.574,0,0,1,1544.291,590.1Z" transform="translate(-1065.372 -551.676)" fill="#794e29"/>
        <ellipse id="타원_51" data-name="타원 51" cx="4.468" cy="4.468" rx="4.468" ry="4.468" transform="translate(490.536 45.131)" fill="#794e29"/>
        <path id="패스_551" data-name="패스 551" d="M1625.874,596.148a2.792,2.792,0,1,1-2.792-2.793A2.792,2.792,0,0,1,1625.874,596.148Z" transform="translate(-1081.834 -553.027)" fill="#794e29"/>
        <path id="패스_552" data-name="패스 552" d="M1670.869,602.7a4.468,4.468,0,1,1-4.468-4.468A4.467,4.467,0,0,1,1670.869,602.7Z" transform="translate(-1090.079 -553.992)" fill="#794e29"/>
        <path id="패스_553" data-name="패스 553" d="M1707.742,593a3.127,3.127,0,1,1-3.127-3.128A3.127,3.127,0,0,1,1707.742,593Z" transform="translate(-1097.911 -552.337)" fill="#794e29"/>
        <ellipse id="타원_52" data-name="타원 52" cx="5.362" cy="5.362" rx="5.362" ry="5.362" transform="translate(631.277 42.897)" fill="#794e29"/>
        <ellipse id="타원_53" data-name="타원 53" cx="3.128" cy="3.128" rx="3.128" ry="3.128" transform="translate(663 38.876)" fill="#794e29"/>
        <path id="패스_554" data-name="패스 554" d="M1800.441,579.53a2.681,2.681,0,1,1-2.681-2.68A2.681,2.681,0,0,1,1800.441,579.53Z" transform="translate(-1116.442 -549.759)" fill="#794e29"/>
        <path id="패스_555" data-name="패스 555" d="M1753.529,627.315a1.787,1.787,0,1,1-1.787-1.788A1.786,1.786,0,0,1,1753.529,627.315Z" transform="translate(-1107.507 -559.397)" fill="#966238"/>
        <ellipse id="타원_54" data-name="타원 54" cx="4.468" cy="4.468" rx="4.468" ry="4.468" transform="translate(615.193 62.11)" fill="#966238"/>
        <path id="패스_556" data-name="패스 556" d="M1645.9,626.984a3.127,3.127,0,1,1-3.127-3.128A3.127,3.127,0,0,1,1645.9,626.984Z" transform="translate(-1085.667 -559.066)" fill="#966238"/>
        <path id="패스_557" data-name="패스 557" d="M1583.172,622.08a2.681,2.681,0,1,1-2.68-2.681A2.681,2.681,0,0,1,1583.172,622.08Z" transform="translate(-1073.424 -558.183)" fill="#966238"/>
        <path id="패스_558" data-name="패스 558" d="M1538.047,627.651a2.681,2.681,0,1,1-2.68-2.681A2.68,2.68,0,0,1,1538.047,627.651Z" transform="translate(-1064.489 -559.286)" fill="#966238"/>
        <ellipse id="타원_55" data-name="타원 55" cx="4.021" cy="4.021" rx="4.021" ry="4.021" transform="translate(420.389 59.875)" fill="#966238"/>
        <path id="패스_559" data-name="패스 559" d="M1440.44,628.986a1.787,1.787,0,1,1-1.788-1.787A1.787,1.787,0,0,1,1440.44,628.986Z" transform="translate(-1045.517 -559.728)" fill="#966238"/>
        <path id="패스_560" data-name="패스 560" d="M1399.9,620.972a4.915,4.915,0,1,1-4.915-4.915A4.915,4.915,0,0,1,1399.9,620.972Z" transform="translate(-1036.252 -557.522)" fill="#966238"/>
        <ellipse id="타원_56" data-name="타원 56" cx="2.234" cy="2.234" rx="2.234" ry="2.234" transform="translate(314.499 65.237)" fill="#966238"/>
        <path id="패스_561" data-name="패스 561" d="M1295.72,625.986a4.915,4.915,0,1,1-4.915-4.915A4.915,4.915,0,0,1,1295.72,625.986Z" transform="translate(-1015.626 -558.514)" fill="#966238"/>
        <ellipse id="타원_57" data-name="타원 57" cx="3.128" cy="3.128" rx="3.128" ry="3.128" transform="translate(247.926 60.769)" fill="#966238"/>
        <ellipse id="타원_58" data-name="타원 58" cx="5.921" cy="5.921" rx="5.921" ry="5.921" transform="translate(204.11 33.021)" fill="#794e29"/>
        <ellipse id="타원_59" data-name="타원 59" cx="1.974" cy="1.974" rx="1.974" ry="1.974" transform="translate(152.135 45.522)" fill="#794e29"/>
        <path id="패스_562" data-name="패스 562" d="M1035.1,592.789a5.264,5.264,0,1,1-5.263-5.264A5.263,5.263,0,0,1,1035.1,592.789Z" transform="translate(-963.886 -551.872)" fill="#794e29"/>
        <path id="패스_563" data-name="패스 563" d="M1085.957,600.172a5.263,5.263,0,1,1-5.263-5.264A5.263,5.263,0,0,1,1085.957,600.172Z" transform="translate(-973.956 -553.334)" fill="#794e29"/>
        <path id="패스_564" data-name="패스 564" d="M985.211,603.12a3.289,3.289,0,1,1-3.29-3.29A3.29,3.29,0,0,1,985.211,603.12Z" transform="translate(-954.79 -554.309)" fill="#794e29"/>
        <path id="패스_565" data-name="패스 565" d="M1082.335,623.79a2.631,2.631,0,1,1-2.631-2.631A2.632,2.632,0,0,1,1082.335,623.79Z" transform="translate(-974.281 -558.532)" fill="#966238"/>
        <path id="패스_566" data-name="패스 566" d="M1022.126,625.269a3.289,3.289,0,1,1-3.29-3.29A3.29,3.29,0,0,1,1022.126,625.269Z" transform="translate(-962.099 -558.694)" fill="#966238"/>
        <path id="패스_567" data-name="패스 567" d="M1125.658,626.585a4.605,4.605,0,1,1-4.605-4.606A4.6,4.6,0,0,1,1125.658,626.585Z" transform="translate(-982.077 -558.694)" fill="#966238"/>
        <ellipse id="타원_60" data-name="타원 60" cx="4.934" cy="4.934" rx="4.934" ry="4.934" transform="translate(179.767 61.311)" fill="#966238"/>
        <path id="패스_568" data-name="패스 568" d="M1234.1,622.15a2.632,2.632,0,1,1-2.631-2.632A2.631,2.631,0,0,1,1234.1,622.15Z" transform="translate(-1004.328 -558.207)" fill="#966238"/>
      </g>
      <line id="선_61" data-name="선 61" x2="1244.917" transform="translate(12.829 59.405)" fill="none" stroke="#06283d" stroke-linecap="round" stroke-miterlimit="10" stroke-width="3"/>
      <line id="선_62" data-name="선 62" x2="1247.069" transform="translate(10.676 113.859)" fill="none" stroke="#06283d" stroke-linecap="round" stroke-miterlimit="10" stroke-width="3"/>
    </g>
  </g>
</svg>
