<svg xmlns="http://www.w3.org/2000/svg" xmlns:xlink="http://www.w3.org/1999/xlink" width="192.343" height="78.898" viewBox="0 0 192.343 78.898">
  <defs>
    <linearGradient id="linear-gradient" x1="0.002" y1="0.501" x2="1.002" y2="0.501" gradientUnits="objectBoundingBox">
      <stop offset="0" stop-color="#33af4e"/>
      <stop offset="0.12" stop-color="#2ca663"/>
      <stop offset="0.556" stop-color="#1a8397"/>
      <stop offset="0.858" stop-color="#1d69a9"/>
      <stop offset="1" stop-color="#215eab"/>
    </linearGradient>
    <linearGradient id="linear-gradient-2" y1="0.5" x2="1.056" y2="0.5" gradientUnits="objectBoundingBox">
      <stop offset="0" stop-color="#12845a"/>
      <stop offset="0.017" stop-color="#13845c"/>
      <stop offset="0.504" stop-color="#18718e"/>
      <stop offset="0.842" stop-color="#1d64a5"/>
      <stop offset="1" stop-color="#215eab"/>
    </linearGradient>
    <linearGradient id="linear-gradient-3" x1="0" y1="0.5" x2="1.025" y2="0.5" xlink:href="#linear-gradient-2"/>
    <linearGradient id="linear-gradient-4" x1="0.001" y1="0.5" x2="1.005" y2="0.5" xlink:href="#linear-gradient-2"/>
  </defs>
  <g id="그룹_464" data-name="그룹 464" transform="translate(-429.657 -6853.947)">
    <g id="그룹_410" data-name="그룹 410" transform="translate(524.215 6868.691)">
      <g id="그룹_408" data-name="그룹 408">
        <path id="패스_939" data-name="패스 939" d="M86.87,16.16a3.922,3.922,0,0,1,2.51-.717,3.368,3.368,0,0,1,2.51.837,3.143,3.143,0,0,1,.956,2.391h6.1a6.786,6.786,0,0,0-1.2-4.064A7.591,7.591,0,0,0,94.4,11.856a12.791,12.791,0,0,0-4.9-.956,13.419,13.419,0,0,0-5.021.837,8.4,8.4,0,0,0-3.467,2.51,5.744,5.744,0,0,0-1.2,3.706c0,2.749,1.674,5.021,4.9,6.575.956.478,2.271.956,3.825,1.554a12.645,12.645,0,0,1,3.347,1.554,2.553,2.553,0,0,1,.956,2.032,1.887,1.887,0,0,1-.837,1.793,3.563,3.563,0,0,1-2.391.6,4.861,4.861,0,0,1-3.347-.956A3.8,3.8,0,0,1,85.2,28.114H79.1a7.929,7.929,0,0,0,1.2,4.423A7.8,7.8,0,0,0,84,35.526,13.676,13.676,0,0,0,89.5,36.6a10.734,10.734,0,0,0,6.814-1.913,6.03,6.03,0,0,0,2.51-5.14c0-2.749-1.315-4.9-4.064-6.455a26.018,26.018,0,0,0-4.3-1.793,10,10,0,0,1-3.586-1.674,2.107,2.107,0,0,1-1.076-1.793A3.667,3.667,0,0,1,86.87,16.16Z" transform="translate(-79.1 -10.9)" fill="#fff"/>
        <path id="패스_940" data-name="패스 940" d="M119.5,16.3a6.257,6.257,0,0,0-5.5,2.869,4.7,4.7,0,0,0-4.782-2.869,6.473,6.473,0,0,0-5.379,2.51l-.239-2.152H98.1V35.307h5.858V22.277a2.706,2.706,0,0,1,2.51-1.554,2.474,2.474,0,0,1,1.793.6,3.594,3.594,0,0,1,.478,2.152V35.188H114.6V22.277a2.759,2.759,0,0,1,2.63-1.554,2.474,2.474,0,0,1,1.793.6,3.2,3.2,0,0,1,.478,2.032V35.188h5.858V23.114C125.236,18.571,123.2,16.3,119.5,16.3Z" transform="translate(-75.387 -9.845)" fill="#fff"/>
        <path id="패스_941" data-name="패스 941" d="M139.277,22.875a5.856,5.856,0,0,0-2.152-4.782,8.341,8.341,0,0,0-5.618-1.793,9.984,9.984,0,0,0-5.858,1.674,5.139,5.139,0,0,0-2.271,4.423h5.858a1.829,1.829,0,0,1,2.032-2.032c1.434,0,2.271.837,2.271,2.63v.956h-1.793c-2.869,0-5.021.478-6.575,1.554a5.069,5.069,0,0,0-2.271,4.543,5.353,5.353,0,0,0,1.793,4.064,6.563,6.563,0,0,0,4.543,1.554,5.637,5.637,0,0,0,4.543-2.032,4.488,4.488,0,0,0,.6,1.674h5.857v-.239a10.8,10.8,0,0,1-.837-3.945V22.875Zm-5.738,7.172a4.565,4.565,0,0,1-1.076,1.076,2.881,2.881,0,0,1-1.793.478,1.654,1.654,0,0,1-1.793-1.793c0-1.793.956-2.749,2.989-2.749h1.674v2.989Z" transform="translate(-70.541 -9.845)" fill="#fff"/>
        <path id="패스_942" data-name="패스 942" d="M145.038,19.049l-.239-2.391h-5.5V35.307h5.858V23.472c.478-1.2,1.674-1.674,3.467-1.674l1.913.12.12-5.379a6.231,6.231,0,0,0-1.674-.239A4.566,4.566,0,0,0,145.038,19.049Z" transform="translate(-67.336 -9.845)" fill="#fff"/>
        <path id="패스_943" data-name="패스 943" d="M160.161,31.827a2.712,2.712,0,0,1-1.554-.359,2.077,2.077,0,0,1-.359-1.434V21.427h3.108V17.362h-3.108V12.7h-5.857v4.662H150v4.064h2.391v9.324a5.845,5.845,0,0,0,1.434,4.3,5.963,5.963,0,0,0,4.423,1.434,9.161,9.161,0,0,0,3.228-.478V31.827Z" transform="translate(-65.245 -10.548)" fill="#fff"/>
      </g>
      <g id="그룹_409" data-name="그룹 409" transform="translate(0.359 31.559)">
        <path id="패스_944" data-name="패스 944" d="M91.952,38.4H79.4v4.3h6.814V61.471h5.5V42.7h9.444V61.471h5.618V42.7h6.933V38.4H91.952Z" transform="translate(-79.4 -37.085)" fill="#fff"/>
        <path id="패스_945" data-name="패스 945" d="M119.4,44.233a5.488,5.488,0,0,0-4.423,2.152V37.3H109.6V61.686h5.379V49.374a2.489,2.489,0,0,1,2.271-1.076,2.807,2.807,0,0,1,1.913.6,3.165,3.165,0,0,1,.6,2.032V61.567h5.379V50.689a7.27,7.27,0,0,0-1.434-4.9A5.883,5.883,0,0,0,119.4,44.233Z" transform="translate(-73.499 -37.3)" fill="#fff"/>
        <rect id="사각형_113" data-name="사각형 113" width="5.379" height="17.094" transform="translate(54.989 7.292)" fill="#fff"/>
        <path id="패스_946" data-name="패스 946" d="M128.089,37.5a3.338,3.338,0,0,0-2.152.717,2.229,2.229,0,0,0-.837,1.913,2.378,2.378,0,0,0,.837,1.913,3.586,3.586,0,0,0,4.3,0,2.229,2.229,0,0,0,.837-1.913,2.378,2.378,0,0,0-.837-1.913A3.338,3.338,0,0,0,128.089,37.5Z" transform="translate(-70.47 -37.261)" fill="#fff"/>
        <path id="패스_947" data-name="패스 947" d="M142.541,43.1a5.85,5.85,0,0,0-4.9,2.271l-.12-2.032H132.5V60.433h5.379V48.479a2.46,2.46,0,0,1,2.271-1.2,2.6,2.6,0,0,1,1.913.6,2.826,2.826,0,0,1,.478,1.913V60.673h5.379v-11a7.6,7.6,0,0,0-1.315-4.782C145.769,43.578,144.335,43.1,142.541,43.1Z" transform="translate(-69.024 -36.167)" fill="#fff"/>
        <path id="패스_948" data-name="패스 948" d="M158.776,43.459l-.239,1.434a5.093,5.093,0,0,0-4.184-1.793,6.436,6.436,0,0,0-3.706,1.076,7.251,7.251,0,0,0-2.51,3.108,11,11,0,0,0-.837,4.543v.239a10.113,10.113,0,0,0,1.913,6.455,6.344,6.344,0,0,0,5.021,2.391,4.971,4.971,0,0,0,3.825-1.674v.478q0,3.586-3.586,3.586a4.776,4.776,0,0,1-3.945-1.793l-2.271,3.108a7.014,7.014,0,0,0,2.749,1.913,9.741,9.741,0,0,0,3.706.717,13.526,13.526,0,0,0,4.662-.837,7.251,7.251,0,0,0,3.108-2.51,6.952,6.952,0,0,0,1.076-3.945v-16.5ZM158.3,55.652a2.855,2.855,0,0,1-2.51,1.2,2.589,2.589,0,0,1-2.271-1.2,6.567,6.567,0,0,1-.837-3.347,6.3,6.3,0,0,1,.837-3.706,2.9,2.9,0,0,1,4.782-.12Z" transform="translate(-66.132 -36.167)" fill="#fff"/>
      </g>
    </g>
    <g id="그룹_411" data-name="그룹 411" transform="translate(448.067 6874.031)">
      <path id="패스_949" data-name="패스 949" d="M72.182,16.8C70.867,28.276,53.653,37.6,53.653,37.6,22.453,51.347,15.52,69.876,15.4,70.115A40.571,40.571,0,0,0,76.366,34.97,39.055,39.055,0,0,0,72.182,16.8Z" transform="translate(-15.4 -16.8)" fill="url(#linear-gradient)"/>
    </g>
    <g id="그룹_412" data-name="그룹 412" transform="translate(429.657 6853.947)">
      <path id="패스_950" data-name="패스 950" d="M50.327,2.032A38.074,38.074,0,0,0,2.032,25.941,37.712,37.712,0,0,0,3.945,54.989,37.3,37.3,0,0,0,15.78,68.976c1.076-1.674,2.271-3.347,3.467-5.021a33.022,33.022,0,0,1-9.8-11.6A32.057,32.057,0,0,1,48.414,7.77,31.5,31.5,0,0,1,66.824,23.909c.478,1.076.956,2.152,1.434,3.347a33.179,33.179,0,0,0,3.945-6.1A37.231,37.231,0,0,0,50.327,2.032Z" transform="translate(0.001 0.001)" fill="url(#linear-gradient-2)"/>
      <path id="패스_951" data-name="패스 951" d="M45.813,9.345A28.815,28.815,0,0,0,10.787,49.391a30.2,30.2,0,0,0,8.846,10.52c1.315-1.554,2.63-3.108,4.064-4.543a23.844,23.844,0,0,1-7.531-8.607,22.939,22.939,0,0,1-1.2-17.333A22.684,22.684,0,0,1,43.661,15.2a22.066,22.066,0,0,1,13.03,11.476,24.478,24.478,0,0,1,2.032,6.336,36.832,36.832,0,0,0,5.26-4.423,37.308,37.308,0,0,0-1.793-4.662A27.816,27.816,0,0,0,45.813,9.345Z" transform="translate(1.527 1.535)" fill="url(#linear-gradient-3)"/>
      <path id="패스_952" data-name="패스 952" d="M41.3,16.67A19.46,19.46,0,0,0,17.627,43.686a18.943,18.943,0,0,0,6.933,7.77c1.554-1.435,3.228-2.869,4.9-4.184a13.326,13.326,0,0,1-6.336-6.216A13.635,13.635,0,0,1,22.408,30.9a13.285,13.285,0,0,1,24.506-1.674,12.858,12.858,0,0,1,1.315,7.292c2.152-.956,4.184-2.032,6.1-3.108a19.348,19.348,0,0,0-1.913-6.814A18.948,18.948,0,0,0,41.3,16.67Z" transform="translate(3.055 3.056)" fill="url(#linear-gradient-4)"/>
    </g>
  </g>
</svg>
