<?xml version="1.0" encoding="utf-8"?>
<!-- Generator: Adobe Illustrator 26.0.3, SVG Export Plug-In . SVG Version: 6.00 Build 0)  -->
<svg version="1.1" id="레이어_1" xmlns="http://www.w3.org/2000/svg" xmlns:xlink="http://www.w3.org/1999/xlink" x="0px"
	 y="0px" viewBox="0 0 245 43.2" style="enable-background:new 0 0 245 43.2;" xml:space="preserve">
<style type="text/css">
	.st0{fill:#D0D2D3;}
	.st1{fill:#58A947;}
	.st2{fill:#FFFFFF;}
</style>
<g>
	<g>
		<path class="st0" d="M49.7,15c-3-1.6-6.6-2.9-10.5-3.6c0.7,1.1,1.4,2.3,2,3.5c2.6,0.7,5,1.6,7.2,2.8c4.7,2.6,7.3,5.9,7.3,9.3
			s-2.6,6.7-7.3,9.3c-5,2.7-11.7,4.2-18.9,4.2s-13.9-1.5-18.9-4.2c-4.7-2.6-7.3-5.9-7.3-9.3s2.6-6.7,7.3-9.3
			c2.1-1.1,4.5-2.1,7.1-2.8c0.6-1.1,1.3-2.3,2-3.5c-3.9,0.8-7.5,2-10.5,3.6c-5.7,3.1-8.9,7.3-8.9,11.9s3.2,8.8,8.9,11.9
			c5.4,2.9,12.6,4.5,20.3,4.5s14.8-1.6,20.3-4.5c5.7-3.1,8.9-7.3,8.9-11.9S55.4,18.1,49.7,15z"/>
		<path class="st1" d="M41.2,14.8c-0.6-1.1-1.3-2.3-2-3.5c-3.2-5.1-7.4-9.8-8.1-10.6c-0.4-0.5-1-0.7-1.6-0.7c-0.6,0-1.2,0.3-1.6,0.7
			c-0.7,0.8-4.9,5.5-8.1,10.6c-0.7,1.1-1.4,2.3-2,3.5c-1.3,2.5-2.1,4.8-2.1,6.8c0,7.6,6.2,13.8,13.8,13.8s13.8-6.2,13.8-13.8
			C43.3,19.6,42.4,17.2,41.2,14.8z"/>
		<circle class="st2" cx="29.4" cy="23.7" r="3.7"/>
	</g>
	<g>
		<path class="st0" d="M77.7,31.7c1.6-0.7,3.5-2.2,3.6-5.2c0.1-4.1-3.6-5.1-7.1-6.1c-2.9-0.8-5.9-1.6-5.4-4.5c0,0,0,0,0,0
			c0.2-1.1,0.9-2,2-2.4c2.1-0.9,5.4-0.2,7.2,0.9c0.7,0.5,1.2,0.2,1.6-0.2c0.3-0.4,0.4-1.2-0.4-1.8c-2.4-1.8-6.5-2.2-9.6-0.9
			c-1.5,0.6-3.3,1.9-3.6,4.3c-0.5,4.6,3.2,5.7,6.9,6.7c2.8,0.8,5.4,1.5,5.6,3.9c0,0,0,0.1,0,0.1c-0.2,1.5-0.9,2.5-2.2,3.1
			c-2.6,1.2-6.7,0-8.5-1.3c0,0,0,0-0.1,0c-0.7-0.5-1.2-0.5-1.8,0.1c-0.3,0.5-0.4,1.5,0.3,2.1C69,32.7,74.3,33.3,77.7,31.7z"/>
		<path class="st0" d="M87.5,25.7h5.2c3.4,0,7.1-2.2,7.1-7c0-5-3.5-7.3-7.1-7.3h-7.2c-1,0-1.4,0.9-1.4,1.5v17.6c0,1,0.8,1.5,1.4,1.5
			c0.8,0,1.3-0.5,1.3-1.5v-4.1C86.8,26,87.1,25.7,87.5,25.7z M86.8,14.6c0-0.4,0.3-0.7,0.7-0.7h5.2c2.4,0,4.4,2.1,4.4,4.7
			c0,2.4-2,4.5-4.4,4.5h-5.2c-0.4,0-0.7-0.3-0.7-0.7V14.6z"/>
		<path class="st0" d="M102.8,28.1h11.6c0.3,0,0.5,0.1,0.6,0.4l1.4,2.8c0.2,0.5,0.5,0.7,1,0.8c0.5,0,1.1-0.3,1.4-0.7
			c0.2-0.3,0.3-0.7,0-1.4l-8.8-17.6c-0.3-0.6-0.7-0.9-1.3-0.9c-0.6,0-1.1,0.3-1.4,0.9l-9,17.6c-0.5,1.1,0.2,1.8,0.6,2
			c0.6,0.1,1.6,0.1,1.9-0.7l1.3-2.8C102.3,28.3,102.5,28.1,102.8,28.1z M104.1,24.4l3.8-7.7c0.1-0.2,0.3-0.4,0.6-0.4
			c0.3,0,0.5,0.2,0.6,0.4l3.5,7.7c0.1,0.2,0.1,0.5-0.1,0.6c-0.1,0.2-0.3,0.3-0.6,0.3h-7.4c-0.2,0-0.5-0.1-0.6-0.3
			S104,24.6,104.1,24.4z"/>
		<path class="st0" d="M129,11.1c-7.1,0-10.3,5.3-10.3,10.6c0,5.1,2.7,10.5,10.3,10.5c2.2,0,4.8-0.3,7-2.3c0.9-0.9,0.5-1.7,0.3-2
			c-0.2-0.2-0.5-0.4-0.9-0.5c-0.3,0-0.6,0-1,0.2c-1.6,1.4-3.4,2.1-5.3,2.1c-5.4,0-7.8-4.1-7.8-8.1c0-3.9,2.4-7.9,7.8-7.9
			c2.2,0,3.6,0.6,4.9,1.9c0.5,0.5,1.4,0.5,1.9,0.1c0.3-0.3,0.4-0.6,0.4-1c0-0.4-0.2-0.8-0.5-1C133.6,11.9,131.6,11.1,129,11.1z"/>
		<path class="st0" d="M140.7,11.6c-0.7,0-1.3,0.5-1.3,1.3v17.8c0,0.7,0.5,1.3,1.3,1.3h11.8c0.5,0,0.9-0.1,1.2-0.4
			c0.2-0.2,0.4-0.5,0.4-0.9c0-0.7-0.5-1.4-1.5-1.4h-9.6c-0.4,0-0.7-0.3-0.7-0.7v-4.7c0-0.4,0.3-0.7,0.7-0.7h7.9
			c0.4,0,0.8-0.1,1.1-0.4c0.2-0.2,0.4-0.6,0.4-0.9c0-0.6-0.4-1.4-1.4-1.4h-7.9c-0.4,0-0.7-0.3-0.7-0.7V15c0-0.4,0.3-0.7,0.7-0.7h9
			c1,0,1.5-0.7,1.5-1.4c0-0.6-0.4-1.3-1.5-1.3L140.7,11.6L140.7,11.6z"/>
		<path class="st0" d="M179.7,11.6h-11c-0.9,0-1.5,0.5-1.5,1.3v17.8c0,0.8,0.6,1.3,1.5,1.3c0.7,0,1.2-0.5,1.2-1.3v-6.6
			c0-0.4,0.3-0.7,0.7-0.7h8c0.8,0,1.6-0.6,1.6-1.2c0-0.7-0.8-1.5-1.6-1.5h-8c-0.4,0-0.7-0.3-0.7-0.7v-5c0-0.4,0.3-0.7,0.7-0.7h9.1
			c1,0,1.5-0.9,1.5-1.5C181.2,12.1,180.6,11.6,179.7,11.6z"/>
		<path class="st0" d="M184.1,28.1h11.6c0.3,0,0.5,0.1,0.6,0.4l1.4,2.8c0.2,0.5,0.5,0.7,1,0.8c0.5,0,1.1-0.3,1.4-0.7
			c0.2-0.3,0.3-0.7,0-1.4l-8.8-17.6c-0.3-0.6-0.7-0.9-1.3-0.9c-0.6,0-1.1,0.3-1.4,0.9l-9,17.6c-0.5,1.1,0.3,1.8,0.6,2
			c0.6,0.1,1.6,0.1,1.9-0.7l1.4-2.8C183.6,28.3,183.9,28.1,184.1,28.1z M185.5,24.4l3.9-7.7c0.1-0.2,0.4-0.4,0.6-0.4
			c0.3,0,0.5,0.2,0.6,0.4l3.5,7.7c0.1,0.2,0.1,0.5-0.1,0.6c-0.1,0.2-0.3,0.3-0.6,0.3h-7.4c-0.2,0-0.5-0.1-0.6-0.3
			C185.4,24.8,185.4,24.6,185.5,24.4z"/>
		<path class="st0" d="M217.9,31.7c0.5-0.4,0.8-1.1,0.2-2l-4.1-5c-0.1-0.2-0.2-0.4-0.1-0.6c0.1-0.2,0.2-0.4,0.4-0.5
			c3.1-1.3,4.1-4.4,3.6-6.9c-0.4-2.3-2.4-5.1-6.3-5.1h-8.3c-0.7,0-1.2,0.5-1.2,1.2v17.8c0,1,0.7,1.3,1.4,1.3c0.5,0,1.4-0.3,1.4-1.4
			v-5.7c0-0.4,0.3-0.7,0.7-0.7h4.9c0.2,0,0.4,0.1,0.6,0.3l4.7,6.8C216.5,32.2,217.4,32.2,217.9,31.7z M205.6,22
			c-0.4,0-0.7-0.3-0.7-0.7v-6.6c0-0.4,0.3-0.7,0.7-0.7h6c1.2,0,2.2,0.4,2.9,1.2c0.6,0.7,0.9,1.6,0.9,2.7c0,2-1.3,4-3.8,4H205.6z"/>
		<path class="st0" d="M241.4,30.5V12.8c0-0.9-0.5-1.2-0.9-1.3c-0.6-0.2-1.2-0.1-1.5,0.4l-7.1,9.6c-0.3,0.4-0.8,0.4-1.1,0l-6.9-9.3
			c-0.5-0.6-0.9-0.9-1.4-0.9c0,0-1.2,0.2-1.2,1.5v17.6c0,1,0.6,1.5,1.2,1.5c0.8,0,1.6-0.5,1.6-1.5V18.9c0-0.3,0.2-0.6,0.5-0.6
			c0.3-0.1,0.6,0,0.8,0.3l4.7,6.6c0.2,0.3,0.7,0.7,1.2,0.8c0,0,0,0,0,0c0.5,0,1-0.4,1.3-0.8l5.2-6.6c0.1-0.2,0.3-0.3,0.5-0.3
			c0.1,0,0.1,0,0.2,0c0.3,0.1,0.5,0.4,0.5,0.6v11.6c0,0.9,0.5,1.5,1.3,1.5C240.8,32,241.4,31.5,241.4,30.5z"/>
	</g>
</g>
</svg>
