<svg id="그룹_169" data-name="그룹 169" xmlns="http://www.w3.org/2000/svg" width="52" height="52" viewBox="0 0 52 52">
  <ellipse id="타원_8" data-name="타원 8" cx="7.829" cy="7.159" rx="7.829" ry="7.159" transform="translate(18.171 18.841)" fill="none" stroke="rgba(80,144,201,0.6)" stroke-miterlimit="10" stroke-width="2"/>
  <line id="선_27" data-name="선 27" x2="14.946" transform="translate(0 26)" fill="none" stroke="rgba(80,144,201,0.6)" stroke-miterlimit="10" stroke-width="2"/>
  <line id="선_28" data-name="선 28" x1="14.946" transform="translate(37.054 26)" fill="none" stroke="rgba(80,144,201,0.6)" stroke-miterlimit="10" stroke-width="2"/>
  <line id="선_29" data-name="선 29" y2="13.666" transform="translate(26 0)" fill="none" stroke="rgba(80,144,201,0.6)" stroke-miterlimit="10" stroke-width="2"/>
  <line id="선_30" data-name="선 30" y1="13.666" transform="translate(26 38.334)" fill="none" stroke="rgba(80,144,201,0.6)" stroke-miterlimit="10" stroke-width="2"/>
  <path id="패스_154" data-name="패스 154" d="M198.432,249.327a17.8,17.8,0,0,1,3.216,2.065" transform="translate(-164.127 -238.561)" fill="none" stroke="rgba(80,144,201,0.6)" stroke-miterlimit="10" stroke-width="2"/>
  <path id="패스_155" data-name="패스 155" d="M206.612,261.686a18.88,18.88,0,0,1,.33,3.52c0,9.956-7.738,18.027-17.282,18.027s-17.281-8.071-17.281-18.027,7.737-18.028,17.281-18.028a16.624,16.624,0,0,1,4.826.712" transform="translate(-163.659 -239.205)" fill="none" stroke="rgba(80,144,201,0.6)" stroke-miterlimit="10" stroke-width="2"/>
  <path id="패스_156" data-name="패스 156" d="M204.121,254.27a15.8,15.8,0,0,1,2.221,3.616" transform="translate(-164.193 -238.565)" fill="none" stroke="rgba(80,144,201,0.6)" stroke-miterlimit="10" stroke-width="2"/>
  <ellipse id="타원_9" data-name="타원 9" cx="21.415" cy="21.807" rx="21.415" ry="21.807" transform="translate(4.585 4.193)" fill="none" stroke="rgba(80,144,201,0.6)" stroke-miterlimit="10" stroke-width="2"/>
</svg>
