<svg xmlns="http://www.w3.org/2000/svg" xmlns:xlink="http://www.w3.org/1999/xlink" width="1291" height="748.527" viewBox="0 0 1291 748.527">
  <defs>
    <clipPath id="clip-path">
      <rect id="사각형_122" data-name="사각형 122" width="378.124" height="74.091" fill="#306898"/>
    </clipPath>
    <clipPath id="clip-path-2">
      <rect id="사각형_121" data-name="사각형 121" width="378.124" height="74.09" fill="#306898"/>
    </clipPath>
    <clipPath id="clip-path-4">
      <rect id="사각형_123" data-name="사각형 123" width="73.618" height="45.651" fill="none"/>
    </clipPath>
    <clipPath id="clip-path-5">
      <rect id="사각형_124" data-name="사각형 124" width="64.771" height="73.453" transform="translate(-2 -3)" fill="none" stroke="#138ed1" stroke-width="2"/>
    </clipPath>
    <clipPath id="clip-path-6">
      <rect id="사각형_128" data-name="사각형 128" width="50" height="52.629" fill="none" stroke="#138ed1" stroke-width="1"/>
    </clipPath>
    <clipPath id="clip-path-7">
      <rect id="사각형_128-2" data-name="사각형 128" width="46.632" height="49" fill="none" stroke="#138ed1" stroke-width="1"/>
    </clipPath>
    <clipPath id="clip-path-8">
      <rect id="사각형_131" data-name="사각형 131" width="50" height="55.893" transform="translate(0 0)" fill="none" stroke="#138ed1" stroke-width="2"/>
    </clipPath>
    <clipPath id="clip-path-9">
      <rect id="사각형_134" data-name="사각형 134" width="33.141" height="45.13" transform="translate(-2 -2)" fill="none" stroke="#138ed1" stroke-width="1"/>
    </clipPath>
    <clipPath id="clip-path-10">
      <rect id="사각형_135" data-name="사각형 135" width="49.828" height="57.089" transform="translate(-1 -1)" fill="none" stroke="#138ed1" stroke-width="1"/>
    </clipPath>
    <clipPath id="clip-path-11">
      <rect id="사각형_136" data-name="사각형 136" width="43" height="43" fill="none" stroke="#138ed1" stroke-width="1"/>
    </clipPath>
    <clipPath id="clip-path-12">
      <rect id="사각형_137" data-name="사각형 137" width="49.228" height="44.436" fill="none" stroke="#138ed1" stroke-width="2"/>
    </clipPath>
    <clipPath id="clip-path-13">
      <rect id="사각형_138" data-name="사각형 138" width="41.807" height="50.375" transform="translate(-1 -1)" fill="none" stroke="#138ed1" stroke-width="1"/>
    </clipPath>
    <clipPath id="clip-path-14">
      <rect id="사각형_139" data-name="사각형 139" width="55.4" height="59.415" transform="translate(-1 -1)" fill="none" stroke="#138ed1" stroke-width="1"/>
    </clipPath>
  </defs>
  <g id="그룹_472" data-name="그룹 472" transform="translate(-315 -5312.236)">
    <rect id="사각형_115" data-name="사각형 115" width="393" height="640" transform="translate(315 5366)" fill="#0e3658"/>
    <rect id="사각형_116" data-name="사각형 116" width="266" height="640" transform="translate(716 5366)" fill="#0e3658"/>
    <rect id="사각형_130" data-name="사각형 130" width="493" height="198" transform="translate(990 5366)" fill="#0e3658"/>
    <rect id="사각형_132" data-name="사각형 132" width="493" height="198" transform="translate(990 5572)" fill="#0e3658"/>
    <rect id="사각형_133" data-name="사각형 133" width="493" height="229" transform="translate(990 5778)" fill="#0e3658"/>
    <g id="그룹_427" data-name="그룹 427" transform="translate(325.438 5945.66)">
      <g id="그룹_426" data-name="그룹 426" transform="translate(-3 -13.749)" clip-path="url(#clip-path)">
        <g id="그룹_425" data-name="그룹 425" transform="translate(0 0.001)">
          <g id="그룹_424" data-name="그룹 424" clip-path="url(#clip-path-2)">
            <g id="그룹_423" data-name="그룹 423" transform="translate(0 -0.001)" opacity="0.6">
              <g id="그룹_422" data-name="그룹 422" transform="translate(0 0)">
                <g id="그룹_421" data-name="그룹 421" clip-path="url(#clip-path)">
                  <path id="패스_967" data-name="패스 967" d="M26.726,18.944H21.811A10.518,10.518,0,0,0,11.3,29.45v.375a8.145,8.145,0,0,0-6.673-3.484H.742A.742.742,0,0,0,0,27.084a8.164,8.164,0,0,0,8.154,8.154H11.3V63.949L12.788,64V30.329h4.173A10.547,10.547,0,0,0,27.468,19.686a.741.741,0,0,0-.742-.742M10.371,33.754H8.154a6.679,6.679,0,0,1-6.629-5.928H4.632a6.673,6.673,0,0,1,6.4,4.836A15.773,15.773,0,0,0,5.24,30.483s2.77,1.582,5.131,3.271m6.59-4.908H14.137c1.94-2.156,7.8-5.5,7.8-5.5-3.044.221-7.41,3.082-8.94,4.2a9.032,9.032,0,0,1,8.81-7.113h4.154a9.034,9.034,0,0,1-9,8.42" transform="translate(0 10.091)" fill="#306898"/>
                  <path id="패스_968" data-name="패스 968" d="M25.678,25.065H22.754A6.258,6.258,0,0,0,16.5,31.317v.225a4.847,4.847,0,0,0-3.971-2.074H10.215a.442.442,0,0,0-.441.441,4.858,4.858,0,0,0,4.852,4.851H16.5V60.71l.881.031v-28.9h2.484a6.277,6.277,0,0,0,6.252-6.334.442.442,0,0,0-.441-.441m-9.732,8.814h-1.32a3.975,3.975,0,0,1-3.945-3.528h1.85a3.972,3.972,0,0,1,3.81,2.877,9.424,9.424,0,0,0-3.448-1.3s1.648.943,3.053,1.948m3.922-2.921h-1.68a26.729,26.729,0,0,1,4.644-3.275c-1.812.132-4.411,1.835-5.321,2.5a5.375,5.375,0,0,1,5.243-4.232h2.472a5.377,5.377,0,0,1-5.358,5.01" transform="translate(5.206 13.351)" fill="#306898"/>
                  <path id="패스_969" data-name="패스 969" d="M60,2.376H51.171A18.9,18.9,0,0,0,32.294,21.252v.677A14.633,14.633,0,0,0,20.3,15.67H13.315A1.332,1.332,0,0,0,11.982,17,14.669,14.669,0,0,0,26.633,31.653h5.662V72.826H34.96V22.832h7.5A18.95,18.95,0,0,0,61.335,3.708,1.33,1.33,0,0,0,60,2.376M30.616,28.988H26.633A12,12,0,0,1,14.721,18.334H20.3a11.993,11.993,0,0,1,11.506,8.687C28.5,25.162,24.539,23.341,21.4,23.11c0,0,4.977,2.842,9.219,5.878m11.843-8.819H37.384c3.485-3.876,14.022-9.89,14.022-9.89-5.469.4-13.314,5.541-16.062,7.541A16.225,16.225,0,0,1,51.171,5.04h7.466A16.234,16.234,0,0,1,42.459,20.169" transform="translate(6.382 1.266)" fill="#306898"/>
                  <path id="패스_970" data-name="패스 970" d="M93.162,7.317H86.354A14.568,14.568,0,0,0,71.8,21.868v.523a11.281,11.281,0,0,0-9.243-4.826H57.172a1.027,1.027,0,0,0-1.027,1.027A11.306,11.306,0,0,0,67.438,29.885H71.8V70.122l2.054.071V23.087h5.781A14.61,14.61,0,0,0,94.189,8.344a1.027,1.027,0,0,0-1.027-1.027M70.509,27.832H67.438a9.253,9.253,0,0,1-9.182-8.214h4.3a9.246,9.246,0,0,1,8.869,6.7c-2.555-1.435-5.6-2.837-8.027-3.016,0,0,3.836,2.19,7.107,4.532m9.129-6.8H75.726c2.685-2.987,10.81-7.623,10.81-7.623-4.216.305-10.264,4.27-12.384,5.813a12.508,12.508,0,0,1,12.2-9.852h5.754a12.513,12.513,0,0,1-12.47,11.662" transform="translate(29.906 3.897)" fill="#306898"/>
                  <path id="패스_971" data-name="패스 971" d="M48.284,22.419a8.542,8.542,0,0,0,8.508,8.62h3.381v31.43l1.2-.04V35.014h2.552a6.61,6.61,0,0,0,6.6-6.6.6.6,0,0,0-.6-.6h-3.15a6.6,6.6,0,0,0-5.406,2.822v-.3a8.518,8.518,0,0,0-8.508-8.509h-3.98a.6.6,0,0,0-.6.6m18,8.745a12.78,12.78,0,0,0-4.693,1.763,5.407,5.407,0,0,1,5.187-3.916h2.515a5.409,5.409,0,0,1-5.369,4.8H62.13c1.911-1.369,4.155-2.648,4.155-2.648M49.5,23.02h3.364A7.314,7.314,0,0,1,60,28.779c-1.24-.9-4.776-3.22-7.24-3.4,0,0,4.75,2.711,6.319,4.459H56.792A7.317,7.317,0,0,1,49.5,23.02" transform="translate(25.719 11.622)" fill="#306898"/>
                  <path id="패스_972" data-name="패스 972" d="M77.979,13.879a8.542,8.542,0,0,0,8.508,8.62h3.381V67.018l1.2-.04v-40.5H93.62a6.61,6.61,0,0,0,6.6-6.6.6.6,0,0,0-.6-.6h-3.15a6.6,6.6,0,0,0-5.406,2.822v-.3a8.518,8.518,0,0,0-8.508-8.509H78.58a.6.6,0,0,0-.6.6m18,8.745a12.78,12.78,0,0,0-4.693,1.763,5.407,5.407,0,0,1,5.186-3.916h2.515a5.409,5.409,0,0,1-5.369,4.8H91.825c1.911-1.369,4.155-2.648,4.155-2.648M79.2,14.48H82.56a7.314,7.314,0,0,1,7.135,5.76c-1.24-.9-4.776-3.22-7.24-3.4,0,0,4.75,2.711,6.319,4.458H86.487A7.317,7.317,0,0,1,79.2,14.48" transform="translate(41.536 7.073)" fill="#306898"/>
                  <path id="패스_973" data-name="패스 973" d="M91.634,8.629a18.661,18.661,0,0,0,18.587,18.832H117.6V70.194l2.624-.09V36.145H125.8a14.442,14.442,0,0,0,14.425-14.425,1.311,1.311,0,0,0-1.312-1.312h-6.882a14.412,14.412,0,0,0-11.806,6.163V25.9A18.607,18.607,0,0,0,101.642,7.317h-8.7a1.311,1.311,0,0,0-1.312,1.312m39.325,19.1c-3.094.23-6.99,2.022-10.252,3.853a11.806,11.806,0,0,1,11.328-8.554h5.5A11.816,11.816,0,0,1,125.8,33.521h-3.922c4.176-2.99,9.078-5.789,9.078-5.789M94.292,9.941h7.351a15.975,15.975,0,0,1,15.584,12.583c-2.707-1.971-10.431-7.035-15.817-7.426,0,0,10.376,5.922,13.808,9.739h-5a15.984,15.984,0,0,1-15.929-14.9" transform="translate(48.81 3.897)" fill="#306898"/>
                  <path id="패스_974" data-name="패스 974" d="M147.064,23.593a7.679,7.679,0,0,0,7.649,7.749h3.039V61.81l1.081-.037V34.917h2.294a5.942,5.942,0,0,0,5.936-5.936.538.538,0,0,0-.54-.539h-2.832a5.926,5.926,0,0,0-4.859,2.537V30.7a7.657,7.657,0,0,0-7.649-7.649H147.6a.539.539,0,0,0-.539.539m16.185,7.863a11.481,11.481,0,0,0-4.219,1.585,4.86,4.86,0,0,1,4.662-3.521h2.262a4.863,4.863,0,0,1-4.826,4.317h-1.614c1.718-1.231,3.735-2.382,3.735-2.382m-15.091-7.323h3.025a6.576,6.576,0,0,1,6.414,5.179c-1.114-.811-4.294-2.9-6.511-3.056,0,0,4.272,2.437,5.683,4.008h-2.057a6.579,6.579,0,0,1-6.555-6.131" transform="translate(78.335 12.28)" fill="#306898"/>
                  <path id="패스_975" data-name="패스 975" d="M69.516,11.692H62.242A15.563,15.563,0,0,0,46.694,27.238V27.8a12.054,12.054,0,0,0-9.875-5.154H31.064a1.1,1.1,0,0,0-1.1,1.1A12.079,12.079,0,0,0,42.032,35.8h4.662V67.789l2.195.075V28.541h6.177A15.608,15.608,0,0,0,70.612,12.789a1.1,1.1,0,0,0-1.1-1.1m-24.2,21.917h-3.28a9.886,9.886,0,0,1-9.811-8.774h4.6a9.876,9.876,0,0,1,9.475,7.156c-2.728-1.533-5.987-3.032-8.575-3.223,0,0,4.1,2.34,7.593,4.842m9.754-7.263h-4.18C53.757,23.153,62.435,18.2,62.435,18.2c-4.5.328-10.966,4.564-13.228,6.212A13.362,13.362,0,0,1,62.242,13.887h6.147A13.372,13.372,0,0,1,55.066,26.346" transform="translate(15.962 6.228)" fill="#306898"/>
                  <path id="패스_976" data-name="패스 976" d="M94.04,18.944H89.125A10.518,10.518,0,0,0,78.619,29.45v.375a8.145,8.145,0,0,0-6.673-3.484h-3.89a.742.742,0,0,0-.742.742,8.164,8.164,0,0,0,8.154,8.154h3.151V63.949L80.1,64V30.329h4.173A10.547,10.547,0,0,0,94.782,19.686a.741.741,0,0,0-.742-.742M77.685,33.754H75.468a6.679,6.679,0,0,1-6.629-5.928h3.107a6.673,6.673,0,0,1,6.4,4.836,15.773,15.773,0,0,0-5.795-2.178s2.77,1.582,5.131,3.271m6.59-4.908H81.451c1.94-2.156,7.8-5.5,7.8-5.5-3.044.221-7.41,3.082-8.94,4.2a9.032,9.032,0,0,1,8.81-7.113h4.154a9.034,9.034,0,0,1-9,8.42" transform="translate(35.855 10.091)" fill="#306898"/>
                  <path id="패스_977" data-name="패스 977" d="M114.873,18.944h-4.915A10.518,10.518,0,0,0,99.452,29.45v.375a8.145,8.145,0,0,0-6.673-3.484h-3.89a.742.742,0,0,0-.742.742A8.164,8.164,0,0,0,96.3,35.238h3.151V63.949l1.484.051V30.329h4.173a10.547,10.547,0,0,0,10.506-10.643.741.741,0,0,0-.742-.742M98.518,33.754H96.3a6.679,6.679,0,0,1-6.629-5.928h3.107a6.673,6.673,0,0,1,6.4,4.836,15.773,15.773,0,0,0-5.795-2.178s2.77,1.582,5.131,3.271m6.59-4.908h-2.825c1.94-2.156,7.8-5.5,7.8-5.5-3.044.221-7.41,3.082-8.94,4.2a9.032,9.032,0,0,1,8.81-7.113h4.154a9.034,9.034,0,0,1-9,8.42" transform="translate(46.952 10.091)" fill="#306898"/>
                  <path id="패스_978" data-name="패스 978" d="M138.673,19.912h-4.6a9.844,9.844,0,0,0-9.834,9.832V30.1a7.621,7.621,0,0,0-6.246-3.261h-3.64a.694.694,0,0,0-.694.694,7.641,7.641,0,0,0,7.631,7.631h2.949V63.436l1.389.048V30.569h3.907a9.873,9.873,0,0,0,9.834-9.964.693.693,0,0,0-.694-.693M123.365,33.775H121.29a6.251,6.251,0,0,1-6.2-5.55h2.907a6.245,6.245,0,0,1,5.993,4.524,14.811,14.811,0,0,0-5.424-2.038s2.593,1.481,4.8,3.064m6.169-4.595H126.89c1.816-2.019,7.3-5.153,7.3-5.153-2.849.207-6.935,2.886-8.367,3.93a8.452,8.452,0,0,1,8.244-6.658h3.888a8.456,8.456,0,0,1-8.427,7.881" transform="translate(60.541 10.606)" fill="#306898"/>
                  <path id="패스_979" data-name="패스 979" d="M162.9,16.287h-5.78A12.367,12.367,0,0,0,144.769,28.64v.443a9.574,9.574,0,0,0-7.847-4.1h-4.573a.871.871,0,0,0-.871.872,9.6,9.6,0,0,0,9.587,9.587h3.7V65.357l1.744.06V29.675h4.908a12.4,12.4,0,0,0,12.353-12.516.872.872,0,0,0-.872-.872M143.672,33.7h-2.607a7.854,7.854,0,0,1-7.8-6.972h3.652a7.848,7.848,0,0,1,7.53,5.685,18.575,18.575,0,0,0-6.814-2.56s3.257,1.859,6.034,3.847m7.749-5.772H148.1c2.281-2.537,9.178-6.472,9.178-6.472-3.58.261-8.715,3.626-10.513,4.935a10.618,10.618,0,0,1,10.358-8.362h4.885a10.623,10.623,0,0,1-10.586,9.9" transform="translate(70.033 8.675)" fill="#306898"/>
                  <path id="패스_980" data-name="패스 980" d="M183.956,18.944h-4.915A10.518,10.518,0,0,0,168.535,29.45v.375a8.145,8.145,0,0,0-6.673-3.484h-3.89a.742.742,0,0,0-.742.742,8.164,8.164,0,0,0,8.154,8.154h3.151V63.949l1.484.051V30.329h4.173A10.547,10.547,0,0,0,184.7,19.686a.741.741,0,0,0-.742-.742M167.6,33.754h-2.218a6.679,6.679,0,0,1-6.629-5.928h3.107a6.673,6.673,0,0,1,6.4,4.836,15.773,15.773,0,0,0-5.795-2.178s2.77,1.582,5.131,3.271m6.59-4.908h-2.825c1.94-2.156,7.8-5.5,7.8-5.5-3.044.221-7.41,3.082-8.94,4.2a9.032,9.032,0,0,1,8.81-7.113h4.154a9.034,9.034,0,0,1-9,8.42" transform="translate(83.75 10.091)" fill="#306898"/>
                  <path id="패스_981" data-name="패스 981" d="M182.909,25.065h-2.924a6.258,6.258,0,0,0-6.252,6.252v.225a4.847,4.847,0,0,0-3.971-2.074h-2.316a.442.442,0,0,0-.441.441,4.858,4.858,0,0,0,4.852,4.851h1.876V60.71l.881.031v-28.9H177.1a6.277,6.277,0,0,0,6.252-6.334.442.442,0,0,0-.441-.441m-9.732,8.814h-1.32a3.975,3.975,0,0,1-3.945-3.528h1.85a3.972,3.972,0,0,1,3.81,2.877,9.424,9.424,0,0,0-3.448-1.3s1.648.943,3.053,1.948m3.922-2.921h-1.68a26.729,26.729,0,0,1,4.644-3.275c-1.812.132-4.411,1.835-5.321,2.5a5.375,5.375,0,0,1,5.243-4.232h2.472a5.377,5.377,0,0,1-5.358,5.01" transform="translate(88.957 13.351)" fill="#306898"/>
                  <path id="패스_982" data-name="패스 982" d="M218.419,0h-9.493a20.315,20.315,0,0,0-20.292,20.292v.728a15.733,15.733,0,0,0-12.89-6.728H168.23a1.43,1.43,0,0,0-1.432,1.432,15.765,15.765,0,0,0,15.748,15.748h6.086v42.62H191.5v-52.1h8.062A20.373,20.373,0,0,0,219.852,1.433,1.432,1.432,0,0,0,218.419,0m-31.59,28.609h-4.282a12.9,12.9,0,0,1-12.805-11.454h6a12.891,12.891,0,0,1,12.367,9.34c-3.56-2-7.813-3.956-11.191-4.206,0,0,5.351,3.055,9.91,6.319m12.73-9.481H194.1C197.851,14.962,209.179,8.5,209.179,8.5c-5.879.428-14.314,5.956-17.268,8.108A17.444,17.444,0,0,1,208.926,2.865h8.023a17.451,17.451,0,0,1-17.39,16.263" transform="translate(88.847 0)" fill="#306898"/>
                  <path id="패스_983" data-name="패스 983" d="M247.38,7.317h-6.808a14.568,14.568,0,0,0-14.551,14.551v.523a11.281,11.281,0,0,0-9.243-4.826H211.39a1.027,1.027,0,0,0-1.027,1.027,11.306,11.306,0,0,0,11.293,11.294h4.365V70.122l2.054.071V23.087h5.781A14.61,14.61,0,0,0,248.407,8.344a1.027,1.027,0,0,0-1.027-1.027M224.727,27.832h-3.071a9.253,9.253,0,0,1-9.182-8.214h4.3a9.246,9.246,0,0,1,8.869,6.7c-2.555-1.435-5.6-2.837-8.027-3.016,0,0,3.836,2.19,7.107,4.532m9.128-6.8h-3.911c2.685-2.987,10.81-7.623,10.81-7.623-4.216.305-10.264,4.27-12.384,5.813a12.508,12.508,0,0,1,12.2-9.852h5.755a12.516,12.516,0,0,1-12.471,11.662" transform="translate(112.052 3.897)" fill="#306898"/>
                  <path id="패스_984" data-name="패스 984" d="M202.5,21.358a9.321,9.321,0,0,0,9.283,9.406h3.689v32.3l1.31-.044V35.1h2.785a7.213,7.213,0,0,0,7.2-7.205.655.655,0,0,0-.656-.656h-3.436a7.2,7.2,0,0,0-5.9,3.079v-.334A9.294,9.294,0,0,0,207.5,20.7h-4.344a.654.654,0,0,0-.654.656M222.146,30.9a13.962,13.962,0,0,0-5.121,1.925,5.9,5.9,0,0,1,5.659-4.273h2.745a5.9,5.9,0,0,1-5.858,5.24h-1.96c2.087-1.494,4.535-2.892,4.535-2.892M203.83,22.012H207.5a7.978,7.978,0,0,1,7.784,6.285c-1.35-.984-5.21-3.514-7.9-3.709,0,0,5.182,2.958,6.9,4.865h-2.5a7.985,7.985,0,0,1-7.956-7.441" transform="translate(107.865 11.027)" fill="#306898"/>
                  <path id="패스_985" data-name="패스 985" d="M232.2,13.879A8.542,8.542,0,0,0,240.7,22.5h3.381V67.018l1.2-.04v-40.5h2.552a6.61,6.61,0,0,0,6.6-6.6.6.6,0,0,0-.6-.6h-3.15a6.6,6.6,0,0,0-5.406,2.822v-.3a8.518,8.518,0,0,0-8.508-8.509H232.8a.6.6,0,0,0-.6.6m18,8.745a12.78,12.78,0,0,0-4.693,1.763,5.407,5.407,0,0,1,5.186-3.916h2.515a5.409,5.409,0,0,1-5.369,4.8h-1.795c1.911-1.369,4.155-2.648,4.155-2.648M233.414,14.48h3.364a7.314,7.314,0,0,1,7.135,5.76c-1.238-.9-4.776-3.22-7.24-3.4,0,0,4.75,2.711,6.319,4.458H240.7a7.317,7.317,0,0,1-7.291-6.819" transform="translate(123.682 7.073)" fill="#306898"/>
                  <path id="패스_986" data-name="패스 986" d="M223.734,11.692H216.46a15.563,15.563,0,0,0-15.547,15.546V27.8a12.054,12.054,0,0,0-9.875-5.154h-5.755a1.1,1.1,0,0,0-1.1,1.1A12.079,12.079,0,0,0,196.25,35.8h4.662V67.789l2.195.075V28.541h6.177A15.608,15.608,0,0,0,224.83,12.789a1.1,1.1,0,0,0-1.1-1.1m-24.2,21.917h-3.28a9.886,9.886,0,0,1-9.811-8.774h4.6a9.876,9.876,0,0,1,9.475,7.156c-2.728-1.533-5.987-3.032-8.575-3.223,0,0,4.1,2.34,7.593,4.842m9.754-7.263H205.1c2.871-3.193,11.549-8.146,11.549-8.146-4.5.328-10.966,4.564-13.228,6.212A13.362,13.362,0,0,1,216.46,13.887h6.147a13.372,13.372,0,0,1-13.323,12.459" transform="translate(98.108 6.228)" fill="#306898"/>
                  <path id="패스_987" data-name="패스 987" d="M248.258,18.944h-4.915A10.518,10.518,0,0,0,232.836,29.45v.375a8.145,8.145,0,0,0-6.673-3.484h-3.89a.741.741,0,0,0-.74.742,8.163,8.163,0,0,0,8.152,8.154h3.151V63.949L234.32,64V30.329h4.175A10.546,10.546,0,0,0,249,19.686a.741.741,0,0,0-.742-.742M231.9,33.754h-2.218a6.68,6.68,0,0,1-6.629-5.928h3.107a6.673,6.673,0,0,1,6.4,4.836,15.773,15.773,0,0,0-5.795-2.178s2.77,1.582,5.131,3.271m6.592-4.908H235.67c1.939-2.156,7.8-5.5,7.8-5.5-3.044.221-7.41,3.082-8.94,4.2a9.032,9.032,0,0,1,8.81-7.113H247.5a9.033,9.033,0,0,1-9,8.42" transform="translate(118.001 10.091)" fill="#306898"/>
                </g>
              </g>
            </g>
          </g>
        </g>
      </g>
    </g>
    <g id="그룹_429" data-name="그룹 429" transform="translate(395.037 5675.734)">
      <g id="그룹_428" data-name="그룹 428" transform="translate(0 0)" clip-path="url(#clip-path-4)">
        <path id="패스_988" data-name="패스 988" d="M73.381,22.034A49.134,49.134,0,0,0,58.223,6.557,39.019,39.019,0,0,0,36.784,0,39.39,39.39,0,0,0,15.344,6.62,48.212,48.212,0,0,0,.188,22.034a1.335,1.335,0,0,0-.179.657A.878.878,0,0,0,0,22.825a.9.9,0,0,0,.009.135,1.334,1.334,0,0,0,.179.655A49.228,49.228,0,0,0,15.344,39.03a39.475,39.475,0,0,0,21.441,6.62,39,39,0,0,0,21.439-6.558A48.055,48.055,0,0,0,73.381,23.616a1.437,1.437,0,0,0,0-1.582m-36.6,21.406c-12.837.086-26.689-7.5-34.922-20.615C10.166,9.588,23.885,2.358,36.784,2.21c12.858-.148,26.709,7.441,34.923,20.615-8.285,13.3-22,20.527-34.923,20.615" transform="translate(0 0)" fill="#138ed1"/>
        <path id="패스_989" data-name="패스 989" d="M34.363,38.768A16.687,16.687,0,1,1,51.051,22.08,16.7,16.7,0,0,1,34.363,38.768m0-31.93A15.243,15.243,0,1,0,49.609,22.08,15.259,15.259,0,0,0,34.363,6.838" transform="translate(2.439 0.744)" fill="#138ed1"/>
        <path id="패스_990" data-name="패스 990" d="M33.278,28.729a7.734,7.734,0,1,1,7.735-7.734,7.743,7.743,0,0,1-7.735,7.734" transform="translate(3.525 1.83)" fill="#138ed1"/>
      </g>
    </g>
    <text id="온도_습도_광량_CO2_Multi_Spectrum_미세먼지" data-name="온도 / 습도 / 광량 / CO2
Multi Spectrum / 미세먼지" transform="translate(447.501 5883)" fill="#9ec4e5" font-size="16" font-family="NotoSansCJKkr-Light, Noto Sans CJK KR" font-weight="300" letter-spacing="-0.03em"><tspan x="0" y="0">온도 / 습도 / 광량 / </tspan><tspan y="0">CO</tspan><tspan y="0" font-size="9.333" baseline-shift="-5.33279994943018">2</tspan><tspan x="0" y="24">Multi Spectrum / </tspan><tspan y="24">미세먼지</tspan></text>
    <text id="IoT_Sensor_Smart_TThing" data-name="IoT Sensor
Smart TThing" transform="translate(431.846 5627)" fill="#fff" font-size="24" font-family="NotoSansCJKkr-Regular, Noto Sans CJK KR" letter-spacing="-0.025em"><tspan x="-55.884" y="0">IoT Sensor</tspan><tspan x="-72.66" y="34">Smart TThing</tspan></text>
    <text id="Cloud_IoT_Core" data-name="Cloud
IoT Core" transform="translate(620 5746.559)" fill="#fff" font-size="16" font-family="NotoSansCJKkr-Light, Noto Sans CJK KR" font-weight="300" letter-spacing="-0.025em"><tspan x="-20.664" y="0">Cloud</tspan><tspan x="-28.328" y="20">IoT Core</tspan></text>
    <text id="Cloud_Run" data-name="Cloud Run" transform="translate(850 5526.068)" fill="#fff" font-size="16" font-family="NotoSansCJKkr-Light, Noto Sans CJK KR" font-weight="300" letter-spacing="-0.025em"><tspan x="-35.968" y="0">Cloud Run</tspan></text>
    <text id="Stream" transform="translate(1576 5519)" fill="#fff" font-size="16" font-family="NotoSansCJKkr-Light, Noto Sans CJK KR" font-weight="300" letter-spacing="-0.025em"><tspan x="-24.824" y="0">Stream</tspan></text>
    <text id="Cloud_Firebase" data-name="Cloud
Firebase" transform="translate(1074 5464)" fill="#fff" font-size="16" font-family="NotoSansCJKkr-Light, Noto Sans CJK KR" font-weight="300" letter-spacing="-0.025em"><tspan x="0" y="0">Cloud</tspan><tspan x="0" y="20">Firebase</tspan></text>
    <text id="Cloud_Machine_Learning" data-name="Cloud Machine
Learning" transform="translate(1082 5933)" fill="#fff" font-size="16" font-family="NotoSansCJKkr-Light, Noto Sans CJK KR" font-weight="300" letter-spacing="-0.025em"><tspan x="0" y="0">Cloud Machine</tspan><tspan x="0" y="20">Learning</tspan></text>
    <text id="Cloud_Dataproc" data-name="Cloud
Dataproc" transform="translate(1353.682 5932.938)" fill="#fff" font-size="16" font-family="NotoSansCJKkr-Light, Noto Sans CJK KR" font-weight="300" letter-spacing="-0.025em"><tspan x="0" y="0">Cloud</tspan><tspan x="0" y="20">Dataproc</tspan></text>
    <text id="Cloud_Pub_Sub" data-name="Cloud
Pub/Sub" transform="translate(850 5746.559)" fill="#fff" font-size="16" font-family="NotoSansCJKkr-Light, Noto Sans CJK KR" font-weight="300" letter-spacing="-0.025em"><tspan x="-20.664" y="0">Cloud</tspan><tspan x="-30.576" y="20">Pub/Sub</tspan></text>
    <text id="Cloud_Dataflow" data-name="Cloud
Dataflow" transform="translate(850 5905)" fill="#fff" font-size="16" font-family="NotoSansCJKkr-Light, Noto Sans CJK KR" font-weight="300" letter-spacing="-0.025em"><tspan x="-20.664" y="0">Cloud</tspan><tspan x="-30.848" y="20">Dataflow</tspan></text>
    <text id="ETL-Pub_Sub_toFirebase" data-name="ETL-Pub/Sub
toFirebase" transform="translate(859.592 5596)" fill="#fff" font-size="16" font-family="NotoSansCJKkr-Light, Noto Sans CJK KR" font-weight="300" letter-spacing="-0.025em"><tspan x="0" y="0">ETL-Pub/Sub</tspan><tspan x="0" y="20">toFirebase</tspan></text>
    <text id="Sensor_Layer" data-name="Sensor Layer" transform="translate(515 5407)" fill="#ffbc00" font-size="28" font-family="Roboto-Italic, Roboto" font-style="italic" letter-spacing="-0.015em"><tspan x="-76.864" y="0">Sensor Layer</tspan></text>
    <text id="Realtime_Layer" data-name="Realtime Layer" transform="translate(1234 5408)" fill="#ffbc00" font-size="28" font-family="Roboto-Italic, Roboto" font-style="italic" letter-spacing="-0.015em"><tspan x="-87.559" y="0">Realtime Layer</tspan></text>
    <text id="RestAPI_Layer" data-name="RestAPI Layer" transform="translate(1234 5614)" fill="#ffbc00" font-size="28" font-family="Roboto-Italic, Roboto" font-style="italic" letter-spacing="-0.015em"><tspan x="-82.745" y="0">RestAPI Layer</tspan></text>
    <text id="BigData_Layer" data-name="BigData Layer" transform="translate(1234 5820)" fill="#ffbc00" font-size="28" font-family="Roboto-Italic, Roboto" font-style="italic" letter-spacing="-0.015em"><tspan x="-82.136" y="0">BigData Layer</tspan></text>
    <text id="LTE_Layer" data-name="LTE Layer" transform="translate(850 5407)" fill="#ffbc00" font-size="28" font-family="Roboto-Italic, Roboto" font-style="italic" letter-spacing="-0.015em"><tspan x="-56.453" y="0">LTE Layer</tspan></text>
    <text id="MQTT" transform="translate(528 5717.559)" fill="#fff" font-size="16" font-family="NotoSansCJKkr-Regular, Noto Sans CJK KR"><tspan x="-21.8" y="0">MQTT</tspan></text>
    <text id="데이터_수집" data-name="데이터
수집" transform="translate(444 5807)" fill="#fff" font-size="14" font-family="NotoSansCJKkr-Regular, Noto Sans CJK KR"><tspan x="0" y="0">데이터</tspan><tspan x="0" y="20">수집</tspan></text>
    <g id="그룹_431" data-name="그룹 431" transform="translate(590 5658)">
      <g id="그룹_430" data-name="그룹 430" transform="translate(0 0)" clip-path="url(#clip-path-5)">
        <path id="패스_991" data-name="패스 991" d="M49.381,28.593a9.465,9.465,0,0,0,1.18-1.008,8.862,8.862,0,0,0,2.682-6.5A9.21,9.21,0,0,0,45.4,11.988a5.618,5.618,0,0,0,.2-1.564,5.527,5.527,0,0,0-5.555-5.555,5.31,5.31,0,0,0-3.429,1.17,11.463,11.463,0,0,0-1.864-2.42A10.721,10.721,0,0,0,26.886.363a10.7,10.7,0,0,0-7.855,3.256,10.7,10.7,0,0,0-3.257,7.855c0,.145,0,.29,0,.434A8.812,8.812,0,0,0,9.695,14.6,8.829,8.829,0,0,0,7,21.082a8.879,8.879,0,0,0,2.693,6.5,10.093,10.093,0,0,0,1.17,1.008m-6.4.908a13.591,13.591,0,0,0-2.29,2.974A13.177,13.177,0,0,0,7,50.514a13.6,13.6,0,0,0,3.489,1.442m14.49-30.642v3.529h5.161V21.314M14.816,31.477h3.529v-.584A6.059,6.059,0,0,1,24.4,24.844h.586m10.325-3.529v3.529h.586a6.056,6.056,0,0,1,6.049,6.049v.584H45.47M30.142,24.844h5.163M55.824,29.5a13.591,13.591,0,0,1,2.29,2.974,13.175,13.175,0,0,1-4.831,18.039A13.564,13.564,0,0,1,49.8,51.956m1.816-18.069a7.556,7.556,0,0,1,1.26,1.634A7.163,7.163,0,0,1,50.249,45.3a7.476,7.476,0,0,1-1.906.786M35.5,39.746l-5.363,3.106-5.365-3.1V33.544l5.365-3.1,5.363,3.1ZM45.47,41.8H41.94v.586a6.056,6.056,0,0,1-6.049,6.049h-.586v7.725h6.373a2.618,2.618,0,1,1,.766,1.854,2.535,2.535,0,0,1-.766-1.854M45.47,36.64H41.94V41.8m-11.8,19.561a2.618,2.618,0,1,1-1.854.766,2.528,2.528,0,0,1,1.854-.766V48.436H24.981v7.725H18.608a2.623,2.623,0,0,1-4.477,1.854A2.624,2.624,0,0,1,17.842,54.3a2.535,2.535,0,0,1,.766,1.857m6.373-7.725H24.4a6.059,6.059,0,0,1-6.049-6.049V41.8H14.816m3.529,0V36.64H14.816m20.489,11.8H30.142M8.677,33.887A7.51,7.51,0,0,0,7.415,35.52,7.163,7.163,0,0,0,10.037,45.3a7.451,7.451,0,0,0,1.906.786m30-9.447V31.477M18.346,36.64V31.477" transform="translate(0.242 0.242)" fill="none" stroke="#138ed1" stroke-linecap="round" stroke-linejoin="round" stroke-width="2"/>
      </g>
    </g>
    <g id="그룹_433" data-name="그룹 433" transform="translate(140 55.5)">
      <line id="선_66" data-name="선 66" x2="91" transform="translate(341.5 5634)" fill="none" stroke="#fff" stroke-linecap="round" stroke-width="2"/>
      <path id="다각형_3" data-name="다각형 3" d="M3.5,0,7,7H0Z" transform="translate(437 5630.5) rotate(90)" fill="#fff"/>
      <path id="다각형_9" data-name="다각형 9" d="M3.5,0,7,7H0Z" transform="translate(339 5637.5) rotate(-90)" fill="#fff"/>
    </g>
    <g id="그룹_474" data-name="그룹 474" transform="translate(6691.5 5379.893) rotate(90)">
      <line id="선_66-2" data-name="선 66" x2="91" transform="translate(341.5 5634)" fill="none" stroke="#fff" stroke-linecap="round" stroke-width="2" stroke-dasharray="4"/>
      <path id="다각형_3-2" data-name="다각형 3" d="M3.5,0,7,7H0Z" transform="translate(437 5630.5) rotate(90)" fill="#fff"/>
      <path id="다각형_9-2" data-name="다각형 9" d="M3.5,0,7,7H0Z" transform="translate(339 5637.5) rotate(-90)" fill="#fff"/>
    </g>
    <g id="그룹_475" data-name="그룹 475" transform="translate(6691.5 5205.666) rotate(90)">
      <line id="선_66-3" data-name="선 66" x2="131.334" transform="translate(299.5 5634)" fill="none" stroke="#fff" stroke-linecap="round" stroke-width="2" stroke-dasharray="4"/>
      <path id="다각형_3-3" data-name="다각형 3" d="M3.5,0,7,7H0Z" transform="translate(437 5630.5) rotate(90)" fill="#fff"/>
      <path id="다각형_9-3" data-name="다각형 9" d="M3.5,0,7,7H0Z" transform="translate(294 5637.5) rotate(-90)" fill="#fff"/>
    </g>
    <g id="그룹_473" data-name="그룹 473" transform="translate(542 55.5)">
      <line id="선_66-4" data-name="선 66" x2="134" transform="translate(341.5 5634)" fill="none" stroke="#fff" stroke-linecap="round" stroke-width="2"/>
      <path id="다각형_3-4" data-name="다각형 3" d="M3.5,0,7,7H0Z" transform="translate(479 5630.5) rotate(90)" fill="#fff"/>
      <path id="다각형_9-4" data-name="다각형 9" d="M3.5,0,7,7H0Z" transform="translate(339 5637.5) rotate(-90)" fill="#fff"/>
    </g>
    <path id="다각형_5" data-name="다각형 5" d="M3.5,0,7,7H0Z" transform="translate(430 5730.059)" fill="#ffbc00"/>
    <path id="패스_992" data-name="패스 992" d="M4313.346,19322.811v151.156" transform="translate(-3879.846 -13589.441)" fill="none" stroke="#ffbc00" stroke-linecap="round" stroke-width="1" stroke-dasharray="4"/>
    <circle id="타원_170" data-name="타원 170" cx="4" cy="4" r="4" transform="translate(430 5880)" fill="#ffbc00"/>
    <g id="그룹_432" data-name="그룹 432" transform="translate(192 55.5)">
      <line id="선_67" data-name="선 67" x2="147" transform="translate(470.5 5634)" fill="none" stroke="#fff" stroke-linecap="round" stroke-width="2"/>
      <path id="다각형_4" data-name="다각형 4" d="M3.5,0,7,7H0Z" transform="translate(622.917 5630.5) rotate(90)" fill="#fff"/>
      <path id="다각형_10" data-name="다각형 10" d="M3.5,0,7,7H0Z" transform="translate(467.917 5637.5) rotate(-90)" fill="#fff"/>
    </g>
    <g id="그룹_436" data-name="그룹 436" transform="translate(-4784.5 6174.418) rotate(-90)">
      <line id="선_67-2" data-name="선 67" x2="121" transform="translate(517.918 5634)" fill="none" stroke="#2e7f6d" stroke-linecap="round" stroke-width="2"/>
      <path id="다각형_4-2" data-name="다각형 4" d="M3.5,0,7,7H0Z" transform="translate(642.417 5630.5) rotate(90)" fill="#2e7f6d"/>
    </g>
    <g id="그룹_440" data-name="그룹 440" transform="translate(6483.5 5221.455) rotate(90)">
      <line id="선_67-3" data-name="선 67" x2="35" transform="translate(559.045 5634)" fill="none" stroke="#997d22" stroke-linecap="round" stroke-width="2"/>
      <path id="다각형_4-3" data-name="다각형 4" d="M3.5,0,7,7H0Z" transform="translate(597.917 5630.5) rotate(90)" fill="#997d22"/>
    </g>
    <g id="그룹_441" data-name="그룹 441" transform="translate(338.519 220.499)">
      <line id="선_67-4" data-name="선 67" x2="120.937" transform="translate(559.045 5634.001)" fill="none" stroke="#997d22" stroke-linecap="round" stroke-width="2"/>
      <path id="다각형_4-4" data-name="다각형 4" d="M3.5,0,7,7H0Z" transform="translate(684.917 5630.5) rotate(90)" fill="#997d22"/>
    </g>
    <g id="그룹_453" data-name="그룹 453" transform="translate(6690 5281.742) rotate(90)">
      <line id="선_67-5" data-name="선 67" x2="15.34" transform="translate(605.418 5634.001)" fill="none" stroke="#997d22" stroke-linecap="round" stroke-width="2"/>
      <path id="다각형_4-5" data-name="다각형 4" d="M3.5,0,7,7H0Z" transform="translate(625.757 5630.5) rotate(90)" fill="#997d22"/>
      <path id="다각형_6" data-name="다각형 6" d="M3.5,0,7,7H0Z" transform="translate(602.417 5637.501) rotate(-90)" fill="#997d22"/>
    </g>
    <g id="그룹_455" data-name="그룹 455" transform="translate(525.583 234.409)">
      <line id="선_67-6" data-name="선 67" x2="326" transform="translate(641.917 5620.091)" fill="none" stroke="#997d22" stroke-linecap="round" stroke-width="2"/>
      <path id="다각형_4-6" data-name="다각형 4" d="M3.5,0,7,7H0Z" transform="translate(1006.417 5561.5) rotate(90)" fill="#997d22"/>
      <path id="패스_1003" data-name="패스 1003" d="M5359.08,19467.211v-55.09h33.284" transform="translate(-4391.163 -13847.12)" fill="none" stroke="#997d22" stroke-linecap="round" stroke-linejoin="round" stroke-width="2"/>
    </g>
    <g id="그룹_454" data-name="그룹 454" transform="translate(601.021 301.409)">
      <path id="패스_1010" data-name="패스 1010" d="M0,0H74.564" transform="translate(605.417 5634.001)" fill="none" stroke="#997d22" stroke-linecap="round" stroke-width="2"/>
      <path id="다각형_4-7" data-name="다각형 4" d="M3.5,0,7,7H0Z" transform="translate(684.917 5630.5) rotate(90)" fill="#997d22"/>
      <path id="다각형_11" data-name="다각형 11" d="M3.5,0,7,7H0Z" transform="translate(602.917 5637.501) rotate(-90)" fill="#997d22"/>
    </g>
    <g id="그룹_458" data-name="그룹 458" transform="translate(1024.825 301.409)">
      <line id="선_67-7" data-name="선 67" x2="69.5" transform="translate(412.175 5634.001)" fill="none" stroke="#997d21" stroke-linecap="round" stroke-width="2"/>
      <path id="다각형_4-8" data-name="다각형 4" d="M3.5,0,7,7H0Z" transform="translate(506.917 5523.648) rotate(90)" fill="#997d21"/>
      <path id="패스_1002" data-name="패스 1002" d="M506.675,5634V5527.149h21.1" transform="translate(-25)" fill="none" stroke="#997d21" stroke-linecap="round" stroke-linejoin="round" stroke-width="2"/>
      <path id="다각형_12" data-name="다각형 12" d="M3.5,0,7,7H0Z" transform="translate(407.917 5637.501) rotate(-90)" fill="#997d21"/>
    </g>
    <g id="그룹_457" data-name="그룹 457" transform="translate(870.083 48.558)">
      <line id="선_67-8" data-name="선 67" x2="79.373" transform="translate(559.045 5634.001)" fill="none" stroke="#fff" stroke-linecap="round" stroke-width="2"/>
      <path id="다각형_4-9" data-name="다각형 4" d="M3.5,0,7,7H0Z" transform="translate(662.917 5721.5) rotate(90)" fill="#fff"/>
      <line id="선_68" data-name="선 68" x2="21" transform="translate(638.417 5724.942)" fill="none" stroke="#fff" stroke-linecap="round" stroke-width="2"/>
      <line id="선_69" data-name="선 69" y2="91" transform="translate(638.417 5633.942)" fill="none" stroke="#fff" stroke-linecap="round" stroke-width="2"/>
      <path id="다각형_13" data-name="다각형 13" d="M3.5,0,7,7H0Z" transform="translate(555.917 5637.442) rotate(-90)" fill="#fff"/>
    </g>
    <g id="그룹_469" data-name="그룹 469" transform="translate(870.083 -90.442)">
      <line id="선_67-9" data-name="선 67" x2="79.373" transform="translate(559.045 5759.001)" fill="none" stroke="#fff" stroke-linecap="round" stroke-width="2"/>
      <path id="다각형_4-10" data-name="다각형 4" d="M3.5,0,7,7H0Z" transform="translate(662.917 5579.5) rotate(90)" fill="#fff"/>
      <line id="선_68-2" data-name="선 68" x2="21" transform="translate(638.417 5582.942)" fill="none" stroke="#fff" stroke-linecap="round" stroke-width="2"/>
      <line id="선_69-2" data-name="선 69" y2="176.059" transform="translate(638.417 5582.942)" fill="none" stroke="#fff" stroke-linecap="round" stroke-width="2"/>
      <path id="다각형_14" data-name="다각형 14" d="M3.5,0,7,7H0Z" transform="translate(555.545 5762.501) rotate(-90)" fill="#fff"/>
    </g>
    <g id="그룹_456" data-name="그룹 456" transform="translate(571.455 55.499)">
      <line id="선_67-10" data-name="선 67" x2="160.5" transform="translate(559.045 5634.001)" fill="none" stroke="#fff" stroke-linecap="round" stroke-width="2"/>
      <path id="다각형_4-11" data-name="다각형 4" d="M3.5,0,7,7H0Z" transform="translate(723.045 5630.5) rotate(90)" fill="#fff"/>
    </g>
    <g id="그룹_470" data-name="그룹 470" transform="translate(616.455 -160.673)">
      <line id="선_67-11" data-name="선 67" x2="382" transform="translate(529.045 5634.001)" fill="none" stroke="#2e7f6d" stroke-linecap="round" stroke-width="2"/>
      <path id="다각형_4-12" data-name="다각형 4" d="M3.5,0,7,7H0Z" transform="translate(917.045 5630.5) rotate(90)" fill="#2e7f6d"/>
    </g>
    <g id="그룹_443" data-name="그룹 443" transform="translate(335.955 -160.672)">
      <line id="선_67-12" data-name="선 67" x2="120.937" transform="translate(559.045 5634.001)" fill="none" stroke="#2e7f6d" stroke-linecap="round" stroke-width="2"/>
      <path id="다각형_4-13" data-name="다각형 4" d="M3.5,0,7,7H0Z" transform="translate(684.917 5630.5) rotate(90)" fill="#2e7f6d"/>
    </g>
    <g id="그룹_435" data-name="그룹 435" transform="translate(826 5445.684)">
      <g id="그룹_434" data-name="그룹 434" transform="translate(-1 -1)" clip-path="url(#clip-path-6)">
        <path id="패스_993" data-name="패스 993" d="M32.654,26.661l-.8,4.76h6.834a9.335,9.335,0,0,0,9.338-9.347,9.369,9.369,0,0,0-7.982-9.256,5.742,5.742,0,0,0,.208-1.59A5.64,5.64,0,0,0,34.6,5.578a5.4,5.4,0,0,0-3.487,1.2,11.667,11.667,0,0,0-1.9-2.464,10.906,10.906,0,0,0-8-3.313,10.887,10.887,0,0,0-7.991,3.313A10.882,10.882,0,0,0,9.922,12.3q0,.221,0,.44a8.954,8.954,0,0,0-6.184,2.73A8.991,8.991,0,0,0,1,22.075a9.009,9.009,0,0,0,2.739,6.609A8.975,8.975,0,0,0,10.1,31.421h.3l.233-.008h4.145l.8-4.777m-2.713-4.869V19.744H10.838m2.023-2.023v2.023h2.023m8.54-6.992a5.115,5.115,0,0,1,5.11,5.111,5.115,5.115,0,0,1-5.11,5.11,5.115,5.115,0,0,1-5.111-5.11,5.115,5.115,0,0,1,5.111-5.111Zm10.646,9.015V19.744H32.046m2.023-2.023v2.023h2.023M21.051,44.864a2.964,2.964,0,1,1-.475-.033,3.282,3.282,0,0,1,.475.033l2.264-13.451h-8.54l-1.14,6.792H7.675v2.9H1.882V35.309H7.675v2.9M24.114,26.653l-.8,4.761,8.54.008L29.916,42.95l7.15-.067V39.1l6.559,3.779-6.567,3.788.008-3.779" transform="translate(0.486 0.486)" fill="none" stroke="#138ed1" stroke-linecap="round" stroke-linejoin="round" stroke-width="2"/>
      </g>
    </g>
    <g id="그룹_476" data-name="그룹 476">
      <text id="Cloud_Run-2" data-name="Cloud
Run" transform="translate(1365.361 5685)" fill="#fff" font-size="16" font-family="NotoSansCJKkr-Light, Noto Sans CJK KR" font-weight="300" letter-spacing="-0.025em"><tspan x="0" y="0">Cloud</tspan><tspan x="0" y="20">Run</tspan></text>
      <g id="그룹_444" data-name="그룹 444" transform="translate(1311 5665)">
        <g id="그룹_434-2" data-name="그룹 434" transform="translate(-2 -2)" clip-path="url(#clip-path-7)">
          <path id="패스_993-2" data-name="패스 993" d="M29.507,24.11l-.72,4.287h6.155a8.407,8.407,0,0,0,8.41-8.418,8.438,8.438,0,0,0-7.189-8.335,5.171,5.171,0,0,0,.188-1.432,5.08,5.08,0,0,0-5.09-5.09A4.862,4.862,0,0,0,28.121,6.2a10.508,10.508,0,0,0-1.709-2.219A9.821,9.821,0,0,0,19.208,1a9.8,9.8,0,0,0-7.2,2.984,9.8,9.8,0,0,0-2.977,7.2q0,.2,0,.4a8.064,8.064,0,0,0-5.569,2.459A8.1,8.1,0,0,0,1,19.98a8.113,8.113,0,0,0,2.466,5.952A8.083,8.083,0,0,0,9.193,28.4h.27l.21-.007h3.733l.72-4.3M11.682,19.7V17.881H9.86m1.822-1.822v1.822H13.5m7.691-6.3a4.607,4.607,0,0,1,4.6,4.6,4.607,4.607,0,0,1-4.6,4.6,4.607,4.607,0,0,1-4.6-4.6,4.607,4.607,0,0,1,4.6-4.6ZM30.782,19.7V17.881H28.96m1.822-1.822v1.822H32.6M19.058,40.5a2.67,2.67,0,1,1-.428-.03,2.957,2.957,0,0,1,.428.03L21.1,28.39H13.406l-1.027,6.117H7.012v2.609H1.795V31.9H7.012v2.609m14.8-10.4L21.1,28.39l7.691.007L27.041,38.78l6.439-.06V35.309l5.907,3.4-5.914,3.411.008-3.4" transform="translate(1.14 1.14)" fill="none" stroke="#138ed1" stroke-linecap="round" stroke-linejoin="round" stroke-width="2"/>
        </g>
      </g>
    </g>
    <g id="그룹_439" data-name="그룹 439" transform="translate(826 5663.999)">
      <g id="마스크_그룹_438" data-name="마스크 그룹 438" transform="translate(-1 -1)" clip-path="url(#clip-path-8)">
        <path id="패스_994" data-name="패스 994" d="M25.024,1.5a4.351,4.351,0,0,1,3.2,1.316,4.378,4.378,0,0,1,1.332,3.213,4.332,4.332,0,0,1-.6,2.264L40.1,14.726a4.621,4.621,0,0,1,.724-.941,4.406,4.406,0,0,1,3.213-1.315A4.518,4.518,0,0,1,48.565,17a4.546,4.546,0,0,1-4.528,4.528h-.008v12.9h.008a4.529,4.529,0,1,1-3.213,7.725,4.534,4.534,0,0,1-.724-.932L28.953,47.656a4.379,4.379,0,0,1,.6,2.273,4.548,4.548,0,0,1-4.529,4.529A4.519,4.519,0,0,1,20.5,49.928a4.422,4.422,0,0,1,.59-2.273L9.957,41.23a4.665,4.665,0,0,1-.733.924,4.324,4.324,0,0,1-3.2,1.332,4.381,4.381,0,0,1-3.213-1.332,4.352,4.352,0,0,1-1.315-3.2,4.491,4.491,0,0,1,4.529-4.529v-12.9a4.379,4.379,0,0,1-3.213-1.332A4.352,4.352,0,0,1,1.5,17,4.49,4.49,0,0,1,6.029,12.47a4.349,4.349,0,0,1,3.2,1.315,4.64,4.64,0,0,1,.733.941L21.087,8.292a4.375,4.375,0,0,1-.59-2.264A4.491,4.491,0,0,1,25.024,1.5ZM9.957,14.726a4.607,4.607,0,0,1,0,4.545l6.535,3.771a6.719,6.719,0,0,1,6.551-5.278,6.779,6.779,0,0,1,1.981.283V10.556a4.376,4.376,0,0,1-3.213-1.332,4.556,4.556,0,0,1-.725-.932m7.866,0a4.513,4.513,0,0,1-.732.932,4.322,4.322,0,0,1-3.2,1.332M9.957,19.271a4.665,4.665,0,0,1-.733.924,4.322,4.322,0,0,1-3.2,1.332m0,12.9a4.351,4.351,0,0,1,3.2,1.316,4.615,4.615,0,0,1,.733.94L13.379,34.7a5.819,5.819,0,0,1-.675-.583,5.526,5.526,0,0,1,0-7.807,5.287,5.287,0,0,1,3.654-1.607c0-.088,0-.177,0-.266a7.18,7.18,0,0,1,.133-1.4m8.532-4.995a6.472,6.472,0,0,1,2.738,1.673,6.893,6.893,0,0,1,1.124,1.456,3.361,3.361,0,0,1,4.429.267,3.277,3.277,0,0,1,.808,1.282l5.985-3.455a4.358,4.358,0,0,1-.6-2.273,4.426,4.426,0,0,1,.591-2.272M21.819,24.765a4.532,4.532,0,0,1,6.41,6.409,4.532,4.532,0,0,1-6.41-6.409Zm22.209-3.238a4.376,4.376,0,0,1-3.2-1.332,4.486,4.486,0,0,1-.716-.924m-5.985,3.455a3.6,3.6,0,0,1,.041,2.022,5.531,5.531,0,0,1,4.72,5.469,5.314,5.314,0,0,1-1.615,3.9,6.357,6.357,0,0,1-.633.558l3.463,2a4.771,4.771,0,0,1,.724-.932,4.406,4.406,0,0,1,3.2-1.316m-7.392.25a5.316,5.316,0,0,1-3.271,1.066l-8.341-.008V45.4a4.349,4.349,0,0,1,3.2,1.316,4.61,4.61,0,0,1,.732.94M40.1,41.221a4.384,4.384,0,0,1-.591-2.264,4.462,4.462,0,0,1,.591-2.281m-15.075-.94H16.783l-.141.008h-.175A5.276,5.276,0,0,1,13.379,34.7M9.957,36.685a4.608,4.608,0,0,1,0,4.545M25.024,45.4a4.4,4.4,0,0,0-3.213,1.316,4.669,4.669,0,0,0-.725.94" transform="translate(-0.032 -0.032)" fill="none" stroke="#138ed1" stroke-linecap="round" stroke-linejoin="round" stroke-width="2"/>
      </g>
    </g>
    <path id="패스_995" data-name="패스 995" d="M-455.827,968.837a21.348,21.348,0,0,0,2.232-.285,15.937,15.937,0,0,0,3.987-1.25q.307-.148.576-.3,2.742-1.47,2.8-3.5v-.137q-.049-2.221-3.378-3.8l-.187-.082a19.157,19.157,0,0,0-7.985-1.519h-.932l-.68.027m9.186-3.208a7.979,7.979,0,0,0-2.43-5.813,8.023,8.023,0,0,0-4.678-2.369,5.162,5.162,0,0,0,.181-1.415,4.837,4.837,0,0,0-1.464-3.565,4.853,4.853,0,0,0-3.57-1.47,4.782,4.782,0,0,0-3.11,1.058,10.386,10.386,0,0,0-1.689-2.194,9.719,9.719,0,0,0-7.13-2.951,9.707,9.707,0,0,0-7.13,2.951,9.713,9.713,0,0,0-2.951,7.13v.395a8,8,0,0,0-5.512,2.44,7.99,7.99,0,0,0-2.441,5.813m9.323,9.323q.049-2.221,3.378-3.8l.186-.082a19.157,19.157,0,0,1,7.985-1.508,19.272,19.272,0,0,1,8,1.508h0l.154.077q3.334,1.58,3.384,3.8v21.592q-.06,2.193-3.384,3.784a15.853,15.853,0,0,1-3.949,1.239,23.073,23.073,0,0,1-4.223.368,23.331,23.331,0,0,1-4.185-.356,16.24,16.24,0,0,1-3.987-1.25q-3.384-1.6-3.378-3.839V964.137Zm23.105.137q-.038,2.024-2.808,3.5c-.181.1-.373.2-.576.3a15.86,15.86,0,0,1-3.949,1.25v7.13a15.864,15.864,0,0,0,3.949-1.245c.2-.093.395-.192.576-.291q2.742-1.481,2.808-3.5m-7.332,5.04v7.13a15.639,15.639,0,0,0,3.949-1.245q3.334-1.563,3.384-3.784m3.839,4.552a21.341,21.341,0,0,0,2.232-.28v-7.13a21.347,21.347,0,0,1-2.232.285m2.232-7.431v7.13a15.713,15.713,0,0,0,3.987-1.25c.2-.093.395-.192.576-.291q2.742-1.481,2.8-3.5v-7.13m-20.774,5.835a23.48,23.48,0,0,1-4.2.357h0a23.342,23.342,0,0,1-4.184-.357v7.13a22.834,22.834,0,0,0,4.184.357h0a22.973,22.973,0,0,0,4.2-.362m-8.407-7.13a15.987,15.987,0,0,1-3.987-1.25c-.2-.1-.389-.192-.576-.3-1.837-.982-2.775-2.15-2.8-3.5m0,14.3q.049,2.194,3.378,3.79a16.01,16.01,0,0,0,3.987,1.256v-7.13a15.782,15.782,0,0,1-3.987-1.25c-.2-.093-.389-.192-.576-.291-1.837-.987-2.775-2.155-2.8-3.5m15.773,19.332v-7.129a23.581,23.581,0,0,1-4.223.367,23.33,23.33,0,0,1-4.184-.356v7.13m21.827-7.914a15.942,15.942,0,0,0,3.987-1.256q3.384-1.59,3.378-3.839v-7.119m-40.381,12.5a21.547,21.547,0,0,1-2.232-.285,16.119,16.119,0,0,1-3.982-1.25q-3.384-1.6-3.384-3.839V963.408q.049-2.213,3.384-3.8l.181-.082a19.269,19.269,0,0,1,7.991-1.508h1.607m-3.565,10.815a21.514,21.514,0,0,1-2.232-.285v7.13a21.574,21.574,0,0,0,2.232.28m-2.232-7.431a15.672,15.672,0,0,1-3.982-1.25c-.2-.093-.395-.192-.576-.291q-2.742-1.481-2.808-3.5m7.365,19.343v-7.13a15.908,15.908,0,0,1-3.982-1.256c-.2-.093-.395-.192-.576-.291q-2.742-1.481-2.808-3.5" transform="translate(1321.73 4890.979)" fill="none" stroke="#138ed1" stroke-linecap="round" stroke-linejoin="round" stroke-width="2" fill-rule="evenodd"/>
    <g id="그룹_461" data-name="그룹 461" transform="translate(120.063 65)">
      <text id="Cloud_SQL" data-name="Cloud
SQL" transform="translate(955 5620)" fill="#fff" font-size="16" font-family="NotoSansCJKkr-Light, Noto Sans CJK KR" font-weight="300" letter-spacing="-0.025em"><tspan x="0" y="0">Cloud</tspan><tspan x="0" y="20">SQL</tspan></text>
      <path id="패스_996" data-name="패스 996" d="M-466.281,960.359a15.862,15.862,0,0,0,1.655-.211,11.815,11.815,0,0,0,2.956-.927q.228-.11.427-.22,2.033-1.09,2.077-2.594v-.1q-.037-1.646-2.5-2.817l-.138-.061a14.2,14.2,0,0,0-5.919-1.126h-.691l-.5.02m6.809-2.378a5.915,5.915,0,0,0-1.8-4.309,5.947,5.947,0,0,0-3.468-1.756,3.823,3.823,0,0,0,.134-1.049,3.586,3.586,0,0,0-1.085-2.642,3.6,3.6,0,0,0-2.647-1.089,3.545,3.545,0,0,0-2.305.785,7.7,7.7,0,0,0-1.252-1.626,7.2,7.2,0,0,0-5.285-2.187,7.2,7.2,0,0,0-5.285,2.187,7.2,7.2,0,0,0-2.187,5.285v.293a5.927,5.927,0,0,0-4.086,1.809,5.923,5.923,0,0,0-1.809,4.309m6.911,6.911q.037-1.646,2.5-2.817l.138-.061a14.2,14.2,0,0,1,5.919-1.118,14.286,14.286,0,0,1,5.931,1.118h0l.114.057q2.472,1.171,2.508,2.817v16.005q-.045,1.626-2.508,2.805a11.758,11.758,0,0,1-2.927.919,17.111,17.111,0,0,1-3.13.272,17.269,17.269,0,0,1-3.1-.264,12.034,12.034,0,0,1-2.956-.927q-2.508-1.183-2.5-2.846V956.875Zm17.127.1q-.029,1.5-2.081,2.594c-.134.077-.276.146-.427.22a11.76,11.76,0,0,1-2.927.927v5.285a11.764,11.764,0,0,0,2.927-.923c.15-.069.293-.142.427-.215q2.033-1.1,2.081-2.6m-5.435,3.736v5.285a11.591,11.591,0,0,0,2.927-.923q2.472-1.159,2.508-2.805m2.846,3.374a15.89,15.89,0,0,0,1.655-.207v-5.285a15.863,15.863,0,0,1-1.655.211m1.655-5.509v5.285a11.649,11.649,0,0,0,2.955-.927c.15-.069.293-.142.427-.216q2.033-1.1,2.077-2.6v-5.285m-15.4,4.326a17.411,17.411,0,0,1-3.114.264h0a17.3,17.3,0,0,1-3.1-.264V966a16.922,16.922,0,0,0,3.1.264h0A17.035,17.035,0,0,0-474.59,966m-6.232-5.285a11.85,11.85,0,0,1-2.956-.927c-.146-.073-.289-.142-.427-.219-1.362-.728-2.057-1.594-2.077-2.594m0,10.6q.037,1.626,2.5,2.809a11.861,11.861,0,0,0,2.956.931v-5.285a11.7,11.7,0,0,1-2.956-.927c-.146-.069-.289-.142-.427-.216-1.362-.732-2.057-1.6-2.077-2.6m11.692,14.33v-5.285a17.476,17.476,0,0,1-3.13.272,17.3,17.3,0,0,1-3.1-.264v5.285m16.18-5.866a11.808,11.808,0,0,0,2.955-.931q2.508-1.179,2.5-2.846V961.7m-29.933,9.265a15.947,15.947,0,0,1-1.655-.211,11.948,11.948,0,0,1-2.951-.927q-2.508-1.183-2.508-2.846V956.334q.037-1.64,2.508-2.817l.134-.061a14.285,14.285,0,0,1,5.923-1.118h1.191m-2.642,8.017a15.931,15.931,0,0,1-1.655-.211v5.285a16.007,16.007,0,0,0,1.655.207m-1.655-5.508a11.616,11.616,0,0,1-2.951-.927c-.15-.069-.293-.142-.427-.216q-2.033-1.1-2.081-2.6m5.46,14.339V965.44a11.785,11.785,0,0,1-2.951-.931c-.15-.069-.293-.142-.427-.215q-2.033-1.1-2.081-2.594" transform="translate(1404.167 4666.432)" fill="none" stroke="#138ed1" stroke-linecap="round" stroke-linejoin="round" stroke-width="2" fill-rule="evenodd"/>
    </g>
    <g id="그룹_463" data-name="그룹 463" transform="translate(140 52)">
      <g id="그룹_462" data-name="그룹 462">
        <text id="Cloud_Bigtable" data-name="Cloud
Bigtable" transform="translate(945 5799)" fill="#fff" font-size="16" font-family="NotoSansCJKkr-Light, Noto Sans CJK KR" font-weight="300" letter-spacing="-0.025em"><tspan x="0" y="0">Cloud</tspan><tspan x="0" y="20">Bigtable</tspan></text>
        <g id="그룹_445" data-name="그룹 445" transform="translate(902 5782)" clip-path="url(#clip-path-9)">
          <path id="패스_997" data-name="패스 997" d="M1,7.289v.057a4.149,4.149,0,0,0,2.1,3.273,10.862,10.862,0,0,0,1.278.752q.361.185.759.362.349.156.71.3a20.632,20.632,0,0,0,3.713,1.058,29.7,29.7,0,0,0,5.58.489,29.78,29.78,0,0,0,5.587-.489,20.607,20.607,0,0,0,3.712-1.058q.361-.142.71-.3.4-.177.76-.362a10.922,10.922,0,0,0,1.278-.752,4.27,4.27,0,0,0,2.094-3.053l.007-.4q-.1-2.526-4.139-4.324A24.666,24.666,0,0,0,15.141,1a24.638,24.638,0,0,0-10,1.838Q1.032,4.667,1,7.247Zm3.379,4.082v6.659q.361.185.759.362A20.094,20.094,0,0,0,9.561,19.74V13.089M1,17.987v6.552q.051,2.313,3.379,4.011V21.891A10.863,10.863,0,0,1,3.1,21.139,4.21,4.21,0,0,1,1,17.987ZM1,7.346v6.673q.051,2.313,3.379,4.011m24.9-10.463q.01-.137.007-.277V7.162m-8.561,5.927V19.74a20.069,20.069,0,0,0,4.422-1.349q.4-.177.76-.362V11.371M9.561,19.74a29.7,29.7,0,0,0,5.58.49,29.779,29.779,0,0,0,5.587-.49m2.584-5.14v1.924m3.876,4.614a10.922,10.922,0,0,1-1.278.753V28.55q3.182-1.622,3.372-3.8V18.087A4.271,4.271,0,0,1,27.188,21.139Zm2.094-3.152c0,.034,0,.066,0,.1m0-4.422v.561q.01-.137.007-.277c0-.1,0-.19-.007-.284v-6.1M25.91,18.029q3.182-1.622,3.372-3.8m0,21.04q-.19,2.184-3.372,3.805-.361.185-.76.362a20.073,20.073,0,0,1-4.422,1.356,29.815,29.815,0,0,1-5.587.49,29.739,29.739,0,0,1-5.58-.49,20.1,20.1,0,0,1-4.423-1.356q-.4-.177-.759-.362Q1.051,37.373,1,35.059V28.678a4.361,4.361,0,0,0,2.1,2.981,10.924,10.924,0,0,0,1.278.759q.361.185.759.362.349.151.71.291a20.631,20.631,0,0,0,3.713,1.057,29.7,29.7,0,0,0,5.58.49,29.778,29.778,0,0,0,5.587-.49,20.606,20.606,0,0,0,3.712-1.057q.361-.139.71-.291.4-.178.76-.362a10.924,10.924,0,0,0,1.278-.759,4.3,4.3,0,0,0,2.087-2.981l.007,6.034q.01.137.007.277c0,.093,0,.185-.007.276v-.554m0-10.52q.01.137.007.277t-.007.277M25.91,21.891q-.361.185-.76.362-.349.155-.71.3a20.607,20.607,0,0,1-3.712,1.058v6.659a20.1,20.1,0,0,0,4.422-1.356q.4-.177.76-.362m-2.6-3.421v1.917m-2.584-3.436a29.744,29.744,0,0,1-5.587.49,29.668,29.668,0,0,1-5.58-.49v6.659a29.668,29.668,0,0,0,5.58.49,29.743,29.743,0,0,0,5.587-.49m0,3.861v6.659m2.584-5.14v1.917m2.6-5.146V39.07M9.561,23.609a20.632,20.632,0,0,1-3.713-1.058q-.361-.142-.71-.3-.4-.177-.759-.362m5.182,8.376a20.1,20.1,0,0,1-4.423-1.356q-.4-.177-.759-.362m0,3.869V39.07m5.182-4.941v6.659" transform="translate(-0.574 -0.574)" fill="none" stroke="#138ed1" stroke-linecap="round" stroke-linejoin="round" stroke-width="2"/>
        </g>
      </g>
    </g>
    <g id="그룹_460" data-name="그룹 460" transform="translate(-56 34.848)">
      <text id="Desktop_Mobile" data-name="Desktop
&amp; Mobile" transform="translate(1632 5788.383)" fill="#fff" font-size="16" font-family="NotoSansCJKkr-Light, Noto Sans CJK KR" font-weight="300" letter-spacing="-0.025em"><tspan x="-28.44" y="0">Desktop</tspan><tspan x="-29.904" y="20">&amp; Mobile</tspan></text>
      <g id="그룹_448" data-name="그룹 448" transform="translate(1609 5706.922)">
        <g id="그룹_447" data-name="그룹 447" transform="translate(0 0)" clip-path="url(#clip-path-10)">
          <path id="패스_998" data-name="패스 998" d="M42.691,24.671a8.253,8.253,0,0,0,1.216-4.446,8.547,8.547,0,0,0-7.279-8.439,5.234,5.234,0,0,0,.187-1.45A5.125,5.125,0,0,0,31.66,5.182a4.911,4.911,0,0,0-3.181,1.085,10.666,10.666,0,0,0-1.731-2.245A9.953,9.953,0,0,0,19.45,1a9.932,9.932,0,0,0-7.288,3.022A9.928,9.928,0,0,0,9.14,11.31q0,.2,0,.4a8.183,8.183,0,0,0-5.642,2.5A8.184,8.184,0,0,0,1,20.226,8.228,8.228,0,0,0,3.5,26.26m6.53,21.463v3.789l32.391.01-.01-21.406A1.653,1.653,0,0,0,41.9,28.9a1.626,1.626,0,0,0-1.2-.524H27.787M7.643,18.131V41.858A1.473,1.473,0,0,0,8.1,42.943,1.5,1.5,0,0,0,9.2,43.4h12.79a1.5,1.5,0,0,0,1.095-.459,1.465,1.465,0,0,0,.449-1.085V18.131a1.533,1.533,0,0,0-1.544-1.544H9.2a1.548,1.548,0,0,0-1.553,1.544Zm11.9,3.283-7.925,7.307m17.674,4.042,8.7,6.268-4.425,1.189L30.35,43.448ZM42.42,51.522H46.7v.505a2.938,2.938,0,0,1-2.928,2.938H8.662A2.83,2.83,0,0,1,6.7,54.217L6.586,54.1a2.84,2.84,0,0,1-.861-2.077v-.515h4.3m9.515-13.1H11.628m26.806,9.168H13.93m5.614-21.6-7.925,7.307" transform="translate(-0.439 -0.438)" fill="none" stroke="#138ed1" stroke-linecap="round" stroke-linejoin="round" stroke-width="2"/>
        </g>
      </g>
    </g>
    <g id="그룹_450" data-name="그룹 450" transform="translate(1032.999 5913.938)">
      <g id="그룹_449" data-name="그룹 449" transform="translate(0 0)" clip-path="url(#clip-path-11)">
        <path id="패스_999" data-name="패스 999" d="M1,15.182H5.722V13.567a7.82,7.82,0,0,1,7.844-7.844h1.615V1m0,4.722h4.566V1M1,19.748H5.722V15.182M19.856,29.051h2.157v1.741a2.534,2.534,0,0,1-4.329,1.788,2.435,2.435,0,0,1-.745-1.788v-.024a4.485,4.485,0,0,1-1.208.157,4.325,4.325,0,0,1-4.337-4.337A4.427,4.427,0,0,1,11.55,25.4a3.53,3.53,0,0,1-.824-.619,3.475,3.475,0,0,1,0-4.919,3.461,3.461,0,0,1,.965-.69,4.416,4.416,0,0,1-.3-1.632A4.339,4.339,0,0,1,15.731,13.2h.047A3.157,3.157,0,0,1,21.1,11.637a3.037,3.037,0,0,1,.925,2.188,3.16,3.16,0,0,1,6.244-.628h.047a4.339,4.339,0,0,1,4.337,4.338,4.416,4.416,0,0,1-.3,1.632,3.468,3.468,0,0,1,.965.69,3.475,3.475,0,0,1,0,4.919,3.53,3.53,0,0,1-.824.619,4.427,4.427,0,0,1,.157,1.193,4.325,4.325,0,0,1-4.337,4.337,4.485,4.485,0,0,1-1.208-.157v.024a2.537,2.537,0,0,1-5.075,0V29.051l-.008-13.594a4.222,4.222,0,0,1-1.278,2.973A4.15,4.15,0,0,1,18.1,19.677m-3.774-.369A4.2,4.2,0,0,1,15.6,16.28a4.149,4.149,0,0,1,2.643-1.247M28.877,1V5.723h1.616a7.543,7.543,0,0,1,5.538,2.291,7.569,7.569,0,0,1,2.306,5.553v1.616h4.722M24.312,1V5.723h4.565m-6.855,8.1v1.631A4.222,4.222,0,0,0,23.3,18.43a4.15,4.15,0,0,0,2.644,1.247m3.774-.369a4.2,4.2,0,0,0-1.272-3.028A4.149,4.149,0,0,0,25.8,15.033m12.534.149v4.565h4.722M24.312,5.723H19.747m23.312,18.59H38.337v4.565h4.722m-4.722,0v1.616a7.874,7.874,0,0,1-7.844,7.844H28.877V43.06M32.493,25.4a4.365,4.365,0,0,0-3.977-3.138m-3.208,1.02a4.2,4.2,0,0,0,1.271,3.028,4.146,4.146,0,0,0,2.643,1.247m-5.035,1.5H22.03m6.847,9.287H24.312V43.06M18.735,23.277a4.2,4.2,0,0,1-1.271,3.028,4.146,4.146,0,0,1-2.643,1.247m.706-5.295A4.365,4.365,0,0,0,11.55,25.4m8.2,17.665V38.337H15.181V43.06m0-4.722H13.566a7.571,7.571,0,0,1-5.554-2.306,7.544,7.544,0,0,1-2.29-5.538V28.878H1m4.722,0V24.313H1M24.312,38.337H19.747M5.722,24.313V19.748m32.615,0v4.565" transform="translate(-0.529 -0.53)" fill="none" stroke="#138ed1" stroke-linecap="round" stroke-linejoin="round" stroke-width="2"/>
      </g>
    </g>
    <g id="그룹_452" data-name="그룹 452" transform="translate(1301.696 5915.938)">
      <g id="그룹_451" data-name="그룹 451" transform="translate(-3 -2)" clip-path="url(#clip-path-12)">
        <path id="패스_1000" data-name="패스 1000" d="M31.228,1a3.526,3.526,0,0,0-2.587,1.074,3.507,3.507,0,0,0-1.068,2.581,3.522,3.522,0,0,0,1.068,2.587,3.8,3.8,0,0,0,.728.575l.019.012.012-.019-.006.019h-.006a3.677,3.677,0,0,0,4.427-.587A3.531,3.531,0,0,0,34.89,4.656a3.516,3.516,0,0,0-1.075-2.581A3.528,3.528,0,0,0,31.228,1Zm0,4.649v-1h-1m1-1v1h1m-6.335,9.236-.019-.012a7.708,7.708,0,0,0-3.951-1.031v5.927a7.677,7.677,0,0,0,3.988-1.049,8.26,8.26,0,0,0,1.63-1.278q.126-.123.247-.247.175-.189.34-.383-.164-.2-.34-.389-.121-.129-.247-.253A8.235,8.235,0,0,0,25.894,13.886Zm-3.97,4.884v4.05a7.677,7.677,0,0,1,3.988,1.049,8.26,8.26,0,0,1,1.63,1.278q.126.123.247.247.177.192.34.389A7.607,7.607,0,0,0,29.87,20.8v-.037a7.619,7.619,0,0,0-1.741-4.952m1.741,4.952h3.007v-.006a5.192,5.192,0,0,1,.136-1.21,4.967,4.967,0,0,1,9.619,0,5.212,5.212,0,0,1,.13,1.21,4.951,4.951,0,0,1-8.447,3.494,4.756,4.756,0,0,1-1.438-3.488m4.951-1.507v1.5h1.5m-1.5,1.5v-1.5h-1.5M29.37,7.817l-3.494,6.056M21.924,22.82v5.927A7.7,7.7,0,0,0,25.906,27.7l.006-.006a8.26,8.26,0,0,0,1.63-1.278c.084-.082.166-.164.247-.247q.177-.191.34-.389M25.906,27.7l1.673,2.9.013-.006A4.361,4.361,0,0,1,29.845,30,4.532,4.532,0,0,1,34.2,33.383a4.738,4.738,0,0,1,.117,1.1,4.3,4.3,0,0,1-1.309,3.167,4.652,4.652,0,0,1-.92.729,4.492,4.492,0,0,1-6.723-3.9,4.7,4.7,0,0,1,.123-1.1,4.32,4.32,0,0,1,1.185-2.068,4.736,4.736,0,0,1,.907-.716m2.254,5.131V34.476H28.58m1.253-1.247v1.247H31.08m-16.472-1.1.018.012a3.744,3.744,0,0,1,.759.593,3.523,3.523,0,0,1,.969,1.686,3.871,3.871,0,0,1,.105.9A3.668,3.668,0,0,1,12.8,40.211a3.657,3.657,0,0,1-3.649-3.649,3.852,3.852,0,0,1,.1-.9,3.681,3.681,0,0,1,3.55-2.754,3.517,3.517,0,0,1,1.8.463l3.291-5.7a8.106,8.106,0,0,1-1.606-1.259c-.084-.082-.167-.164-.247-.247q-.177-.191-.34-.389a7.665,7.665,0,0,1-1.741-5.019h-4v.006A4.318,4.318,0,0,1,8.65,23.937a4.317,4.317,0,0,1-3.167,1.315,4.316,4.316,0,0,1-3.167-1.315,4.472,4.472,0,0,1,0-6.335,4.317,4.317,0,0,1,3.167-1.315A4.319,4.319,0,0,1,8.65,17.6a4.319,4.319,0,0,1,1.315,3.161m4,0a7.59,7.59,0,0,1,1.747-4.952q.158-.2.334-.389.12-.129.247-.253a8.256,8.256,0,0,1,1.642-1.284L16.244,10.96a4.5,4.5,0,0,1-5.408-.722A4.319,4.319,0,0,1,9.526,7.07a4.736,4.736,0,0,1,.13-1.1A4.311,4.311,0,0,1,10.835,3.9a4.646,4.646,0,0,1,.92-.716,4.5,4.5,0,0,1,5.421.716,4.31,4.31,0,0,1,1.186,2.068,4.737,4.737,0,0,1,.123,1.1,4.3,4.3,0,0,1-1.309,3.167,4.655,4.655,0,0,1-.926.722h-.006M14,8.317V7.064H12.749M14,5.816V7.064H15.25M5.47,19.51v1.247H6.717m9-4.945q.158.193.334.383.12.124.247.247a8.172,8.172,0,0,0,1.624,1.272,7.71,7.71,0,0,0,4.007,1.055m-3.989-4.884a7.733,7.733,0,0,1,3.989-1.044M5.47,22.011V20.758H4.217m11.49,5.025q.163-.2.34-.389.12-.124.247-.247a8.173,8.173,0,0,1,1.624-1.272,7.7,7.7,0,0,1,4.007-1.055M17.9,27.678l.018.013a7.707,7.707,0,0,0,4.007,1.056m-9.12,8.81v-1h-1m1-1v1h1" transform="translate(2.733 1.612)" fill="none" stroke="#138ed1" stroke-linecap="round" stroke-linejoin="round" stroke-width="1.5"/>
      </g>
    </g>
    <g id="그룹_465" data-name="그룹 465" transform="translate(1029 5440.625)">
      <g id="마스크_그룹_464" data-name="마스크 그룹 464" transform="translate(0 0)" clip-path="url(#clip-path-13)">
        <path id="패스_1001" data-name="패스 1001" d="M28.381,26.1h3.714a7.7,7.7,0,0,0,7.7-7.714,7.729,7.729,0,0,0-6.581-7.631,4.771,4.771,0,0,0,.169-1.311,4.635,4.635,0,0,0-4.661-4.66,4.444,4.444,0,0,0-2.876.981,9.656,9.656,0,0,0-1.565-2.031A9,9,0,0,0,17.681,1a8.982,8.982,0,0,0-6.589,2.731,8.981,8.981,0,0,0-2.733,6.59q0,.183,0,.363a7.392,7.392,0,0,0-5.1,2.259A7.4,7.4,0,0,0,1,18.383a7.442,7.442,0,0,0,2.258,5.455A7.424,7.424,0,0,0,8.512,26.1h.245l.185-.01H12.31m8.1-11.012v1.581h1.582m-1.582,1.591V16.657h-1.59m-6.479,1.591V16.657h-1.59m1.59-1.581v1.581h1.582m2.19,9.457A4.273,4.273,0,0,0,20.4,30.4a4.289,4.289,0,0,0,3.038-7.325,4.287,4.287,0,0,0-6.074,0A4.129,4.129,0,0,0,16.116,26.114ZM28.482,15.076v1.581h1.582m-1.582,1.591V16.657h-1.59m3.045,19a13.966,13.966,0,0,1-2.842,2.19v.009a12.622,12.622,0,0,1-4.23,1.523,14.818,14.818,0,0,1-2.436.2h-.017a13.105,13.105,0,0,1-6.894-1.861,14.25,14.25,0,0,1-2.656-2.1M4.637,41.847a22.4,22.4,0,0,0,6.378,4.526A21.911,21.911,0,0,0,20.4,48.36h.009a22.824,22.824,0,0,0,6.606-.931,21.66,21.66,0,0,0,9.16-5.582" transform="translate(-0.492 -0.492)" fill="none" stroke="#138ed1" stroke-linecap="round" stroke-linejoin="round" stroke-width="2"/>
      </g>
    </g>
    <g id="그룹_468" data-name="그룹 468" transform="translate(1549 5439.953)">
      <g id="그룹_467" data-name="그룹 467" transform="translate(0 0)" clip-path="url(#clip-path-14)">
        <path id="패스_1004" data-name="패스 1004" d="M48.989,31.072c.092-.078.183-.158.272-.24.134-.12.266-.244.393-.373a9.585,9.585,0,0,0,2.9-7.038,9.964,9.964,0,0,0-8.489-9.841,6.086,6.086,0,0,0,.218-1.691,5.981,5.981,0,0,0-6.012-6.013,5.736,5.736,0,0,0-3.709,1.267,12.368,12.368,0,0,0-2.019-2.619A11.6,11.6,0,0,0,24.034,1a11.575,11.575,0,0,0-8.5,3.525,11.575,11.575,0,0,0-3.524,8.5c0,.158,0,.313,0,.469a9.543,9.543,0,0,0-6.58,2.913,9.552,9.552,0,0,0-2.913,7.016A9.6,9.6,0,0,0,5.43,30.46q.191.192.392.373c.091.081.181.162.273.24" transform="translate(-0.869 -0.345)" fill="none" stroke="#138ed1" stroke-linecap="round" stroke-linejoin="round" stroke-width="2"/>
        <path id="패스_1005" data-name="패스 1005" d="M42.4,45.261,50.489,54.9a18.212,18.212,0,0,0,.687-5.041,17.288,17.288,0,0,0-5.249-12.69,17.282,17.282,0,0,0-12.69-5.249,17.261,17.261,0,0,0-12.679,5.249A19.536,19.536,0,0,0,18.933,39" transform="translate(-6.538 -11.021)" fill="none" stroke="#138ed1" stroke-linecap="round" stroke-linejoin="round" stroke-width="2"/>
        <path id="패스_1006" data-name="패스 1006" d="M22.206,61.166,14.12,51.531l-.055.055a18.513,18.513,0,0,0-.665,5.042,17.271,17.271,0,0,0,5.248,12.679,17.275,17.275,0,0,0,12.679,5.248,17.3,17.3,0,0,0,12.69-5.248c.176-.177.347-.354.513-.535q.611-.654,1.135-1.341" transform="translate(-4.627 -17.794)" fill="none" stroke="#138ed1" stroke-linecap="round" stroke-linejoin="round" stroke-width="2"/>
        <path id="패스_1007" data-name="패스 1007" d="M40.733,42.831V54.419h7.486" transform="translate(-14.066 -14.79)" fill="none" stroke="#138ed1" stroke-linecap="round" stroke-linejoin="round" stroke-width="2"/>
        <line id="선_70" data-name="선 70" x1="8.794" y2="8.784" transform="translate(43.951 35.091)" fill="none" stroke="#138ed1" stroke-linecap="round" stroke-linejoin="round" stroke-width="2"/>
        <line id="선_71" data-name="선 71" y1="8.783" x2="8.783" transform="translate(0.655 33.792)" fill="none" stroke="#138ed1" stroke-linecap="round" stroke-linejoin="round" stroke-width="2"/>
      </g>
    </g>
    <path id="패스_1008" data-name="패스 1008" d="M0,0,1152.775.178" transform="translate(318.5 6037)" fill="none" stroke="#997d22" stroke-width="27"/>
    <path id="패스_1009" data-name="패스 1009" d="M0,0,1152.775.178" transform="translate(318.5 5335.736)" fill="none" stroke="#1b5346" stroke-width="27"/>
    <path id="다각형_7" data-name="다각형 7" d="M23.632,0,47.264,19H0Z" transform="translate(1486.5 6013.5) rotate(90)" fill="#997d22"/>
    <path id="다각형_8" data-name="다각형 8" d="M23.632,0,47.264,19H0Z" transform="translate(1486.5 5312.236) rotate(90)" fill="#1b5346"/>
    <rect id="사각형_140" data-name="사각형 140" width="65" height="20" rx="10" transform="translate(1325 5719)" fill="#21527b"/>
    <text id="Batch_Pipe_Line" data-name="Batch Pipe Line" transform="translate(895 6043.5)" fill="#e3ba33" font-size="20" font-family="Roboto-MediumItalic, Roboto" font-weight="500" font-style="italic" letter-spacing="-0.015em"><tspan x="-66.191" y="0">Batch Pipe Line</tspan></text>
    <text id="Speed_Pipe_Line" data-name="Speed Pipe Line" transform="translate(895 5342)" fill="#2e7f6d" font-size="20" font-family="Roboto-MediumItalic, Roboto" font-weight="500" font-style="italic" letter-spacing="-0.015em"><tspan x="-68.33" y="0">Speed Pipe Line</tspan></text>
    <text id="REST_API" data-name="REST API" transform="translate(1357.681 5734.453)" fill="#fff" font-size="14" font-family="NotoSansCJKkr-Light, Noto Sans CJK KR" font-weight="300" letter-spacing="-0.025em"><tspan x="-26.887" y="0">REST API</tspan></text>
  </g>
</svg>
