<svg xmlns="http://www.w3.org/2000/svg" width="1397.949" height="188.246" viewBox="0 0 1397.949 188.246">
  <g id="그룹_353" data-name="그룹 353" transform="translate(0 1.501)">
    <g id="그룹_284" data-name="그룹 284" transform="translate(0 24.18)">
      <ellipse id="타원_61" data-name="타원 61" cx="46.523" cy="46.523" rx="46.523" ry="46.523" fill="#f15a29" opacity="0.2"/>
      <ellipse id="타원_62" data-name="타원 62" cx="28.347" cy="28.347" rx="28.347" ry="28.347" transform="translate(18.176 18.176)" fill="#f15a29" opacity="0.3"/>
      <ellipse id="타원_63" data-name="타원 63" cx="11.917" cy="11.917" rx="11.917" ry="11.917" transform="translate(34.606 34.607)" fill="#f15a29"/>
    </g>
    <g id="그룹_285" data-name="그룹 285" transform="translate(86.993 24.18)">
      <ellipse id="타원_64" data-name="타원 64" cx="46.523" cy="46.523" rx="46.523" ry="46.523" fill="#f15a29" opacity="0.2"/>
      <ellipse id="타원_65" data-name="타원 65" cx="28.347" cy="28.347" rx="28.347" ry="28.347" transform="translate(18.176 18.176)" fill="#f15a29" opacity="0.3"/>
      <ellipse id="타원_66" data-name="타원 66" cx="11.917" cy="11.917" rx="11.917" ry="11.917" transform="translate(34.606 34.607)" fill="#f15a29"/>
    </g>
    <g id="그룹_286" data-name="그룹 286" transform="translate(173.987 24.18)">
      <ellipse id="타원_67" data-name="타원 67" cx="46.523" cy="46.523" rx="46.523" ry="46.523" fill="#f15a29" opacity="0.2"/>
      <ellipse id="타원_68" data-name="타원 68" cx="28.347" cy="28.347" rx="28.347" ry="28.347" transform="translate(18.176 18.176)" fill="#f15a29" opacity="0.3"/>
      <ellipse id="타원_69" data-name="타원 69" cx="11.917" cy="11.917" rx="11.917" ry="11.917" transform="translate(34.606 34.607)" fill="#f15a29"/>
    </g>
    <g id="그룹_287" data-name="그룹 287" transform="translate(260.981 24.18)">
      <ellipse id="타원_70" data-name="타원 70" cx="46.523" cy="46.523" rx="46.523" ry="46.523" fill="#f15a29" opacity="0.2"/>
      <ellipse id="타원_71" data-name="타원 71" cx="28.347" cy="28.347" rx="28.347" ry="28.347" transform="translate(18.176 18.176)" fill="#f15a29" opacity="0.3"/>
      <ellipse id="타원_72" data-name="타원 72" cx="11.917" cy="11.917" rx="11.917" ry="11.917" transform="translate(34.606 34.607)" fill="#f15a29"/>
    </g>
    <g id="그룹_288" data-name="그룹 288" transform="translate(347.974 24.18)">
      <ellipse id="타원_73" data-name="타원 73" cx="46.523" cy="46.523" rx="46.523" ry="46.523" fill="#f15a29" opacity="0.2"/>
      <ellipse id="타원_74" data-name="타원 74" cx="28.347" cy="28.347" rx="28.347" ry="28.347" transform="translate(18.176 18.176)" fill="#f15a29" opacity="0.3"/>
      <ellipse id="타원_75" data-name="타원 75" cx="11.917" cy="11.917" rx="11.917" ry="11.917" transform="translate(34.606 34.607)" fill="#f15a29"/>
    </g>
    <g id="그룹_289" data-name="그룹 289" transform="translate(434.968 24.18)">
      <ellipse id="타원_76" data-name="타원 76" cx="46.523" cy="46.523" rx="46.523" ry="46.523" fill="#f15a29" opacity="0.2"/>
      <ellipse id="타원_77" data-name="타원 77" cx="28.347" cy="28.347" rx="28.347" ry="28.347" transform="translate(18.176 18.176)" fill="#f15a29" opacity="0.3"/>
      <ellipse id="타원_78" data-name="타원 78" cx="11.917" cy="11.917" rx="11.917" ry="11.917" transform="translate(34.606 34.607)" fill="#f15a29"/>
    </g>
    <g id="그룹_290" data-name="그룹 290" transform="translate(521.961 24.18)">
      <ellipse id="타원_79" data-name="타원 79" cx="46.523" cy="46.523" rx="46.523" ry="46.523" fill="#f15a29" opacity="0.2"/>
      <ellipse id="타원_80" data-name="타원 80" cx="28.347" cy="28.347" rx="28.347" ry="28.347" transform="translate(18.176 18.176)" fill="#f15a29" opacity="0.3"/>
      <ellipse id="타원_81" data-name="타원 81" cx="11.917" cy="11.917" rx="11.917" ry="11.917" transform="translate(34.606 34.607)" fill="#f15a29"/>
    </g>
    <g id="그룹_291" data-name="그룹 291" transform="translate(608.955 24.18)">
      <ellipse id="타원_82" data-name="타원 82" cx="46.523" cy="46.523" rx="46.523" ry="46.523" fill="#f15a29" opacity="0.2"/>
      <ellipse id="타원_83" data-name="타원 83" cx="28.347" cy="28.347" rx="28.347" ry="28.347" transform="translate(18.176 18.176)" fill="#f15a29" opacity="0.3"/>
      <ellipse id="타원_84" data-name="타원 84" cx="11.917" cy="11.917" rx="11.917" ry="11.917" transform="translate(34.607 34.607)" fill="#f15a29"/>
    </g>
    <g id="그룹_292" data-name="그룹 292" transform="translate(695.948 24.18)">
      <ellipse id="타원_85" data-name="타원 85" cx="46.523" cy="46.523" rx="46.523" ry="46.523" fill="#f15a29" opacity="0.2"/>
      <ellipse id="타원_86" data-name="타원 86" cx="28.347" cy="28.347" rx="28.347" ry="28.347" transform="translate(18.176 18.176)" fill="#f15a29" opacity="0.3"/>
      <ellipse id="타원_87" data-name="타원 87" cx="11.917" cy="11.917" rx="11.917" ry="11.917" transform="translate(34.606 34.607)" fill="#f15a29"/>
    </g>
    <g id="그룹_293" data-name="그룹 293" transform="translate(782.942 24.18)">
      <ellipse id="타원_88" data-name="타원 88" cx="46.523" cy="46.523" rx="46.523" ry="46.523" fill="#f15a29" opacity="0.2"/>
      <ellipse id="타원_89" data-name="타원 89" cx="28.347" cy="28.347" rx="28.347" ry="28.347" transform="translate(18.176 18.176)" fill="#f15a29" opacity="0.3"/>
      <ellipse id="타원_90" data-name="타원 90" cx="11.917" cy="11.917" rx="11.917" ry="11.917" transform="translate(34.607 34.607)" fill="#f15a29"/>
    </g>
    <g id="그룹_294" data-name="그룹 294" transform="translate(869.935 24.18)">
      <ellipse id="타원_91" data-name="타원 91" cx="46.523" cy="46.523" rx="46.523" ry="46.523" fill="#f15a29" opacity="0.2"/>
      <ellipse id="타원_92" data-name="타원 92" cx="28.347" cy="28.347" rx="28.347" ry="28.347" transform="translate(18.176 18.176)" fill="#f15a29" opacity="0.3"/>
      <ellipse id="타원_93" data-name="타원 93" cx="11.917" cy="11.917" rx="11.917" ry="11.917" transform="translate(34.607 34.607)" fill="#f15a29"/>
    </g>
    <g id="그룹_295" data-name="그룹 295" transform="translate(956.929 24.18)">
      <ellipse id="타원_94" data-name="타원 94" cx="46.523" cy="46.523" rx="46.523" ry="46.523" fill="#f15a29" opacity="0.2"/>
      <ellipse id="타원_95" data-name="타원 95" cx="28.347" cy="28.347" rx="28.347" ry="28.347" transform="translate(18.176 18.176)" fill="#f15a29" opacity="0.3"/>
      <ellipse id="타원_96" data-name="타원 96" cx="11.917" cy="11.917" rx="11.917" ry="11.917" transform="translate(34.606 34.607)" fill="#f15a29"/>
    </g>
    <g id="그룹_296" data-name="그룹 296" transform="translate(1043.923 24.18)">
      <ellipse id="타원_97" data-name="타원 97" cx="46.523" cy="46.523" rx="46.523" ry="46.523" fill="#f15a29" opacity="0.2"/>
      <ellipse id="타원_98" data-name="타원 98" cx="28.347" cy="28.347" rx="28.347" ry="28.347" transform="translate(18.176 18.176)" fill="#f15a29" opacity="0.3"/>
      <ellipse id="타원_99" data-name="타원 99" cx="11.917" cy="11.917" rx="11.917" ry="11.917" transform="translate(34.606 34.607)" fill="#f15a29"/>
    </g>
    <g id="그룹_297" data-name="그룹 297" transform="translate(1130.916 24.18)">
      <ellipse id="타원_100" data-name="타원 100" cx="46.523" cy="46.523" rx="46.523" ry="46.523" fill="#f15a29" opacity="0.2"/>
      <ellipse id="타원_101" data-name="타원 101" cx="28.347" cy="28.347" rx="28.347" ry="28.347" transform="translate(18.176 18.176)" fill="#f15a29" opacity="0.3"/>
      <ellipse id="타원_102" data-name="타원 102" cx="11.917" cy="11.917" rx="11.917" ry="11.917" transform="translate(34.607 34.607)" fill="#f15a29"/>
    </g>
    <g id="그룹_298" data-name="그룹 298" transform="translate(1217.91 24.18)">
      <ellipse id="타원_103" data-name="타원 103" cx="46.523" cy="46.523" rx="46.523" ry="46.523" fill="#f15a29" opacity="0.2"/>
      <ellipse id="타원_104" data-name="타원 104" cx="28.347" cy="28.347" rx="28.347" ry="28.347" transform="translate(18.176 18.176)" fill="#f15a29" opacity="0.3"/>
      <ellipse id="타원_105" data-name="타원 105" cx="11.917" cy="11.917" rx="11.917" ry="11.917" transform="translate(34.607 34.607)" fill="#f15a29"/>
    </g>
    <g id="그룹_299" data-name="그룹 299" transform="translate(1304.903 24.18)">
      <ellipse id="타원_106" data-name="타원 106" cx="46.523" cy="46.523" rx="46.523" ry="46.523" fill="#f15a29" opacity="0.2"/>
      <ellipse id="타원_107" data-name="타원 107" cx="28.347" cy="28.347" rx="28.347" ry="28.347" transform="translate(18.176 18.176)" fill="#f15a29" opacity="0.3"/>
      <ellipse id="타원_108" data-name="타원 108" cx="11.917" cy="11.917" rx="11.917" ry="11.917" transform="translate(34.607 34.607)" fill="#f15a29"/>
    </g>
    <g id="그룹_352" data-name="그룹 352" transform="translate(10.247 -0.001)" opacity="0.5">
      <path id="패스_569" data-name="패스 569" d="M235.319,909.607V797.73a59.405,59.405,0,0,1,59.4-59.406" transform="translate(-121.44 -738.324)" fill="none" stroke="#06283d" stroke-linecap="round" stroke-miterlimit="10" stroke-width="3"/>
      <path id="패스_570" data-name="패스 570" d="M413.6,909.607V797.73a59.405,59.405,0,0,1,59.4-59.406" transform="translate(-156.738 -738.324)" fill="none" stroke="#06283d" stroke-linecap="round" stroke-miterlimit="10" stroke-width="3"/>
      <path id="패스_571" data-name="패스 571" d="M591.883,909.607V797.73a59.405,59.405,0,0,1,59.4-59.406" transform="translate(-192.037 -738.324)" fill="none" stroke="#06283d" stroke-linecap="round" stroke-miterlimit="10" stroke-width="3"/>
      <path id="패스_572" data-name="패스 572" d="M770.165,909.607V797.73a59.405,59.405,0,0,1,59.4-59.406" transform="translate(-227.336 -738.324)" fill="none" stroke="#06283d" stroke-linecap="round" stroke-miterlimit="10" stroke-width="3"/>
      <path id="패스_573" data-name="패스 573" d="M948.447,909.607V797.73a59.405,59.405,0,0,1,59.4-59.406" transform="translate(-262.634 -738.324)" fill="none" stroke="#06283d" stroke-linecap="round" stroke-miterlimit="10" stroke-width="3"/>
      <path id="패스_574" data-name="패스 574" d="M1126.729,909.607V797.73a59.405,59.405,0,0,1,59.4-59.406" transform="translate(-297.933 -738.324)" fill="none" stroke="#06283d" stroke-linecap="round" stroke-miterlimit="10" stroke-width="3"/>
      <path id="패스_575" data-name="패스 575" d="M1305.011,909.607V797.73a59.405,59.405,0,0,1,59.4-59.406" transform="translate(-333.232 -738.324)" fill="none" stroke="#06283d" stroke-linecap="round" stroke-miterlimit="10" stroke-width="3"/>
      <path id="패스_576" data-name="패스 576" d="M1483.293,909.607V797.73a59.405,59.405,0,0,1,59.4-59.406" transform="translate(-368.53 -738.324)" fill="none" stroke="#06283d" stroke-linecap="round" stroke-miterlimit="10" stroke-width="3"/>
      <path id="패스_577" data-name="패스 577" d="M1661.575,909.607V797.73a59.405,59.405,0,0,1,59.4-59.406" transform="translate(-403.829 -738.324)" fill="none" stroke="#06283d" stroke-linecap="round" stroke-miterlimit="10" stroke-width="3"/>
      <path id="사각형_81" data-name="사각형 81" d="M74.071,0H1290.428A74.071,74.071,0,0,1,1364.5,74.071v97.212a0,0,0,0,1,0,0H0a0,0,0,0,1,0,0V74.071A74.071,74.071,0,0,1,74.071,0Z" transform="translate(12.829 0)" fill="none" stroke="#06283d" stroke-linecap="round" stroke-miterlimit="10" stroke-width="3"/>
      <g id="그룹_325" data-name="그룹 325" transform="translate(0 111.456)">
        <g id="그룹_300" data-name="그룹 300" transform="translate(5.372 9.113)">
          <path id="패스_578" data-name="패스 578" d="M117.649,908.01s2.333-4.671-3.4-12.952a13.848,13.848,0,0,0-14.225-6.157s2.972,7.856,8.068,11.677S116.59,904.826,117.649,908.01Z" transform="translate(-100.024 -888.658)" fill="#8dc63f"/>
          <path id="패스_579" data-name="패스 579" d="M122.4,908.753s-1.971-3.945,2.872-10.939a11.7,11.7,0,0,1,12.016-5.2s-2.511,6.636-6.815,9.864S123.291,906.063,122.4,908.753Z" transform="translate(-104.375 -889.4)" fill="#72a433"/>
        </g>
        <g id="그룹_301" data-name="그룹 301" transform="translate(38.978)">
          <path id="패스_580" data-name="패스 580" d="M148.507,907.066a13.205,13.205,0,0,0,2.58-11.915,16.174,16.174,0,0,1,4.668-16.092s-4.545,7.985-3.071,14,2.211,10.073.369,14Z" transform="translate(-143.229 -877.644)" fill="#8dc63f"/>
          <path id="패스_581" data-name="패스 581" d="M153.1,901.868s1.843-6.511,8.6-5.527C161.7,896.341,161.333,904.449,153.1,901.868Z" transform="translate(-144.139 -881.046)" fill="#72a433"/>
          <path id="패스_582" data-name="패스 582" d="M153.071,886.907s2.145-4.523,6.952-2.976C160.023,883.93,158.758,889.8,153.071,886.907Z" transform="translate(-144.133 -878.545)" fill="#72a433"/>
          <path id="패스_583" data-name="패스 583" d="M150.521,896.587s-3.06-5.973-8.6-4.37C141.926,892.217,143.82,899.938,150.521,896.587Z" transform="translate(-141.926 -880.195)" fill="#72a433"/>
          <path id="패스_584" data-name="패스 584" d="M154,882.026s-.739-4.6-4.737-4.731C149.26,877.295,148.854,882.8,154,882.026Z" transform="translate(-143.377 -877.295)" fill="#72a433"/>
        </g>
        <g id="그룹_302" data-name="그룹 302" transform="translate(55.044 9.113)">
          <path id="패스_585" data-name="패스 585" d="M179.584,908.01s2.333-4.671-3.4-12.952a13.848,13.848,0,0,0-14.225-6.157s2.973,7.856,8.068,11.677S178.525,904.826,179.584,908.01Z" transform="translate(-161.959 -888.658)" fill="#8dc63f"/>
          <path id="패스_586" data-name="패스 586" d="M184.332,908.753s-1.971-3.945,2.872-10.939a11.7,11.7,0,0,1,12.016-5.2s-2.511,6.636-6.815,9.864S185.226,906.063,184.332,908.753Z" transform="translate(-166.31 -889.4)" fill="#72a433"/>
        </g>
        <g id="그룹_303" data-name="그룹 303" transform="translate(88.65)">
          <path id="패스_587" data-name="패스 587" d="M210.442,907.066a13.2,13.2,0,0,0,2.58-11.915,16.174,16.174,0,0,1,4.668-16.092s-4.545,7.985-3.071,14,2.211,10.073.369,14Z" transform="translate(-205.164 -877.644)" fill="#8dc63f"/>
          <path id="패스_588" data-name="패스 588" d="M215.037,901.868s1.843-6.511,8.6-5.527C223.636,896.341,223.268,904.449,215.037,901.868Z" transform="translate(-206.074 -881.046)" fill="#72a433"/>
          <path id="패스_589" data-name="패스 589" d="M215.007,886.907s2.144-4.523,6.952-2.976C221.959,883.93,220.693,889.8,215.007,886.907Z" transform="translate(-206.068 -878.545)" fill="#72a433"/>
          <path id="패스_590" data-name="패스 590" d="M212.456,896.587s-3.059-5.973-8.6-4.37C203.861,892.217,205.755,899.938,212.456,896.587Z" transform="translate(-203.861 -880.195)" fill="#72a433"/>
          <path id="패스_591" data-name="패스 591" d="M215.933,882.026s-.739-4.6-4.737-4.731C211.2,877.295,210.789,882.8,215.933,882.026Z" transform="translate(-205.312 -877.295)" fill="#72a433"/>
        </g>
        <g id="그룹_304" data-name="그룹 304" transform="translate(104.717 9.113)">
          <path id="패스_592" data-name="패스 592" d="M241.52,908.01s2.332-4.671-3.4-12.952a13.849,13.849,0,0,0-14.226-6.157s2.973,7.856,8.068,11.677S240.46,904.826,241.52,908.01Z" transform="translate(-223.894 -888.658)" fill="#8dc63f"/>
          <path id="패스_593" data-name="패스 593" d="M246.267,908.753s-1.971-3.945,2.872-10.939a11.7,11.7,0,0,1,12.016-5.2s-2.51,6.636-6.815,9.864S247.162,906.063,246.267,908.753Z" transform="translate(-228.245 -889.4)" fill="#72a433"/>
        </g>
        <g id="그룹_305" data-name="그룹 305" transform="translate(154.39 9.113)">
          <path id="패스_594" data-name="패스 594" d="M303.455,908.01s2.333-4.671-3.4-12.952A13.848,13.848,0,0,0,285.83,888.9s2.972,7.856,8.067,11.677S302.4,904.826,303.455,908.01Z" transform="translate(-285.83 -888.658)" fill="#8dc63f"/>
          <path id="패스_595" data-name="패스 595" d="M308.2,908.753s-1.97-3.945,2.871-10.939a11.7,11.7,0,0,1,12.016-5.2s-2.51,6.636-6.815,9.864S309.1,906.063,308.2,908.753Z" transform="translate(-290.181 -889.4)" fill="#72a433"/>
        </g>
        <g id="그룹_306" data-name="그룹 306" transform="translate(187.995)">
          <path id="패스_596" data-name="패스 596" d="M334.313,907.066a13.2,13.2,0,0,0,2.579-11.915,16.174,16.174,0,0,1,4.669-16.092s-4.545,7.985-3.071,14,2.211,10.073.368,14Z" transform="translate(-329.035 -877.644)" fill="#8dc63f"/>
          <path id="패스_597" data-name="패스 597" d="M338.908,901.868s1.842-6.511,8.6-5.527C347.507,896.341,347.138,904.449,338.908,901.868Z" transform="translate(-329.945 -881.046)" fill="#72a433"/>
          <path id="패스_598" data-name="패스 598" d="M338.877,886.907s2.144-4.523,6.952-2.976C345.829,883.93,344.564,889.8,338.877,886.907Z" transform="translate(-329.939 -878.545)" fill="#72a433"/>
          <path id="패스_599" data-name="패스 599" d="M336.326,896.587s-3.059-5.973-8.594-4.37C327.732,892.217,329.626,899.938,336.326,896.587Z" transform="translate(-327.732 -880.195)" fill="#72a433"/>
          <path id="패스_600" data-name="패스 600" d="M339.8,882.026s-.738-4.6-4.737-4.731C335.065,877.295,334.659,882.8,339.8,882.026Z" transform="translate(-329.182 -877.295)" fill="#72a433"/>
        </g>
        <g id="그룹_307" data-name="그룹 307" transform="translate(204.062 9.113)">
          <path id="패스_601" data-name="패스 601" d="M365.39,908.01s2.333-4.671-3.4-12.952a13.848,13.848,0,0,0-14.225-6.157s2.972,7.856,8.068,11.677S364.331,904.826,365.39,908.01Z" transform="translate(-347.765 -888.658)" fill="#8dc63f"/>
          <path id="패스_602" data-name="패스 602" d="M370.138,908.753s-1.971-3.945,2.871-10.939a11.7,11.7,0,0,1,12.016-5.2s-2.511,6.636-6.815,9.864S371.032,906.063,370.138,908.753Z" transform="translate(-352.116 -889.4)" fill="#72a433"/>
        </g>
        <g id="그룹_308" data-name="그룹 308" transform="translate(237.668)">
          <path id="패스_603" data-name="패스 603" d="M396.248,907.066a13.2,13.2,0,0,0,2.579-11.915,16.174,16.174,0,0,1,4.668-16.092s-4.545,7.985-3.071,14,2.211,10.073.368,14Z" transform="translate(-390.97 -877.644)" fill="#8dc63f"/>
          <path id="패스_604" data-name="패스 604" d="M400.843,901.868s1.843-6.511,8.6-5.527C409.442,896.341,409.073,904.449,400.843,901.868Z" transform="translate(-391.88 -881.046)" fill="#72a433"/>
          <path id="패스_605" data-name="패스 605" d="M400.812,886.907s2.144-4.523,6.952-2.976C407.764,883.93,406.5,889.8,400.812,886.907Z" transform="translate(-391.874 -878.545)" fill="#72a433"/>
          <path id="패스_606" data-name="패스 606" d="M398.262,896.587s-3.06-5.973-8.6-4.37C389.667,892.217,391.561,899.938,398.262,896.587Z" transform="translate(-389.667 -880.195)" fill="#72a433"/>
          <path id="패스_607" data-name="패스 607" d="M401.738,882.026s-.738-4.6-4.737-4.731C397,877.295,396.594,882.8,401.738,882.026Z" transform="translate(-391.117 -877.295)" fill="#72a433"/>
        </g>
        <g id="그룹_309" data-name="그룹 309" transform="translate(253.734 9.113)">
          <path id="패스_608" data-name="패스 608" d="M427.325,908.01s2.333-4.671-3.4-12.952A13.848,13.848,0,0,0,409.7,888.9s2.972,7.856,8.068,11.677S426.266,904.826,427.325,908.01Z" transform="translate(-409.7 -888.658)" fill="#8dc63f"/>
          <path id="패스_609" data-name="패스 609" d="M432.073,908.753s-1.971-3.945,2.872-10.939a11.7,11.7,0,0,1,12.016-5.2s-2.511,6.636-6.816,9.864S432.967,906.063,432.073,908.753Z" transform="translate(-414.051 -889.4)" fill="#72a433"/>
        </g>
        <g id="그룹_310" data-name="그룹 310" transform="translate(287.34)">
          <path id="패스_610" data-name="패스 610" d="M458.183,907.066a13.205,13.205,0,0,0,2.58-11.915,16.174,16.174,0,0,1,4.668-16.092s-4.545,7.985-3.071,14,2.211,10.073.368,14Z" transform="translate(-452.905 -877.644)" fill="#8dc63f"/>
          <path id="패스_611" data-name="패스 611" d="M462.778,901.868s1.843-6.511,8.6-5.527C471.377,896.341,471.009,904.449,462.778,901.868Z" transform="translate(-453.815 -881.046)" fill="#72a433"/>
          <path id="패스_612" data-name="패스 612" d="M462.747,886.907s2.145-4.523,6.952-2.976C469.7,883.93,468.434,889.8,462.747,886.907Z" transform="translate(-453.809 -878.545)" fill="#72a433"/>
          <path id="패스_613" data-name="패스 613" d="M460.2,896.587s-3.06-5.973-8.6-4.37C451.6,892.217,453.5,899.938,460.2,896.587Z" transform="translate(-451.602 -880.195)" fill="#72a433"/>
          <path id="패스_614" data-name="패스 614" d="M463.673,882.026s-.739-4.6-4.738-4.731C458.935,877.295,458.529,882.8,463.673,882.026Z" transform="translate(-453.052 -877.295)" fill="#72a433"/>
        </g>
        <g id="그룹_311" data-name="그룹 311" transform="translate(304.229 9.113)">
          <path id="패스_615" data-name="패스 615" d="M490.286,908.01s2.333-4.671-3.4-12.952a13.848,13.848,0,0,0-14.225-6.157s2.972,7.856,8.067,11.677S489.226,904.826,490.286,908.01Z" transform="translate(-472.661 -888.658)" fill="#8dc63f"/>
          <path id="패스_616" data-name="패스 616" d="M495.033,908.753s-1.971-3.945,2.872-10.939a11.7,11.7,0,0,1,12.016-5.2s-2.51,6.636-6.815,9.864S495.928,906.063,495.033,908.753Z" transform="translate(-477.012 -889.4)" fill="#72a433"/>
        </g>
        <g id="그룹_312" data-name="그룹 312" transform="translate(355.052 9.113)">
          <path id="패스_617" data-name="패스 617" d="M553.657,908.01s2.332-4.671-3.4-12.952a13.848,13.848,0,0,0-14.225-6.157s2.973,7.856,8.068,11.677S552.6,904.826,553.657,908.01Z" transform="translate(-536.031 -888.658)" fill="#8dc63f"/>
          <path id="패스_618" data-name="패스 618" d="M558.4,908.753s-1.971-3.945,2.872-10.939a11.7,11.7,0,0,1,12.016-5.2s-2.511,6.636-6.815,9.864S559.3,906.063,558.4,908.753Z" transform="translate(-540.382 -889.4)" fill="#72a433"/>
        </g>
        <g id="그룹_313" data-name="그룹 313" transform="translate(388.823)">
          <path id="패스_619" data-name="패스 619" d="M584.72,907.066A13.2,13.2,0,0,0,587.3,895.15a16.174,16.174,0,0,1,4.669-16.092s-4.546,7.985-3.072,14,2.211,10.073.369,14Z" transform="translate(-579.441 -877.644)" fill="#8dc63f"/>
          <path id="패스_620" data-name="패스 620" d="M589.315,901.868s1.842-6.511,8.6-5.527C597.914,896.341,597.545,904.449,589.315,901.868Z" transform="translate(-580.351 -881.046)" fill="#72a433"/>
          <path id="패스_621" data-name="패스 621" d="M589.284,886.907s2.144-4.523,6.952-2.976C596.236,883.93,594.97,889.8,589.284,886.907Z" transform="translate(-580.345 -878.545)" fill="#72a433"/>
          <path id="패스_622" data-name="패스 622" d="M586.733,896.587s-3.059-5.973-8.6-4.37C578.138,892.217,580.032,899.938,586.733,896.587Z" transform="translate(-578.138 -880.195)" fill="#72a433"/>
          <path id="패스_623" data-name="패스 623" d="M590.21,882.026s-.739-4.6-4.737-4.731C585.472,877.295,585.065,882.8,590.21,882.026Z" transform="translate(-579.589 -877.295)" fill="#72a433"/>
        </g>
        <g id="그룹_314" data-name="그룹 314" transform="translate(405.054 9.113)">
          <path id="패스_624" data-name="패스 624" d="M616,908.01s2.333-4.671-3.4-12.952a13.848,13.848,0,0,0-14.225-6.157s2.972,7.856,8.067,11.677S614.943,904.826,616,908.01Z" transform="translate(-598.377 -888.658)" fill="#8dc63f"/>
          <path id="패스_625" data-name="패스 625" d="M620.75,908.753s-1.971-3.945,2.871-10.939a11.7,11.7,0,0,1,12.016-5.2s-2.51,6.636-6.815,9.864S621.644,906.063,620.75,908.753Z" transform="translate(-602.728 -889.4)" fill="#72a433"/>
        </g>
        <g id="그룹_315" data-name="그룹 315" transform="translate(439.482)">
          <path id="패스_626" data-name="패스 626" d="M647.885,907.066a13.205,13.205,0,0,0,2.58-11.915,16.174,16.174,0,0,1,4.668-16.092s-4.545,7.985-3.071,14,2.211,10.073.369,14Z" transform="translate(-642.607 -877.644)" fill="#8dc63f"/>
          <path id="패스_627" data-name="패스 627" d="M652.48,901.868s1.843-6.511,8.6-5.527C661.079,896.341,660.711,904.449,652.48,901.868Z" transform="translate(-643.517 -881.046)" fill="#72a433"/>
          <path id="패스_628" data-name="패스 628" d="M652.449,886.907s2.145-4.523,6.952-2.976C659.4,883.93,658.136,889.8,652.449,886.907Z" transform="translate(-643.511 -878.545)" fill="#72a433"/>
          <path id="패스_629" data-name="패스 629" d="M649.9,896.587s-3.06-5.973-8.6-4.37C641.3,892.217,643.2,899.938,649.9,896.587Z" transform="translate(-641.304 -880.195)" fill="#72a433"/>
          <path id="패스_630" data-name="패스 630" d="M653.375,882.026s-.739-4.6-4.738-4.731C648.637,877.295,648.231,882.8,653.375,882.026Z" transform="translate(-642.754 -877.295)" fill="#72a433"/>
        </g>
        <g id="그룹_316" data-name="그룹 316" transform="translate(455.549 9.113)">
          <path id="패스_631" data-name="패스 631" d="M678.963,908.01s2.332-4.671-3.4-12.952a13.848,13.848,0,0,0-14.225-6.157s2.972,7.856,8.068,11.677S677.9,904.826,678.963,908.01Z" transform="translate(-661.337 -888.658)" fill="#8dc63f"/>
          <path id="패스_632" data-name="패스 632" d="M683.71,908.753s-1.971-3.945,2.872-10.939a11.7,11.7,0,0,1,12.016-5.2s-2.511,6.636-6.815,9.864S684.6,906.063,683.71,908.753Z" transform="translate(-665.688 -889.4)" fill="#72a433"/>
        </g>
        <g id="그룹_317" data-name="그룹 317" transform="translate(489.319)">
          <path id="패스_633" data-name="패스 633" d="M710.025,907.066a13.2,13.2,0,0,0,2.58-11.915,16.176,16.176,0,0,1,4.668-16.092s-4.545,7.985-3.071,14,2.211,10.073.369,14Z" transform="translate(-704.747 -877.644)" fill="#8dc63f"/>
          <path id="패스_634" data-name="패스 634" d="M714.621,901.868s1.842-6.511,8.6-5.527C723.219,896.341,722.851,904.449,714.621,901.868Z" transform="translate(-705.657 -881.046)" fill="#72a433"/>
          <path id="패스_635" data-name="패스 635" d="M714.59,886.907s2.144-4.523,6.952-2.976C721.542,883.93,720.276,889.8,714.59,886.907Z" transform="translate(-705.651 -878.545)" fill="#72a433"/>
          <path id="패스_636" data-name="패스 636" d="M712.039,896.587s-3.059-5.973-8.6-4.37C703.444,892.217,705.338,899.938,712.039,896.587Z" transform="translate(-703.444 -880.195)" fill="#72a433"/>
          <path id="패스_637" data-name="패스 637" d="M715.516,882.026s-.739-4.6-4.737-4.731C710.778,877.295,710.372,882.8,715.516,882.026Z" transform="translate(-704.895 -877.295)" fill="#72a433"/>
        </g>
        <g id="그룹_318" data-name="그룹 318" transform="translate(505.385 9.113)">
          <path id="패스_638" data-name="패스 638" d="M741.1,908.01s2.332-4.671-3.4-12.952a13.849,13.849,0,0,0-14.226-6.157s2.973,7.856,8.068,11.677S740.043,904.826,741.1,908.01Z" transform="translate(-723.477 -888.658)" fill="#8dc63f"/>
          <path id="패스_639" data-name="패스 639" d="M745.85,908.753s-1.971-3.945,2.872-10.939a11.7,11.7,0,0,1,12.016-5.2s-2.51,6.636-6.815,9.864S746.745,906.063,745.85,908.753Z" transform="translate(-727.828 -889.4)" fill="#72a433"/>
        </g>
        <g id="그룹_319" data-name="그룹 319" transform="translate(555.716 9.113)">
          <path id="패스_640" data-name="패스 640" d="M803.858,908.01s2.333-4.671-3.4-12.952a13.848,13.848,0,0,0-14.225-6.157s2.972,7.856,8.068,11.677S802.8,904.826,803.858,908.01Z" transform="translate(-786.233 -888.658)" fill="#8dc63f"/>
          <path id="패스_641" data-name="패스 641" d="M808.606,908.753s-1.97-3.945,2.872-10.939a11.7,11.7,0,0,1,12.016-5.2s-2.511,6.636-6.815,9.864S809.5,906.063,808.606,908.753Z" transform="translate(-790.584 -889.4)" fill="#72a433"/>
        </g>
        <g id="그룹_320" data-name="그룹 320" transform="translate(588.006)">
          <path id="패스_642" data-name="패스 642" d="M833.075,907.066a13.2,13.2,0,0,0,2.58-11.915,16.174,16.174,0,0,1,4.668-16.092s-4.546,7.985-3.072,14,2.211,10.073.369,14Z" transform="translate(-827.797 -877.644)" fill="#8dc63f"/>
          <path id="패스_643" data-name="패스 643" d="M837.671,901.868s1.842-6.511,8.6-5.527C846.269,896.341,845.9,904.449,837.671,901.868Z" transform="translate(-828.707 -881.046)" fill="#72a433"/>
          <path id="패스_644" data-name="패스 644" d="M837.64,886.907s2.144-4.523,6.952-2.976C844.592,883.93,843.326,889.8,837.64,886.907Z" transform="translate(-828.701 -878.545)" fill="#72a433"/>
          <path id="패스_645" data-name="패스 645" d="M835.089,896.587s-3.059-5.973-8.6-4.37C826.494,892.217,828.388,899.938,835.089,896.587Z" transform="translate(-826.494 -880.195)" fill="#72a433"/>
          <path id="패스_646" data-name="패스 646" d="M838.566,882.026s-.739-4.6-4.737-4.731C833.828,877.295,833.422,882.8,838.566,882.026Z" transform="translate(-827.945 -877.295)" fill="#72a433"/>
        </g>
        <g id="그룹_321" data-name="그룹 321" transform="translate(539.896)">
          <path id="패스_647" data-name="패스 647" d="M773.089,907.066a13.2,13.2,0,0,0,2.579-11.915,16.174,16.174,0,0,1,4.668-16.092s-4.546,7.985-3.072,14,2.211,10.073.369,14Z" transform="translate(-767.81 -877.644)" fill="#8dc63f"/>
          <path id="패스_648" data-name="패스 648" d="M777.684,901.868s1.842-6.511,8.6-5.527C786.283,896.341,785.914,904.449,777.684,901.868Z" transform="translate(-768.72 -881.046)" fill="#72a433"/>
          <path id="패스_649" data-name="패스 649" d="M777.653,886.907s2.144-4.523,6.952-2.976C784.6,883.93,783.34,889.8,777.653,886.907Z" transform="translate(-768.714 -878.545)" fill="#72a433"/>
          <path id="패스_650" data-name="패스 650" d="M775.1,896.587s-3.059-5.973-8.6-4.37C766.507,892.217,768.4,899.938,775.1,896.587Z" transform="translate(-766.507 -880.195)" fill="#72a433"/>
          <path id="패스_651" data-name="패스 651" d="M778.579,882.026s-.739-4.6-4.737-4.731C773.841,877.295,773.435,882.8,778.579,882.026Z" transform="translate(-767.958 -877.295)" fill="#72a433"/>
        </g>
        <g id="그룹_322" data-name="그룹 322" transform="translate(604.895 9.113)">
          <path id="패스_652" data-name="패스 652" d="M865.178,908.01s2.333-4.671-3.4-12.952a13.848,13.848,0,0,0-14.225-6.157s2.972,7.856,8.068,11.677S864.119,904.826,865.178,908.01Z" transform="translate(-847.553 -888.658)" fill="#8dc63f"/>
          <path id="패스_653" data-name="패스 653" d="M869.926,908.753s-1.971-3.945,2.871-10.939a11.7,11.7,0,0,1,12.016-5.2s-2.511,6.636-6.815,9.864S870.82,906.063,869.926,908.753Z" transform="translate(-851.904 -889.4)" fill="#72a433"/>
        </g>
        <g id="그룹_323" data-name="그룹 323" transform="translate(639.487)">
          <path id="패스_654" data-name="패스 654" d="M897.267,907.066a13.2,13.2,0,0,0,2.579-11.915,16.175,16.175,0,0,1,4.668-16.092s-4.546,7.985-3.072,14,2.211,10.073.369,14Z" transform="translate(-891.988 -877.644)" fill="#8dc63f"/>
          <path id="패스_655" data-name="패스 655" d="M901.862,901.868s1.842-6.511,8.6-5.527C910.461,896.341,910.092,904.449,901.862,901.868Z" transform="translate(-892.898 -881.046)" fill="#72a433"/>
          <path id="패스_656" data-name="패스 656" d="M901.831,886.907s2.144-4.523,6.952-2.976C908.783,883.93,907.518,889.8,901.831,886.907Z" transform="translate(-892.892 -878.545)" fill="#72a433"/>
          <path id="패스_657" data-name="패스 657" d="M899.28,896.587s-3.059-5.973-8.6-4.37C890.685,892.217,892.579,899.938,899.28,896.587Z" transform="translate(-890.685 -880.195)" fill="#72a433"/>
          <path id="패스_658" data-name="패스 658" d="M902.757,882.026s-.739-4.6-4.737-4.731C898.019,877.295,897.612,882.8,902.757,882.026Z" transform="translate(-892.136 -877.295)" fill="#72a433"/>
        </g>
        <g id="그룹_324" data-name="그룹 324" transform="translate(655.39 9.113)">
          <path id="패스_659" data-name="패스 659" d="M928.139,908.01s2.332-4.671-3.4-12.952a13.849,13.849,0,0,0-14.226-6.157s2.973,7.856,8.068,11.677S927.079,904.826,928.139,908.01Z" transform="translate(-910.513 -888.658)" fill="#8dc63f"/>
          <path id="패스_660" data-name="패스 660" d="M932.886,908.753s-1.97-3.945,2.872-10.939a11.7,11.7,0,0,1,12.016-5.2s-2.51,6.636-6.815,9.864S933.781,906.063,932.886,908.753Z" transform="translate(-914.864 -889.4)" fill="#72a433"/>
        </g>
        <rect id="사각형_82" data-name="사각형 82" width="691.148" height="25.467" rx="12.734" transform="translate(0 31.057)" fill="#966238"/>
        <path id="패스_661" data-name="패스 661" d="M149.146,947.774H826.08c5.824,0,10.589,4.223,10.589,9.383h0c0,5.161-4.765,9.383-10.589,9.383H149.146c-5.824,0-10.589-4.222-10.589-9.383h0C138.557,952,143.322,947.774,149.146,947.774Z" transform="translate(-102.281 -891.249)" fill="#794e29"/>
        <path id="패스_662" data-name="패스 662" d="M778.988,926.086h-9.383a7.842,7.842,0,0,1-7.82-7.819h0a7.843,7.843,0,0,1,7.82-7.82h9.383a7.842,7.842,0,0,1,7.819,7.82h0A7.842,7.842,0,0,1,778.988,926.086Z" transform="translate(-225.677 -883.859)" fill="#966238"/>
        <path id="패스_663" data-name="패스 663" d="M810.185,926.086H800.8a7.842,7.842,0,0,1-7.819-7.819h0a7.842,7.842,0,0,1,7.819-7.82h9.383a7.843,7.843,0,0,1,7.82,7.82h0A7.842,7.842,0,0,1,810.185,926.086Z" transform="translate(-231.854 -883.859)" fill="#966238"/>
        <path id="패스_664" data-name="패스 664" d="M841.383,926.086H832a7.842,7.842,0,0,1-7.819-7.819h0a7.842,7.842,0,0,1,7.819-7.82h9.383a7.842,7.842,0,0,1,7.819,7.82h0A7.842,7.842,0,0,1,841.383,926.086Z" transform="translate(-238.031 -883.859)" fill="#966238"/>
        <path id="패스_665" data-name="패스 665" d="M872.58,926.086H863.2a7.842,7.842,0,0,1-7.819-7.819h0a7.842,7.842,0,0,1,7.819-7.82h9.383a7.843,7.843,0,0,1,7.82,7.82h0A7.842,7.842,0,0,1,872.58,926.086Z" transform="translate(-244.207 -883.859)" fill="#966238"/>
        <path id="패스_666" data-name="패스 666" d="M903.778,926.086H894.4a7.842,7.842,0,0,1-7.819-7.819h0a7.842,7.842,0,0,1,7.819-7.82h9.383a7.842,7.842,0,0,1,7.819,7.82h0A7.842,7.842,0,0,1,903.778,926.086Z" transform="translate(-250.384 -883.859)" fill="#966238"/>
        <path id="패스_667" data-name="패스 667" d="M934.975,926.086h-9.383a7.842,7.842,0,0,1-7.819-7.819h0a7.842,7.842,0,0,1,7.819-7.82h9.383a7.843,7.843,0,0,1,7.82,7.82h0A7.842,7.842,0,0,1,934.975,926.086Z" transform="translate(-256.561 -883.859)" fill="#966238"/>
        <path id="패스_668" data-name="패스 668" d="M591.8,926.086H582.42a7.842,7.842,0,0,1-7.819-7.819h0a7.842,7.842,0,0,1,7.819-7.82H591.8a7.842,7.842,0,0,1,7.819,7.82h0A7.842,7.842,0,0,1,591.8,926.086Z" transform="translate(-188.615 -883.859)" fill="#966238"/>
        <path id="패스_669" data-name="패스 669" d="M623,926.086h-9.383a7.842,7.842,0,0,1-7.819-7.819h0a7.842,7.842,0,0,1,7.819-7.82H623a7.842,7.842,0,0,1,7.819,7.82h0A7.842,7.842,0,0,1,623,926.086Z" transform="translate(-194.792 -883.859)" fill="#966238"/>
        <path id="패스_670" data-name="패스 670" d="M654.2,926.086h-9.383a7.842,7.842,0,0,1-7.82-7.819h0a7.843,7.843,0,0,1,7.82-7.82H654.2a7.842,7.842,0,0,1,7.819,7.82h0A7.842,7.842,0,0,1,654.2,926.086Z" transform="translate(-200.969 -883.859)" fill="#966238"/>
        <path id="패스_671" data-name="패스 671" d="M685.4,926.086h-9.383a7.842,7.842,0,0,1-7.819-7.819h0a7.842,7.842,0,0,1,7.819-7.82H685.4a7.842,7.842,0,0,1,7.819,7.82h0A7.842,7.842,0,0,1,685.4,926.086Z" transform="translate(-207.146 -883.859)" fill="#966238"/>
        <path id="패스_672" data-name="패스 672" d="M716.593,926.086h-9.383a7.842,7.842,0,0,1-7.82-7.819h0a7.843,7.843,0,0,1,7.82-7.82h9.383a7.842,7.842,0,0,1,7.819,7.82h0A7.842,7.842,0,0,1,716.593,926.086Z" transform="translate(-213.323 -883.859)" fill="#966238"/>
        <path id="패스_673" data-name="패스 673" d="M747.79,926.086h-9.383a7.842,7.842,0,0,1-7.819-7.819h0a7.842,7.842,0,0,1,7.819-7.82h9.383a7.842,7.842,0,0,1,7.819,7.82h0A7.842,7.842,0,0,1,747.79,926.086Z" transform="translate(-219.5 -883.859)" fill="#966238"/>
        <path id="패스_674" data-name="패스 674" d="M404.617,926.086h-9.383a7.842,7.842,0,0,1-7.819-7.819h0a7.842,7.842,0,0,1,7.819-7.82h9.383a7.843,7.843,0,0,1,7.82,7.82h0A7.842,7.842,0,0,1,404.617,926.086Z" transform="translate(-151.554 -883.859)" fill="#966238"/>
        <path id="패스_675" data-name="패스 675" d="M435.815,926.086h-9.383a7.842,7.842,0,0,1-7.819-7.819h0a7.842,7.842,0,0,1,7.819-7.82h9.383a7.842,7.842,0,0,1,7.819,7.82h0A7.842,7.842,0,0,1,435.815,926.086Z" transform="translate(-157.731 -883.859)" fill="#966238"/>
        <path id="패스_676" data-name="패스 676" d="M467.012,926.086H457.63a7.842,7.842,0,0,1-7.819-7.819h0a7.842,7.842,0,0,1,7.819-7.82h9.383a7.843,7.843,0,0,1,7.82,7.82h0A7.842,7.842,0,0,1,467.012,926.086Z" transform="translate(-163.908 -883.859)" fill="#966238"/>
        <path id="패스_677" data-name="패스 677" d="M498.21,926.086h-9.383a7.842,7.842,0,0,1-7.819-7.819h0a7.842,7.842,0,0,1,7.819-7.82h9.383a7.842,7.842,0,0,1,7.819,7.82h0A7.842,7.842,0,0,1,498.21,926.086Z" transform="translate(-170.085 -883.859)" fill="#966238"/>
        <path id="패스_678" data-name="패스 678" d="M529.407,926.086h-9.383a7.842,7.842,0,0,1-7.819-7.819h0a7.842,7.842,0,0,1,7.819-7.82h9.383a7.843,7.843,0,0,1,7.82,7.82h0A7.842,7.842,0,0,1,529.407,926.086Z" transform="translate(-176.261 -883.859)" fill="#966238"/>
        <path id="패스_679" data-name="패스 679" d="M560.605,926.086h-9.383a7.842,7.842,0,0,1-7.819-7.819h0a7.842,7.842,0,0,1,7.819-7.82h9.383a7.842,7.842,0,0,1,7.819,7.82h0A7.842,7.842,0,0,1,560.605,926.086Z" transform="translate(-182.438 -883.859)" fill="#966238"/>
        <path id="패스_680" data-name="패스 680" d="M217.432,926.086H208.05a7.842,7.842,0,0,1-7.819-7.819h0a7.842,7.842,0,0,1,7.819-7.82h9.383a7.842,7.842,0,0,1,7.819,7.82h0A7.842,7.842,0,0,1,217.432,926.086Z" transform="translate(-114.492 -883.859)" fill="#966238"/>
        <path id="패스_681" data-name="패스 681" d="M248.63,926.086h-9.383a7.842,7.842,0,0,1-7.819-7.819h0a7.842,7.842,0,0,1,7.819-7.82h9.383a7.842,7.842,0,0,1,7.819,7.82h0A7.842,7.842,0,0,1,248.63,926.086Z" transform="translate(-120.669 -883.859)" fill="#966238"/>
        <path id="패스_682" data-name="패스 682" d="M279.827,926.086h-9.383a7.842,7.842,0,0,1-7.819-7.819h0a7.842,7.842,0,0,1,7.819-7.82h9.383a7.842,7.842,0,0,1,7.819,7.82h0A7.842,7.842,0,0,1,279.827,926.086Z" transform="translate(-126.846 -883.859)" fill="#966238"/>
        <path id="패스_683" data-name="패스 683" d="M311.025,926.086h-9.383a7.842,7.842,0,0,1-7.82-7.819h0a7.843,7.843,0,0,1,7.82-7.82h9.383a7.842,7.842,0,0,1,7.819,7.82h0A7.842,7.842,0,0,1,311.025,926.086Z" transform="translate(-133.023 -883.859)" fill="#966238"/>
        <path id="패스_684" data-name="패스 684" d="M342.222,926.086H332.84a7.842,7.842,0,0,1-7.819-7.819h0a7.842,7.842,0,0,1,7.819-7.82h9.383a7.842,7.842,0,0,1,7.819,7.82h0A7.842,7.842,0,0,1,342.222,926.086Z" transform="translate(-139.2 -883.859)" fill="#966238"/>
        <path id="패스_685" data-name="패스 685" d="M373.42,926.086h-9.383a7.842,7.842,0,0,1-7.82-7.819h0a7.843,7.843,0,0,1,7.82-7.82h9.383a7.842,7.842,0,0,1,7.819,7.82h0A7.842,7.842,0,0,1,373.42,926.086Z" transform="translate(-145.377 -883.859)" fill="#966238"/>
        <path id="패스_686" data-name="패스 686" d="M123.839,926.086h-9.383a7.842,7.842,0,0,1-7.819-7.819h0a7.842,7.842,0,0,1,7.819-7.82h9.383a7.843,7.843,0,0,1,7.82,7.82h0A7.842,7.842,0,0,1,123.839,926.086Z" transform="translate(-95.962 -883.859)" fill="#966238"/>
        <path id="패스_687" data-name="패스 687" d="M155.037,926.086h-9.383a7.842,7.842,0,0,1-7.819-7.819h0a7.842,7.842,0,0,1,7.819-7.82h9.383a7.842,7.842,0,0,1,7.819,7.82h0A7.842,7.842,0,0,1,155.037,926.086Z" transform="translate(-102.139 -883.859)" fill="#966238"/>
        <path id="패스_688" data-name="패스 688" d="M186.234,926.086h-9.383a7.842,7.842,0,0,1-7.819-7.819h0a7.842,7.842,0,0,1,7.819-7.82h9.383a7.843,7.843,0,0,1,7.82,7.82h0A7.842,7.842,0,0,1,186.234,926.086Z" transform="translate(-108.315 -883.859)" fill="#966238"/>
        <path id="패스_689" data-name="패스 689" d="M386.092,938.477a2.681,2.681,0,1,1-2.681-2.681A2.681,2.681,0,0,1,386.092,938.477Z" transform="translate(-150.23 -888.878)" fill="#794e29"/>
        <path id="패스_690" data-name="패스 690" d="M309.647,926.83a2.681,2.681,0,1,1-2.681-2.681A2.681,2.681,0,0,1,309.647,926.83Z" transform="translate(-135.095 -886.572)" fill="#794e29"/>
        <path id="패스_691" data-name="패스 691" d="M415.293,925.78a4.468,4.468,0,1,1-4.468-4.468A4.468,4.468,0,0,1,415.293,925.78Z" transform="translate(-155.304 -886.01)" fill="#794e29"/>
        <path id="패스_692" data-name="패스 692" d="M470.887,938.257a3.575,3.575,0,1,1-3.575-3.574A3.575,3.575,0,0,1,470.887,938.257Z" transform="translate(-166.665 -888.657)" fill="#794e29"/>
        <ellipse id="타원_109" data-name="타원 109" cx="3.128" cy="3.128" rx="3.128" ry="3.128" transform="translate(325.668 38.876)" fill="#794e29"/>
        <path id="패스_693" data-name="패스 693" d="M560.26,933.919a6.479,6.479,0,1,1-6.479-6.479A6.478,6.478,0,0,1,560.26,933.919Z" transform="translate(-183.21 -887.223)" fill="#794e29"/>
        <path id="패스_694" data-name="패스 694" d="M596.675,926.778A2.681,2.681,0,1,1,594,924.1,2.681,2.681,0,0,1,596.675,926.778Z" transform="translate(-191.924 -886.561)" fill="#794e29"/>
        <ellipse id="타원_110" data-name="타원 110" cx="3.574" cy="3.574" rx="3.574" ry="3.574" transform="translate(436.921 42.897)" fill="#794e29"/>
        <path id="패스_695" data-name="패스 695" d="M688.713,924.329a3.575,3.575,0,1,1-3.575-3.575A3.574,3.574,0,0,1,688.713,924.329Z" transform="translate(-209.793 -885.9)" fill="#794e29"/>
        <ellipse id="타원_111" data-name="타원 111" cx="4.468" cy="4.468" rx="4.468" ry="4.468" transform="translate(490.536 45.131)" fill="#794e29"/>
        <path id="패스_696" data-name="패스 696" d="M770.3,930.372a2.793,2.793,0,1,1-2.793-2.793A2.793,2.793,0,0,1,770.3,930.372Z" transform="translate(-226.256 -887.251)" fill="#794e29"/>
        <path id="패스_697" data-name="패스 697" d="M815.29,936.922a4.468,4.468,0,1,1-4.468-4.468A4.468,4.468,0,0,1,815.29,936.922Z" transform="translate(-234.501 -888.216)" fill="#794e29"/>
        <path id="패스_698" data-name="패스 698" d="M852.164,927.225a3.128,3.128,0,1,1-3.128-3.128A3.128,3.128,0,0,1,852.164,927.225Z" transform="translate(-242.332 -886.561)" fill="#794e29"/>
        <ellipse id="타원_112" data-name="타원 112" cx="5.362" cy="5.362" rx="5.362" ry="5.362" transform="translate(631.278 42.897)" fill="#794e29"/>
        <ellipse id="타원_113" data-name="타원 113" cx="3.128" cy="3.128" rx="3.128" ry="3.128" transform="translate(663 38.876)" fill="#794e29"/>
        <path id="패스_699" data-name="패스 699" d="M944.862,913.755a2.681,2.681,0,1,1-2.68-2.681A2.68,2.68,0,0,1,944.862,913.755Z" transform="translate(-260.863 -883.983)" fill="#794e29"/>
        <path id="패스_700" data-name="패스 700" d="M897.951,961.539a1.787,1.787,0,1,1-1.788-1.787A1.788,1.788,0,0,1,897.951,961.539Z" transform="translate(-251.929 -893.621)" fill="#966238"/>
        <ellipse id="타원_114" data-name="타원 114" cx="4.468" cy="4.468" rx="4.468" ry="4.468" transform="translate(615.193 62.11)" fill="#966238"/>
        <path id="패스_701" data-name="패스 701" d="M790.326,961.208a3.128,3.128,0,1,1-3.128-3.128A3.128,3.128,0,0,1,790.326,961.208Z" transform="translate(-230.089 -893.29)" fill="#966238"/>
        <path id="패스_702" data-name="패스 702" d="M727.594,956.3a2.681,2.681,0,1,1-2.681-2.68A2.681,2.681,0,0,1,727.594,956.3Z" transform="translate(-217.845 -892.407)" fill="#966238"/>
        <path id="패스_703" data-name="패스 703" d="M682.469,961.875a2.681,2.681,0,1,1-2.681-2.68A2.681,2.681,0,0,1,682.469,961.875Z" transform="translate(-208.911 -893.511)" fill="#966238"/>
        <ellipse id="타원_115" data-name="타원 115" cx="4.021" cy="4.021" rx="4.021" ry="4.021" transform="translate(420.389 59.876)" fill="#966238"/>
        <path id="패스_704" data-name="패스 704" d="M584.86,963.21a1.787,1.787,0,1,1-1.787-1.787A1.788,1.788,0,0,1,584.86,963.21Z" transform="translate(-189.939 -893.952)" fill="#966238"/>
        <path id="패스_705" data-name="패스 705" d="M544.319,955.2a4.915,4.915,0,1,1-4.915-4.915A4.914,4.914,0,0,1,544.319,955.2Z" transform="translate(-180.673 -891.746)" fill="#966238"/>
        <ellipse id="타원_116" data-name="타원 116" cx="2.234" cy="2.234" rx="2.234" ry="2.234" transform="translate(314.498 65.237)" fill="#966238"/>
        <path id="패스_706" data-name="패스 706" d="M440.142,960.21a4.915,4.915,0,1,1-4.915-4.915A4.915,4.915,0,0,1,440.142,960.21Z" transform="translate(-160.047 -892.738)" fill="#966238"/>
        <ellipse id="타원_117" data-name="타원 117" cx="3.128" cy="3.128" rx="3.128" ry="3.128" transform="translate(247.926 60.769)" fill="#966238"/>
        <ellipse id="타원_118" data-name="타원 118" cx="5.921" cy="5.921" rx="5.921" ry="5.921" transform="translate(204.11 33.021)" fill="#794e29"/>
        <circle id="타원_119" data-name="타원 119" cx="2" cy="2" r="2" transform="translate(151.951 45.629)" fill="#794e29"/>
        <path id="패스_707" data-name="패스 707" d="M179.518,927.013a5.263,5.263,0,1,1-5.263-5.263A5.263,5.263,0,0,1,179.518,927.013Z" transform="translate(-108.307 -886.097)" fill="#794e29"/>
        <path id="패스_708" data-name="패스 708" d="M230.379,934.4a5.263,5.263,0,1,1-5.264-5.264A5.263,5.263,0,0,1,230.379,934.4Z" transform="translate(-118.377 -887.559)" fill="#794e29"/>
        <path id="패스_709" data-name="패스 709" d="M129.633,937.345a3.29,3.29,0,1,1-3.29-3.29A3.29,3.29,0,0,1,129.633,937.345Z" transform="translate(-99.212 -888.533)" fill="#794e29"/>
        <path id="패스_710" data-name="패스 710" d="M226.757,958.015a2.632,2.632,0,1,1-2.631-2.631A2.631,2.631,0,0,1,226.757,958.015Z" transform="translate(-118.702 -892.756)" fill="#966238"/>
        <path id="패스_711" data-name="패스 711" d="M166.548,959.494a3.29,3.29,0,1,1-3.29-3.29A3.29,3.29,0,0,1,166.548,959.494Z" transform="translate(-106.521 -892.918)" fill="#966238"/>
        <path id="패스_712" data-name="패스 712" d="M270.08,960.809a4.606,4.606,0,1,1-4.605-4.605A4.606,4.606,0,0,1,270.08,960.809Z" transform="translate(-126.498 -892.918)" fill="#966238"/>
        <ellipse id="타원_120" data-name="타원 120" cx="4.934" cy="4.934" rx="4.934" ry="4.934" transform="translate(179.767 61.312)" fill="#966238"/>
        <path id="패스_713" data-name="패스 713" d="M378.519,956.374a2.632,2.632,0,1,1-2.632-2.631A2.633,2.633,0,0,1,378.519,956.374Z" transform="translate(-148.75 -892.431)" fill="#966238"/>
      </g>
      <g id="그룹_351" data-name="그룹 351" transform="translate(686.18 111.456)">
        <g id="그룹_326" data-name="그룹 326" transform="translate(5.372 9.113)">
          <path id="패스_714" data-name="패스 714" d="M973.228,908.01s2.333-4.671-3.4-12.952A13.848,13.848,0,0,0,955.6,888.9s2.972,7.856,8.067,11.677S972.169,904.826,973.228,908.01Z" transform="translate(-955.603 -888.658)" fill="#8dc63f"/>
          <path id="패스_715" data-name="패스 715" d="M977.976,908.753s-1.97-3.945,2.871-10.939a11.7,11.7,0,0,1,12.016-5.2s-2.51,6.636-6.815,9.864S978.87,906.063,977.976,908.753Z" transform="translate(-959.954 -889.4)" fill="#72a433"/>
        </g>
        <g id="그룹_327" data-name="그룹 327" transform="translate(38.978)">
          <path id="패스_716" data-name="패스 716" d="M1004.086,907.066a13.2,13.2,0,0,0,2.579-11.915,16.174,16.174,0,0,1,4.668-16.092s-4.545,7.985-3.071,14,2.211,10.073.368,14Z" transform="translate(-998.808 -877.644)" fill="#8dc63f"/>
          <path id="패스_717" data-name="패스 717" d="M1008.681,901.868s1.842-6.511,8.6-5.527C1017.28,896.341,1016.911,904.449,1008.681,901.868Z" transform="translate(-999.718 -881.046)" fill="#72a433"/>
          <path id="패스_718" data-name="패스 718" d="M1008.65,886.907s2.144-4.523,6.952-2.976C1015.6,883.93,1014.337,889.8,1008.65,886.907Z" transform="translate(-999.712 -878.545)" fill="#72a433"/>
          <path id="패스_719" data-name="패스 719" d="M1006.1,896.587s-3.059-5.973-8.594-4.37C997.505,892.217,999.4,899.938,1006.1,896.587Z" transform="translate(-997.505 -880.195)" fill="#72a433"/>
          <path id="패스_720" data-name="패스 720" d="M1009.576,882.026s-.738-4.6-4.737-4.731C1004.838,877.295,1004.432,882.8,1009.576,882.026Z" transform="translate(-998.955 -877.295)" fill="#72a433"/>
        </g>
        <g id="그룹_328" data-name="그룹 328" transform="translate(55.045 9.113)">
          <path id="패스_721" data-name="패스 721" d="M1035.163,908.01s2.333-4.671-3.4-12.952a13.848,13.848,0,0,0-14.225-6.157s2.972,7.856,8.068,11.677S1034.1,904.826,1035.163,908.01Z" transform="translate(-1017.538 -888.658)" fill="#8dc63f"/>
          <path id="패스_722" data-name="패스 722" d="M1039.911,908.753s-1.971-3.945,2.871-10.939a11.7,11.7,0,0,1,12.016-5.2s-2.511,6.636-6.815,9.864S1040.805,906.063,1039.911,908.753Z" transform="translate(-1021.889 -889.4)" fill="#72a433"/>
        </g>
        <g id="그룹_329" data-name="그룹 329" transform="translate(88.65)">
          <path id="패스_723" data-name="패스 723" d="M1066.021,907.066a13.2,13.2,0,0,0,2.579-11.915,16.174,16.174,0,0,1,4.668-16.092s-4.545,7.985-3.071,14,2.211,10.073.368,14Z" transform="translate(-1060.743 -877.644)" fill="#8dc63f"/>
          <path id="패스_724" data-name="패스 724" d="M1070.616,901.868s1.843-6.511,8.6-5.527C1079.215,896.341,1078.847,904.449,1070.616,901.868Z" transform="translate(-1061.653 -881.046)" fill="#72a433"/>
          <path id="패스_725" data-name="패스 725" d="M1070.585,886.907s2.145-4.523,6.952-2.976C1077.537,883.93,1076.272,889.8,1070.585,886.907Z" transform="translate(-1061.647 -878.545)" fill="#72a433"/>
          <path id="패스_726" data-name="패스 726" d="M1068.035,896.587s-3.06-5.973-8.6-4.37C1059.44,892.217,1061.334,899.938,1068.035,896.587Z" transform="translate(-1059.44 -880.195)" fill="#72a433"/>
          <path id="패스_727" data-name="패스 727" d="M1071.511,882.026s-.739-4.6-4.738-4.731C1066.773,877.295,1066.367,882.8,1071.511,882.026Z" transform="translate(-1060.89 -877.295)" fill="#72a433"/>
        </g>
        <g id="그룹_330" data-name="그룹 330" transform="translate(104.717 9.113)">
          <path id="패스_728" data-name="패스 728" d="M1097.1,908.01s2.333-4.671-3.4-12.952a13.848,13.848,0,0,0-14.225-6.157s2.972,7.856,8.068,11.677S1096.039,904.826,1097.1,908.01Z" transform="translate(-1079.473 -888.658)" fill="#8dc63f"/>
          <path id="패스_729" data-name="패스 729" d="M1101.846,908.753s-1.97-3.945,2.872-10.939a11.7,11.7,0,0,1,12.016-5.2s-2.511,6.636-6.816,9.864S1102.74,906.063,1101.846,908.753Z" transform="translate(-1083.824 -889.4)" fill="#72a433"/>
        </g>
        <g id="그룹_331" data-name="그룹 331" transform="translate(154.389 9.113)">
          <path id="패스_730" data-name="패스 730" d="M1159.033,908.01s2.333-4.671-3.4-12.952a13.848,13.848,0,0,0-14.225-6.157s2.972,7.856,8.068,11.677S1157.974,904.826,1159.033,908.01Z" transform="translate(-1141.408 -888.658)" fill="#8dc63f"/>
          <path id="패스_731" data-name="패스 731" d="M1163.781,908.753s-1.971-3.945,2.872-10.939a11.7,11.7,0,0,1,12.016-5.2s-2.511,6.636-6.815,9.864S1164.675,906.063,1163.781,908.753Z" transform="translate(-1145.759 -889.4)" fill="#72a433"/>
        </g>
        <g id="그룹_332" data-name="그룹 332" transform="translate(187.995)">
          <path id="패스_732" data-name="패스 732" d="M1189.891,907.066a13.205,13.205,0,0,0,2.58-11.915,16.174,16.174,0,0,1,4.668-16.092s-4.545,7.985-3.071,14,2.211,10.073.369,14Z" transform="translate(-1184.613 -877.644)" fill="#8dc63f"/>
          <path id="패스_733" data-name="패스 733" d="M1194.486,901.868s1.843-6.511,8.6-5.527C1203.085,896.341,1202.717,904.449,1194.486,901.868Z" transform="translate(-1185.523 -881.046)" fill="#72a433"/>
          <path id="패스_734" data-name="패스 734" d="M1194.456,886.907s2.144-4.523,6.952-2.976C1201.408,883.93,1200.142,889.8,1194.456,886.907Z" transform="translate(-1185.517 -878.545)" fill="#72a433"/>
          <path id="패스_735" data-name="패스 735" d="M1191.905,896.587s-3.059-5.973-8.595-4.37C1183.31,892.217,1185.2,899.938,1191.905,896.587Z" transform="translate(-1183.31 -880.195)" fill="#72a433"/>
          <path id="패스_736" data-name="패스 736" d="M1195.382,882.026s-.739-4.6-4.737-4.731C1190.644,877.295,1190.238,882.8,1195.382,882.026Z" transform="translate(-1184.761 -877.295)" fill="#72a433"/>
        </g>
        <g id="그룹_333" data-name="그룹 333" transform="translate(204.061 9.113)">
          <path id="패스_737" data-name="패스 737" d="M1220.969,908.01s2.332-4.671-3.4-12.952a13.848,13.848,0,0,0-14.225-6.157s2.973,7.856,8.068,11.677S1219.909,904.826,1220.969,908.01Z" transform="translate(-1203.343 -888.658)" fill="#8dc63f"/>
          <path id="패스_738" data-name="패스 738" d="M1225.716,908.753s-1.97-3.945,2.872-10.939a11.7,11.7,0,0,1,12.016-5.2s-2.51,6.636-6.815,9.864S1226.611,906.063,1225.716,908.753Z" transform="translate(-1207.694 -889.4)" fill="#72a433"/>
        </g>
        <g id="그룹_334" data-name="그룹 334" transform="translate(237.667)">
          <path id="패스_739" data-name="패스 739" d="M1251.826,907.066a13.2,13.2,0,0,0,2.58-11.915,16.175,16.175,0,0,1,4.668-16.092s-4.546,7.985-3.072,14,2.211,10.073.369,14Z" transform="translate(-1246.548 -877.644)" fill="#8dc63f"/>
          <path id="패스_740" data-name="패스 740" d="M1256.422,901.868s1.842-6.511,8.6-5.527C1265.021,896.341,1264.652,904.449,1256.422,901.868Z" transform="translate(-1247.458 -881.046)" fill="#72a433"/>
          <path id="패스_741" data-name="패스 741" d="M1256.391,886.907s2.144-4.523,6.952-2.976C1263.343,883.93,1262.077,889.8,1256.391,886.907Z" transform="translate(-1247.452 -878.545)" fill="#72a433"/>
          <path id="패스_742" data-name="패스 742" d="M1253.84,896.587s-3.059-5.973-8.6-4.37C1245.245,892.217,1247.139,899.938,1253.84,896.587Z" transform="translate(-1245.245 -880.195)" fill="#72a433"/>
          <path id="패스_743" data-name="패스 743" d="M1257.317,882.026s-.739-4.6-4.737-4.731C1252.579,877.295,1252.172,882.8,1257.317,882.026Z" transform="translate(-1246.695 -877.295)" fill="#72a433"/>
        </g>
        <g id="그룹_335" data-name="그룹 335" transform="translate(253.734 9.113)">
          <path id="패스_744" data-name="패스 744" d="M1282.9,908.01s2.332-4.671-3.4-12.952a13.849,13.849,0,0,0-14.226-6.157s2.973,7.856,8.068,11.677S1281.844,904.826,1282.9,908.01Z" transform="translate(-1265.278 -888.658)" fill="#8dc63f"/>
          <path id="패스_745" data-name="패스 745" d="M1287.651,908.753s-1.97-3.945,2.872-10.939a11.7,11.7,0,0,1,12.016-5.2s-2.51,6.636-6.815,9.864S1288.546,906.063,1287.651,908.753Z" transform="translate(-1269.629 -889.4)" fill="#72a433"/>
        </g>
        <g id="그룹_336" data-name="그룹 336" transform="translate(287.34)">
          <path id="패스_746" data-name="패스 746" d="M1313.762,907.066a13.2,13.2,0,0,0,2.579-11.915,16.174,16.174,0,0,1,4.668-16.092s-4.546,7.985-3.072,14,2.212,10.073.369,14Z" transform="translate(-1308.484 -877.644)" fill="#8dc63f"/>
          <path id="패스_747" data-name="패스 747" d="M1318.357,901.868s1.842-6.511,8.6-5.527C1326.956,896.341,1326.587,904.449,1318.357,901.868Z" transform="translate(-1309.394 -881.046)" fill="#72a433"/>
          <path id="패스_748" data-name="패스 748" d="M1318.326,886.907s2.144-4.523,6.952-2.976C1325.278,883.93,1324.013,889.8,1318.326,886.907Z" transform="translate(-1309.388 -878.545)" fill="#72a433"/>
          <path id="패스_749" data-name="패스 749" d="M1315.775,896.587s-3.059-5.973-8.594-4.37C1307.181,892.217,1309.074,899.938,1315.775,896.587Z" transform="translate(-1307.181 -880.195)" fill="#72a433"/>
          <path id="패스_750" data-name="패스 750" d="M1319.252,882.026s-.738-4.6-4.738-4.731C1314.514,877.295,1314.107,882.8,1319.252,882.026Z" transform="translate(-1308.631 -877.295)" fill="#72a433"/>
        </g>
        <g id="그룹_337" data-name="그룹 337" transform="translate(304.229 9.113)">
          <path id="패스_751" data-name="패스 751" d="M1345.864,908.01s2.333-4.671-3.4-12.952a13.848,13.848,0,0,0-14.225-6.157s2.972,7.856,8.068,11.677S1344.805,904.826,1345.864,908.01Z" transform="translate(-1328.239 -888.658)" fill="#8dc63f"/>
          <path id="패스_752" data-name="패스 752" d="M1350.612,908.753s-1.97-3.945,2.872-10.939a11.7,11.7,0,0,1,12.016-5.2s-2.511,6.636-6.815,9.864S1351.506,906.063,1350.612,908.753Z" transform="translate(-1332.59 -889.4)" fill="#72a433"/>
        </g>
        <g id="그룹_338" data-name="그룹 338" transform="translate(355.053 9.113)">
          <path id="패스_753" data-name="패스 753" d="M1409.235,908.01s2.333-4.671-3.4-12.952a13.848,13.848,0,0,0-14.225-6.157s2.972,7.856,8.068,11.677S1408.176,904.826,1409.235,908.01Z" transform="translate(-1391.61 -888.658)" fill="#8dc63f"/>
          <path id="패스_754" data-name="패스 754" d="M1413.983,908.753s-1.971-3.945,2.871-10.939a11.7,11.7,0,0,1,12.016-5.2s-2.511,6.636-6.815,9.864S1414.877,906.063,1413.983,908.753Z" transform="translate(-1395.961 -889.4)" fill="#72a433"/>
        </g>
        <g id="그룹_339" data-name="그룹 339" transform="translate(388.823)">
          <path id="패스_755" data-name="패스 755" d="M1440.3,907.066a13.205,13.205,0,0,0,2.58-11.915,16.174,16.174,0,0,1,4.668-16.092s-4.545,7.985-3.071,14,2.211,10.073.368,14Z" transform="translate(-1435.02 -877.644)" fill="#8dc63f"/>
          <path id="패스_756" data-name="패스 756" d="M1444.893,901.868s1.843-6.511,8.6-5.527C1453.492,896.341,1453.124,904.449,1444.893,901.868Z" transform="translate(-1435.93 -881.046)" fill="#72a433"/>
          <path id="패스_757" data-name="패스 757" d="M1444.862,886.907s2.145-4.523,6.952-2.976C1451.814,883.93,1450.549,889.8,1444.862,886.907Z" transform="translate(-1435.924 -878.545)" fill="#72a433"/>
          <path id="패스_758" data-name="패스 758" d="M1442.312,896.587s-3.06-5.973-8.595-4.37C1433.717,892.217,1435.61,899.938,1442.312,896.587Z" transform="translate(-1433.717 -880.195)" fill="#72a433"/>
          <path id="패스_759" data-name="패스 759" d="M1445.788,882.026s-.739-4.6-4.738-4.731C1441.05,877.295,1440.644,882.8,1445.788,882.026Z" transform="translate(-1435.167 -877.295)" fill="#72a433"/>
        </g>
        <g id="그룹_340" data-name="그룹 340" transform="translate(405.054 9.113)">
          <path id="패스_760" data-name="패스 760" d="M1471.58,908.01s2.333-4.671-3.4-12.952a13.848,13.848,0,0,0-14.225-6.157s2.972,7.856,8.068,11.677S1470.521,904.826,1471.58,908.01Z" transform="translate(-1453.955 -888.658)" fill="#8dc63f"/>
          <path id="패스_761" data-name="패스 761" d="M1476.328,908.753s-1.971-3.945,2.872-10.939a11.7,11.7,0,0,1,12.016-5.2s-2.511,6.636-6.815,9.864S1477.222,906.063,1476.328,908.753Z" transform="translate(-1458.306 -889.4)" fill="#72a433"/>
        </g>
        <g id="그룹_341" data-name="그룹 341" transform="translate(439.482)">
          <path id="패스_762" data-name="패스 762" d="M1503.464,907.066a13.2,13.2,0,0,0,2.579-11.915,16.175,16.175,0,0,1,4.668-16.092s-4.546,7.985-3.071,14,2.211,10.073.368,14Z" transform="translate(-1498.186 -877.644)" fill="#8dc63f"/>
          <path id="패스_763" data-name="패스 763" d="M1508.059,901.868s1.842-6.511,8.6-5.527C1516.658,896.341,1516.289,904.449,1508.059,901.868Z" transform="translate(-1499.096 -881.046)" fill="#72a433"/>
          <path id="패스_764" data-name="패스 764" d="M1508.028,886.907s2.144-4.523,6.952-2.976C1514.98,883.93,1513.715,889.8,1508.028,886.907Z" transform="translate(-1499.09 -878.545)" fill="#72a433"/>
          <path id="패스_765" data-name="패스 765" d="M1505.477,896.587s-3.059-5.973-8.594-4.37C1496.883,892.217,1498.777,899.938,1505.477,896.587Z" transform="translate(-1496.883 -880.195)" fill="#72a433"/>
          <path id="패스_766" data-name="패스 766" d="M1508.954,882.026s-.738-4.6-4.737-4.731C1504.216,877.295,1503.81,882.8,1508.954,882.026Z" transform="translate(-1498.333 -877.295)" fill="#72a433"/>
        </g>
        <g id="그룹_342" data-name="그룹 342" transform="translate(455.549 9.113)">
          <path id="패스_767" data-name="패스 767" d="M1534.541,908.01s2.333-4.671-3.4-12.952a13.848,13.848,0,0,0-14.225-6.157s2.972,7.856,8.068,11.677S1533.482,904.826,1534.541,908.01Z" transform="translate(-1516.916 -888.658)" fill="#8dc63f"/>
          <path id="패스_768" data-name="패스 768" d="M1539.289,908.753s-1.971-3.945,2.871-10.939a11.7,11.7,0,0,1,12.016-5.2s-2.511,6.636-6.815,9.864S1540.183,906.063,1539.289,908.753Z" transform="translate(-1521.267 -889.4)" fill="#72a433"/>
        </g>
        <g id="그룹_343" data-name="그룹 343" transform="translate(489.319)">
          <path id="패스_769" data-name="패스 769" d="M1565.6,907.066a13.205,13.205,0,0,0,2.58-11.915,16.172,16.172,0,0,1,4.668-16.092s-4.545,7.985-3.071,14,2.211,10.073.368,14Z" transform="translate(-1560.326 -877.644)" fill="#8dc63f"/>
          <path id="패스_770" data-name="패스 770" d="M1570.2,901.868s1.843-6.511,8.6-5.527C1578.8,896.341,1578.43,904.449,1570.2,901.868Z" transform="translate(-1561.236 -881.046)" fill="#72a433"/>
          <path id="패스_771" data-name="패스 771" d="M1570.168,886.907s2.145-4.523,6.952-2.976C1577.12,883.93,1575.855,889.8,1570.168,886.907Z" transform="translate(-1561.23 -878.545)" fill="#72a433"/>
          <path id="패스_772" data-name="패스 772" d="M1567.618,896.587s-3.06-5.973-8.6-4.37C1559.023,892.217,1560.917,899.938,1567.618,896.587Z" transform="translate(-1559.023 -880.195)" fill="#72a433"/>
          <path id="패스_773" data-name="패스 773" d="M1571.094,882.026s-.739-4.6-4.738-4.731C1566.356,877.295,1565.95,882.8,1571.094,882.026Z" transform="translate(-1560.474 -877.295)" fill="#72a433"/>
        </g>
        <g id="그룹_344" data-name="그룹 344" transform="translate(505.386 9.113)">
          <path id="패스_774" data-name="패스 774" d="M1596.681,908.01s2.333-4.671-3.4-12.952a13.848,13.848,0,0,0-14.225-6.157s2.972,7.856,8.068,11.677S1595.622,904.826,1596.681,908.01Z" transform="translate(-1579.056 -888.658)" fill="#8dc63f"/>
          <path id="패스_775" data-name="패스 775" d="M1601.429,908.753s-1.97-3.945,2.872-10.939a11.7,11.7,0,0,1,12.016-5.2s-2.511,6.636-6.816,9.864S1602.323,906.063,1601.429,908.753Z" transform="translate(-1583.407 -889.4)" fill="#72a433"/>
        </g>
        <g id="그룹_345" data-name="그룹 345" transform="translate(555.716 9.113)">
          <path id="패스_776" data-name="패스 776" d="M1659.437,908.01s2.333-4.671-3.4-12.952a13.849,13.849,0,0,0-14.226-6.157s2.973,7.856,8.068,11.677S1658.377,904.826,1659.437,908.01Z" transform="translate(-1641.811 -888.658)" fill="#8dc63f"/>
          <path id="패스_777" data-name="패스 777" d="M1664.184,908.753s-1.97-3.945,2.872-10.939a11.7,11.7,0,0,1,12.016-5.2s-2.51,6.636-6.815,9.864S1665.079,906.063,1664.184,908.753Z" transform="translate(-1646.162 -889.4)" fill="#72a433"/>
        </g>
        <g id="그룹_346" data-name="그룹 346" transform="translate(588.006)">
          <path id="패스_778" data-name="패스 778" d="M1688.654,907.066a13.205,13.205,0,0,0,2.58-11.915,16.173,16.173,0,0,1,4.668-16.092s-4.545,7.985-3.071,14,2.211,10.073.368,14Z" transform="translate(-1683.376 -877.644)" fill="#8dc63f"/>
          <path id="패스_779" data-name="패스 779" d="M1693.249,901.868s1.843-6.511,8.6-5.527C1701.848,896.341,1701.48,904.449,1693.249,901.868Z" transform="translate(-1684.286 -881.046)" fill="#72a433"/>
          <path id="패스_780" data-name="패스 780" d="M1693.218,886.907s2.145-4.523,6.952-2.976C1700.17,883.93,1698.9,889.8,1693.218,886.907Z" transform="translate(-1684.28 -878.545)" fill="#72a433"/>
          <path id="패스_781" data-name="패스 781" d="M1690.668,896.587s-3.06-5.973-8.6-4.37C1682.073,892.217,1683.966,899.938,1690.668,896.587Z" transform="translate(-1682.073 -880.195)" fill="#72a433"/>
          <path id="패스_782" data-name="패스 782" d="M1694.144,882.026s-.739-4.6-4.738-4.731C1689.406,877.295,1689,882.8,1694.144,882.026Z" transform="translate(-1683.523 -877.295)" fill="#72a433"/>
        </g>
        <g id="그룹_347" data-name="그룹 347" transform="translate(539.896)">
          <path id="패스_783" data-name="패스 783" d="M1628.667,907.066a13.205,13.205,0,0,0,2.58-11.915,16.174,16.174,0,0,1,4.668-16.092s-4.545,7.985-3.071,14,2.211,10.073.368,14Z" transform="translate(-1623.389 -877.644)" fill="#8dc63f"/>
          <path id="패스_784" data-name="패스 784" d="M1633.262,901.868s1.843-6.511,8.6-5.527C1641.861,896.341,1641.493,904.449,1633.262,901.868Z" transform="translate(-1624.299 -881.046)" fill="#72a433"/>
          <path id="패스_785" data-name="패스 785" d="M1633.231,886.907s2.145-4.523,6.952-2.976C1640.183,883.93,1638.918,889.8,1633.231,886.907Z" transform="translate(-1624.293 -878.545)" fill="#72a433"/>
          <path id="패스_786" data-name="패스 786" d="M1630.681,896.587s-3.06-5.973-8.6-4.37C1622.086,892.217,1623.979,899.938,1630.681,896.587Z" transform="translate(-1622.086 -880.195)" fill="#72a433"/>
          <path id="패스_787" data-name="패스 787" d="M1634.157,882.026s-.739-4.6-4.738-4.731C1629.419,877.295,1629.013,882.8,1634.157,882.026Z" transform="translate(-1623.536 -877.295)" fill="#72a433"/>
        </g>
        <g id="그룹_348" data-name="그룹 348" transform="translate(604.895 9.113)">
          <path id="패스_788" data-name="패스 788" d="M1720.757,908.01s2.332-4.671-3.4-12.952a13.849,13.849,0,0,0-14.226-6.157s2.973,7.856,8.068,11.677S1719.7,904.826,1720.757,908.01Z" transform="translate(-1703.131 -888.658)" fill="#8dc63f"/>
          <path id="패스_789" data-name="패스 789" d="M1725.5,908.753s-1.971-3.945,2.872-10.939a11.7,11.7,0,0,1,12.016-5.2s-2.51,6.636-6.815,9.864S1726.4,906.063,1725.5,908.753Z" transform="translate(-1707.482 -889.4)" fill="#72a433"/>
        </g>
        <g id="그룹_349" data-name="그룹 349" transform="translate(639.488)">
          <path id="패스_790" data-name="패스 790" d="M1752.845,907.066a13.205,13.205,0,0,0,2.58-11.915,16.175,16.175,0,0,1,4.668-16.092s-4.545,7.985-3.071,14,2.211,10.073.368,14Z" transform="translate(-1747.567 -877.644)" fill="#8dc63f"/>
          <path id="패스_791" data-name="패스 791" d="M1757.44,901.868s1.843-6.511,8.6-5.527C1766.039,896.341,1765.671,904.449,1757.44,901.868Z" transform="translate(-1748.477 -881.046)" fill="#72a433"/>
          <path id="패스_792" data-name="패스 792" d="M1757.409,886.907s2.145-4.523,6.952-2.976C1764.361,883.93,1763.1,889.8,1757.409,886.907Z" transform="translate(-1748.471 -878.545)" fill="#72a433"/>
          <path id="패스_793" data-name="패스 793" d="M1754.859,896.587s-3.06-5.973-8.595-4.37C1746.264,892.217,1748.158,899.938,1754.859,896.587Z" transform="translate(-1746.264 -880.195)" fill="#72a433"/>
          <path id="패스_794" data-name="패스 794" d="M1758.335,882.026s-.739-4.6-4.738-4.731C1753.6,877.295,1753.191,882.8,1758.335,882.026Z" transform="translate(-1747.714 -877.295)" fill="#72a433"/>
        </g>
        <g id="그룹_350" data-name="그룹 350" transform="translate(655.39 9.113)">
          <path id="패스_795" data-name="패스 795" d="M1783.717,908.01s2.333-4.671-3.4-12.952a13.848,13.848,0,0,0-14.225-6.157s2.972,7.856,8.068,11.677S1782.658,904.826,1783.717,908.01Z" transform="translate(-1766.092 -888.658)" fill="#8dc63f"/>
          <path id="패스_796" data-name="패스 796" d="M1788.465,908.753s-1.971-3.945,2.872-10.939a11.7,11.7,0,0,1,12.016-5.2s-2.511,6.636-6.815,9.864S1789.359,906.063,1788.465,908.753Z" transform="translate(-1770.443 -889.4)" fill="#72a433"/>
        </g>
        <rect id="사각형_83" data-name="사각형 83" width="691.148" height="25.467" rx="12.734" transform="translate(0 31.057)" fill="#966238"/>
        <path id="패스_797" data-name="패스 797" d="M1003.519,947.774H1603.35a9.411,9.411,0,0,1,9.383,9.383h0a9.41,9.41,0,0,1-9.383,9.383H1003.519a9.41,9.41,0,0,1-9.383-9.383h0A9.41,9.41,0,0,1,1003.519,947.774Z" transform="translate(-957.86 -891.249)" fill="#794e29"/>
        <path id="패스_798" data-name="패스 798" d="M1634.566,926.086h-9.383a7.842,7.842,0,0,1-7.819-7.819h0a7.842,7.842,0,0,1,7.819-7.82h9.383a7.842,7.842,0,0,1,7.819,7.82h0A7.842,7.842,0,0,1,1634.566,926.086Z" transform="translate(-1081.255 -883.859)" fill="#966238"/>
        <path id="패스_799" data-name="패스 799" d="M1665.764,926.086h-9.383a7.842,7.842,0,0,1-7.819-7.819h0a7.843,7.843,0,0,1,7.819-7.82h9.383a7.843,7.843,0,0,1,7.819,7.82h0A7.842,7.842,0,0,1,1665.764,926.086Z" transform="translate(-1087.432 -883.859)" fill="#966238"/>
        <path id="패스_800" data-name="패스 800" d="M1696.961,926.086h-9.383a7.842,7.842,0,0,1-7.819-7.819h0a7.842,7.842,0,0,1,7.819-7.82h9.383a7.843,7.843,0,0,1,7.82,7.82h0A7.843,7.843,0,0,1,1696.961,926.086Z" transform="translate(-1093.609 -883.859)" fill="#966238"/>
        <path id="패스_801" data-name="패스 801" d="M1728.159,926.086h-9.383a7.842,7.842,0,0,1-7.819-7.819h0a7.842,7.842,0,0,1,7.819-7.82h9.383a7.843,7.843,0,0,1,7.819,7.82h0A7.842,7.842,0,0,1,1728.159,926.086Z" transform="translate(-1099.786 -883.859)" fill="#966238"/>
        <path id="패스_802" data-name="패스 802" d="M1759.356,926.086h-9.383a7.842,7.842,0,0,1-7.819-7.819h0a7.842,7.842,0,0,1,7.819-7.82h9.383a7.843,7.843,0,0,1,7.82,7.82h0A7.842,7.842,0,0,1,1759.356,926.086Z" transform="translate(-1105.963 -883.859)" fill="#966238"/>
        <path id="패스_803" data-name="패스 803" d="M1790.554,926.086h-9.383a7.842,7.842,0,0,1-7.819-7.819h0a7.842,7.842,0,0,1,7.819-7.82h9.383a7.842,7.842,0,0,1,7.819,7.82h0A7.842,7.842,0,0,1,1790.554,926.086Z" transform="translate(-1112.14 -883.859)" fill="#966238"/>
        <path id="패스_804" data-name="패스 804" d="M1447.381,926.086H1438a7.842,7.842,0,0,1-7.819-7.819h0a7.842,7.842,0,0,1,7.819-7.82h9.383a7.842,7.842,0,0,1,7.819,7.82h0A7.842,7.842,0,0,1,1447.381,926.086Z" transform="translate(-1044.194 -883.859)" fill="#966238"/>
        <path id="패스_805" data-name="패스 805" d="M1478.579,926.086H1469.2a7.842,7.842,0,0,1-7.819-7.819h0a7.842,7.842,0,0,1,7.819-7.82h9.384a7.842,7.842,0,0,1,7.819,7.82h0A7.842,7.842,0,0,1,1478.579,926.086Z" transform="translate(-1050.371 -883.859)" fill="#966238"/>
        <path id="패스_806" data-name="패스 806" d="M1509.776,926.086h-9.383a7.842,7.842,0,0,1-7.819-7.819h0a7.843,7.843,0,0,1,7.819-7.82h9.383a7.842,7.842,0,0,1,7.819,7.82h0A7.842,7.842,0,0,1,1509.776,926.086Z" transform="translate(-1056.548 -883.859)" fill="#966238"/>
        <path id="패스_807" data-name="패스 807" d="M1540.974,926.086h-9.383a7.842,7.842,0,0,1-7.819-7.819h0a7.843,7.843,0,0,1,7.819-7.82h9.383a7.842,7.842,0,0,1,7.819,7.82h0A7.842,7.842,0,0,1,1540.974,926.086Z" transform="translate(-1062.724 -883.859)" fill="#966238"/>
        <path id="패스_808" data-name="패스 808" d="M1572.171,926.086h-9.383a7.842,7.842,0,0,1-7.819-7.819h0a7.842,7.842,0,0,1,7.819-7.82h9.383a7.843,7.843,0,0,1,7.819,7.82h0A7.842,7.842,0,0,1,1572.171,926.086Z" transform="translate(-1068.901 -883.859)" fill="#966238"/>
        <path id="패스_809" data-name="패스 809" d="M1603.369,926.086h-9.383a7.842,7.842,0,0,1-7.819-7.819h0a7.843,7.843,0,0,1,7.819-7.82h9.383a7.842,7.842,0,0,1,7.819,7.82h0A7.842,7.842,0,0,1,1603.369,926.086Z" transform="translate(-1075.078 -883.859)" fill="#966238"/>
        <path id="패스_810" data-name="패스 810" d="M1260.2,926.086h-9.383a7.842,7.842,0,0,1-7.82-7.819h0a7.843,7.843,0,0,1,7.82-7.82h9.383a7.842,7.842,0,0,1,7.819,7.82h0A7.842,7.842,0,0,1,1260.2,926.086Z" transform="translate(-1007.132 -883.859)" fill="#966238"/>
        <path id="패스_811" data-name="패스 811" d="M1291.394,926.086h-9.383a7.842,7.842,0,0,1-7.819-7.819h0a7.842,7.842,0,0,1,7.819-7.82h9.383a7.843,7.843,0,0,1,7.819,7.82h0A7.842,7.842,0,0,1,1291.394,926.086Z" transform="translate(-1013.309 -883.859)" fill="#966238"/>
        <path id="패스_812" data-name="패스 812" d="M1322.592,926.086h-9.383a7.842,7.842,0,0,1-7.819-7.819h0a7.842,7.842,0,0,1,7.819-7.82h9.383a7.842,7.842,0,0,1,7.819,7.82h0A7.842,7.842,0,0,1,1322.592,926.086Z" transform="translate(-1019.486 -883.859)" fill="#966238"/>
        <path id="패스_813" data-name="패스 813" d="M1353.788,926.086h-9.383a7.842,7.842,0,0,1-7.819-7.819h0a7.842,7.842,0,0,1,7.819-7.82h9.383a7.843,7.843,0,0,1,7.82,7.82h0A7.842,7.842,0,0,1,1353.788,926.086Z" transform="translate(-1025.663 -883.859)" fill="#966238"/>
        <path id="패스_814" data-name="패스 814" d="M1384.987,926.086H1375.6a7.842,7.842,0,0,1-7.819-7.819h0a7.842,7.842,0,0,1,7.819-7.82h9.383a7.842,7.842,0,0,1,7.819,7.82h0A7.842,7.842,0,0,1,1384.987,926.086Z" transform="translate(-1031.84 -883.859)" fill="#966238"/>
        <path id="패스_815" data-name="패스 815" d="M1416.183,926.086H1406.8a7.842,7.842,0,0,1-7.819-7.819h0a7.842,7.842,0,0,1,7.819-7.82h9.383a7.843,7.843,0,0,1,7.82,7.82h0A7.842,7.842,0,0,1,1416.183,926.086Z" transform="translate(-1038.017 -883.859)" fill="#966238"/>
        <path id="패스_816" data-name="패스 816" d="M1073.011,926.086h-9.384a7.842,7.842,0,0,1-7.819-7.819h0a7.842,7.842,0,0,1,7.819-7.82h9.384a7.842,7.842,0,0,1,7.819,7.82h0A7.842,7.842,0,0,1,1073.011,926.086Z" transform="translate(-970.071 -883.859)" fill="#966238"/>
        <path id="패스_817" data-name="패스 817" d="M1104.208,926.086h-9.383a7.842,7.842,0,0,1-7.819-7.819h0a7.842,7.842,0,0,1,7.819-7.82h9.383a7.843,7.843,0,0,1,7.819,7.82h0A7.842,7.842,0,0,1,1104.208,926.086Z" transform="translate(-976.248 -883.859)" fill="#966238"/>
        <path id="패스_818" data-name="패스 818" d="M1135.406,926.086h-9.383a7.842,7.842,0,0,1-7.82-7.819h0a7.843,7.843,0,0,1,7.82-7.82h9.383a7.842,7.842,0,0,1,7.819,7.82h0A7.842,7.842,0,0,1,1135.406,926.086Z" transform="translate(-982.424 -883.859)" fill="#966238"/>
        <path id="패스_819" data-name="패스 819" d="M1166.6,926.086h-9.383a7.842,7.842,0,0,1-7.819-7.819h0a7.842,7.842,0,0,1,7.819-7.82h9.383a7.842,7.842,0,0,1,7.819,7.82h0A7.842,7.842,0,0,1,1166.6,926.086Z" transform="translate(-988.602 -883.859)" fill="#966238"/>
        <path id="패스_820" data-name="패스 820" d="M1197.8,926.086h-9.383a7.842,7.842,0,0,1-7.82-7.819h0a7.843,7.843,0,0,1,7.82-7.82h9.383a7.842,7.842,0,0,1,7.819,7.82h0A7.842,7.842,0,0,1,1197.8,926.086Z" transform="translate(-994.778 -883.859)" fill="#966238"/>
        <path id="패스_821" data-name="패스 821" d="M1229,926.086h-9.383a7.842,7.842,0,0,1-7.819-7.819h0a7.842,7.842,0,0,1,7.819-7.82H1229a7.842,7.842,0,0,1,7.819,7.82h0A7.842,7.842,0,0,1,1229,926.086Z" transform="translate(-1000.955 -883.859)" fill="#966238"/>
        <path id="패스_822" data-name="패스 822" d="M979.418,926.086h-9.383a7.842,7.842,0,0,1-7.819-7.819h0a7.842,7.842,0,0,1,7.819-7.82h9.383a7.842,7.842,0,0,1,7.819,7.82h0A7.842,7.842,0,0,1,979.418,926.086Z" transform="translate(-951.54 -883.859)" fill="#966238"/>
        <path id="패스_823" data-name="패스 823" d="M1010.615,926.086h-9.383a7.842,7.842,0,0,1-7.819-7.819h0a7.842,7.842,0,0,1,7.819-7.82h9.383a7.843,7.843,0,0,1,7.82,7.82h0A7.842,7.842,0,0,1,1010.615,926.086Z" transform="translate(-957.717 -883.859)" fill="#966238"/>
        <path id="패스_824" data-name="패스 824" d="M1041.813,926.086h-9.383a7.842,7.842,0,0,1-7.819-7.819h0a7.842,7.842,0,0,1,7.819-7.82h9.383a7.842,7.842,0,0,1,7.819,7.82h0A7.842,7.842,0,0,1,1041.813,926.086Z" transform="translate(-963.894 -883.859)" fill="#966238"/>
        <path id="패스_825" data-name="패스 825" d="M1241.67,938.477a2.681,2.681,0,1,1-2.68-2.681A2.681,2.681,0,0,1,1241.67,938.477Z" transform="translate(-1005.809 -888.878)" fill="#794e29"/>
        <path id="패스_826" data-name="패스 826" d="M1165.225,926.83a2.681,2.681,0,1,1-2.68-2.681A2.681,2.681,0,0,1,1165.225,926.83Z" transform="translate(-990.673 -886.572)" fill="#794e29"/>
        <path id="패스_827" data-name="패스 827" d="M1270.872,925.78a4.468,4.468,0,1,1-4.468-4.468A4.468,4.468,0,0,1,1270.872,925.78Z" transform="translate(-1010.883 -886.01)" fill="#794e29"/>
        <path id="패스_828" data-name="패스 828" d="M1326.466,938.257a3.575,3.575,0,1,1-3.574-3.574A3.575,3.575,0,0,1,1326.466,938.257Z" transform="translate(-1022.244 -888.657)" fill="#794e29"/>
        <ellipse id="타원_121" data-name="타원 121" cx="3.128" cy="3.128" rx="3.128" ry="3.128" transform="translate(325.668 38.876)" fill="#794e29"/>
        <path id="패스_829" data-name="패스 829" d="M1415.839,933.919a6.479,6.479,0,1,1-6.479-6.479A6.479,6.479,0,0,1,1415.839,933.919Z" transform="translate(-1038.789 -887.223)" fill="#794e29"/>
        <path id="패스_830" data-name="패스 830" d="M1452.254,926.778a2.681,2.681,0,1,1-2.681-2.681A2.681,2.681,0,0,1,1452.254,926.778Z" transform="translate(-1047.503 -886.561)" fill="#794e29"/>
        <ellipse id="타원_122" data-name="타원 122" cx="3.574" cy="3.574" rx="3.574" ry="3.574" transform="translate(436.921 42.897)" fill="#794e29"/>
        <path id="패스_831" data-name="패스 831" d="M1544.291,924.329a3.574,3.574,0,1,1-3.574-3.575A3.574,3.574,0,0,1,1544.291,924.329Z" transform="translate(-1065.372 -885.9)" fill="#794e29"/>
        <ellipse id="타원_123" data-name="타원 123" cx="4.468" cy="4.468" rx="4.468" ry="4.468" transform="translate(490.536 45.131)" fill="#794e29"/>
        <path id="패스_832" data-name="패스 832" d="M1625.874,930.372a2.792,2.792,0,1,1-2.792-2.793A2.792,2.792,0,0,1,1625.874,930.372Z" transform="translate(-1081.834 -887.251)" fill="#794e29"/>
        <path id="패스_833" data-name="패스 833" d="M1670.869,936.922a4.468,4.468,0,1,1-4.468-4.468A4.468,4.468,0,0,1,1670.869,936.922Z" transform="translate(-1090.079 -888.216)" fill="#794e29"/>
        <path id="패스_834" data-name="패스 834" d="M1707.742,927.225a3.127,3.127,0,1,1-3.127-3.128A3.128,3.128,0,0,1,1707.742,927.225Z" transform="translate(-1097.911 -886.561)" fill="#794e29"/>
        <ellipse id="타원_124" data-name="타원 124" cx="5.362" cy="5.362" rx="5.362" ry="5.362" transform="translate(631.277 42.897)" fill="#794e29"/>
        <ellipse id="타원_125" data-name="타원 125" cx="3.128" cy="3.128" rx="3.128" ry="3.128" transform="translate(663 38.876)" fill="#794e29"/>
        <path id="패스_835" data-name="패스 835" d="M1800.441,913.755a2.681,2.681,0,1,1-2.681-2.681A2.681,2.681,0,0,1,1800.441,913.755Z" transform="translate(-1116.442 -883.983)" fill="#794e29"/>
        <path id="패스_836" data-name="패스 836" d="M1753.529,961.539a1.787,1.787,0,1,1-1.787-1.787A1.787,1.787,0,0,1,1753.529,961.539Z" transform="translate(-1107.507 -893.621)" fill="#966238"/>
        <ellipse id="타원_126" data-name="타원 126" cx="4.468" cy="4.468" rx="4.468" ry="4.468" transform="translate(615.193 62.11)" fill="#966238"/>
        <path id="패스_837" data-name="패스 837" d="M1645.9,961.208a3.127,3.127,0,1,1-3.127-3.128A3.127,3.127,0,0,1,1645.9,961.208Z" transform="translate(-1085.667 -893.29)" fill="#966238"/>
        <path id="패스_838" data-name="패스 838" d="M1583.172,956.3a2.681,2.681,0,1,1-2.68-2.68A2.681,2.681,0,0,1,1583.172,956.3Z" transform="translate(-1073.424 -892.407)" fill="#966238"/>
        <path id="패스_839" data-name="패스 839" d="M1538.047,961.875a2.681,2.681,0,1,1-2.68-2.68A2.681,2.681,0,0,1,1538.047,961.875Z" transform="translate(-1064.489 -893.511)" fill="#966238"/>
        <ellipse id="타원_127" data-name="타원 127" cx="4.021" cy="4.021" rx="4.021" ry="4.021" transform="translate(420.389 59.876)" fill="#966238"/>
        <path id="패스_840" data-name="패스 840" d="M1440.44,963.21a1.787,1.787,0,1,1-1.788-1.787A1.788,1.788,0,0,1,1440.44,963.21Z" transform="translate(-1045.517 -893.952)" fill="#966238"/>
        <path id="패스_841" data-name="패스 841" d="M1399.9,955.2a4.915,4.915,0,1,1-4.915-4.915A4.914,4.914,0,0,1,1399.9,955.2Z" transform="translate(-1036.252 -891.746)" fill="#966238"/>
        <ellipse id="타원_128" data-name="타원 128" cx="2.234" cy="2.234" rx="2.234" ry="2.234" transform="translate(314.499 65.237)" fill="#966238"/>
        <path id="패스_842" data-name="패스 842" d="M1295.72,960.21a4.915,4.915,0,1,1-4.915-4.915A4.915,4.915,0,0,1,1295.72,960.21Z" transform="translate(-1015.626 -892.738)" fill="#966238"/>
        <ellipse id="타원_129" data-name="타원 129" cx="3.128" cy="3.128" rx="3.128" ry="3.128" transform="translate(247.926 60.769)" fill="#966238"/>
        <ellipse id="타원_130" data-name="타원 130" cx="5.921" cy="5.921" rx="5.921" ry="5.921" transform="translate(204.11 33.021)" fill="#794e29"/>
        <ellipse id="타원_131" data-name="타원 131" cx="1.974" cy="1.974" rx="1.974" ry="1.974" transform="translate(152.135 45.522)" fill="#794e29"/>
        <path id="패스_843" data-name="패스 843" d="M1035.1,927.013a5.264,5.264,0,1,1-5.263-5.263A5.263,5.263,0,0,1,1035.1,927.013Z" transform="translate(-963.886 -886.097)" fill="#794e29"/>
        <path id="패스_844" data-name="패스 844" d="M1085.957,934.4a5.263,5.263,0,1,1-5.263-5.264A5.263,5.263,0,0,1,1085.957,934.4Z" transform="translate(-973.956 -887.559)" fill="#794e29"/>
        <path id="패스_845" data-name="패스 845" d="M985.211,937.345a3.289,3.289,0,1,1-3.29-3.29A3.289,3.289,0,0,1,985.211,937.345Z" transform="translate(-954.79 -888.533)" fill="#794e29"/>
        <path id="패스_846" data-name="패스 846" d="M1082.335,958.015a2.631,2.631,0,1,1-2.631-2.631A2.632,2.632,0,0,1,1082.335,958.015Z" transform="translate(-974.281 -892.756)" fill="#966238"/>
        <path id="패스_847" data-name="패스 847" d="M1022.126,959.494a3.289,3.289,0,1,1-3.29-3.29A3.289,3.289,0,0,1,1022.126,959.494Z" transform="translate(-962.099 -892.918)" fill="#966238"/>
        <path id="패스_848" data-name="패스 848" d="M1125.658,960.809a4.605,4.605,0,1,1-4.605-4.605A4.6,4.6,0,0,1,1125.658,960.809Z" transform="translate(-982.077 -892.918)" fill="#966238"/>
        <ellipse id="타원_132" data-name="타원 132" cx="4.934" cy="4.934" rx="4.934" ry="4.934" transform="translate(179.767 61.312)" fill="#966238"/>
        <path id="패스_849" data-name="패스 849" d="M1234.1,956.374a2.632,2.632,0,1,1-2.631-2.631A2.632,2.632,0,0,1,1234.1,956.374Z" transform="translate(-1004.328 -892.431)" fill="#966238"/>
      </g>
      <line id="선_63" data-name="선 63" x2="1244.917" transform="translate(12.829 59.406)" fill="none" stroke="#06283d" stroke-linecap="round" stroke-miterlimit="10" stroke-width="3"/>
      <line id="선_64" data-name="선 64" x2="1247.069" transform="translate(10.676 113.859)" fill="none" stroke="#06283d" stroke-linecap="round" stroke-miterlimit="10" stroke-width="3"/>
    </g>
  </g>
</svg>
