<svg xmlns="http://www.w3.org/2000/svg" width="801.164" height="20.118" viewBox="0 0 801.164 20.118">
  <g id="그룹_148" data-name="그룹 148" transform="translate(-44.919 -5.485)">
    <path id="빼기_2" data-name="빼기 2" d="M230.164,20.118H0A25.239,25.239,0,0,0,2.081,10.06,25.24,25.24,0,0,0,0,0H230.164a25.353,25.353,0,0,0,0,20.117Z" transform="translate(44.919 5.486)" fill="rgba(219,230,230,0.25)"/>
    <path id="빼기_4" data-name="빼기 4" d="M229.163,20.118H0A25.239,25.239,0,0,0,2.081,10.06,25.236,25.236,0,0,0,0,0H229.163a25.353,25.353,0,0,0,0,20.117Z" transform="translate(330.919 5.486)" fill="rgba(219,230,230,0.15)"/>
    <path id="빼기_6" data-name="빼기 6" d="M230.164,20.118H0A25.239,25.239,0,0,0,2.081,10.06,25.24,25.24,0,0,0,0,0H230.164a25.353,25.353,0,0,0,0,20.117Z" transform="translate(615.919 5.486)" fill="rgba(219,230,230,0.1)"/>
  </g>
</svg>
